<svg width="11" height="30" viewBox="0 0 11 30" fill="none" xmlns="http://www.w3.org/2000/svg">
<path d="M5.59735 1.21397L5.55854 0.566322L4.55094 0.574991L4.64776 11.5302L4.12717 11.5347L4.14375 12.5492L4.64755 12.5448L4.69999 19.0413L4.18772 19.0372L4.19598 20.0602L4.70811 20.0473L4.71953 21.4626C4.30664 21.1321 3.81112 20.9252 3.28868 20.8651C2.76625 20.805 2.23762 20.894 1.76222 21.1223C1.28682 21.3505 0.883516 21.7088 0.597638 22.1569C0.311761 22.6051 0.154651 23.1253 0.143973 23.659C0.154493 24.4173 0.459007 25.1408 0.991476 25.6725C1.52394 26.2042 2.24144 26.5013 2.98837 26.4993L3.18142 26.4891C3.10354 26.699 3.06821 26.9226 3.07756 27.1466C3.08525 27.7471 3.32612 28.3202 3.7478 28.7413C4.16947 29.1624 4.73786 29.3973 5.32937 29.3951C5.9208 29.3858 6.48532 29.1424 6.90258 28.7166C7.31492 28.2859 7.5453 27.7087 7.54458 27.1081C7.54063 26.8848 7.50201 26.6636 7.43012 26.4526L7.62331 26.4595C8.08442 26.4714 8.54143 26.3686 8.95445 26.1599C9.36747 25.9513 9.72395 25.6432 9.99278 25.2626C10.2616 24.8819 10.4346 24.4403 10.4967 23.9762C10.5588 23.5121 10.508 23.0396 10.3489 22.6001C10.1898 22.1606 9.92717 21.7673 9.58389 21.4545C9.24061 21.1418 8.82714 20.9192 8.37957 20.8061C7.932 20.6929 7.46393 20.6928 7.01622 20.8056C6.56851 20.9184 6.15476 21.1407 5.81109 21.4532L5.69877 20.0217L6.16898 20.0177L6.16086 19.0117L5.74922 18.9896L5.69679 12.4932L6.09205 12.5665L6.09226 11.5519L5.62996 11.4962L5.59693 7.40394L9.71989 7.39405L9.67785 1.14476L5.59735 1.21397ZM6.49534 27.1598C6.4813 27.349 6.42348 27.5322 6.32659 27.6944C6.2297 27.8567 6.09647 27.9934 5.93773 28.0936C5.77899 28.1937 5.59922 28.2545 5.41305 28.2708C5.22687 28.2871 5.03954 28.2586 4.86629 28.1876C4.69303 28.1165 4.53875 28.005 4.41597 27.862C4.2932 27.719 4.2054 27.5486 4.15972 27.3646C4.11404 27.1806 4.11176 26.9883 4.15308 26.8033C4.19439 26.6182 4.27813 26.4457 4.39749 26.2996C4.50247 26.1918 4.62362 26.1016 4.75641 26.0322L4.76302 26.8507L5.77062 26.842L5.76415 26.0406C5.90105 26.0945 6.02488 26.1778 6.1272 26.2848C6.24382 26.3976 6.33661 26.5334 6.3999 26.6838C6.46319 26.8342 6.49566 26.9962 6.49534 27.1598ZM2.93847 25.5193C2.69755 25.5299 2.457 25.491 2.23122 25.4051C2.00545 25.3191 1.79908 25.1878 1.62446 25.019C1.40691 24.8019 1.25097 24.5294 1.17304 24.2299L1.70196 24.2169L1.68538 23.2024L1.16479 23.2069C1.23381 22.9045 1.38591 22.6283 1.60341 22.4102C1.81265 22.1931 2.07142 22.0318 2.35676 21.9406C2.64209 21.8495 2.94517 21.8312 3.23907 21.8875C3.53298 21.9438 3.80863 22.0729 4.04156 22.2634C4.27448 22.4539 4.45748 22.6998 4.5743 22.9793C4.69113 23.2589 4.73816 23.5634 4.71124 23.8659C4.68431 24.1683 4.58426 24.4594 4.41996 24.7132C4.25565 24.9671 4.03218 25.1758 3.76939 25.3209C3.50659 25.466 3.21259 25.543 2.91349 25.5451L2.93847 25.5193ZM7.54369 21.7964C7.94815 21.7852 8.34441 21.9132 8.66807 22.1596C8.99173 22.406 9.22377 22.7564 9.32646 23.1537L8.78908 23.1583L8.7972 24.1644L9.33458 24.1597C9.24364 24.4872 9.06473 24.7825 8.81789 25.0126C8.57105 25.2427 8.26602 25.3986 7.93695 25.4627C7.60788 25.5268 7.26776 25.4966 6.95466 25.3756C6.64157 25.2545 6.36785 25.0474 6.16417 24.7773C5.96048 24.5073 5.83486 24.1849 5.80137 23.8465C5.76788 23.508 5.82784 23.1667 5.97454 22.8608C6.12124 22.5549 6.34889 22.2965 6.63201 22.1144C6.91512 21.9324 7.24252 21.834 7.57755 21.8302L7.54369 21.7964ZM8.69943 4.76826L7.59107 4.7778L7.58322 3.80589L8.69158 3.79635L8.69943 4.76826ZM6.57583 2.79994L6.60006 5.80093L8.71601 5.78273L8.7125 6.38811L5.58035 6.38948L5.54635 2.17787L8.65311 2.15114L8.66639 2.75638L6.57583 2.79994Z" fill="#BD944E"/>
</svg>
