<svg width="49" height="58" viewBox="0 0 49 58" fill="none" xmlns="http://www.w3.org/2000/svg">
<path d="M40.6812 4.3532L36.0482 1.0016L29.966 4.49L24.4315 0.5L18.8172 4.5584L12.0731 0.8648L8.05636 4.2734L0 0.899V32.8988C0 42.1556 5.19213 50.6372 13.4539 54.8438C16.8773 56.588 20.6658 57.5 24.5114 57.4886C25.2303 57.4886 25.9378 57.4544 26.6453 57.3974C29.6237 57.1352 32.5335 56.3372 35.2152 55.0148C38.2848 53.51 41.0121 51.3782 43.2145 48.7562C44.5268 47.2058 45.6337 45.4958 46.5237 43.6832C48.167 40.3202 49.0114 36.638 49.0114 32.8988V0.9218L40.6812 4.3532ZM35.5005 4.1594L39.2205 6.827L33.2981 9.2666L30.3312 7.1348L35.5005 4.1594ZM24.4315 3.7376L32.5221 9.5858L37.1893 12.9602L37.874 13.439L41.925 16.3574V21.0884L33.6861 15.149L33.0128 14.6588L28.3798 11.3072L24.5114 8.5142L20.5973 11.3528L16.3638 9.5744L24.4315 3.7376ZM38.6271 13.1312L41.925 11.7746V15.5024L38.6271 13.1312ZM11.0347 13.3934L15.2911 15.149L7.07499 21.077V16.2662L11.0347 13.3934ZM7.0864 15.4112V11.7746L10.2816 13.0856L7.0864 15.4112ZM16.0671 15.4568L24.4315 18.8882L32.9101 15.4454H32.9215L41.925 21.932V32.876C41.8794 39.26 38.3761 45.1082 32.7732 48.1634C26.6339 51.5036 19.0911 50.8196 13.6479 46.442C9.52841 43.1474 7.10922 38.1542 7.09781 32.876V21.9548L16.0671 15.4568ZM27.6153 11.6036L24.4315 12.9488L21.3391 11.6492L24.5114 9.3692L27.6153 11.6036ZM12.7236 4.0568L18.452 7.1918L15.5878 9.2438L9.55123 6.7472L12.7236 4.0568ZM46.6493 33.161C46.6493 38.3138 44.8691 43.307 41.5941 47.2856C41.1833 47.7872 40.7496 48.2774 40.2818 48.7334C34.6674 54.365 26.4741 56.588 18.7944 54.5474C16.9686 54.0572 15.2112 53.339 13.568 52.4156C12.2101 51.6518 10.9434 50.7398 9.77946 49.7138C9.517 49.4858 9.26595 49.2578 9.0149 49.007C8.76385 48.7562 8.47857 48.4826 8.23894 48.1976C7.96507 47.9012 7.6912 47.5934 7.44015 47.2856C7.21192 47.0006 6.9837 46.727 6.77829 46.4534C3.91407 42.623 2.37354 37.9604 2.37354 33.1724V4.49L14.9488 9.734L20.6886 12.128L24.4429 13.7012L28.2999 12.1052L32.2482 14.9552L24.4429 18.1358L6.39031 10.7486V32.876C6.43596 39.887 10.4984 46.2482 16.843 49.2464C22.6856 52.0052 29.5666 51.4124 34.85 47.696C37.4518 45.872 39.5401 43.3982 40.898 40.5254C42.0277 38.1314 42.6211 35.5094 42.6211 32.8646V10.7486L37.9653 12.6524H37.9539L33.9599 9.7682L46.6493 4.49V33.161Z" fill="rgba(189, 148, 78, 0.4)"/>
</svg>
