<svg width="80" height="80" viewBox="0 0 80 80" fill="none" xmlns="http://www.w3.org/2000/svg">
<g clip-path="url(#clip0_101_163)">
<path fill-rule="evenodd" clip-rule="evenodd" d="M3.09539 3L39.6549 41.8548L49.9067 30.9055L50.4036 30.3841C49.1378 28.482 48.4504 26.2463 48.4357 23.9495L48.4356 23.9381L48.4358 23.9267C48.4792 21.3833 49.4527 18.9439 51.1725 17.0695L51.1804 17.0609L63.8352 3.59685L68.0862 8.10241L55.4484 21.5282C54.8536 22.2379 54.515 23.1271 54.4871 24.0526C54.5087 24.6268 54.6264 25.1903 54.8327 25.7206L67.4962 12.4167L71.7123 16.956L59.0356 30.2696C60.0808 30.8073 60.8974 30.8162 61.4776 30.6901C62.2571 30.5208 62.7738 30.0711 62.9498 29.8954L75.7561 16.2808L80 20.7861L67.2394 34.3908L67.2257 34.4042C65.971 35.6403 64.3932 36.4976 62.6735 36.8777L62.6704 36.8784C62.0555 37.0122 61.4281 37.0798 60.7989 37.0799C59.0093 37.0799 56.8901 36.5382 54.6406 34.8895L54.2126 35.3272L43.8894 46.3618L66.2015 70.0749L64.1257 72.2922L64.1237 72.2944L61.9634 74.5879L39.6583 50.8819L16.1167 76.0225L11.865 71.523L35.4142 46.3746L27.6308 38.0996L22.1307 43.9155L19.9778 41.6574C19.9778 41.6574 19.9779 41.6575 19.9778 41.6574C18.4709 40.0819 13.9475 35.3008 9.64779 30.2937C7.49891 27.7913 5.39485 25.2197 3.74854 22.9567C2.92564 21.8255 2.20828 20.7594 1.65467 19.8093C1.11139 18.877 0.689286 17.9955 0.50561 17.2438C-0.353987 13.8625 -0.112948 10.2952 1.19377 7.06018L1.20368 7.03566L3.09539 3ZM3.64041 6.41374L2.98507 7.8118C1.84108 10.6586 1.63227 13.7958 2.38922 16.7695L2.39182 16.7797C2.5072 17.2545 2.81519 17.9429 3.33293 18.8314C3.84162 19.7044 4.51802 20.7126 5.31928 21.814C6.92129 24.0162 8.98715 26.5429 11.1214 29.0282C15.3878 33.9966 19.8836 38.7487 21.3815 40.3149L21.3826 40.316L22.125 41.0946L27.6346 35.2687L38.0781 46.3716L14.5317 71.517L16.1103 73.1875L39.6549 48.0437L61.9642 71.7541L62.7077 70.9648L62.7097 70.9626L63.5376 70.0783L41.2259 46.3656L52.8089 33.9845L54.4843 32.2711L55.1731 32.842C57.3503 34.6469 59.2934 35.1374 60.7986 35.1375M3.64041 6.41374L39.6584 44.6931L51.3128 32.2455L51.3187 32.2393L52.9406 30.5374L52.4297 29.8773C51.1151 28.1788 50.3944 26.0959 50.3781 23.9484C50.4161 21.8858 51.2061 19.908 52.5999 18.3869C52.6011 18.3855 52.6024 18.3841 52.6037 18.3827L63.8379 6.43012L65.4172 8.10397L53.9986 20.2345L53.9824 20.2537C53.0848 21.3121 52.5773 22.6462 52.5446 24.0335L52.5439 24.0606L52.5448 24.0878C52.5891 25.4601 53.0317 26.79 53.8188 27.9151L54.4994 28.8881L67.4789 15.2522L69.046 16.9395L56.054 30.5842L56.9379 31.2383C58.8421 32.6473 60.5388 32.8818 61.8899 32.5883C63.1939 32.305 64.0343 31.5609 64.338 31.2541L64.3467 31.2453L75.7572 19.1147L77.3342 20.7889L65.8492 33.0336C64.8572 34.0059 63.6123 34.6806 62.2559 34.9807C61.7771 35.0848 61.2885 35.1374 60.7986 35.1375" fill="#C9D3D6"/>
<path fill-rule="evenodd" clip-rule="evenodd" d="M22.8507 33.5941L3.95398 12.3766L5.4045 11.0847L24.3012 32.3023L22.8507 33.5941Z" fill="#C9D3D6"/>
</g>
<defs>
<clipPath id="clip0_101_163">
<rect width="80" height="80" fill="white"/>
</clipPath>
</defs>
</svg>
