<svg width="80" height="80" viewBox="0 0 80 80" fill="none" xmlns="http://www.w3.org/2000/svg">
<path d="M72.718 71.6021C71.9422 71.602 71.175 71.4396 70.4657 71.1252C69.7564 70.8108 69.1208 70.3515 68.5997 69.7767C66.8628 68.0546 65.2096 68.1136 63.3694 69.7767C60.4812 72.3599 58.5524 72.3156 55.4969 69.6783C53.7306 68.153 52.1905 68.1727 50.4389 69.7176C47.4867 72.35 45.553 72.3549 42.5664 69.7176C40.7114 68.0841 39.1222 68.1727 37.3214 69.8062C34.5365 72.3057 32.4749 72.2664 29.6457 69.7767C27.8252 68.1628 26.2507 68.094 24.4056 69.7472C21.5075 72.3402 19.5689 72.3008 16.5331 69.6684C14.7716 68.1382 13.2316 68.1432 11.48 69.6684C8.50318 72.3008 6.5941 72.2762 3.60748 69.7029C2.88167 69.0462 1.99012 68.6004 1.02925 68.4138C0.902411 68.4064 0.778363 68.3735 0.664524 68.3171C0.550685 68.2607 0.449395 68.1819 0.366712 68.0855C0.284029 67.989 0.221654 67.8768 0.183317 67.7557C0.14498 67.6346 0.131469 67.507 0.143594 67.3805C0.24692 66.6523 0.852117 66.5441 1.46715 66.549C2.90388 66.549 3.98635 67.3067 4.94088 68.276C6.66791 70.0325 8.31129 69.9932 10.1515 68.3203C12.9462 65.7716 15.0964 65.8011 18.024 68.3892C19.7854 69.9489 21.3058 69.9538 23.0574 68.3892C25.9555 65.806 28.1007 65.7814 30.9299 68.3301C32.7701 69.9883 34.3397 69.9538 36.1553 68.2908C38.8467 65.8306 41.1051 65.8798 43.8555 68.2317C46.0844 70.1408 46.9455 70.131 49.2236 68.1727C51.8264 65.929 54.1439 65.9241 56.7664 68.1727C59.1183 70.19 59.876 70.1752 62.3116 68.089C64.7471 66.0028 67.1728 65.9684 69.692 68.089C72.2112 70.2097 72.8213 70.2195 75.4143 67.9857C76.4672 67.0853 77.5891 66.4407 79.016 66.5785C79.444 66.6228 79.8721 66.8048 79.8918 67.2969C79.8918 67.5822 79.7196 68.1186 79.5769 68.1382C77.1167 68.4335 75.9113 70.9969 73.579 71.5086C73.2297 71.548 72.9 71.5775 72.718 71.6021Z" fill="#C9D3D6"/>
<path d="M46.5125 71.8137C45.2627 71.8137 44.0179 71.1495 42.5024 69.816C40.736 68.2662 39.2206 68.2908 37.4296 69.8997C34.5955 72.4484 32.4699 72.4386 29.5571 69.8751C27.7612 68.2809 26.2408 68.2711 24.4843 69.8456C21.5567 72.4632 19.5295 72.4435 16.4494 69.7668C14.7372 68.2908 13.2808 68.2908 11.5685 69.7914C8.54744 72.4582 6.59408 72.4681 3.53366 69.8259C2.82614 69.1584 1.94426 68.7047 0.989865 68.5171C0.847009 68.506 0.707816 68.4665 0.580503 68.4007C0.453191 68.335 0.340339 68.2444 0.248612 68.1343C0.156884 68.0243 0.0881397 67.8969 0.0464369 67.7598C0.00473411 67.6228 -0.00908167 67.4787 0.00580521 67.3362C0.123892 66.4899 0.847176 66.3866 1.48189 66.3915C3.11051 66.3915 4.2471 67.3461 5.04911 68.1628C6.70725 69.8456 8.25714 69.8554 10.0777 68.2022C12.9019 65.6289 15.1603 65.6486 18.1223 68.2711C19.8297 69.7816 21.2812 69.7816 22.9836 68.2711C25.9112 65.6584 28.1696 65.6387 31.0234 68.212C32.7897 69.8062 34.3003 69.7964 36.0716 68.1727C38.763 65.7125 41.1149 65.7125 43.9441 68.1136C46.1287 69.9883 46.8962 69.9784 49.1399 68.0546C51.8018 65.7568 54.1832 65.7568 56.85 68.0546C59.1429 70.0227 59.8514 70.0227 62.2279 67.9709C64.752 65.8109 67.2122 65.8158 69.7609 67.9709C72.221 70.0571 72.7819 70.0473 75.3159 67.8676C76.1917 67.1197 77.3972 66.2784 79.0159 66.4309C79.6261 66.4899 80 66.795 80 67.2722C80 67.5478 79.8426 68.212 79.5719 68.2563C78.3074 68.4088 77.4021 69.1567 76.4426 69.9489C75.5963 70.6525 74.7205 71.3758 73.5889 71.6267C73.3662 71.6732 73.1412 71.7077 72.9148 71.73L72.7426 71.7546H72.6786C71.0992 71.7546 69.815 71.179 68.516 69.8948C66.848 68.2465 65.2883 68.2415 63.4629 69.8948C60.5451 72.4976 58.518 72.473 55.4231 69.7964C53.7158 68.3203 52.2544 68.3203 50.5422 69.8357C49.012 71.1445 47.7622 71.8137 46.5125 71.8137ZM27.0133 68.4138C27.9039 68.4138 28.7994 68.8369 29.7539 69.6783C32.5487 72.163 34.5118 72.1729 37.2574 69.7078C39.1418 68.0103 40.8148 67.9857 42.6697 69.6192C45.5776 72.1778 47.4473 72.1729 50.3601 69.6192C52.1659 68.0251 53.8043 68.0103 55.5855 69.575C58.5869 72.1729 60.4566 72.1975 63.2759 69.6783C65.2096 67.9513 66.9268 67.9562 68.6882 69.6783C69.1895 70.2387 69.8028 70.6877 70.4884 70.9962C71.1741 71.3047 71.9169 71.4659 72.6688 71.4693H72.7032H72.8754C73.0918 71.4473 73.3069 71.4144 73.52 71.3709C74.5926 71.1298 75.4094 70.4606 76.2704 69.7472C77.2151 68.9648 78.1893 68.153 79.5326 67.9955C79.6586 67.7802 79.728 67.5364 79.7343 67.287C79.7343 66.854 79.3112 66.7261 78.9766 66.6966C77.776 66.5785 76.728 66.9918 75.4733 68.0693C72.841 70.3278 72.1275 70.3425 69.569 68.1727C67.1088 66.0766 64.811 66.0766 62.3755 68.1727C59.9399 70.2687 59.0445 70.3032 56.6581 68.2563C54.1045 66.0717 51.8313 66.0766 49.2777 68.2563C46.9504 70.2589 46.0155 70.2687 43.7374 68.3154C40.9968 65.9684 38.8171 65.9831 36.2094 68.3695C34.3446 70.0817 32.6766 70.0916 30.797 68.4088C28.0269 65.9192 25.9456 65.9487 23.1017 68.4679C21.3058 70.0719 19.7018 70.0719 17.896 68.4679C15.0226 65.9241 12.9363 65.9044 10.1957 68.399C8.27683 70.1457 6.56456 70.1309 4.81294 68.3498C3.70587 67.1837 2.66277 66.6621 1.48189 66.6523H1.43761C0.679886 66.6523 0.345306 66.8639 0.271501 67.3756C0.197697 67.8873 0.645444 68.1874 1.04891 68.2612C2.05238 68.4553 2.98038 68.9295 3.72555 69.6291C6.67773 72.1581 8.52776 72.1532 11.4258 69.5946C13.2266 68.0054 14.8405 67.9955 16.6463 69.57C19.6329 72.168 21.5026 72.1876 24.3367 69.6488C25.0435 68.9174 25.9982 68.4769 27.0133 68.4138Z" fill="#C9D3D6"/>
<path d="M72.7179 78.6676C71.9421 78.6675 71.1749 78.5051 70.4656 78.1907C69.7564 77.8763 69.1207 77.417 68.5996 76.8422C66.8628 75.1201 65.2095 75.1792 63.3693 76.8422C60.4811 79.4254 58.5524 79.3811 55.4969 76.7438C53.7305 75.2136 52.1904 75.2382 50.4388 76.7832C47.4866 79.4155 45.553 79.4205 42.5663 76.7832C40.7114 75.1496 39.1221 75.2382 37.3213 76.8717C34.5364 79.3713 32.4748 79.3565 29.6456 76.8422C27.8251 75.2284 26.2506 75.1595 24.4055 76.8127C21.5075 79.4008 19.5689 79.3663 16.533 76.734C14.7716 75.2038 13.2315 75.2087 11.4799 76.7586C8.50311 79.3909 6.59404 79.3663 3.60742 76.793C2.87779 76.1128 1.97306 75.6494 0.994739 75.4547C0.86814 75.4467 0.744433 75.4134 0.630921 75.3567C0.517409 75.3001 0.416394 75.2213 0.333839 75.125C0.251284 75.0287 0.188862 74.9168 0.15026 74.796C0.111658 74.6751 0.097658 74.5478 0.109086 74.4214C0.212412 73.6932 0.817609 73.585 1.43265 73.5899C2.86937 73.5899 3.95184 74.3476 4.90638 75.3169C6.6334 77.0735 8.27678 77.0341 10.117 75.3612C12.9117 72.8125 15.0619 72.842 17.9894 75.4301C19.7509 76.9898 21.2713 76.9947 23.0229 75.4301C25.921 72.8519 28.0662 72.8273 30.8954 75.376C32.7356 77.0341 34.3052 76.9997 36.1207 75.3366C38.8121 72.8765 41.0706 72.9207 43.821 75.2776C46.0499 77.1866 46.911 77.1768 49.1891 75.2185C51.7919 72.9749 54.1094 72.9699 56.7319 75.2185C59.0838 77.2358 59.8415 77.2211 62.277 75.1349C64.7126 73.0487 67.1383 73.0142 69.6575 75.1349C72.1767 77.2555 72.7868 77.2654 75.3798 75.0315C76.4327 74.1311 77.5546 73.4866 78.9815 73.6243C79.4095 73.6686 79.8376 73.8507 79.8573 74.3427C79.8573 74.6281 79.6851 75.1644 79.5424 75.1841C77.0822 75.4793 75.8767 78.0428 73.5445 78.5545C73.2296 78.6135 72.9 78.643 72.7179 78.6676Z" fill="#C9D3D6"/>
<path d="M46.5125 78.8792C45.2627 78.8792 44.0179 78.215 42.5024 76.8767C40.736 75.3317 39.2206 75.3563 37.4296 76.9652C34.5955 79.514 32.4699 79.5041 29.5571 76.9652C27.7612 75.3711 26.2408 75.3612 24.4843 76.9357C21.5567 79.5533 19.5295 79.5336 16.4494 76.857C14.7372 75.3809 13.2808 75.3809 11.5685 76.857C8.54744 79.5238 6.59408 79.5336 3.53366 76.8914C2.82614 76.224 1.94426 75.7703 0.989865 75.5826C0.847009 75.5716 0.707816 75.532 0.580503 75.4663C0.453191 75.4005 0.340339 75.31 0.248612 75.1999C0.156884 75.0898 0.0881397 74.9625 0.0464369 74.8254C0.00473411 74.6883 -0.00908167 74.5443 0.00580521 74.4018C0.123892 73.5555 0.847176 73.462 1.48189 73.4571C3.11051 73.4571 4.2471 74.4116 5.04911 75.2284C6.70725 76.9111 8.25714 76.921 10.0777 75.2628C12.9019 72.6944 15.1603 72.7092 18.1223 75.3366C19.8297 76.8472 21.2812 76.8472 22.9836 75.3366C25.9112 72.719 28.1696 72.7043 31.0234 75.2776C32.7897 76.8717 34.3003 76.8619 36.0716 75.2382C38.763 72.7781 41.1149 72.7781 43.9441 75.1792C46.1287 77.0538 46.8962 77.044 49.1399 75.1201C51.8018 72.8223 54.1832 72.8174 56.85 75.1201C59.1429 77.0882 59.8514 77.0882 62.2279 75.0365C64.752 72.8765 67.2122 72.8765 69.7609 75.0365C72.221 77.1227 72.7819 77.1128 75.3159 74.9332C76.1917 74.1853 77.3972 73.3439 79.0159 73.4964C79.6261 73.5555 80 73.8605 80 74.3378C80 74.6133 79.8426 75.2776 79.5719 75.3219C78.3074 75.4744 77.4021 76.2223 76.4426 77.0144C75.5963 77.718 74.7205 78.4413 73.5889 78.6923C73.3662 78.7388 73.1412 78.7733 72.9148 78.7956H72.7426H72.6786C71.0992 78.7956 69.815 78.2199 68.516 76.9357C66.848 75.2874 65.2883 75.2825 63.4629 76.9357C60.5451 79.5386 58.518 79.5139 55.4231 76.8373C53.7158 75.3612 52.2544 75.3612 50.5422 76.8767C49.012 78.2101 47.7622 78.8792 46.5125 78.8792ZM27.0133 75.4793C27.9039 75.4793 28.7994 75.9024 29.7539 76.7438C32.5487 79.204 34.5118 79.2384 37.2574 76.7733C39.1418 75.0758 40.8148 75.0512 42.6697 76.6848C45.5776 79.2433 47.4473 79.2384 50.3601 76.6848C52.1659 75.0906 53.8043 75.0758 55.5855 76.6405C58.5869 79.2384 60.4566 79.263 63.2759 76.7438C65.2096 75.0168 66.9268 75.0217 68.6882 76.7438C69.1895 77.3038 69.8029 77.7522 70.4887 78.0599C71.1744 78.3676 71.9172 78.5277 72.6688 78.5299H72.7032H72.8754C73.0918 78.5079 73.3069 78.4751 73.52 78.4315C74.5926 78.1904 75.4094 77.5212 76.2704 76.8078C77.2151 76.0255 78.1893 75.2136 79.5326 75.0512C79.6592 74.838 79.7287 74.5956 79.7343 74.3476C79.7343 73.9146 79.3112 73.7867 78.9766 73.7572C77.776 73.6391 76.728 74.0524 75.4733 75.13C72.841 77.3884 72.1275 77.4031 69.569 75.2333C67.1088 73.1372 64.811 73.1372 62.3755 75.2333C59.9399 77.3293 59.0494 77.3638 56.6581 75.3169C54.1045 73.1323 51.8313 73.1372 49.2777 75.3169C46.9504 77.3195 46.0155 77.3293 43.7374 75.376C40.9968 73.029 38.8171 73.0438 36.2094 75.4301C34.3446 77.1424 32.6766 77.1522 30.797 75.4695C28.0269 72.9798 25.9456 73.0093 23.1017 75.5285C21.3058 77.1325 19.6968 77.1325 17.896 75.5285C15.0226 72.9847 12.9363 72.965 10.1957 75.4596C8.27683 77.2063 6.56456 77.1916 4.81294 75.4104C3.70587 74.2492 2.66277 73.7277 1.48189 73.7178H1.43761C0.679886 73.7178 0.345306 73.9294 0.271501 74.4362C0.262113 74.5461 0.274956 74.6568 0.309264 74.7617C0.343572 74.8665 0.398642 74.9634 0.471191 75.0465C0.54374 75.1296 0.632281 75.1972 0.731537 75.2454C0.830792 75.2936 0.938728 75.3212 1.04891 75.3268C2.05238 75.5208 2.98038 75.9951 3.72555 76.6946C6.67773 79.2237 8.52776 79.2187 11.4258 76.6602C13.2266 75.0709 14.8356 75.0611 16.6463 76.6602C19.6329 79.2581 21.5026 79.2778 24.3367 76.7389C25.0396 75.9985 25.9948 75.549 27.0133 75.4793V75.4793Z" fill="#C9D3D6"/>
<path d="M26.2801 4.70575C26.5755 4.93299 26.8401 5.19761 27.0674 5.493C28.1252 7.25446 29.1339 9.04053 30.1672 10.8118C30.551 11.4712 30.6198 12.0813 29.8621 12.4847C29.1831 12.8439 28.7649 12.3617 28.4697 11.8599C27.3872 10.0197 26.3146 8.16964 25.2862 6.29993C24.8188 5.43395 25.242 4.94192 26.2801 4.70575Z" fill="#C9D3D6"/>
<path d="M29.4194 12.7406C28.8486 12.7406 28.514 12.1698 28.3664 11.9238C27.3332 10.1722 26.2359 8.2828 25.183 6.35896C25.0774 6.20448 25.0099 6.02721 24.9859 5.84164C24.962 5.65607 24.9823 5.46747 25.0452 5.29126C25.1774 5.08776 25.3552 4.91781 25.5644 4.79484C25.7736 4.67188 26.0086 4.59926 26.2507 4.58273H26.3196L26.3688 4.62702L26.6099 4.83859C26.8353 5.00323 27.0315 5.20446 27.1905 5.43394C27.8793 6.58529 28.5583 7.76617 29.2176 8.90275C29.5768 9.52271 29.9311 10.1427 30.2902 10.7577C30.4126 10.9232 30.499 11.1124 30.5439 11.3132C30.5888 11.514 30.5912 11.722 30.551 11.9238C30.501 12.0747 30.42 12.2135 30.3133 12.3312C30.2065 12.449 30.0763 12.5432 29.9311 12.6077C29.7746 12.6948 29.5984 12.7405 29.4194 12.7406V12.7406ZM26.2408 4.86811C26.046 4.88044 25.8565 4.93636 25.6861 5.03174C25.5158 5.12712 25.3691 5.25952 25.2568 5.41918C25.2119 5.55928 25.2006 5.70794 25.2236 5.85322C25.2467 5.9985 25.3036 6.13634 25.3896 6.25563C26.4377 8.17455 27.5349 10.059 28.5681 11.8106C28.9519 12.465 29.316 12.6373 29.7835 12.3912C29.8973 12.3421 29.9998 12.27 30.0844 12.1794C30.1691 12.0888 30.2341 11.9817 30.2755 11.8648C30.3055 11.6936 30.3005 11.5182 30.2608 11.349C30.221 11.1799 30.1473 11.0206 30.0442 10.8807C29.6801 10.2608 29.3259 9.64572 28.9667 9.02576C28.3123 7.88425 27.6284 6.70338 26.9444 5.58155C26.7987 5.37583 26.621 5.19477 26.418 5.04524L26.2408 4.86811Z" fill="#C9D3D6"/>
<path d="M54.9507 6.30484C53.824 8.15487 52.5545 10.2854 51.231 12.3863C51.1678 12.4716 51.087 12.5424 50.9942 12.5939C50.9013 12.6454 50.7985 12.6764 50.6927 12.6848C50.5868 12.6931 50.4804 12.6788 50.3806 12.6426C50.2808 12.6064 50.1899 12.5492 50.1141 12.4749C49.9015 12.3378 49.752 12.1219 49.6985 11.8746C49.645 11.6274 49.6918 11.369 49.8287 11.1563C50.9407 9.21274 52.0379 7.25938 53.1843 5.33554C53.2349 5.22 53.3091 5.11631 53.4021 5.0311C53.4951 4.9459 53.6049 4.88107 53.7244 4.84077C53.8439 4.80046 53.9705 4.78558 54.0961 4.79707C54.2217 4.80856 54.3435 4.84616 54.4538 4.90748C54.872 5.12397 54.995 5.50775 54.9507 6.30484Z" fill="#C9D3D6"/>
<path d="M50.6848 12.8144C50.4486 12.812 50.2199 12.7306 50.0353 12.5832C49.8002 12.4273 49.6352 12.1858 49.5755 11.9101C49.5157 11.6344 49.566 11.3463 49.7155 11.1071L50.488 9.75399C51.3245 8.2779 52.1904 6.76245 53.0712 5.28144C53.1287 5.15025 53.2128 5.03244 53.3183 4.9355C53.4237 4.83857 53.5482 4.76462 53.6838 4.71835C53.8193 4.67208 53.963 4.65451 54.1058 4.66674C54.2485 4.67897 54.3871 4.72075 54.5128 4.78941C55.0393 5.06003 55.1229 5.57174 55.0786 6.30486V6.36883L54.2225 7.78095C53.3073 9.2964 52.3577 10.866 51.3589 12.4503C51.3051 12.5386 51.2337 12.6148 51.149 12.6741C51.0643 12.7334 50.9682 12.7744 50.8669 12.7947C50.8073 12.8093 50.7461 12.8159 50.6848 12.8144V12.8144ZM54.006 4.94194C53.8548 4.95549 53.7096 5.00792 53.5846 5.09413C53.4596 5.18034 53.359 5.29741 53.2926 5.43397C52.4168 6.91006 51.5508 8.43535 50.7094 9.90652L49.9418 11.2547C49.8315 11.4373 49.7959 11.6554 49.8427 11.8636C49.8895 12.0718 50.0149 12.2538 50.1928 12.3716C50.2726 12.4401 50.3661 12.4909 50.467 12.5206C50.568 12.5503 50.6741 12.5582 50.7783 12.5438C50.8469 12.5319 50.9122 12.5056 50.9699 12.4665C51.0276 12.4275 51.0763 12.3767 51.1129 12.3175C52.0969 10.738 53.081 9.16848 53.9765 7.65302C54.2619 7.17739 54.5423 6.71489 54.8179 6.2655C54.8621 5.43397 54.6899 5.17811 54.3898 5.02558C54.27 4.96868 54.1387 4.94006 54.006 4.94194V4.94194Z" fill="#C9D3D6"/>
<path d="M15.303 30.8867C14.3189 30.8867 13.3349 30.9162 12.3508 30.8867C11.7604 30.8572 11.1404 30.7095 11.1257 29.9518C11.1109 29.1941 11.6718 28.9284 12.277 28.9186C14.4288 28.8792 16.5773 28.8792 18.7226 28.9186C19.3475 28.9186 19.8887 29.2974 19.8346 29.9961C19.7805 30.6948 19.1457 30.8768 18.5504 30.8965C17.4728 30.931 16.4002 30.8965 15.3227 30.8965L15.303 30.8867Z" fill="#C9D3D6"/>
<path d="M17.2269 31.0195H15.303H15.1751H14.4272C13.7384 31.0195 13.0249 31.0195 12.3263 31.0195C11.9966 31.0195 10.9978 30.9605 10.9781 29.9567C10.9674 29.8125 10.9867 29.6675 11.035 29.5312C11.0833 29.3948 11.1594 29.2699 11.2586 29.1646C11.5252 28.9168 11.8788 28.7842 12.2426 28.7955C14.4321 28.7562 16.602 28.7562 18.6931 28.7955C18.8755 28.7922 19.0568 28.8258 19.2259 28.8943C19.395 28.9628 19.5485 29.0647 19.6772 29.1941C19.7739 29.3052 19.8465 29.4351 19.8905 29.5757C19.9346 29.7163 19.949 29.8644 19.933 30.0109C19.8789 30.6603 19.4066 30.9949 18.5209 31.0343C18.0929 31.0195 17.6451 31.0195 17.2269 31.0195ZM15.4605 30.7538H16.2428C16.9858 30.7538 17.7583 30.7538 18.5111 30.7538C19.2639 30.7538 19.628 30.4832 19.6673 29.9715C19.681 29.8597 19.671 29.7463 19.638 29.6386C19.6049 29.531 19.5495 29.4315 19.4755 29.3466C19.3728 29.2485 19.2516 29.1719 19.119 29.1212C18.9863 29.0705 18.8449 29.0468 18.703 29.0514C16.6168 29.012 14.4518 29.012 12.2623 29.0514C11.9623 29.0415 11.6699 29.1472 11.4455 29.3466C11.3715 29.4282 11.3146 29.5238 11.2783 29.6277C11.2419 29.7317 11.2269 29.8419 11.234 29.9518C11.234 30.4832 11.5735 30.7243 12.3361 30.7587C13.0987 30.7932 13.7384 30.7833 14.4223 30.7587H15.303L15.4605 30.7538Z" fill="#C9D3D6"/>
<path d="M50.4782 47.2565C50.7931 47.4238 51.0982 47.4828 51.2064 47.6599C52.4414 49.7215 53.6666 51.793 54.8524 53.8841C54.9475 54.0748 54.9653 54.2949 54.9021 54.4985C54.8388 54.702 54.6994 54.8732 54.5129 54.9764C54.4167 55.0593 54.3036 55.1202 54.1815 55.155C54.0594 55.1898 53.9312 55.1977 53.8058 55.178C53.6803 55.1584 53.5607 55.1117 53.4551 55.0412C53.3495 54.9707 53.2605 54.8781 53.1942 54.7698C51.9838 52.8016 50.7981 50.7843 49.6861 48.7473C49.2482 47.9305 49.9124 47.5812 50.4782 47.2565Z" fill="#C9D3D6"/>
<path d="M53.9076 55.3012C53.8406 55.3087 53.7729 55.3087 53.7059 55.3012C53.5766 55.2717 53.4546 55.2164 53.3472 55.1386C53.2399 55.0608 53.1493 54.9622 53.081 54.8485C51.664 52.5212 50.552 50.6072 49.5729 48.8162C49.0808 47.9256 49.8238 47.4976 50.365 47.1827L50.4782 47.1187L50.5422 47.1532C50.6398 47.2042 50.7399 47.2502 50.8423 47.2909C51.0359 47.3373 51.2089 47.4463 51.3343 47.6009C52.7563 49.9725 53.9175 51.9504 54.9852 53.83C55.0971 54.049 55.1202 54.3027 55.0496 54.5383C54.979 54.7739 54.8202 54.9731 54.6063 55.0945C54.3999 55.2329 54.1561 55.305 53.9076 55.3012V55.3012ZM50.4634 47.3942C49.809 47.7731 49.44 48.0536 49.7795 48.6735C50.7636 50.4596 51.8706 52.3736 53.2877 54.696C53.3361 54.7794 53.4013 54.8517 53.4793 54.9085C53.5572 54.9653 53.6461 55.0052 53.7403 55.0256C53.8589 55.0474 53.9808 55.0438 54.0978 55.0149C54.2149 54.9861 54.3245 54.9327 54.4193 54.8583C54.5785 54.7734 54.6986 54.6302 54.7545 54.4587C54.8105 54.2872 54.7979 54.1007 54.7195 53.9382C53.6518 52.0587 52.4955 50.0857 51.0735 47.7141C50.9751 47.616 50.8531 47.5448 50.7193 47.5074C50.6848 47.473 50.5717 47.4385 50.4831 47.3942H50.4634Z" fill="#C9D3D6"/>
<path d="M41.0115 5.52252C41.0115 6.60498 41.0115 7.68253 41.0115 8.76007C41.0231 8.88449 41.0077 9.00995 40.9662 9.12782C40.9247 9.2457 40.8582 9.3532 40.7713 9.44295C40.6843 9.53271 40.579 9.60258 40.4625 9.64777C40.346 9.69296 40.2211 9.71241 40.0964 9.70477C39.9706 9.71575 39.8439 9.70031 39.7245 9.65945C39.6051 9.61858 39.4955 9.55319 39.4028 9.46747C39.3102 9.38175 39.2365 9.2776 39.1864 9.16171C39.1364 9.04582 39.1111 8.92074 39.1123 8.79451C39.0697 6.55414 39.0697 4.31704 39.1123 2.08323C39.1093 1.95497 39.133 1.8275 39.1819 1.70891C39.2309 1.59031 39.3039 1.48319 39.3965 1.39435C39.489 1.30551 39.599 1.23688 39.7195 1.19284C39.84 1.1488 39.9683 1.13031 40.0964 1.13853C40.8836 1.10901 41.0509 1.67484 41.0804 2.28988C41.1099 3.36742 41.0804 4.44497 41.0804 5.52252H41.0115Z" fill="#C9D3D6"/>
<path d="M40.0866 9.8327C39.9442 9.84364 39.8012 9.82482 39.6665 9.77744C39.5318 9.73006 39.4085 9.65515 39.3043 9.55749C39.2002 9.45983 39.1175 9.34156 39.0616 9.2102C39.0057 9.07884 38.9777 8.93727 38.9795 8.79452C38.9352 6.65911 38.9352 4.46466 38.9795 2.07831C38.9775 1.93732 39.0038 1.79736 39.0567 1.66665C39.1096 1.53595 39.188 1.41714 39.2875 1.3172C39.387 1.21727 39.5054 1.13823 39.6359 1.08473C39.7664 1.03124 39.9062 1.00436 40.0472 1.00569C40.1833 0.990949 40.321 1.00478 40.4515 1.04629C40.582 1.08781 40.7024 1.15609 40.8049 1.24678C41.0502 1.53523 41.1753 1.90691 41.1543 2.28496C41.1543 3.04761 41.1543 3.82502 41.1543 4.57782C41.1543 4.89272 41.1543 5.20762 41.1543 5.52252V5.65537C41.1543 5.92598 41.1543 6.1966 41.1543 6.46722C41.1543 7.22002 41.1543 7.99743 41.1543 8.765C41.1671 8.90842 41.1483 9.05291 41.0991 9.18827C41.05 9.32363 40.9718 9.44656 40.87 9.54838C40.7681 9.6502 40.6452 9.72844 40.5098 9.77756C40.3745 9.82669 40.23 9.84551 40.0866 9.8327ZM40.1112 1.26646H40.057C39.9476 1.26174 39.8384 1.27948 39.736 1.3186C39.6337 1.35772 39.5405 1.41738 39.4621 1.49391C39.3838 1.57044 39.3219 1.66221 39.2804 1.76357C39.2388 1.86492 39.2185 1.97371 39.2206 2.08323C39.1862 4.46466 39.1911 6.65911 39.2206 8.7896C39.2195 8.89881 39.2413 9.00704 39.2845 9.10734C39.3277 9.20763 39.3915 9.29775 39.4717 9.37191C39.5519 9.44606 39.6467 9.50261 39.7501 9.53791C39.8534 9.5732 39.963 9.58647 40.0718 9.57685C40.1796 9.5832 40.2875 9.56596 40.388 9.52635C40.4885 9.48674 40.5791 9.42569 40.6536 9.34748C40.7281 9.26926 40.7846 9.17574 40.8192 9.07344C40.8538 8.97115 40.8658 8.86253 40.8541 8.75516C40.8541 7.99251 40.8541 7.22002 40.8541 6.47214C40.8541 6.15724 40.8541 5.83742 40.8541 5.52252V5.39459C40.8541 5.12398 40.8541 4.84844 40.8541 4.5729C40.8541 3.82502 40.8541 3.05253 40.8541 2.29481C40.8748 2.14423 40.8654 1.99105 40.8266 1.84411C40.7877 1.69717 40.7202 1.55937 40.6278 1.43867C40.5574 1.37708 40.4755 1.33013 40.3868 1.30056C40.2981 1.27099 40.2044 1.2594 40.1112 1.26646V1.26646Z" fill="#C9D3D6"/>
<path d="M64.5897 31.0441C63.5171 31.0441 62.4444 31.0786 61.3767 31.0441C61.2311 31.0568 61.0843 31.0384 60.9464 30.9899C60.8084 30.9414 60.6824 30.8641 60.5767 30.763C60.471 30.662 60.388 30.5395 60.3334 30.4039C60.2788 30.2683 60.2537 30.1225 60.2598 29.9764C60.2598 29.2285 60.8749 29.0662 61.485 29.0662C63.5417 29.0662 65.6033 29.0662 67.6649 29.0662C68.2405 29.0662 68.8851 29.1695 68.8999 29.9518C68.8999 30.8276 68.2504 31.0244 67.5566 31.049C66.5726 31.0884 65.5885 31.049 64.6044 31.049L64.5897 31.0441Z" fill="#C9D3D6"/>
<path d="M66.356 31.1966H64.5896H64.4617H63.64C62.8971 31.1966 62.1295 31.1966 61.3718 31.1966C61.2089 31.2102 61.045 31.1887 60.8911 31.1337C60.7371 31.0787 60.5968 30.9914 60.4793 30.8777C60.3619 30.764 60.2702 30.6266 60.2102 30.4745C60.1503 30.3224 60.1236 30.1593 60.1318 29.9961C60.1318 29.3121 60.6239 28.9628 61.4849 28.9579C63.453 28.9579 65.5442 28.9579 67.6648 28.9579C68.0683 28.9579 69.013 28.9579 69.0277 29.9715C69.0277 31.1425 67.9305 31.1868 67.5517 31.2015C67.1728 31.2163 66.7595 31.1966 66.356 31.1966ZM64.7176 30.926H65.4753C66.1592 30.926 66.8628 30.926 67.5517 30.926C68.4029 30.8965 68.7817 30.5963 68.7719 29.9419C68.762 29.2875 68.3192 29.1891 67.6599 29.1793C65.5442 29.1498 63.4432 29.1793 61.4849 29.1793C60.742 29.1793 60.4074 29.4253 60.3926 29.9665C60.3917 30.0938 60.417 30.2198 60.4667 30.3369C60.5165 30.454 60.5898 30.5596 60.682 30.6472C60.7743 30.7349 60.8835 30.8026 61.003 30.8464C61.1225 30.8901 61.2497 30.9088 61.3767 30.9014C62.1246 30.9358 62.8872 30.926 63.6253 30.9014H64.5798L64.7176 30.926Z" fill="#C9D3D6"/>
<path d="M30.3838 48.644C29.193 50.5826 27.8744 52.782 26.482 54.9321C26.2605 55.2716 25.7242 55.188 25.37 54.8632C25.1999 54.738 25.0805 54.5558 25.0335 54.3499C24.9866 54.144 25.0152 53.928 25.1141 53.7414C26.2655 51.7175 27.4349 49.7068 28.6223 47.7091C28.7221 47.5229 28.8884 47.381 29.088 47.3117C29.2877 47.2424 29.5061 47.2508 29.6998 47.3352C30.1033 47.5123 30.3592 47.8321 30.3838 48.644Z" fill="#C9D3D6"/>
<path d="M26.044 55.2815C25.7597 55.2694 25.4892 55.1559 25.2814 54.9616C25.0854 54.8191 24.9488 54.6092 24.898 54.3722C24.8472 54.1353 24.8856 53.8879 25.0058 53.6774C26.2162 51.542 27.3627 49.569 28.5091 47.6452C28.6271 47.4327 28.8195 47.2714 29.0494 47.1923C29.2792 47.1133 29.5302 47.1221 29.7539 47.2171C30.2459 47.4385 30.487 47.8617 30.5166 48.6391V48.6784L30.5116 48.7325C30.2213 49.2246 29.9261 49.6871 29.626 50.1791C28.6419 51.7585 27.6579 53.3921 26.6049 55.0207C26.5561 55.0961 26.4909 55.1595 26.4143 55.2063C26.3376 55.2532 26.2515 55.2822 26.1621 55.2913L26.044 55.2815ZM29.3554 47.409C29.2278 47.4143 29.1037 47.4524 28.9951 47.5196C28.8865 47.5868 28.797 47.6809 28.7354 47.7928C27.5841 49.7166 26.4376 51.6847 25.2272 53.8054C25.1368 53.9689 25.1104 54.1601 25.1531 54.342C25.1959 54.5239 25.3047 54.6833 25.4585 54.7894C25.5445 54.8737 25.6471 54.9391 25.7598 54.9814C25.8724 55.0238 25.9927 55.0422 26.1129 55.0354C26.1653 55.0323 26.2162 55.0168 26.2615 54.9903C26.3068 54.9638 26.3452 54.927 26.3737 54.8829C27.4266 53.2494 28.4254 51.6208 29.3898 50.0463C29.685 49.5542 29.9704 49.0868 30.2558 48.6292C30.2164 47.8321 29.9458 47.6009 29.6506 47.4779C29.5591 47.4298 29.4585 47.4013 29.3554 47.3942V47.409Z" fill="#C9D3D6"/>
<path d="M16.2822 14.9892C18.1666 16.1553 20.3414 17.4493 22.462 18.8369C22.7769 19.0386 22.7327 19.6094 22.4178 19.9587C22.2471 20.1415 22.0159 20.2563 21.7671 20.2816C21.5183 20.3069 21.2687 20.2412 21.0647 20.0965C19.1999 19.0534 17.3548 17.9709 15.5097 16.8934C15.2828 16.7878 15.1021 16.6032 15.0016 16.374C14.901 16.1449 14.8875 15.8869 14.9635 15.6485C15.0865 15.1958 15.4457 15.0286 16.2822 14.9892Z" fill="#C9D3D6"/>
<path d="M21.7093 20.4113C21.4583 20.4021 21.214 20.3275 21.0007 20.1948C19.3131 19.2501 17.6156 18.2562 15.9722 17.2968L15.4457 16.9917C15.1943 16.8709 14.9945 16.6641 14.8826 16.4086C14.7706 16.1531 14.754 15.866 14.8356 15.5993C14.998 15.0236 15.5048 14.8809 16.2773 14.8465H16.3166H16.3511C16.7988 15.122 17.2662 15.4123 17.7484 15.7026C19.3032 16.6571 20.9171 17.6412 22.531 18.6941C22.6067 18.7461 22.6702 18.8139 22.7169 18.893C22.7637 18.972 22.7926 19.0603 22.8016 19.1517C22.8161 19.3068 22.7978 19.4632 22.7478 19.6108C22.6978 19.7583 22.6172 19.8936 22.5113 20.0079C22.4156 20.1301 22.2941 20.2296 22.1554 20.2994C22.0168 20.3691 21.8644 20.4073 21.7093 20.4113V20.4113ZM16.2428 15.122C15.3867 15.1663 15.1751 15.3582 15.0816 15.6829C15.0129 15.8943 15.0251 16.1236 15.1161 16.3264C15.207 16.5292 15.3701 16.6909 15.5737 16.7801L16.0952 17.0901C17.7386 18.0447 19.4361 19.0582 21.1238 19.9833C21.3024 20.1114 21.5214 20.1705 21.7403 20.1497C21.9592 20.1289 22.1631 20.0296 22.3145 19.8701C22.3971 19.7827 22.4601 19.6787 22.4991 19.565C22.5382 19.4512 22.5524 19.3305 22.5408 19.2108C22.5379 19.1568 22.5231 19.1042 22.4976 19.0566C22.4721 19.009 22.4365 18.9676 22.3932 18.9352C20.7793 17.8872 19.1704 16.9032 17.6107 15.9486L16.2428 15.122Z" fill="#C9D3D6"/>
<path d="M65.1752 43.9058C64.8898 45.0473 64.2305 45.1211 63.458 44.693C61.6572 43.709 59.881 42.656 58.1047 41.6179C57.5684 41.303 57.2191 40.8404 57.4897 40.1811C57.5311 40.0624 57.5987 39.9545 57.6875 39.8654C57.7764 39.7764 57.8842 39.7086 58.0028 39.667C58.1215 39.6254 58.2481 39.6111 58.373 39.6251C58.498 39.6392 58.6182 39.6812 58.7247 39.7481C60.742 40.8601 62.7347 42.0164 64.7127 43.1923C64.9538 43.3203 65.0522 43.709 65.1752 43.9058Z" fill="#C9D3D6"/>
<path d="M64.2304 45.062C63.9345 45.0484 63.6468 44.9604 63.3939 44.8062C61.5439 43.7729 59.7332 42.72 58.0407 41.7261C57.342 41.3177 57.1058 40.742 57.3715 40.1319C57.4202 39.9981 57.4973 39.8765 57.5975 39.7754C57.6977 39.6743 57.8187 39.5962 57.9521 39.5464C58.0901 39.5029 58.2356 39.4883 58.3795 39.5035C58.5235 39.5187 58.6627 39.5635 58.7885 39.6349C60.5599 40.619 62.4591 41.7064 64.7765 43.0791C64.9616 43.223 65.103 43.4155 65.1849 43.6351C65.2194 43.7089 65.2538 43.7778 65.2833 43.832L65.3129 43.8812V43.9304C65.284 44.1486 65.205 44.3573 65.0821 44.5399C64.9592 44.7226 64.7957 44.8744 64.6043 44.9833C64.4867 45.0357 64.3592 45.0625 64.2304 45.062V45.062ZM58.2621 39.7579C58.1868 39.7566 58.1119 39.7683 58.0407 39.7924C57.9413 39.829 57.8513 39.8873 57.7773 39.9631C57.7032 40.0388 57.647 40.1301 57.6126 40.2303C57.3961 40.7223 57.5831 41.1602 58.1735 41.5046C59.8661 42.4887 61.6718 43.5515 63.5219 44.5798C63.6618 44.6819 63.8233 44.7505 63.9939 44.7804C64.1645 44.8103 64.3397 44.8006 64.5059 44.752C64.6521 44.6628 64.7768 44.5425 64.8712 44.3996C64.9656 44.2568 65.0273 44.0949 65.0521 43.9254C65.0226 43.8713 64.993 43.8172 64.9635 43.7532C64.9049 43.5802 64.7993 43.4268 64.6585 43.3104C62.3459 41.9278 60.4467 40.8503 58.6803 39.8662C58.553 39.7937 58.4086 39.7563 58.2621 39.7579Z" fill="#C9D3D6"/>
<path d="M40.9574 54.691C40.9574 55.6751 40.9574 56.6592 40.9574 57.6777C40.9574 58.3271 40.6425 58.8192 39.9045 58.7798C39.7804 58.7768 39.6581 58.7486 39.5453 58.6969C39.4324 58.6452 39.3312 58.5711 39.2479 58.479C39.1646 58.3869 39.1009 58.2789 39.0607 58.1614C39.0204 58.044 39.0045 57.9196 39.0139 57.7958C38.9942 55.6407 38.9942 53.4856 39.0139 51.3305C39.0139 50.681 39.3042 50.1693 40.0472 50.2283C40.7901 50.2874 40.9623 50.8434 40.9673 51.4682C40.9673 52.536 40.9574 53.6135 40.9574 54.691Z" fill="#C9D3D6"/>
<path d="M39.9783 58.9127H39.8898C39.7475 58.9105 39.6072 58.8791 39.4777 58.8202C39.3482 58.7613 39.2322 58.6763 39.137 58.5706C39.0419 58.4648 38.9696 58.3405 38.9247 58.2055C38.8798 58.0704 38.8633 57.9276 38.8762 57.7859C38.8762 55.6161 38.8762 53.4364 38.8762 51.3207C38.8654 51.1408 38.8917 50.9606 38.9535 50.7913C39.0153 50.622 39.1112 50.4672 39.2354 50.3366C39.3471 50.2414 39.4774 50.1704 39.618 50.128C39.7586 50.0857 39.9064 50.0729 40.0521 50.0906C40.7361 50.1447 41.0854 50.5826 41.0953 51.4633C41.0953 52.2358 41.0953 53.0132 41.0953 53.7906V54.696C41.0953 54.9961 41.0953 55.3012 41.0953 55.6013C41.0953 56.2852 41.0953 56.9888 41.0953 57.6875C41.1033 57.8684 41.0742 58.0489 41.0099 58.2182C40.9456 58.3874 40.8474 58.5417 40.7213 58.6716C40.5153 58.847 40.2481 58.9337 39.9783 58.9127V58.9127ZM39.9242 50.3415C39.7341 50.3315 39.5474 50.395 39.4027 50.5186C39.3056 50.6272 39.2312 50.7541 39.1839 50.8918C39.1366 51.0295 39.1173 51.1754 39.1271 51.3207C39.1271 53.4364 39.1271 55.6112 39.1271 57.7859C39.1155 57.8942 39.1266 58.0038 39.1597 58.1076C39.1928 58.2113 39.2473 58.307 39.3195 58.3886C39.3918 58.4701 39.4803 58.5356 39.5793 58.581C39.6784 58.6263 39.7858 58.6505 39.8947 58.6519C40.0068 58.664 40.1202 58.6537 40.2284 58.6216C40.3365 58.5895 40.4371 58.5363 40.5245 58.4649C40.7198 58.2485 40.8223 57.964 40.8099 57.6728C40.8099 56.9839 40.8099 56.2803 40.8099 55.5964V53.7857C40.8099 53.0083 40.8099 52.2358 40.8099 51.4584C40.8099 50.681 40.554 50.3907 40.0079 50.3464L39.9242 50.3415Z" fill="#C9D3D6"/>
<path d="M65.2539 16.0126C65.1358 16.2192 65.0522 16.6079 64.816 16.7506C62.8479 17.9413 60.8634 19.0894 58.8624 20.1948C58.7571 20.263 58.639 20.309 58.5153 20.33C58.3916 20.3511 58.2649 20.3468 58.1429 20.3173C58.0209 20.2878 57.9062 20.2339 57.8058 20.1587C57.7053 20.0835 57.6212 19.9887 57.5586 19.8799C57.4914 19.7741 57.4467 19.6557 57.4272 19.5319C57.4077 19.4081 57.4138 19.2817 57.4452 19.1603C57.4765 19.039 57.5325 18.9254 57.6095 18.8266C57.6866 18.7278 57.7831 18.6459 57.8931 18.5859C59.8613 17.4296 61.8589 16.2586 63.8861 15.181C64.4617 14.8908 64.9981 15.2303 65.2539 16.0126Z" fill="#C9D3D6"/>
<path d="M58.3359 20.4901C58.2397 20.491 58.1438 20.4794 58.0506 20.4556C57.9215 20.4192 57.8012 20.3567 57.6971 20.2721C57.5931 20.1875 57.5074 20.0825 57.4454 19.9636C57.3687 19.8428 57.3177 19.7076 57.2956 19.5663C57.2734 19.4249 57.2805 19.2806 57.3165 19.1422C57.3525 19.0037 57.4166 18.8742 57.5048 18.7615C57.593 18.6489 57.7034 18.5556 57.8291 18.4875L58.2523 18.2415C60.0679 17.1787 61.9376 16.0864 63.8221 15.0777C63.9425 15.0082 64.0768 14.966 64.2154 14.9541C64.354 14.9422 64.4935 14.9609 64.6241 15.0088C64.8101 15.1054 64.9735 15.2404 65.1033 15.405C65.2331 15.5696 65.3264 15.7599 65.3769 15.9634V16.0175L65.3474 16.0667C65.3096 16.1324 65.2783 16.2016 65.2539 16.2734C65.1881 16.504 65.0501 16.7075 64.8602 16.854C62.8921 18.0545 60.8699 19.2206 58.9067 20.3228C58.7329 20.4242 58.537 20.4816 58.3359 20.4901V20.4901ZM64.3043 15.2204C64.1781 15.2218 64.0543 15.2557 63.9451 15.3188C62.0655 16.3029 60.1958 17.4149 58.3851 18.4727L57.9571 18.7237C57.8616 18.7749 57.7777 18.8454 57.7109 18.9308C57.6441 19.0161 57.5957 19.1144 57.5689 19.2194C57.5421 19.3244 57.5374 19.4339 57.5551 19.5408C57.5727 19.6477 57.6125 19.7498 57.6717 19.8406C57.7183 19.9281 57.7819 20.0053 57.8588 20.0679C57.9357 20.1304 58.0243 20.1769 58.1194 20.2047C58.3499 20.2622 58.5938 20.2269 58.7984 20.1063C60.7666 19.0041 62.7642 17.838 64.7471 16.6621C64.883 16.5391 64.9818 16.3806 65.0325 16.2045L65.1112 16.0224C65.0721 15.8641 65.0002 15.7157 64.9002 15.5869C64.8002 15.4581 64.6743 15.3517 64.5306 15.2745C64.4594 15.2418 64.3825 15.2234 64.3043 15.2204V15.2204Z" fill="#C9D3D6"/>
<path d="M22.5555 40.2647C22.5828 40.533 22.526 40.8032 22.3929 41.0377C22.2597 41.2722 22.0569 41.4595 21.8125 41.5735C20.0953 42.5576 18.3683 43.5712 16.6413 44.5257C16.1247 44.816 15.4949 45.0178 15.0668 44.4322C14.9805 44.3145 14.9215 44.1789 14.8941 44.0355C14.8667 43.8921 14.8715 43.7444 14.9083 43.6031C14.945 43.4618 15.0127 43.3304 15.1065 43.2185C15.2003 43.1066 15.3179 43.017 15.4506 42.9562C17.2957 41.854 19.1507 40.7568 21.04 39.7284C21.6551 39.384 22.339 39.4972 22.5555 40.2647Z" fill="#C9D3D6"/>
<path d="M15.7507 44.9489C15.5921 44.9486 15.4359 44.91 15.2954 44.8363C15.1549 44.7626 15.0343 44.6561 14.9438 44.5257C14.8557 44.4045 14.7943 44.2659 14.7638 44.1192C14.7332 43.9724 14.7342 43.8209 14.7667 43.6745C14.8107 43.502 14.8903 43.3407 15.0005 43.2008C15.1107 43.061 15.2489 42.9458 15.4063 42.8627C17.3744 41.6916 19.1458 40.6387 21.0007 39.63C21.166 39.5257 21.3528 39.46 21.547 39.4378C21.7412 39.4157 21.938 39.4376 22.1225 39.5021C22.2693 39.5699 22.3983 39.671 22.4991 39.7975C22.5999 39.9239 22.6697 40.0721 22.7031 40.2303V40.2303C22.7323 40.5223 22.6704 40.8163 22.526 41.0717C22.3815 41.3272 22.1615 41.5317 21.8962 41.6572C20.0708 42.7249 18.4175 43.6844 16.725 44.6094C16.4362 44.8072 16.0999 44.9244 15.7507 44.9489ZM21.6895 39.6842C21.4746 39.6916 21.2649 39.7525 21.0794 39.8613C19.2294 40.8454 17.4581 41.9131 15.4949 43.0841C15.3691 43.1489 15.2581 43.2393 15.1692 43.3495C15.0802 43.4596 15.0152 43.5871 14.9783 43.7237C14.9584 43.8372 14.9635 43.9537 14.9932 44.065C15.0229 44.1763 15.0766 44.2798 15.1505 44.3683C15.4506 44.7767 15.9033 44.7963 16.5626 44.4273C18.2503 43.4826 19.8986 42.5232 21.7289 41.4751C21.9503 41.3755 22.1349 41.2089 22.2567 40.9988C22.3785 40.7887 22.4314 40.5458 22.4079 40.3041C22.3825 40.1853 22.3303 40.074 22.2552 39.9784C22.1802 39.8829 22.0843 39.8058 21.9749 39.753C21.8911 39.7145 21.8012 39.6912 21.7092 39.6842H21.6895Z" fill="#C9D3D6"/>
<path d="M40.18 13.6902C36.9577 13.6717 33.8024 14.6107 31.1145 16.3881C28.4265 18.1655 26.3271 20.7012 25.0824 23.6736C23.8378 26.6459 23.504 29.921 24.1234 33.0833C24.7429 36.2457 26.2876 39.1528 28.5617 41.4359C30.8359 43.719 33.7368 45.2752 36.8967 45.9071C40.0566 46.539 43.3329 46.2182 46.3102 44.9853C49.2874 43.7524 51.8314 41.6629 53.6194 38.9821C55.4074 36.3012 56.3588 33.1496 56.3531 29.9272C56.3402 25.6359 54.6341 21.5231 51.6057 18.4827C48.5773 15.4423 44.4713 13.72 40.18 13.6902V13.6902ZM40.0472 44.1961C37.2263 44.1902 34.4705 43.3484 32.1279 41.777C29.7853 40.2056 27.961 37.975 26.8855 35.3672C25.8101 32.7594 25.5317 29.8914 26.0856 27.1254C26.6395 24.3595 28.0008 21.8198 29.9975 19.8272C31.9942 17.8346 34.5368 16.4786 37.3038 15.9304C40.0709 15.3822 42.9384 15.6665 45.544 16.7473C48.1495 17.8282 50.3763 19.6571 51.9429 22.0029C53.5095 24.3488 54.3456 27.1063 54.3456 29.9272C54.3475 31.8047 53.9789 33.6642 53.2608 35.399C52.5428 37.1338 51.4894 38.7099 50.1611 40.0368C48.8328 41.3637 47.2557 42.4155 45.5201 43.1317C43.7846 43.848 41.9247 44.2147 40.0472 44.2108V44.1961Z" fill="#C9D3D6" stroke="#C9D3D6" stroke-width="0.5" stroke-miterlimit="10"/>
</svg>
