<svg width="80" height="80" viewBox="0 0 80 80" fill="none" xmlns="http://www.w3.org/2000/svg">
<path fill-rule="evenodd" clip-rule="evenodd" d="M7.08675e-06 16.232H56.7748V36.4567H54.8236V18.1832H1.95123V75.5753L1.95122 75.5778C1.95083 75.7328 1.98102 75.8864 2.04007 76.0297C2.09912 76.1731 2.18587 76.3034 2.29535 76.4131C2.40483 76.5229 2.53488 76.61 2.67807 76.6694C2.82126 76.7288 2.97476 76.7594 3.12979 76.7594H55.7992V78.7106H3.1298C2.71812 78.7106 2.31047 78.6294 1.93022 78.4716C1.54997 78.3138 1.20459 78.0826 0.913855 77.7911C0.623117 77.4996 0.392748 77.1536 0.235938 76.773C0.0793024 76.3927 -0.000867968 75.9854 7.08675e-06 75.5742C8.07532e-06 75.5737 9.18019e-06 75.5732 1.03432e-05 75.5728L0.975617 75.5753H7.08675e-06V75.5742V16.232Z" fill="#C9D3D6"/>
<path fill-rule="evenodd" clip-rule="evenodd" d="M35.8291 35.4811H80V74.8443C80 75.8447 79.6026 76.8042 78.8952 77.5116C78.1877 78.219 77.2283 78.6165 76.2278 78.6165H38.8758C38.0678 78.6165 37.2928 78.2955 36.7215 77.7241C36.1501 77.1527 35.8291 76.3778 35.8291 75.5697V35.4811ZM37.7803 37.4323V75.5697C37.7803 75.8603 37.8957 76.1389 38.1012 76.3444C38.3066 76.5498 38.5853 76.6652 38.8758 76.6652H76.2278C76.7108 76.6652 77.1739 76.4734 77.5154 76.1319C77.8569 75.7904 78.0488 75.3272 78.0488 74.8443V37.4323H37.7803Z" fill="#C9D3D6"/>
<path fill-rule="evenodd" clip-rule="evenodd" d="M48.6489 45.7712H50.6001V51.9399C50.6015 53.8392 51.357 55.6602 52.7004 57.0027C54.0439 58.3454 55.8656 59.0996 57.765 59.0996C59.6638 59.0996 61.4848 58.3453 62.8274 57.0026C64.17 55.66 64.9243 53.839 64.9243 51.9402V45.7712H66.8755V51.9402C66.8755 54.3565 65.9157 56.6738 64.2071 58.3824C62.4986 60.0909 60.1813 61.0508 57.765 61.0508C55.3483 61.0508 53.0306 60.0912 51.3212 58.3829C49.6117 56.6747 48.6506 54.3569 48.6489 51.9402V45.7712Z" fill="#C9D3D6"/>
<path fill-rule="evenodd" clip-rule="evenodd" d="M22.5177 3.16646C24.3768 2.39636 26.3695 2 28.3819 2V2.97682L28.3822 2C32.4454 2.00157 36.3415 3.61674 39.214 6.49035C42.0865 9.36396 43.7002 13.2608 43.7002 17.3239V28.1944H41.749V17.3239C41.749 13.7781 40.3408 10.3775 37.834 7.8698C35.3274 5.36218 31.9275 3.95269 28.3819 3.95122M28.3815 3.95122C26.6255 3.95127 24.8867 4.29716 23.2644 4.96915C21.6419 5.64119 20.1677 6.62621 18.926 7.86798C16.4181 10.3758 15.0092 13.7772 15.0092 17.3239V28.1944H13.058V17.3239C13.058 13.2597 14.6725 9.36204 17.5462 6.48826C18.9692 5.06531 20.6585 3.93656 22.5177 3.16646" fill="#C9D3D6"/>
<path fill-rule="evenodd" clip-rule="evenodd" d="M17.5279 28.2563H10.5393V26.3051H17.5279V28.2563Z" fill="#C9D3D6"/>
<path fill-rule="evenodd" clip-rule="evenodd" d="M46.219 28.2563H39.2303V26.3051H46.219V28.2563Z" fill="#C9D3D6"/>
<path fill-rule="evenodd" clip-rule="evenodd" d="M52.0447 46.6527H45.056V44.7014H52.0447V46.6527Z" fill="#C9D3D6"/>
<path fill-rule="evenodd" clip-rule="evenodd" d="M70.3856 46.7468H63.397V44.7956H70.3856V46.7468Z" fill="#C9D3D6"/>
</svg>
