<svg width="215" height="500" viewBox="0 0 215 500" fill="none" xmlns="http://www.w3.org/2000/svg">
<path d="M141.5 33.8L100.9 4.4L47.6 35L-0.899994 0L-50.1 35.6L-109.2 3.2L-144.4 33.1L-215 3.5V284.2C-215 365.4 -169.5 439.8 -97.1 476.7C-67.1 492 -33.9 500 -0.199997 499.9C6.10001 499.9 12.3 499.6 18.5 499.1C44.6 496.8 70.1 489.8 93.6 478.2C120.5 465 144.4 446.3 163.7 423.3C175.2 409.7 184.9 394.7 192.7 378.8C207.1 349.3 214.5 317 214.5 284.2V3.7L141.5 33.8ZM96.1 32.1L128.7 55.5L76.8 76.9L50.8 58.2L96.1 32.1ZM-0.899994 28.4L70 79.7L110.9 109.3L116.9 113.5L152.4 139.1V180.6L80.2 128.5L74.3 124.2L33.7 94.8L-0.199997 70.3L-34.5 95.2L-71.6 79.6L-0.899994 28.4ZM123.5 110.8L152.4 98.9V131.6L123.5 110.8ZM-118.3 113.1L-81 128.5L-153 180.5V138.3L-118.3 113.1ZM-152.9 130.8V98.9L-124.9 110.4L-152.9 130.8ZM-74.2 131.2L-0.899994 161.3L73.4 131.1H73.5L152.4 188V284C152 340 121.3 391.3 72.2 418.1C18.4 447.4 -47.7 441.4 -95.4 403C-131.5 374.1 -152.7 330.3 -152.8 284V188.2L-74.2 131.2ZM27 97.4L-0.899994 109.2L-28 97.8L-0.199997 77.8L27 97.4ZM-103.5 31.2L-53.3 58.7L-78.4 76.7L-131.3 54.8L-103.5 31.2ZM193.8 286.5C193.8 331.7 178.2 375.5 149.5 410.4C145.9 414.8 142.1 419.1 138 423.1C88.8 472.5 17 492 -50.3 474.1C-66.3 469.8 -81.7 463.5 -96.1 455.4C-108 448.7 -119.1 440.7 -129.3 431.7C-131.6 429.7 -133.8 427.7 -136 425.5C-138.2 423.3 -140.7 420.9 -142.8 418.4C-145.2 415.8 -147.6 413.1 -149.8 410.4C-151.8 407.9 -153.8 405.5 -155.6 403.1C-180.7 369.5 -194.2 328.6 -194.2 286.6V35L-84 81L-33.7 102L-0.800003 115.8L33 101.8L67.6 126.8L-0.800003 154.7L-159 89.9V284C-158.6 345.5 -123 401.3 -67.4 427.6C-16.2 451.8 44.1 446.6 90.4 414C113.2 398 131.5 376.3 143.4 351.1C153.3 330.1 158.5 307.1 158.5 283.9V89.9L117.7 106.6H117.6L82.6 81.3L193.8 35V286.5Z" fill="rgba(189, 148, 78, 0.1)"/>
</svg>
