<svg xmlns="http://www.w3.org/2000/svg" width="11" height="13" fill="none"><rect id="backgroundrect" width="100%" height="100%" x="0" y="0" fill="none" stroke="none"/>


<g class="currentLayer" style=""><title>Layer 1</title><path d="M5.3333399295806885,7.041931171514193e-8 C3.928039929580689,-0.00006992958068829935 2.5795099295806887,0.5545100704193118 1.5808299295806885,1.5432000704193118 C0.5821599295806883,2.5318900704193115 0.014059929580688468,3.8747800704193116 -7.041931127105272e-8,5.2800000704193115 C-7.041931127105272e-8,8.933360070419312 4.699999929580689,12.999960070419311 4.899999929580688,13.173360070419312 C5.020759929580689,13.276660070419311 5.174439929580688,13.333360070419312 5.3333399295806885,13.333360070419312 C5.492239929580688,13.333360070419312 5.645919929580689,13.276660070419311 5.766669929580688,13.173360070419312 C5.999999929580689,12.999960070419311 10.666639929580688,8.933360070419312 10.666639929580688,5.2800000704193115 C10.652639929580689,3.8747800704193116 10.08453992958069,2.5318900704193115 9.085839929580688,1.5432000704193118 C8.087139929580689,0.5545100704193118 6.738629929580689,-0.00006992958068829935 5.3333399295806885,7.041931171514193e-8 zM5.3333399295806885,11.766660070419311 C4.2199999295806885,10.70666007041931 1.3333399295806885,7.766670070419311 1.3333399295806885,5.2800000704193115 C1.3333399295806885,4.219140070419312 1.7547599295806888,3.201720070419311 2.5049099295806885,2.4515800704193116 C3.255059929580689,1.7014300704193115 4.272469929580689,1.2800000704193115 5.3333399295806885,1.2800000704193115 C6.394199929580688,1.2800000704193115 7.411639929580689,1.7014300704193115 8.161739929580689,2.4515800704193116 C8.911939929580688,3.201720070419311 9.333339929580688,4.219140070419312 9.333339929580688,5.2800000704193115 C9.333339929580688,7.746670070419311 6.446669929580688,10.70666007041931 5.3333399295806885,11.766660070419311 z" fill="#102A66" id="svg_1" class=""/><path d="M5.3333399295806885,2.6666600704193115 C4.871849929580688,2.6666600704193115 4.420719929580688,2.8035100704193114 4.037009929580688,3.059900070419312 C3.653289929580689,3.3162900704193117 3.3542199295806885,3.680700070419311 3.177619929580689,4.1070700704193115 C3.0010199295806883,4.533430070419311 2.954809929580689,5.002580070419311 3.0448399295806885,5.455200070419312 C3.134869929580688,5.907830070419312 3.3570999295806887,6.3235900704193115 3.6834199295806886,6.6499100704193115 C4.009749929580688,6.976230070419312 4.425509929580689,7.198460070419312 4.878129929580688,7.288490070419311 C5.330749929580689,7.378520070419311 5.799909929580689,7.332320070419312 6.226269929580688,7.155710070419312 C6.652629929580689,6.979110070419312 7.0170399295806885,6.680040070419311 7.273429929580688,6.296320070419312 C7.529839929580689,5.912610070419311 7.666639929580688,5.461480070419311 7.666639929580688,4.999990070419312 C7.666639929580688,4.381150070419311 7.420839929580689,3.787660070419312 6.983249929580689,3.3500800704193114 C6.545669929580688,2.9124900704193113 5.952179929580689,2.6666600704193115 5.3333399295806885,2.6666600704193115 zM5.3333399295806885,5.999990070419312 C5.135559929580689,5.999990070419312 4.942219929580689,5.941340070419312 4.777769929580688,5.831460070419311 C4.613319929580689,5.721580070419312 4.485149929580689,5.565400070419312 4.409459929580689,5.382680070419312 C4.333769929580688,5.199950070419312 4.313969929580688,4.998880070419312 4.352549929580689,4.804900070419311 C4.391139929580689,4.610920070419311 4.486379929580688,4.432740070419312 4.626229929580688,4.292890070419311 C4.766079929580688,4.1530300704193115 4.944269929580688,4.057790070419312 5.138249929580688,4.019210070419311 C5.332229929580689,3.9806200704193113 5.533299929580689,4.000430070419312 5.716019929580689,4.076110070419311 C5.8987499295806884,4.151800070419312 6.054929929580689,4.279970070419312 6.164809929580688,4.444420070419311 C6.274689929580688,4.608870070419312 6.3333399295806885,4.802210070419312 6.3333399295806885,4.999990070419312 C6.3333399295806885,5.265210070419312 6.227979929580689,5.5195600704193115 6.040449929580689,5.707100070419312 C5.852909929580688,5.894640070419311 5.598559929580688,5.999990070419312 5.3333399295806885,5.999990070419312 z" fill="#102A66" id="svg_2" class=""/></g></svg>