<svg width="24" height="24" viewBox="0 0 24 24" fill="none" xmlns="http://www.w3.org/2000/svg">
<path d="M8.7285 15.755C8.9534 15.9145 9.22215 16.0005 9.49787 16.0012C9.77358 16.0019 10.0428 15.9173 10.2685 15.759C10.471 15.615 10.63 15.418 10.727 15.1895L11.345 13.305C11.4961 12.8507 11.751 12.438 12.0895 12.0995C12.428 11.761 12.8408 11.5061 13.295 11.355L15.1105 10.7635C15.371 10.6716 15.5966 10.5012 15.7562 10.2757C15.9158 10.0502 16.0015 9.78073 16.0015 9.50448C16.0015 9.22823 15.9158 8.95878 15.7562 8.73329C15.5966 8.50779 15.371 8.33736 15.1105 8.24548L13.2605 7.64898C12.8077 7.49756 12.3962 7.2432 12.0582 6.90589C11.7203 6.56859 11.4652 6.15752 11.313 5.70498L10.7235 3.89048C10.6317 3.6299 10.4612 3.40431 10.2355 3.24498C10.0088 3.08831 9.7398 3.00439 9.46425 3.00439C9.1887 3.00439 8.91968 3.08831 8.693 3.24498C8.46325 3.40768 8.29059 3.6386 8.1995 3.90498L7.603 5.73848C7.45153 6.17946 7.20203 6.58035 6.87329 6.911C6.54454 7.24165 6.1451 7.49346 5.705 7.64748L3.8915 8.23648C3.62959 8.32874 3.40297 8.50038 3.24319 8.72749C3.08341 8.95461 2.99843 9.22589 3.00008 9.50357C3.00174 9.78125 3.08993 10.0515 3.2524 10.2767C3.41487 10.5019 3.64351 10.6708 3.9065 10.76L5.7 11.3425C6.15446 11.4949 6.56729 11.7508 6.90588 12.0901C7.24447 12.4294 7.49956 12.8427 7.651 13.2975L8.241 15.109C8.3325 15.3695 8.503 15.5955 8.729 15.755H8.7285ZM9.581 14.694L9.55 14.7345C9.53498 14.7439 9.51751 14.7486 9.49979 14.7481C9.48208 14.7476 9.46492 14.7418 9.4505 14.7315C9.44026 14.7245 9.43144 14.7157 9.4245 14.7055L8.8395 12.9055C8.6289 12.2645 8.2706 11.682 7.7935 11.205C7.31521 10.7276 6.73232 10.3681 6.091 10.155L4.3065 9.57798C4.28987 9.57154 4.27546 9.56042 4.265 9.54598C4.25469 9.53139 4.24942 9.51384 4.25 9.49598C4.25025 9.47809 4.25582 9.46069 4.266 9.44598C4.27319 9.43609 4.28198 9.42748 4.292 9.42048L6.102 8.83298C6.73287 8.61445 7.30498 8.25363 7.774 7.77848C8.22991 7.31424 8.5762 6.75389 8.7875 6.13848L9.3815 4.30798C9.38738 4.29112 9.39841 4.27655 9.41304 4.26632C9.42767 4.25608 9.44515 4.25072 9.463 4.25098C9.47832 4.25092 9.4934 4.2548 9.5068 4.26224C9.52019 4.26968 9.53145 4.28044 9.5395 4.29348L10.1255 6.09348C10.3388 6.73098 10.697 7.31033 11.172 7.78598C11.6497 8.26293 12.2317 8.62238 12.872 8.83598L14.672 9.41998L14.705 9.42948C14.7169 9.43551 14.7271 9.44425 14.735 9.45498C14.745 9.46998 14.75 9.48698 14.75 9.50498C14.75 9.52298 14.745 9.53998 14.735 9.55498C14.7279 9.56427 14.7196 9.57267 14.7105 9.57998L12.9055 10.1655C12.2659 10.3777 11.6847 10.7364 11.2082 11.213C10.7317 11.6895 10.3731 12.2708 10.161 12.9105L9.581 14.694ZM16.438 20.321C16.6025 20.4375 16.7985 20.5 17 20.5005L17.0025 20.502C17.2064 20.5018 17.4051 20.4377 17.5705 20.3185C17.7359 20.1994 17.8598 20.0313 17.9245 19.838L18.209 18.963C18.2674 18.7884 18.3655 18.6297 18.4955 18.4994C18.6255 18.3691 18.784 18.2707 18.9585 18.212L19.8535 17.921C19.9952 17.8707 20.1233 17.7884 20.2278 17.6804C20.3324 17.5723 20.4105 17.4415 20.456 17.2983C20.5015 17.155 20.5133 17.0031 20.4903 16.8546C20.4673 16.706 20.4102 16.5648 20.3235 16.442C20.2 16.2691 20.0236 16.141 19.821 16.077L18.9425 15.7925C18.7679 15.7342 18.6092 15.6361 18.4791 15.5059C18.3489 15.3757 18.2508 15.2171 18.1925 15.0425L17.9015 14.148C17.8344 13.9567 17.7091 13.7911 17.5432 13.6745C17.3773 13.5579 17.1791 13.4962 16.9764 13.4978C16.7736 13.4995 16.5765 13.5645 16.4125 13.6838C16.2486 13.803 16.126 13.9706 16.062 14.163L15.776 15.0415C15.7193 15.2135 15.6241 15.3702 15.4975 15.4998C15.371 15.6293 15.2166 15.7282 15.046 15.789L14.151 16.08C13.96 16.1473 13.7948 16.2725 13.6785 16.4383C13.5621 16.604 13.5004 16.8019 13.502 17.0044C13.5036 17.2069 13.5684 17.4038 13.6874 17.5677C13.8063 17.7316 13.9735 17.8542 14.1655 17.9185L15.0415 18.2035C15.2165 18.2619 15.3755 18.3604 15.5057 18.4911C15.6359 18.6219 15.7338 18.7812 15.7915 18.9565L16.0825 19.8505C16.1495 20.0405 16.2735 20.205 16.4375 20.321H16.438ZM15.43 17.02L15.371 17.0005L15.441 16.976C15.7967 16.8532 16.1191 16.6499 16.3831 16.3817C16.647 16.1136 16.8453 15.788 16.9625 15.4305L16.9825 15.37L17.0025 15.434C17.122 15.7941 17.3241 16.1212 17.5925 16.3894C17.8609 16.6576 18.1883 16.8593 18.5485 16.9785L18.6265 17.0035L18.566 17.0235C18.2054 17.1429 17.8777 17.3451 17.6092 17.6138C17.3407 17.8825 17.1387 18.2103 17.0195 18.571L16.9995 18.6315L16.9795 18.57C16.8602 18.2085 16.6578 17.88 16.3887 17.6108C16.1195 17.3417 15.791 17.1393 15.4295 17.02H15.43Z" fill="#102A66"/>
</svg>
