<svg width="24" height="24" viewBox="0 0 24 24" fill="none" xmlns="http://www.w3.org/2000/svg">
<path d="M11.4 3.60001C11.5404 3.59997 11.6764 3.64918 11.7843 3.73908C11.8922 3.82898 11.9651 3.95388 11.9904 4.09201L12 4.20001V7.80001C12.0001 8.49161 11.7613 9.16201 11.324 9.69776C10.8866 10.2335 10.2776 10.6017 9.6 10.74V19.8C9.60028 19.9499 9.54441 20.0946 9.44339 20.2054C9.34238 20.3162 9.20354 20.3851 9.05422 20.3987C8.90489 20.4122 8.75591 20.3694 8.6366 20.2786C8.5173 20.1877 8.43631 20.0555 8.4096 19.908L8.4 19.8V10.74C7.757 10.6085 7.17483 10.2699 6.74266 9.77591C6.31049 9.28197 6.05215 8.65999 6.0072 8.00521L6 7.80001V4.20001C5.99973 4.05008 6.0556 3.90547 6.15661 3.79467C6.25763 3.68387 6.39646 3.61491 6.54579 3.60136C6.69511 3.58782 6.84409 3.63067 6.9634 3.72148C7.08271 3.81229 7.16369 3.94448 7.1904 4.09201L7.2 4.20001V7.80001C7.19981 8.1724 7.31511 8.53569 7.53003 8.8398C7.74496 9.14392 8.04891 9.37388 8.4 9.49801V4.20001C8.39973 4.05008 8.4556 3.90547 8.55661 3.79467C8.65763 3.68387 8.79647 3.61491 8.94579 3.60136C9.09511 3.58782 9.24409 3.63067 9.3634 3.72148C9.48271 3.81229 9.56369 3.94448 9.5904 4.09201L9.6 4.20001V9.49681C10.2456 9.26881 10.722 8.68321 10.7916 7.97881L10.8 7.80001V4.20001C10.8 4.04088 10.8632 3.88827 10.9757 3.77575C11.0883 3.66323 11.2409 3.60001 11.4 3.60001ZM17.4 3.60001C17.5404 3.59997 17.6764 3.64918 17.7843 3.73908C17.8922 3.82898 17.9651 3.95388 17.9904 4.09201L18 4.20001V19.8C18.0003 19.9499 17.9444 20.0946 17.8434 20.2054C17.7424 20.3162 17.6035 20.3851 17.4542 20.3987C17.3049 20.4122 17.1559 20.3694 17.0366 20.2786C16.9173 20.1877 16.8363 20.0555 16.8096 19.908L16.8 19.8V13.2H15C14.8596 13.2001 14.7236 13.1508 14.6157 13.0609C14.5078 12.971 14.4349 12.8462 14.4096 12.708L14.4 12.6V6.60001C14.4 5.80436 14.7161 5.0413 15.2787 4.47869C15.8413 3.91608 16.6044 3.60001 17.4 3.60001Z" fill="#102A66"/>
</svg>
