<svg width="173" height="500" viewBox="0 0 173 500" fill="none" xmlns="http://www.w3.org/2000/svg">
<path d="M99.5 33.8L58.9 4.4L5.60001 35L-42.9 0L-92.1 35.6L-151.2 3.2L-186.4 33.1L-257 3.5V284.2C-257 365.4 -211.5 439.8 -139.1 476.7C-109.1 492 -75.9 500 -42.2 499.9C-35.9 499.9 -29.7 499.6 -23.5 499.1C2.60001 496.8 28.1 489.8 51.6 478.2C78.5 465 102.4 446.3 121.7 423.3C133.2 409.7 142.9 394.7 150.7 378.8C165.1 349.3 172.5 317 172.5 284.2V3.7L99.5 33.8ZM54.1 32.1L86.7 55.5L34.8 76.9L8.79999 58.2L54.1 32.1ZM-42.9 28.4L28 79.7L68.9 109.3L74.9 113.5L110.4 139.1V180.6L38.2 128.5L32.3 124.2L-8.3 94.8L-42.2 70.3L-76.5 95.2L-113.6 79.6L-42.9 28.4ZM81.5 110.8L110.4 98.9V131.6L81.5 110.8ZM-160.3 113.1L-123 128.5L-195 180.5V138.3L-160.3 113.1ZM-194.9 130.8V98.9L-166.9 110.4L-194.9 130.8ZM-116.2 131.2L-42.9 161.3L31.4 131.1H31.5L110.4 188V284C110 340 79.3 391.3 30.2 418.1C-23.6 447.4 -89.7 441.4 -137.4 403C-173.5 374.1 -194.7 330.3 -194.8 284V188.2L-116.2 131.2ZM-15 97.4L-42.9 109.2L-70 97.8L-42.2 77.8L-15 97.4ZM-145.5 31.2L-95.3 58.7L-120.4 76.7L-173.3 54.8L-145.5 31.2ZM151.8 286.5C151.8 331.7 136.2 375.5 107.5 410.4C103.9 414.8 100.1 419.1 96 423.1C46.8 472.5 -25 492 -92.3 474.1C-108.3 469.8 -123.7 463.5 -138.1 455.4C-150 448.7 -161.1 440.7 -171.3 431.7C-173.6 429.7 -175.8 427.7 -178 425.5C-180.2 423.3 -182.7 420.9 -184.8 418.4C-187.2 415.8 -189.6 413.1 -191.8 410.4C-193.8 407.9 -195.8 405.5 -197.6 403.1C-222.7 369.5 -236.2 328.6 -236.2 286.6V35L-126 81L-75.7 102L-42.8 115.8L-9 101.8L25.6 126.8L-42.8 154.7L-201 89.9V284C-200.6 345.5 -165 401.3 -109.4 427.6C-58.2 451.8 2.10001 446.6 48.4 414C71.2 398 89.5 376.3 101.4 351.1C111.3 330.1 116.5 307.1 116.5 283.9V89.9L75.7 106.6H75.6L40.6 81.3L151.8 35V286.5Z" fill="#BD944E" fill-opacity="0.2"/>
</svg>
