<svg width="12" height="15" viewBox="0 0 12 15" fill="none" xmlns="http://www.w3.org/2000/svg">
<path d="M10.2427 10.576L6 14.8187L1.75734 10.576C0.918228 9.73688 0.346791 8.66778 0.115286 7.5039C-0.11622 6.34001 0.00260456 5.13362 0.456732 4.03726C0.91086 2.94091 1.6799 2.00384 2.66659 1.34456C3.65328 0.685274 4.81332 0.333382 6 0.333382C7.18669 0.333382 8.34672 0.685274 9.33342 1.34456C10.3201 2.00384 11.0891 2.94091 11.5433 4.03726C11.9974 5.13362 12.1162 6.34001 11.8847 7.5039C11.6532 8.66778 11.0818 9.73688 10.2427 10.576ZM6 9C6.70725 9 7.38552 8.71904 7.88562 8.21895C8.38572 7.71885 8.66667 7.04057 8.66667 6.33333C8.66667 5.62609 8.38572 4.94781 7.88562 4.44771C7.38552 3.94761 6.70725 3.66666 6 3.66666C5.29276 3.66666 4.61448 3.94761 4.11438 4.44771C3.61429 4.94781 3.33334 5.62609 3.33334 6.33333C3.33334 7.04057 3.61429 7.71885 4.11438 8.21895C4.61448 8.71904 5.29276 9 6 9ZM6 7.66666C5.64638 7.66666 5.30724 7.52619 5.05719 7.27614C4.80715 7.02609 4.66667 6.68695 4.66667 6.33333C4.66667 5.97971 4.80715 5.64057 5.05719 5.39052C5.30724 5.14047 5.64638 5 6 5C6.35362 5 6.69276 5.14047 6.94281 5.39052C7.19286 5.64057 7.33334 5.97971 7.33334 6.33333C7.33334 6.68695 7.19286 7.02609 6.94281 7.27614C6.69276 7.52619 6.35362 7.66666 6 7.66666Z" fill="white"/>
</svg>
