<svg width="23" height="23" viewBox="0 0 23 23" fill="none" xmlns="http://www.w3.org/2000/svg">
<path d="M17.6801 5H18.6801V6C18.6801 6.26522 18.7854 6.51957 18.973 6.70711C19.1605 6.89464 19.4148 7 19.6801 7C19.9453 7 20.1996 6.89464 20.3872 6.70711C20.5747 6.51957 20.6801 6.26522 20.6801 6V5H21.6801C21.9453 5 22.1996 4.89464 22.3872 4.70711C22.5747 4.51957 22.6801 4.26522 22.6801 4C22.6801 3.73478 22.5747 3.48043 22.3872 3.29289C22.1996 3.10536 21.9453 3 21.6801 3H20.6801V2C20.6801 1.73478 20.5747 1.48043 20.3872 1.29289C20.1996 1.10536 19.9453 1 19.6801 1C19.4148 1 19.1605 1.10536 18.973 1.29289C18.7854 1.48043 18.6801 1.73478 18.6801 2V3H17.6801C17.4148 3 17.1605 3.10536 16.973 3.29289C16.7854 3.48043 16.6801 3.73478 16.6801 4C16.6801 4.26522 16.7854 4.51957 16.973 4.70711C17.1605 4.89464 17.4148 5 17.6801 5ZM6.68006 7V17C6.68006 17.2652 6.78542 17.5196 6.97295 17.7071C7.16049 17.8946 7.41484 18 7.68006 18C7.94527 18 8.19963 17.8946 8.38717 17.7071C8.5747 17.5196 8.68006 17.2652 8.68006 17V7C8.68006 6.73478 8.5747 6.48043 8.38717 6.29289C8.19963 6.10536 7.94527 6 7.68006 6C7.41484 6 7.16049 6.10536 6.97295 6.29289C6.78542 6.48043 6.68006 6.73478 6.68006 7ZM21.2801 9C21.1514 9.02624 21.0291 9.07758 20.9202 9.15109C20.8113 9.2246 20.718 9.31883 20.6456 9.42841C20.5732 9.53799 20.523 9.66077 20.4981 9.78973C20.4731 9.91869 20.4738 10.0513 20.5001 10.18C20.8905 12.0762 20.6591 14.0478 19.8402 15.802C19.0213 17.5563 17.6585 18.9997 15.9542 19.9181C14.2499 20.8364 12.2949 21.1807 10.3794 20.8999C8.46386 20.619 6.68997 19.728 5.32102 18.359C3.95208 16.9901 3.06104 15.2162 2.78019 13.3007C2.49934 11.3852 2.84364 9.43018 3.76199 7.72586C4.68034 6.02155 6.12377 4.6588 7.87803 3.83988C9.63229 3.02097 11.6039 2.78956 13.5001 3.18C13.7653 3.23304 14.0407 3.17856 14.2657 3.02853C14.4908 2.8785 14.647 2.64522 14.7001 2.38C14.7531 2.11478 14.6986 1.83936 14.5486 1.61431C14.3986 1.38927 14.1653 1.23304 13.9001 1.18C13.1682 1.04365 12.4243 0.98333 11.6801 1C9.50446 1 7.37773 1.64514 5.56879 2.85383C3.75985 4.06253 2.34995 5.78049 1.51738 7.79048C0.68482 9.80047 0.466983 12.0122 0.891421 14.146C1.31586 16.2798 2.36351 18.2398 3.90188 19.7782C5.44026 21.3166 7.40027 22.3642 9.53407 22.7886C11.6679 23.2131 13.8796 22.9952 15.8896 22.1627C17.8996 21.3301 19.6175 19.9202 20.8262 18.1113C22.0349 16.3023 22.6801 14.1756 22.6801 12C22.6822 11.2611 22.6085 10.5239 22.4601 9.8C22.4361 9.66949 22.3864 9.54506 22.3139 9.43395C22.2414 9.32284 22.1475 9.22727 22.0376 9.15281C21.9278 9.07835 21.8043 9.02649 21.6742 9.00026C21.5441 8.97403 21.4102 8.97394 21.2801 9ZM10.6801 9V10C10.6845 10.7401 10.9623 11.4524 11.4601 12C10.9623 12.5476 10.6845 13.2599 10.6801 14V15C10.6801 15.7956 10.9961 16.5587 11.5587 17.1213C12.1213 17.6839 12.8844 18 13.6801 18H14.6801C15.4757 18 16.2388 17.6839 16.8014 17.1213C17.364 16.5587 17.6801 15.7956 17.6801 15V14C17.6756 13.2599 17.3978 12.5476 16.9001 12C17.3978 11.4524 17.6756 10.7401 17.6801 10V9C17.6801 8.20435 17.364 7.44129 16.8014 6.87868C16.2388 6.31607 15.4757 6 14.6801 6H13.6801C12.8844 6 12.1213 6.31607 11.5587 6.87868C10.9961 7.44129 10.6801 8.20435 10.6801 9ZM15.6801 15C15.6801 15.2652 15.5747 15.5196 15.3872 15.7071C15.1996 15.8946 14.9453 16 14.6801 16H13.6801C13.4148 16 13.1605 15.8946 12.973 15.7071C12.7854 15.5196 12.6801 15.2652 12.6801 15V14C12.6801 13.7348 12.7854 13.4804 12.973 13.2929C13.1605 13.1054 13.4148 13 13.6801 13H14.6801C14.9453 13 15.1996 13.1054 15.3872 13.2929C15.5747 13.4804 15.6801 13.7348 15.6801 14V15ZM15.6801 9V10C15.6801 10.2652 15.5747 10.5196 15.3872 10.7071C15.1996 10.8946 14.9453 11 14.6801 11H13.6801C13.4148 11 13.1605 10.8946 12.973 10.7071C12.7854 10.5196 12.6801 10.2652 12.6801 10V9C12.6801 8.73478 12.7854 8.48043 12.973 8.29289C13.1605 8.10536 13.4148 8 13.6801 8H14.6801C14.9453 8 15.1996 8.10536 15.3872 8.29289C15.5747 8.48043 15.6801 8.73478 15.6801 9Z" fill="#102A66"/>
</svg>
