<svg xmlns="http://www.w3.org/2000/svg" viewBox="0 0 30.18 26.95"><defs><style>.cls-1{fill:#bd944e;}</style></defs><g id="Laag_2" data-name="Laag 2"><g id="Laag_1-2" data-name="Laag 1"><rect class="cls-1" x="7.51" y="0.05" width="0.41" height="3.85"/><path class="cls-1" d="M8,4H7.46V0H8Zm-.41-.1h.31V.1H7.56Z"/><path class="cls-1" d="M28.31,2.12a1.46,1.46,0,0,1,1.46,1.46v21.5a1.47,1.47,0,0,1-1.46,1.47H1.86A1.47,1.47,0,0,1,.4,25.08V3.58A1.46,1.46,0,0,1,1.86,2.12H28.31m0-.36H1.86A1.82,1.82,0,0,0,.05,3.58v21.5A1.82,1.82,0,0,0,1.86,26.9H28.31a1.83,1.83,0,0,0,1.82-1.82V3.58a1.83,1.83,0,0,0-1.82-1.82Z"/><path class="cls-1" d="M28.31,27H1.86A1.87,1.87,0,0,1,0,25.08V3.58A1.87,1.87,0,0,1,1.86,1.71H28.31a1.89,1.89,0,0,1,1.87,1.87v21.5A1.87,1.87,0,0,1,28.31,27ZM1.86,1.81A1.77,1.77,0,0,0,.1,3.58v21.5a1.76,1.76,0,0,0,1.76,1.77H28.31a1.77,1.77,0,0,0,1.77-1.77V3.58a1.79,1.79,0,0,0-1.77-1.77ZM28.31,26.59H1.86A1.51,1.51,0,0,1,.35,25.08V3.58A1.52,1.52,0,0,1,1.86,2.07H28.31a1.52,1.52,0,0,1,1.51,1.51v21.5A1.51,1.51,0,0,1,28.31,26.59ZM1.86,2.17A1.41,1.41,0,0,0,.45,3.58v21.5A1.42,1.42,0,0,0,1.86,26.5H28.31a1.42,1.42,0,0,0,1.41-1.42V3.58a1.41,1.41,0,0,0-1.41-1.41Z"/><rect class="cls-1" x="0.05" y="7.75" width="30.07" height="0.35"/><path class="cls-1" d="M30.17,8.15H0V7.7H30.17ZM.1,8.05h30V7.8H.1Z"/><rect class="cls-1" x="22.25" y="0.05" width="0.41" height="3.85"/><path class="cls-1" d="M22.71,4H22.2V0h.51Zm-.41-.1h.31V.1H22.3Z"/><path class="cls-1" d="M8.08,16.15c1.51.07,2.53.89,2.53,2.23A2.64,2.64,0,0,1,7.67,21,4.66,4.66,0,0,1,5,20.15l.42-.8a3.5,3.5,0,0,0,2.17.79c1.3,0,2.07-.71,2.07-1.72s-.78-1.6-2.09-1.6h-1v-.61L9,13.49H5.38v-.92h4.83v.65l-2.6,2.89Z"/><path class="cls-1" d="M17.71,13.13l-.38.76a4.06,4.06,0,0,0-1.93-.51c-1.8,0-2.7,1.47-2.57,3.74a2.48,2.48,0,0,1,2.51-1.54A2.46,2.46,0,0,1,18,18.22,2.63,2.63,0,0,1,15.16,21c-2,0-3.28-1.48-3.28-4.07s1.32-4.41,3.46-4.41A5.47,5.47,0,0,1,17.71,13.13Zm-4.65,5.15a1.88,1.88,0,0,0,2,1.84,1.84,1.84,0,0,0,2-1.91,1.74,1.74,0,0,0-1.93-1.81A1.93,1.93,0,0,0,13.06,18.28Z"/><path class="cls-1" d="M20.38,13.49v2.36a10.19,10.19,0,0,1,1.41-.12c1.77,0,2.89,1,2.89,2.48a2.69,2.69,0,0,1-3,2.77,5.33,5.33,0,0,1-2.83-.91l.4-.82a4,4,0,0,0,2.33.84,1.79,1.79,0,0,0,2-1.82c0-1-.78-1.62-2-1.62a13.71,13.71,0,0,0-2.16.21v-4.3h4.87v.93Z"/></g></g></svg>