<svg xmlns="http://www.w3.org/2000/svg" viewBox="0 0 24.46 33"><defs><style>.cls-1{fill:none;stroke:#bd944e;stroke-miterlimit:10;stroke-width:0.5px;}</style></defs><g id="Laag_2" data-name="Laag 2"><g id="Laag_1-2" data-name="Laag 1"><path class="cls-1" d="M.77,22.59H7.72a.52.52,0,0,1,.52.52v9.65a0,0,0,0,1,0,0h-8a0,0,0,0,1,0,0V23.11A.52.52,0,0,1,.77,22.59Z"/><path class="cls-1" d="M8.76,19.05H15.7a.52.52,0,0,1,.52.52V32.75a0,0,0,0,1,0,0h-8a0,0,0,0,1,0,0V19.57A.52.52,0,0,1,8.76,19.05Z"/><path class="cls-1" d="M16.22,22.59h7.47a.52.52,0,0,1,.52.52v9.65a0,0,0,0,1,0,0h-8a0,0,0,0,1,0,0V22.59A0,0,0,0,1,16.22,22.59Z"/><polygon class="cls-1" points="12.23 0.56 14.24 4.64 18.75 5.3 15.49 8.47 16.26 12.96 12.23 10.84 8.2 12.96 8.97 8.47 5.71 5.3 10.22 4.64 12.23 0.56"/></g></g></svg>