<svg xmlns="http://www.w3.org/2000/svg" viewBox="0 0 32.81 29.14"><defs><style>.cls-1{fill:none;stroke:#bd944e;stroke-miterlimit:10;stroke-width:0.5px;}</style></defs><g id="Laag_2" data-name="Laag 2"><g id="Laag_1-2" data-name="Laag 1"><path class="cls-1" d="M23.51,25.47H3.14A10.18,10.18,0,0,1,13.31,15.28h0A10.19,10.19,0,0,1,23.51,25.47Z"/><path class="cls-1" d="M6.7,22.9a7.1,7.1,0,0,1,4-4.55"/><line class="cls-1" x1="23.5" y1="25.47" x2="3.14" y2="25.47"/><polyline class="cls-1" points="0 28.89 3.73 28.89 22.91 28.89 26.36 28.89"/><line class="cls-1" x1="13.31" y1="15.28" x2="13.31" y2="10.95"/><line class="cls-1" x1="10.56" y1="10.95" x2="16.06" y2="10.95"/><line class="cls-1" x1="23.51" y1="5.49" x2="23.51" y2="13.11"/><line class="cls-1" x1="27.32" y1="9.3" x2="19.69" y2="9.3"/><path class="cls-1" d="M14.64,7.48A9.05,9.05,0,1,1,25.33,18.17"/></g></g></svg>