<svg width="23" height="18" viewBox="0 0 23 18" fill="none" xmlns="http://www.w3.org/2000/svg">
<path d="M2.75 0.75C1.51625 0.75 0.5 1.76625 0.5 3V15.75H2.867C3.2015 17.0392 4.361 18 5.75 18C7.139 18 8.2985 17.0392 8.633 15.75H14.117C14.4515 17.0392 15.611 18 17 18C18.389 18 19.5485 17.0392 19.883 15.75H22.25V7.9215C22.2463 7.49826 22.1245 7.08447 21.8983 6.72675L18.8285 1.8045C18.6276 1.48175 18.3477 1.21556 18.0153 1.03105C17.6829 0.846538 17.3089 0.74981 16.9288 0.75H2.75ZM2.75 2.25H6.5V6.75H2V3C2 2.57775 2.3285 2.25 2.75 2.25ZM8 2.25H12.5V6.75H8V2.25ZM14 2.25H16.9295C17.1905 2.25 17.4245 2.382 17.5625 2.60175L20.141 6.75H14V2.25ZM2 8.25H20.75V9.75H18.5V11.25H20.75V14.25H19.883C19.5485 12.9607 18.389 12 17 12C15.611 12 14.4515 12.9607 14.117 14.25H8.633C8.2985 12.9607 7.139 12 5.75 12C4.361 12 3.2015 12.9607 2.867 14.25H2V8.25ZM5.75 13.5C6.58775 13.5 7.25 14.1622 7.25 15C7.25 15.8378 6.58775 16.5 5.75 16.5C4.91225 16.5 4.25 15.8378 4.25 15C4.25 14.1622 4.91225 13.5 5.75 13.5ZM17 13.5C17.8377 13.5 18.5 14.1622 18.5 15C18.5 15.8378 17.8377 16.5 17 16.5C16.1622 16.5 15.5 15.8378 15.5 15C15.5 14.1622 16.1622 13.5 17 13.5Z" fill="#102A66"/>
</svg>
