<svg width="16" height="20" viewBox="0 0 16 20" fill="none" xmlns="http://www.w3.org/2000/svg">
<path d="M15.3308 1.58559C15.4836 1.54867 15.6159 1.45322 15.699 1.3198C15.7822 1.18638 15.8097 1.02563 15.7756 0.872155C15.7415 0.718675 15.6484 0.584721 15.5166 0.499113C15.3847 0.413505 15.2245 0.383084 15.0704 0.414393L9.6704 1.61439C9.56151 1.6385 9.4615 1.69248 9.38159 1.77028C9.30168 1.84807 9.24503 1.94659 9.218 2.05479L8.882 3.39999H1.4C1.24087 3.39999 1.08826 3.46321 0.975735 3.57573C0.863213 3.68825 0.799999 3.84086 0.799999 3.99999V8.19999C0.799999 8.99564 1.11607 9.7587 1.67868 10.3213C2.24129 10.8839 3.00435 11.2 3.8 11.2H4.4V11.8C4.39982 12.6513 4.70133 13.4751 5.251 14.1252C5.80066 14.7752 6.56291 15.2095 7.4024 15.3508C7.40094 15.3672 7.40014 15.3836 7.4 15.4V18.4H5C4.84087 18.4 4.68826 18.4632 4.57574 18.5757C4.46321 18.6883 4.4 18.8409 4.4 19C4.4 19.1591 4.46321 19.3117 4.57574 19.4243C4.68826 19.5368 4.84087 19.6 5 19.6H11C11.1591 19.6 11.3117 19.5368 11.4243 19.4243C11.5368 19.3117 11.6 19.1591 11.6 19C11.6 18.8409 11.5368 18.6883 11.4243 18.5757C11.3117 18.4632 11.1591 18.4 11 18.4H8.6V15.4C8.59986 15.3836 8.59906 15.3672 8.5976 15.3508C9.43709 15.2095 10.1993 14.7752 10.749 14.1252C11.2987 13.4751 11.6002 12.6513 11.6 11.8V11.2H12.2C12.9956 11.2 13.7587 10.8839 14.3213 10.3213C14.8839 9.7587 15.2 8.99564 15.2 8.19999V3.99999C15.2 3.84086 15.1368 3.68825 15.0243 3.57573C14.9117 3.46321 14.7591 3.39999 14.6 3.39999H10.118L10.292 2.70519L15.3308 1.58559ZM8.582 4.59999L8.132 6.39999H2V4.59999H8.582ZM14 6.39999H9.368L9.818 4.59999H14V6.39999Z" fill="#102A66"/>
</svg>
