<svg width="21" height="20" viewBox="0 0 21 20" fill="none" xmlns="http://www.w3.org/2000/svg">
<path d="M8.9156 3.5296C9.7453 2.09234 11.112 1.04354 12.715 0.613934C14.3179 0.184326 16.0259 0.409097 17.4632 1.2388C18.9005 2.0685 19.9493 3.43517 20.3789 5.03816C20.8085 6.64115 20.5837 8.34914 19.754 9.7864L19.5176 10.1944C19.438 10.3322 19.307 10.4328 19.1533 10.4739C18.9996 10.5151 18.8358 10.4936 18.698 10.414L14.54 8.014L12.2228 12.07C13.8308 12.5584 15.2132 13.6684 16.2008 15.1036C15.7656 15.0749 15.3349 15.2054 14.9888 15.4708C13.8368 13.9684 12.1856 13 10.4 13C8.6144 13 6.9632 13.9684 5.8112 15.472C5.46528 15.2062 5.03452 15.0753 4.5992 15.1036C5.9432 13.15 8.0156 11.8 10.4 11.8C10.5956 11.8 10.7888 11.8096 10.9796 11.8264L13.5008 7.414L8.9 4.756C8.7622 4.67643 8.66164 4.54538 8.62046 4.39168C8.57928 4.23798 8.60084 4.07421 8.6804 3.9364L8.9156 3.5284V3.5296ZM10.0208 4.0192L12.0644 5.1988C12.0687 5.19193 12.0731 5.18513 12.0776 5.1784C12.7208 4.2904 13.3256 3.6076 14.1164 3.0088C14.7071 2.57216 15.3398 2.1955 16.0052 1.8844C14.9139 1.50297 13.7249 1.50678 12.6361 1.89519C11.5473 2.2836 10.6243 3.03319 10.0208 4.0192ZM15.8048 7.3576C16.3628 6.3784 16.6304 5.6056 16.724 4.8556C16.7996 4.252 16.766 3.6376 16.6532 2.9044C15.8984 3.262 15.326 3.598 14.8412 3.9652C14.198 4.4524 13.6856 5.0128 13.1084 5.8012L15.8048 7.3576ZM16.844 7.9576L18.7772 9.0736C19.3012 8.10976 19.4977 7.00171 19.3371 5.91646C19.1765 4.8312 18.6675 3.82756 17.8868 3.0568C17.972 3.7288 17.9948 4.3624 17.9144 5.0044C17.7956 5.9536 17.4584 6.88 16.844 7.9576ZM5.2856 16.7116C5.24448 16.5882 5.16434 16.4814 5.05727 16.4075C4.9502 16.3336 4.822 16.2964 4.692 16.3017C4.56199 16.307 4.43722 16.3544 4.3365 16.4368C4.23579 16.5191 4.16457 16.632 4.1336 16.7584C3.9296 17.5912 3.5432 18.0484 3.1028 18.3136C2.642 18.592 2.0552 18.7 1.4 18.7C1.24087 18.7 1.08826 18.7632 0.975735 18.8757C0.863213 18.9883 0.799999 19.1409 0.799999 19.3C0.799999 19.4591 0.863213 19.6117 0.975735 19.7243C1.08826 19.8368 1.24087 19.9 1.4 19.9C2.1656 19.9 2.9996 19.7776 3.7232 19.342C4.15454 19.0814 4.51805 18.7224 4.784 18.2944C6.2156 20.1196 9.0104 20.1112 10.4 18.2752C11.8124 20.14 14.672 20.1196 16.082 18.2068C16.465 18.7279 16.9644 19.1524 17.5405 19.4464C18.1165 19.7403 18.7533 19.8957 19.4 19.9C19.5591 19.9 19.7117 19.8368 19.8243 19.7243C19.9368 19.6117 20 19.4591 20 19.3C20 19.1409 19.9368 18.9883 19.8243 18.8757C19.7117 18.7632 19.5591 18.7 19.4 18.7C18.2204 18.7 17.0444 17.932 16.6556 16.7176C16.6168 16.5973 16.541 16.4924 16.439 16.4178C16.3371 16.3431 16.2141 16.3026 16.0878 16.3019C15.9614 16.3013 15.8381 16.3405 15.7353 16.4141C15.6326 16.4876 15.5557 16.5918 15.5156 16.7116C14.744 19.0384 11.7236 19.0084 10.9676 16.8076C10.9271 16.6893 10.8506 16.5866 10.7488 16.5139C10.647 16.4412 10.5251 16.4021 10.4 16.4021C10.2749 16.4021 10.153 16.4412 10.0512 16.5139C9.94945 16.5866 9.87294 16.6893 9.8324 16.8076C9.0764 19.0084 6.056 19.0384 5.2844 16.7116H5.2856Z" fill="#102A66"/>
</svg>
