<svg width="61" height="61" viewBox="0 0 61 61" fill="none" xmlns="http://www.w3.org/2000/svg">
<g filter="url(#filter0_d_4_37)">
<path d="M47.814 40.3579C47.814 40.4789 47.737 40.7099 47.671 40.7099C46.604 40.8419 46.076 41.9639 45.064 42.1729C44.921 42.2059 44.778 42.2279 44.712 42.2279C43.942 42.2279 43.392 41.8979 42.919 41.4359C42.171 40.6879 41.456 40.7099 40.653 41.4249C39.399 42.5469 38.563 42.5249 37.243 41.3809C36.473 40.7209 35.802 40.7319 35.043 41.3919C33.756 42.5469 32.92 42.5469 31.633 41.4029C30.819 40.6989 30.137 40.7429 29.356 41.4469C28.146 42.5359 27.244 42.5249 26.012 41.4359C25.231 40.7319 24.549 40.6989 23.746 41.4139C22.492 42.5469 21.645 42.5249 20.325 41.3809C19.566 40.7209 18.895 40.7209 18.136 41.3919C16.849 42.5359 16.013 42.5249 14.715 41.4139C14.374 41.1169 14.033 40.9079 13.582 40.8309C13.351 40.7869 13.164 40.6329 13.197 40.3799C13.241 40.0609 13.505 40.0169 13.769 40.0169C14.396 40.0279 14.858 40.3469 15.276 40.7649C16.024 41.5239 16.739 41.5129 17.531 40.7869C18.752 39.6759 19.687 39.6979 20.952 40.8199C21.711 41.4909 22.382 41.4909 23.141 40.8199C24.395 39.6979 25.33 39.6869 26.551 40.7869C27.354 41.5129 28.036 41.5019 28.817 40.7759C29.983 39.7089 30.973 39.7199 32.172 40.7429C33.129 41.5789 33.514 41.5679 34.504 40.7099C35.637 39.7419 36.649 39.7419 37.771 40.7099C38.794 41.5789 39.124 41.5789 40.18 40.6659C41.258 39.7419 42.292 39.7419 43.381 40.6659C44.459 41.5899 44.734 41.6009 45.867 40.6219C46.318 40.2259 46.813 39.9509 47.429 40.0059C47.616 40.0609 47.803 40.1489 47.814 40.3579Z" fill="white"/>
<path d="M47.814 43.4269C47.814 43.5589 47.737 43.7789 47.671 43.7899C46.604 43.9219 46.076 45.0329 45.064 45.2529C44.921 45.2859 44.778 45.2969 44.712 45.2969C43.942 45.3079 43.392 44.9779 42.919 44.5049C42.171 43.7569 41.456 43.7899 40.653 44.5049C39.399 45.6269 38.563 45.6049 37.243 44.4499C36.473 43.7899 35.802 43.8009 35.043 44.4719C33.756 45.6159 32.92 45.6159 31.633 44.4829C30.819 43.7679 30.137 43.8119 29.356 44.5269C28.146 45.6049 27.244 45.5939 26.012 44.5049C25.231 43.8119 24.549 43.7789 23.746 44.4939C22.492 45.6269 21.645 45.6049 20.325 44.4609C19.566 43.7899 18.895 43.8009 18.136 44.4719C16.849 45.6159 16.013 45.6049 14.715 44.4829C14.374 44.1969 14.033 43.9769 13.582 43.8999C13.351 43.8559 13.164 43.7129 13.197 43.4489C13.241 43.1299 13.505 43.0969 13.769 43.0969C14.396 43.0969 14.858 43.4269 15.276 43.8449C16.024 44.5929 16.739 44.5929 17.531 43.8559C18.752 42.7559 19.687 42.7669 20.952 43.8999C21.711 44.5709 22.382 44.5709 23.141 43.8889C24.395 42.7669 25.33 42.7559 26.551 43.8669C27.354 44.5819 28.036 44.5709 28.817 43.8449C29.983 42.7779 30.973 42.7999 32.172 43.8229C33.129 44.6479 33.514 44.6479 34.504 43.7899C35.637 42.8219 36.649 42.8219 37.771 43.7789C38.794 44.6589 39.124 44.6479 40.18 43.7459C41.258 42.8219 42.292 42.8219 43.381 43.7459C44.459 44.6699 44.734 44.6699 45.867 43.6909C46.318 43.3059 46.813 43.0309 47.429 43.0859C47.616 43.1409 47.803 43.2179 47.814 43.4269Z" fill="white"/>
<path d="M26.1 16.576C25.814 16.73 25.627 16.521 25.495 16.301C25.033 15.509 24.56 14.706 24.12 13.892C23.911 13.507 24.098 13.287 24.549 13.199C24.659 13.298 24.813 13.397 24.901 13.54C25.352 14.31 25.803 15.091 26.254 15.861C26.408 16.136 26.441 16.4 26.1 16.576Z" fill="white"/>
<path d="M36.9899 13.892C36.5059 14.695 35.9449 15.619 35.3729 16.532C35.2739 16.697 35.0429 16.697 34.8889 16.576C34.7129 16.433 34.6359 16.224 34.7679 16.015C35.2519 15.168 35.7249 14.321 36.2199 13.474C36.3299 13.287 36.5279 13.166 36.7699 13.298C36.9569 13.375 37.0119 13.551 36.9899 13.892Z" fill="white"/>
<path d="M21.7441 24.1769C21.7111 24.4849 21.4471 24.5509 21.1941 24.5619C20.7211 24.5729 20.2481 24.5619 19.7861 24.5619C19.3571 24.5619 18.9281 24.5729 18.4991 24.5509C18.2461 24.5399 17.9711 24.4849 17.9601 24.1439C17.9601 23.8249 18.2021 23.7039 18.4661 23.6929C19.4011 23.6819 20.3251 23.6819 21.2601 23.6929C21.5351 23.7149 21.7551 23.8689 21.7441 24.1769Z" fill="white"/>
<path d="M36.8031 35.023C36.5941 35.166 36.3521 35.133 36.2311 34.935C35.7031 34.077 35.1861 33.197 34.7131 32.317C34.5151 31.965 34.8011 31.811 35.0541 31.668C35.1971 31.734 35.3181 31.767 35.3731 31.833C35.9121 32.735 36.4401 33.626 36.9571 34.539C37.0451 34.715 36.9571 34.913 36.8031 35.023Z" fill="white"/>
<path d="M30.951 13.5509C30.94 14.0129 30.962 14.4859 30.94 14.9589C30.929 15.1899 30.808 15.3659 30.544 15.3659C30.291 15.3659 30.115 15.2009 30.115 14.9699C30.093 14.0019 30.093 13.0229 30.104 12.0549C30.115 11.8129 30.269 11.6589 30.522 11.6479C30.874 11.6259 30.94 11.8789 30.951 12.1429C30.951 12.6159 30.951 13.0889 30.951 13.5509Z" fill="white"/>
<path d="M43.051 24.155C43.062 24.529 42.7759 24.617 42.4679 24.628C42.0389 24.65 41.6209 24.628 41.1919 24.628C40.7299 24.628 40.2569 24.639 39.7949 24.617C39.5199 24.606 39.2999 24.463 39.3109 24.155C39.3219 23.836 39.5749 23.77 39.8389 23.77C40.7409 23.759 41.6319 23.759 42.5229 23.77C42.7539 23.77 43.051 23.825 43.051 24.155Z" fill="white"/>
<path d="M26.331 32.273C25.814 33.12 25.242 34.066 24.637 35.001C24.538 35.155 24.307 35.122 24.153 34.968C23.999 34.836 23.944 34.66 24.043 34.484C24.538 33.615 25.044 32.735 25.572 31.866C25.66 31.712 25.847 31.613 26.034 31.712C26.21 31.778 26.32 31.921 26.331 32.273Z" fill="white"/>
<path d="M22.866 19.8209C22.701 20.0079 22.47 19.9859 22.283 19.8759C21.469 19.4249 20.666 18.9519 19.863 18.4899C19.665 18.3689 19.566 18.1819 19.621 17.9399C19.676 17.7529 19.83 17.6759 20.193 17.6649C21.018 18.1599 21.953 18.7319 22.877 19.3259C23.031 19.4249 23.009 19.6669 22.866 19.8209Z" fill="white"/>
<path d="M41.4341 30.216C41.3131 30.711 41.0271 30.755 40.6861 30.568C39.9051 30.128 39.1351 29.688 38.3541 29.226C38.1231 29.083 37.9691 28.885 38.1011 28.599C38.2001 28.346 38.4421 28.313 38.6401 28.412C39.5091 28.896 40.3781 29.402 41.2361 29.908C41.3351 29.974 41.3791 30.139 41.4341 30.216Z" fill="white"/>
<path d="M30.9181 33.4939C30.9291 33.9559 30.9181 34.4399 30.9181 34.9019C30.9181 35.3419 30.9291 35.7599 30.9181 36.1999C30.9071 36.4749 30.7751 36.6949 30.467 36.6729C30.214 36.6619 30.082 36.4859 30.082 36.2329C30.071 35.2979 30.071 34.3739 30.071 33.4279C30.071 33.1529 30.203 32.9219 30.522 32.9549C30.8411 32.9769 30.9181 33.2299 30.9181 33.4939Z" fill="white"/>
<path d="M41.4669 18.1049C41.4119 18.1929 41.3789 18.3579 41.2689 18.4349C40.4219 18.9519 39.5529 19.4469 38.6949 19.9419C38.4859 20.0519 38.2439 20.0079 38.1229 19.7989C38.0129 19.6009 38.0569 19.3589 38.2769 19.2379C39.1349 18.7319 40.0039 18.2259 40.8839 17.7639C41.1259 17.6209 41.3459 17.7639 41.4669 18.1049Z" fill="white"/>
<path d="M22.9321 28.6429C22.9541 28.9399 22.8001 29.0939 22.6021 29.2039C21.8541 29.6439 21.1171 30.0729 20.3581 30.4909C20.1271 30.6229 19.8631 30.7109 19.6761 30.4469C19.4891 30.1939 19.5991 29.9519 19.8411 29.7979C20.6441 29.3249 21.4471 28.8519 22.2721 28.4009C22.5471 28.2579 22.8331 28.3019 22.9321 28.6429Z" fill="white"/>
<path d="M30.577 17.104C26.639 17.082 23.46 20.195 23.427 24.122C23.394 28.027 26.573 31.217 30.489 31.228C34.405 31.228 37.595 28.038 37.595 24.155C37.595 20.305 34.427 17.126 30.577 17.104ZM30.522 30.348C27.09 30.348 24.318 27.598 24.307 24.166C24.307 20.745 27.079 17.973 30.5 17.973C33.921 17.973 36.726 20.745 36.737 24.144C36.748 27.554 33.943 30.348 30.522 30.348Z" fill="white"/>
<path d="M21.744 24.1769C21.711 24.4849 21.447 24.5509 21.194 24.5619C20.721 24.5729 20.248 24.5619 19.786 24.5619C19.357 24.5619 18.928 24.5729 18.499 24.5509C18.246 24.5399 17.971 24.4849 17.96 24.1439C17.96 23.8249 18.202 23.7039 18.466 23.6929C19.401 23.6819 20.325 23.6819 21.26 23.6929C21.535 23.7149 21.755 23.8689 21.744 24.1769Z" fill="white"/>
<path d="M22.9319 28.6431C22.9539 28.9401 22.7999 29.0941 22.6019 29.2041C21.8539 29.6441 21.1169 30.0731 20.3579 30.4911C20.1269 30.6231 19.8629 30.7111 19.6759 30.4471C19.4889 30.1941 19.5989 29.9521 19.8409 29.7981C20.6439 29.3251 21.4469 28.8521 22.2719 28.4011C22.5469 28.2581 22.8329 28.3021 22.9319 28.6431Z" fill="white"/>
<path d="M22.866 19.821C22.701 20.008 22.47 19.986 22.283 19.876C21.469 19.425 20.666 18.952 19.863 18.49C19.665 18.369 19.566 18.182 19.621 17.94C19.676 17.753 19.83 17.676 20.193 17.665C21.018 18.16 21.953 18.732 22.877 19.326C23.031 19.425 23.009 19.667 22.866 19.821Z" fill="white"/>
<path d="M26.331 32.273C25.814 33.12 25.242 34.066 24.637 35.001C24.538 35.155 24.307 35.122 24.153 34.968C23.999 34.836 23.944 34.66 24.043 34.484C24.538 33.615 25.044 32.735 25.572 31.866C25.66 31.712 25.847 31.613 26.034 31.712C26.21 31.778 26.32 31.921 26.331 32.273Z" fill="white"/>
<path d="M26.1 16.576C25.814 16.73 25.627 16.521 25.495 16.301C25.033 15.509 24.56 14.706 24.12 13.892C23.911 13.507 24.098 13.287 24.549 13.199C24.659 13.298 24.813 13.397 24.901 13.54C25.352 14.31 25.803 15.091 26.254 15.861C26.408 16.136 26.441 16.4 26.1 16.576Z" fill="white"/>
<path d="M30.9181 33.4941C30.9291 33.9561 30.9181 34.4401 30.9181 34.9021C30.9181 35.3421 30.9291 35.7601 30.9181 36.2001C30.9071 36.4751 30.7751 36.6951 30.467 36.6731C30.214 36.6621 30.082 36.4861 30.082 36.2331C30.071 35.2981 30.071 34.3741 30.071 33.4281C30.071 33.1531 30.203 32.9221 30.522 32.9551C30.8411 32.9771 30.9181 33.2301 30.9181 33.4941Z" fill="white"/>
<path d="M30.951 13.5509C30.94 14.0129 30.962 14.4859 30.94 14.9589C30.929 15.1899 30.808 15.3659 30.544 15.3659C30.291 15.3659 30.115 15.2009 30.115 14.9699C30.093 14.0019 30.093 13.0229 30.104 12.0549C30.115 11.8129 30.269 11.6589 30.522 11.6479C30.874 11.6259 30.94 11.8789 30.951 12.1429C30.951 12.6159 30.951 13.0889 30.951 13.5509Z" fill="white"/>
<path d="M30.577 17.104C26.639 17.082 23.46 20.195 23.427 24.122C23.394 28.027 26.573 31.217 30.489 31.228C34.405 31.228 37.595 28.038 37.595 24.155C37.595 20.305 34.427 17.126 30.577 17.104ZM30.522 30.348C27.09 30.348 24.318 27.598 24.307 24.166C24.307 20.745 27.079 17.973 30.5 17.973C33.921 17.973 36.726 20.745 36.737 24.144C36.748 27.554 33.943 30.348 30.522 30.348Z" fill="white"/>
<path d="M36.8031 35.023C36.5941 35.166 36.3521 35.133 36.2311 34.935C35.7031 34.077 35.1861 33.197 34.7131 32.317C34.5151 31.965 34.8011 31.811 35.0541 31.668C35.1971 31.734 35.3181 31.767 35.3731 31.833C35.9121 32.735 36.4401 33.626 36.9571 34.539C37.0451 34.715 36.9571 34.913 36.8031 35.023Z" fill="white"/>
<path d="M36.9899 13.892C36.5059 14.695 35.9449 15.619 35.3729 16.532C35.2739 16.697 35.0429 16.697 34.8889 16.576C34.7129 16.433 34.6359 16.224 34.7679 16.015C35.2519 15.168 35.7249 14.321 36.2199 13.474C36.3299 13.287 36.5279 13.166 36.7699 13.298C36.9569 13.375 37.0119 13.551 36.9899 13.892Z" fill="white"/>
<path d="M41.4339 30.216C41.3129 30.711 41.0269 30.755 40.6859 30.568C39.9049 30.128 39.1349 29.688 38.3539 29.226C38.1229 29.083 37.9689 28.885 38.1009 28.599C38.1999 28.346 38.4419 28.313 38.6399 28.412C39.5089 28.896 40.3779 29.402 41.2359 29.908C41.3349 29.974 41.3789 30.139 41.4339 30.216Z" fill="white"/>
<path d="M41.4669 18.1049C41.4119 18.1929 41.3789 18.3579 41.2689 18.4349C40.4219 18.9519 39.5529 19.4469 38.6949 19.9419C38.4859 20.0519 38.2439 20.0079 38.1229 19.7989C38.0129 19.6009 38.0569 19.3589 38.2769 19.2379C39.1349 18.7319 40.0039 18.2259 40.8839 17.7639C41.1259 17.6209 41.3459 17.7639 41.4669 18.1049Z" fill="white"/>
<path d="M43.051 24.155C43.062 24.529 42.7759 24.617 42.4679 24.628C42.0389 24.65 41.6209 24.628 41.1919 24.628C40.7299 24.628 40.2569 24.639 39.7949 24.617C39.5199 24.606 39.2999 24.463 39.3109 24.155C39.3219 23.836 39.5749 23.77 39.8389 23.77C40.7409 23.759 41.6319 23.759 42.5229 23.77C42.7539 23.77 43.051 23.825 43.051 24.155Z" fill="white"/>
<path d="M47.814 43.427C47.814 43.559 47.737 43.779 47.671 43.79C46.604 43.922 46.076 45.033 45.064 45.253C44.921 45.286 44.778 45.297 44.712 45.297C43.942 45.308 43.392 44.978 42.919 44.505C42.171 43.757 41.456 43.79 40.653 44.505C39.399 45.627 38.563 45.605 37.243 44.45C36.473 43.79 35.802 43.801 35.043 44.472C33.756 45.616 32.92 45.616 31.633 44.483C30.819 43.768 30.137 43.812 29.356 44.527C28.146 45.605 27.244 45.594 26.012 44.505C25.231 43.812 24.549 43.779 23.746 44.494C22.492 45.627 21.645 45.605 20.325 44.461C19.566 43.79 18.895 43.801 18.136 44.472C16.849 45.616 16.013 45.605 14.715 44.483C14.374 44.197 14.033 43.977 13.582 43.9C13.351 43.856 13.164 43.713 13.197 43.449C13.241 43.13 13.505 43.097 13.769 43.097C14.396 43.097 14.858 43.427 15.276 43.845C16.024 44.593 16.739 44.593 17.531 43.856C18.752 42.756 19.687 42.767 20.952 43.9C21.711 44.571 22.382 44.571 23.141 43.889C24.395 42.767 25.33 42.756 26.551 43.867C27.354 44.582 28.036 44.571 28.817 43.845C29.983 42.778 30.973 42.8 32.172 43.823C33.129 44.648 33.514 44.648 34.504 43.79C35.637 42.822 36.649 42.822 37.771 43.779C38.794 44.659 39.124 44.648 40.18 43.746C41.258 42.822 42.292 42.822 43.381 43.746C44.459 44.67 44.734 44.67 45.867 43.691C46.318 43.306 46.813 43.031 47.429 43.086C47.616 43.141 47.803 43.218 47.814 43.427Z" fill="white"/>
<path d="M47.814 40.3579C47.814 40.4789 47.737 40.7099 47.671 40.7099C46.604 40.8419 46.076 41.9639 45.064 42.1729C44.921 42.2059 44.778 42.2279 44.712 42.2279C43.942 42.2279 43.392 41.8979 42.919 41.4359C42.171 40.6879 41.456 40.7099 40.653 41.4249C39.399 42.5469 38.563 42.5249 37.243 41.3809C36.473 40.7209 35.802 40.7319 35.043 41.3919C33.756 42.5469 32.92 42.5469 31.633 41.4029C30.819 40.6989 30.137 40.7429 29.356 41.4469C28.146 42.5359 27.244 42.5249 26.012 41.4359C25.231 40.7319 24.549 40.6989 23.746 41.4139C22.492 42.5469 21.645 42.5249 20.325 41.3809C19.566 40.7209 18.895 40.7209 18.136 41.3919C16.849 42.5359 16.013 42.5249 14.715 41.4139C14.374 41.1169 14.033 40.9079 13.582 40.8309C13.351 40.7869 13.164 40.6329 13.197 40.3799C13.241 40.0609 13.505 40.0169 13.769 40.0169C14.396 40.0279 14.858 40.3469 15.276 40.7649C16.024 41.5239 16.739 41.5129 17.531 40.7869C18.752 39.6759 19.687 39.6979 20.952 40.8199C21.711 41.4909 22.382 41.4909 23.141 40.8199C24.395 39.6979 25.33 39.6869 26.551 40.7869C27.354 41.5129 28.036 41.5019 28.817 40.7759C29.983 39.7089 30.973 39.7199 32.172 40.7429C33.129 41.5789 33.514 41.5679 34.504 40.7099C35.637 39.7419 36.649 39.7419 37.771 40.7099C38.794 41.5789 39.124 41.5789 40.18 40.6659C41.258 39.7419 42.292 39.7419 43.381 40.6659C44.459 41.5899 44.734 41.6009 45.867 40.6219C46.318 40.2259 46.813 39.9509 47.429 40.0059C47.616 40.0609 47.803 40.1489 47.814 40.3579Z" fill="white"/>
<path d="M47.847 1H13.153C7.554 1 3 5.554 3 11.153V45.847C3 51.446 7.554 56 13.153 56H47.836C53.435 56 57.989 51.446 57.989 45.847V11.153C58 5.554 53.446 1 47.847 1ZM57.505 45.847C57.505 51.171 53.171 55.505 47.847 55.505H13.153C7.84 55.505 3.495 51.16 3.495 45.847V11.153C3.495 5.829 7.84 1.495 13.153 1.495H47.836C53.171 1.495 57.494 5.829 57.494 11.142V45.847H57.505Z" fill="white"/>
</g>
<defs>
<filter id="filter0_d_4_37" x="0" y="0" width="61" height="61" filterUnits="userSpaceOnUse" color-interpolation-filters="sRGB">
<feFlood flood-opacity="0" result="BackgroundImageFix"/>
<feColorMatrix in="SourceAlpha" type="matrix" values="0 0 0 0 0 0 0 0 0 0 0 0 0 0 0 0 0 0 127 0" result="hardAlpha"/>
<feOffset dy="2"/>
<feGaussianBlur stdDeviation="1.5"/>
<feColorMatrix type="matrix" values="0 0 0 0 0.0509804 0 0 0 0 0.0745098 0 0 0 0 0.117647 0 0 0 0.7 0"/>
<feBlend mode="normal" in2="BackgroundImageFix" result="effect1_dropShadow_4_37"/>
<feBlend mode="normal" in="SourceGraphic" in2="effect1_dropShadow_4_37" result="shape"/>
</filter>
</defs>
</svg>
