<svg width="20" height="24" viewBox="0 0 20 24" fill="none" xmlns="http://www.w3.org/2000/svg">
<path d="M6.76923 0C5.01538 0 3.53846 1.47692 3.53846 3.23077C3.53846 4.98462 5.01538 6.46154 6.76923 6.46154C8.02461 6.46154 9.12308 5.68985 9.65385 4.61538H15.5385L16.4615 3.69231V2.76923L15.5385 1.84615H14.6154L13.8649 2.59662L13.2308 1.84615H12.4803L11.9329 2.39446L11.2978 1.84615H9.65385C9.12215 0.771692 8.02554 0 6.76923 0ZM5.84615 2.30769C6.4 2.30769 6.76923 2.67692 6.76923 3.23077C6.76923 3.78462 6.4 4.15385 5.84615 4.15385C5.29231 4.15385 4.92308 3.78462 4.92308 3.23077C4.92308 2.67692 5.29231 2.30769 5.84615 2.30769ZM6.39446 8.30769C5.57305 8.31036 4.77528 8.58282 4.12383 9.08316C3.47239 9.5835 3.00337 10.284 2.78892 11.0769L2.12431 13.8462H1.69231C1.13846 13.8462 0.76923 14.2154 0.76923 14.7692V15.6923C0.76923 16.2462 1.13846 16.6154 1.69231 16.6154V23.0769C1.69231 23.6308 2.06154 24 2.61538 24H4.46154C5.01538 24 5.38461 23.6308 5.38461 23.0769V22.1538H14.6154V23.0769C14.6154 23.6308 14.9846 24 15.5385 24H17.3846C17.9385 24 18.3077 23.6308 18.3077 23.0769V16.6154C18.8615 16.6154 19.2308 16.2462 19.2308 15.6923V14.7692C19.2308 14.2154 18.8615 13.8462 18.3077 13.8462H17.8748L17.212 11.0769C16.7505 9.41538 15.2671 8.30769 13.6055 8.30769H6.39446ZM6.39446 10.1538H13.6055C14.4363 10.1538 15.1812 10.7077 15.3658 11.5385L16.144 14.7692H3.856L4.63415 11.5385C4.81877 10.7077 5.56369 10.1538 6.39446 10.1538ZM4.92308 17.5385C5.66154 17.5385 6.30769 18.1846 6.30769 18.9231C6.30769 19.6615 5.66154 20.3077 4.92308 20.3077C4.18461 20.3077 3.53846 19.6615 3.53846 18.9231C3.53846 18.1846 4.18461 17.5385 4.92308 17.5385ZM15.0769 17.5385C15.8154 17.5385 16.4615 18.1846 16.4615 18.9231C16.4615 19.6615 15.8154 20.3077 15.0769 20.3077C14.3385 20.3077 13.6923 19.6615 13.6923 18.9231C13.6923 18.1846 14.3385 17.5385 15.0769 17.5385Z" fill="#102A66"/>
</svg>
