<svg width="24" height="24" viewBox="0 0 24 24" fill="none" xmlns="http://www.w3.org/2000/svg">
<path d="M21 18.0038V16.5038C20.9967 14.2482 20.1473 12.076 18.6198 10.4165C17.0922 8.75694 14.9976 7.73094 12.75 7.54125V6.00375H15V4.50375H9V6.00375H11.25V7.54125C9.00244 7.73094 6.90784 8.75694 5.38025 10.4165C3.85266 12.076 3.00328 14.2482 3 16.5038V18.0038H1.5V19.5038H22.5V18.0038H21ZM12 9.00375C13.7281 9.00614 15.4025 9.6042 16.7411 10.6971C18.0797 11.7901 19.0005 13.3111 19.3485 15.0038H4.6515C4.99946 13.3111 5.92033 11.7901 7.25891 10.6971C8.59748 9.6042 10.2719 9.00614 12 9.00375ZM4.5 16.5038H19.5V18.0038H4.5V16.5038Z" fill="#102A66"/>
</svg>
