<svg width="24" height="24" viewBox="0 0 24 24" fill="none" xmlns="http://www.w3.org/2000/svg">
<path d="M19.5 15H15V13.5H19.5V15ZM22.5 21H18V19.5H22.5V21ZM21 18H16.5V16.5H21V18Z" fill="#102A66"/>
<path d="M12.7522 15C12.7469 14.3672 12.5782 13.7464 12.2622 13.1981C11.9463 12.6497 11.494 12.1923 10.9492 11.8702L16.5 2.25L15.2025 1.5L9.51973 11.3445C8.82231 11.1887 8.09695 11.2102 7.41 11.4072C6.72305 11.6041 6.09644 11.9701 5.58748 12.4718C2.77948 15.18 2.99698 21.5115 3.00748 21.78C3.01524 21.9737 3.09766 22.1568 3.23748 22.291C3.3773 22.4253 3.56366 22.5002 3.75748 22.5H15.0007C15.1581 22.5 15.3116 22.4505 15.4393 22.3584C15.567 22.2664 15.6625 22.1365 15.7122 21.9872C15.762 21.8378 15.7636 21.6766 15.7166 21.5264C15.6697 21.3761 15.5767 21.2444 15.4507 21.15C12.7957 19.158 12.7522 15.0405 12.7522 15ZM8.94748 12.7477C9.54776 12.7543 10.1224 12.9921 10.5518 13.4116C10.9812 13.8311 11.2324 14.4 11.253 15C11.253 15.0285 11.2545 15.156 11.2657 15.3517L6.84073 13.3837C7.13221 13.1434 7.46857 12.9634 7.83024 12.8542C8.19192 12.745 8.5717 12.7088 8.94748 12.7477ZM11.5875 21C10.988 20.3896 10.6059 19.599 10.5 18.75H8.99998C9.0537 19.5482 9.30303 20.3209 9.72598 21H8.05873C7.75029 20.0267 7.56264 19.0191 7.49998 18H5.99998C6.04835 19.0161 6.21574 20.0229 6.49873 21H4.49998C4.52323 19.623 4.71748 16.581 5.85223 14.5853L11.502 17.0978C11.7734 18.5072 12.3522 19.8396 13.197 21H11.5875Z" fill="#102A66"/>
</svg>
