<svg width="138" height="147" viewBox="0 0 138 147" fill="none" xmlns="http://www.w3.org/2000/svg">
<g clip-path="url(#clip0_1_158)" filter="url(#filter0_d_1_158)">
<path d="M121.73 111C112.66 109.09 103.41 108.52 94.2701 107.09C81.1601 105.09 67.9601 103.54 55.6501 97.96C54.0201 97.22 52.8401 96.66 52.8501 94.44C52.9167 76.32 52.9167 58.2034 52.8501 40.09C52.8501 38.15 53.3601 37.4 55.3801 37.21C61.1096 36.5927 66.6546 34.8203 71.6801 32C80.8233 26.9716 90.5678 23.1242 100.68 20.55C102.68 20.06 104.68 19.41 104.47 16.9C104.21 14.18 102.02 13.97 99.8001 13.9C91.0701 13.68 82.3301 13.52 73.6101 13.12C67.595 12.9745 61.6627 11.6849 56.1301 9.32002C54.4801 8.58002 52.8701 8.00002 52.7201 5.61002C52.6813 4.88128 52.3554 4.19757 51.8138 3.70845C51.2722 3.21933 50.559 2.96461 49.8301 3.00002C49.6683 3.00863 49.5076 3.03206 49.3501 3.07002C48.558 3.16314 47.8338 3.56281 47.3329 4.1834C46.8319 4.80398 46.594 5.5961 46.6701 6.39002V89.33C46.6701 90.69 47.0501 92.13 46.2201 93.61C42.7901 92.28 39.4101 90.99 36.0401 89.61C25.8501 85.52 19.2301 87.14 11.1101 97.12C3.32005 106.72 4.54005 115.82 14.1101 123.72C20.4401 128.97 27.8501 132.05 35.6201 134.48C39.5501 135.71 43.7901 135.64 47.5201 137.55H63.8601C64.7701 136.55 65.8601 136.77 67.0301 136.88C67.8701 136.88 68.8301 136.44 69.3401 137.55H71.6901C77.6301 135.73 83.8501 136.15 89.9101 135.25C99.7801 133.79 109.62 132.3 119.11 129.06C123.83 127.44 128.05 125.16 131.11 121.06V117.27C129.08 113.56 125.72 111.82 121.73 111ZM117.43 123.09C103.78 127.77 89.5401 129.32 75.2801 130.6C71.6501 130.93 68.0001 131.09 64.3601 131.33C51.1301 132.15 38.3601 130.33 26.3601 124.39C22.1055 122.392 18.2887 119.571 15.1301 116.09C12.2401 112.81 11.6401 109.36 13.4501 105.29C15.5359 100.759 19.0483 97.0361 23.4501 94.69C24.9543 93.8776 26.7004 93.6327 28.3701 94C34.3701 95 39.7401 97.63 45.1701 100.15C45.7034 100.38 46.143 100.784 46.4173 101.296C46.6915 101.809 46.7841 102.398 46.6801 102.97C46.6801 105.05 46.5701 107.15 46.6801 109.22C46.8101 111.45 46.5201 112.98 44.0301 114.07C41.1101 115.35 41.2901 117.74 44.2101 119.19C45.9145 120.045 47.7919 120.498 49.6985 120.515C51.605 120.532 53.4903 120.113 55.2101 119.29C56.4001 118.78 57.5801 117.99 57.5401 116.45C57.5401 115.11 56.4401 114.45 55.4301 113.85C53.4301 112.62 51.9601 106.78 53.0401 104.71C53.6101 103.61 54.3101 104.23 54.9601 104.49C74.8301 112.41 96.1001 113.11 116.86 116.49C119.37 116.9 123.54 116.87 123.7 118.89C123.86 121.5 119.9 122.19 117.43 123.07V123.09Z" fill="white"/>
<path d="M69.3401 137.62C69.0657 137.427 68.7541 137.294 68.4252 137.228C68.0963 137.163 67.7574 137.167 67.4301 137.24C67.2908 137.26 67.1494 137.26 67.0101 137.24H66.8601C65.8601 137.39 64.7801 136.9 63.8601 137.64C64.7701 136.64 65.8601 136.86 67.0301 136.97C67.8701 137 68.8301 136.51 69.3401 137.62Z" fill="white"/>
<path d="M67 137.62H63.9C64.81 136.62 65.9 136.84 67.07 136.95C67.3 137.06 67.43 137.15 67.47 137.24C67.51 137.33 67.35 137.51 67 137.62Z" fill="white"/>
<path d="M69.34 137.62H67V137C67.87 137 68.83 136.51 69.34 137.62Z" fill="white"/>
</g>
<defs>
<filter id="filter0_d_1_158" x="0" y="0" width="137.11" height="146.64" filterUnits="userSpaceOnUse" color-interpolation-filters="sRGB">
<feFlood flood-opacity="0" result="BackgroundImageFix"/>
<feColorMatrix in="SourceAlpha" type="matrix" values="0 0 0 0 0 0 0 0 0 0 0 0 0 0 0 0 0 0 127 0" result="hardAlpha"/>
<feOffset dy="3"/>
<feGaussianBlur stdDeviation="3"/>
<feColorMatrix type="matrix" values="0 0 0 0 0 0 0 0 0 0 0 0 0 0 0 0 0 0 0.3 0"/>
<feBlend mode="normal" in2="BackgroundImageFix" result="effect1_dropShadow_1_158"/>
<feBlend mode="normal" in="SourceGraphic" in2="effect1_dropShadow_1_158" result="shape"/>
</filter>
<clipPath id="clip0_1_158">
<rect width="125.11" height="134.64" fill="white" transform="translate(6 3)"/>
</clipPath>
</defs>
</svg>
