<svg width="175" height="171" viewBox="0 0 175 171" fill="none" xmlns="http://www.w3.org/2000/svg">
<g clip-path="url(#clip0_1_126)" filter="url(#filter0_d_1_126)">
<path d="M153.78 146.48C152.203 146.48 150.644 146.15 149.202 145.511C147.761 144.872 146.469 143.938 145.41 142.77C141.88 139.27 138.52 139.39 134.78 142.77C128.91 148.02 124.99 147.93 118.78 142.57C115.19 139.47 112.06 139.51 108.5 142.65C102.5 148 98.57 148.01 92.5 142.65C88.73 139.33 85.5 139.51 81.84 142.83C76.18 147.91 71.99 147.83 66.24 142.77C62.54 139.49 59.34 139.35 55.59 142.71C49.7 147.98 45.76 147.9 39.59 142.55C36.01 139.44 32.88 139.45 29.32 142.55C23.27 147.9 19.39 147.85 13.32 142.62C11.8449 141.285 10.0329 140.379 8.08 140C7.82222 139.985 7.57011 139.918 7.33874 139.804C7.10737 139.689 6.90151 139.529 6.73347 139.333C6.56542 139.137 6.43865 138.909 6.36074 138.663C6.28282 138.416 6.25536 138.157 6.28 137.9C6.49 136.42 7.72 136.2 8.97 136.21C11.89 136.21 14.09 137.75 16.03 139.72C19.54 143.29 22.88 143.21 26.62 139.81C32.3 134.63 36.67 134.69 42.62 139.95C46.2 143.12 49.29 143.13 52.85 139.95C58.74 134.7 63.1 134.65 68.85 139.83C72.59 143.2 75.78 143.13 79.47 139.75C84.94 134.75 89.53 134.85 95.12 139.63C99.65 143.51 101.4 143.49 106.03 139.51C111.32 134.95 116.03 134.94 121.36 139.51C126.14 143.61 127.68 143.58 132.63 139.34C137.58 135.1 142.51 135.03 147.63 139.34C152.75 143.65 153.99 143.67 159.26 139.13C161.4 137.3 163.68 135.99 166.58 136.27C167.45 136.36 168.32 136.73 168.36 137.73C168.36 138.31 168.01 139.4 167.72 139.44C162.72 140.04 160.27 145.25 155.53 146.29C154.82 146.37 154.15 146.43 153.78 146.48Z" fill="white"/>
<path d="M100.52 146.91C97.98 146.91 95.45 145.56 92.37 142.85C88.78 139.7 85.7 139.75 82.06 143.02C76.3 148.2 71.98 148.18 66.06 142.97C62.41 139.73 59.32 139.71 55.75 142.91C49.8 148.23 45.68 148.19 39.42 142.75C35.94 139.75 32.98 139.75 29.5 142.8C23.36 148.22 19.39 148.24 13.17 142.87C11.732 141.513 9.93968 140.591 7.99996 140.21C7.70962 140.188 7.42672 140.107 7.16797 139.974C6.90922 139.84 6.67986 139.656 6.49344 139.432C6.30701 139.208 6.16729 138.95 6.08254 138.671C5.99778 138.392 5.9697 138.1 5.99996 137.81C6.23996 136.09 7.70996 135.88 8.99996 135.89C12.31 135.89 14.62 137.83 16.25 139.49C19.62 142.91 22.77 142.93 26.47 139.57C32.21 134.34 36.8 134.38 42.82 139.71C46.29 142.78 49.24 142.78 52.7 139.71C58.65 134.4 63.24 134.36 69.04 139.59C72.63 142.83 75.7 142.81 79.3 139.51C84.77 134.51 89.55 134.51 95.3 139.39C99.74 143.2 101.3 143.18 105.86 139.27C111.27 134.6 116.11 134.6 121.53 139.27C126.19 143.27 127.63 143.27 132.46 139.1C137.59 134.71 142.59 134.72 147.77 139.1C152.77 143.34 153.91 143.32 159.06 138.89C160.84 137.37 163.29 135.66 166.58 135.97C167.82 136.09 168.58 136.71 168.58 137.68C168.58 138.24 168.26 139.59 167.71 139.68C165.14 139.99 163.3 141.51 161.35 143.12C159.63 144.55 157.85 146.02 155.55 146.53C155.097 146.625 154.64 146.695 154.18 146.74L153.83 146.79H153.7C150.49 146.79 147.88 145.62 145.24 143.01C141.85 139.66 138.68 139.65 134.97 143.01C129.04 148.3 124.92 148.25 118.63 142.81C115.16 139.81 112.19 139.81 108.71 142.89C105.6 145.55 103.06 146.91 100.52 146.91ZM60.89 140C62.7 140 64.52 140.86 66.46 142.57C72.14 147.62 76.13 147.64 81.71 142.63C85.54 139.18 88.94 139.13 92.71 142.45C98.62 147.65 102.42 147.64 108.34 142.45C112.01 139.21 115.34 139.18 118.96 142.36C125.06 147.64 128.86 147.69 134.59 142.57C138.52 139.06 142.01 139.07 145.59 142.57C146.609 143.709 147.855 144.622 149.249 145.249C150.642 145.876 152.152 146.203 153.68 146.21H153.75H154.1C154.54 146.165 154.977 146.099 155.41 146.01C157.59 145.52 159.25 144.16 161 142.71C162.92 141.12 164.9 139.47 167.63 139.15C167.886 138.712 168.027 138.217 168.04 137.71C168.04 136.83 167.18 136.57 166.5 136.51C164.06 136.27 161.93 137.11 159.38 139.3C154.03 143.89 152.58 143.92 147.38 139.51C142.38 135.25 137.71 135.25 132.76 139.51C127.81 143.77 125.99 143.84 121.14 139.68C115.95 135.24 111.33 135.25 106.14 139.68C101.41 143.75 99.51 143.77 94.88 139.8C89.31 135.03 84.88 135.06 79.58 139.91C75.79 143.39 72.4 143.41 68.58 139.99C62.95 134.93 58.72 134.99 52.94 140.11C49.29 143.37 46.03 143.37 42.36 140.11C36.52 134.94 32.28 134.9 26.71 139.97C22.81 143.52 19.33 143.49 15.77 139.87C13.52 137.5 11.4 136.44 8.99996 136.42H8.90996C7.36996 136.42 6.68996 136.85 6.53996 137.89C6.38996 138.93 7.29996 139.54 8.11996 139.69C10.1594 140.084 12.0455 141.048 13.56 142.47C19.56 147.61 23.32 147.6 29.21 142.4C32.87 139.17 36.15 139.15 39.82 142.35C45.89 147.63 49.69 147.67 55.45 142.51C56.8864 141.024 58.8269 140.128 60.89 140Z" fill="white"/>
<path d="M153.78 160.84C152.203 160.84 150.644 160.51 149.202 159.871C147.761 159.232 146.469 158.298 145.41 157.13C141.88 153.63 138.52 153.75 134.78 157.13C128.91 162.38 124.99 162.29 118.78 156.93C115.19 153.82 112.06 153.87 108.5 157.01C102.5 162.36 98.57 162.37 92.5 157.01C88.73 153.69 85.5 153.87 81.84 157.19C76.18 162.27 71.99 162.24 66.24 157.13C62.54 153.85 59.34 153.71 55.59 157.07C49.7 162.33 45.76 162.26 39.59 156.91C36.01 153.8 32.88 153.81 29.32 156.96C23.27 162.31 19.39 162.26 13.32 157.03C11.8371 155.648 9.99834 154.706 8.01 154.31C7.7527 154.294 7.50127 154.226 7.27057 154.111C7.03987 153.996 6.83457 153.836 6.66678 153.64C6.499 153.444 6.37213 153.217 6.29368 152.971C6.21522 152.726 6.18677 152.467 6.21 152.21C6.42 150.73 7.65 150.51 8.9 150.52C11.82 150.52 14.02 152.06 15.96 154.03C19.47 157.6 22.81 157.52 26.55 154.12C32.23 148.94 36.6 149 42.55 154.26C46.13 157.43 49.22 157.44 52.78 154.26C58.67 149.02 63.03 148.97 68.78 154.15C72.52 157.52 75.71 157.45 79.4 154.07C84.87 149.07 89.46 149.16 95.05 153.95C99.58 157.83 101.33 157.81 105.96 153.83C111.25 149.27 115.96 149.26 121.29 153.83C126.07 157.93 127.61 157.9 132.56 153.66C137.51 149.42 142.44 149.35 147.56 153.66C152.68 157.97 153.92 157.99 159.19 153.45C161.33 151.62 163.61 150.31 166.51 150.59C167.38 150.68 168.25 151.05 168.29 152.05C168.29 152.63 167.94 153.72 167.65 153.76C162.65 154.36 160.2 159.57 155.46 160.61C154.82 160.73 154.15 160.79 153.78 160.84Z" fill="white"/>
<path d="M100.52 161.27C97.98 161.27 95.45 159.92 92.37 157.2C88.78 154.06 85.7 154.11 82.06 157.38C76.3 162.56 71.98 162.54 66.06 157.38C62.41 154.14 59.32 154.12 55.75 157.32C49.8 162.64 45.68 162.6 39.42 157.16C35.94 154.16 32.98 154.16 29.5 157.16C23.36 162.58 19.39 162.6 13.17 157.23C11.732 155.873 9.93968 154.951 7.99996 154.57C7.70962 154.548 7.42672 154.467 7.16797 154.334C6.90922 154.2 6.67986 154.016 6.49344 153.792C6.30701 153.568 6.16729 153.31 6.08254 153.031C5.99778 152.752 5.9697 152.46 5.99996 152.17C6.23996 150.45 7.70996 150.26 8.99996 150.25C12.31 150.25 14.62 152.19 16.25 153.85C19.62 157.27 22.77 157.29 26.47 153.92C32.21 148.7 36.8 148.73 42.82 154.07C46.29 157.14 49.24 157.14 52.7 154.07C58.65 148.75 63.24 148.72 69.04 153.95C72.63 157.19 75.7 157.17 79.3 153.87C84.77 148.87 89.55 148.87 95.3 153.75C99.74 157.56 101.3 157.54 105.86 153.63C111.27 148.96 116.11 148.95 121.53 153.63C126.19 157.63 127.63 157.63 132.46 153.46C137.59 149.07 142.59 149.07 147.77 153.46C152.77 157.7 153.91 157.68 159.06 153.25C160.84 151.73 163.29 150.02 166.58 150.33C167.82 150.45 168.58 151.07 168.58 152.04C168.58 152.6 168.26 153.95 167.71 154.04C165.14 154.35 163.3 155.87 161.35 157.48C159.63 158.91 157.85 160.38 155.55 160.89C155.097 160.985 154.64 161.055 154.18 161.1H153.83H153.7C150.49 161.1 147.88 159.93 145.24 157.32C141.85 153.97 138.68 153.96 134.97 157.32C129.04 162.61 124.92 162.56 118.63 157.12C115.16 154.12 112.19 154.12 108.71 157.2C105.6 159.91 103.06 161.27 100.52 161.27ZM60.89 154.36C62.7 154.36 64.52 155.22 66.46 156.93C72.14 161.93 76.13 162 81.71 156.99C85.54 153.54 88.94 153.49 92.71 156.81C98.62 162.01 102.42 162 108.34 156.81C112.01 153.57 115.34 153.54 118.96 156.72C125.06 162 128.86 162.05 134.59 156.93C138.52 153.42 142.01 153.43 145.59 156.93C146.609 158.068 147.855 158.979 149.249 159.605C150.643 160.23 152.152 160.556 153.68 160.56H153.75H154.1C154.54 160.515 154.977 160.449 155.41 160.36C157.59 159.87 159.25 158.51 161 157.06C162.92 155.47 164.9 153.82 167.63 153.49C167.887 153.057 168.029 152.564 168.04 152.06C168.04 151.18 167.18 150.92 166.5 150.86C164.06 150.62 161.93 151.46 159.38 153.65C154.03 158.24 152.58 158.27 147.38 153.86C142.38 149.6 137.71 149.6 132.76 153.86C127.81 158.12 126 158.19 121.14 154.03C115.95 149.59 111.33 149.6 106.14 154.03C101.41 158.1 99.51 158.12 94.88 154.15C89.31 149.38 84.88 149.41 79.58 154.26C75.79 157.74 72.4 157.76 68.58 154.34C62.95 149.28 58.72 149.34 52.94 154.46C49.29 157.72 46.02 157.72 42.36 154.46C36.52 149.29 32.28 149.25 26.71 154.32C22.81 157.87 19.33 157.84 15.77 154.22C13.52 151.86 11.4 150.8 8.99996 150.78H8.90996C7.36996 150.78 6.68996 151.21 6.53996 152.24C6.52088 152.463 6.54698 152.688 6.61671 152.901C6.68643 153.115 6.79836 153.311 6.94581 153.48C7.09325 153.649 7.27321 153.787 7.47493 153.885C7.67666 153.982 7.89603 154.039 8.11996 154.05C10.1594 154.444 12.0455 155.408 13.56 156.83C19.56 161.97 23.32 161.96 29.21 156.76C32.87 153.53 36.14 153.51 39.82 156.76C45.89 162.04 49.69 162.08 55.45 156.92C56.8785 155.415 58.8199 154.502 60.89 154.36V154.36Z" fill="white"/>
<path d="M59.4 10.52C60.0003 10.9819 60.5382 11.5197 61 12.12C63.15 15.7 65.2 19.33 67.3 22.93C68.08 24.27 68.22 25.51 66.68 26.33C65.3 27.06 64.45 26.08 63.85 25.06C61.65 21.32 59.47 17.56 57.38 13.76C56.43 12 57.29 11 59.4 10.52Z" fill="white"/>
<path d="M65.7799 26.85C64.6199 26.85 63.9399 25.69 63.6399 25.19C61.5399 21.63 59.3099 17.79 57.1699 13.88C56.9553 13.5661 56.8181 13.2058 56.7694 12.8286C56.7208 12.4515 56.7621 12.0682 56.8899 11.71C57.1586 11.2964 57.5199 10.951 57.9451 10.7011C58.3703 10.4512 58.8478 10.3036 59.3399 10.27H59.4799L59.5799 10.36L60.0699 10.79C60.528 11.1246 60.9269 11.5336 61.2499 12C62.6499 14.34 64.0299 16.74 65.3699 19.05C66.0999 20.31 66.8199 21.57 67.5499 22.82C67.7986 23.1563 67.9742 23.5408 68.0654 23.949C68.1567 24.3571 68.1616 24.7799 68.0799 25.19C67.9782 25.4967 67.8136 25.7787 67.5967 26.0181C67.3797 26.2574 67.1151 26.4488 66.8199 26.58C66.5018 26.757 66.1439 26.8499 65.7799 26.85V26.85ZM59.3199 10.85C58.924 10.8751 58.5387 10.9887 58.1925 11.1826C57.8464 11.3764 57.5482 11.6455 57.3199 11.97C57.2287 12.2547 57.2056 12.5569 57.2525 12.8522C57.2994 13.1474 57.415 13.4276 57.5899 13.67C59.7199 17.57 61.9499 21.4 64.0499 24.96C64.8299 26.29 65.5699 26.64 66.5199 26.14C66.7513 26.0401 66.9595 25.8935 67.1316 25.7094C67.3037 25.5253 67.4359 25.3076 67.5199 25.07C67.5809 24.7222 67.5708 24.3656 67.49 24.0218C67.4092 23.6781 67.2595 23.3543 67.0499 23.07C66.3099 21.81 65.5899 20.56 64.8599 19.3C63.5299 16.98 62.1399 14.58 60.7499 12.3C60.4537 11.8819 60.0925 11.5139 59.6799 11.21L59.3199 10.85Z" fill="white"/>
<path d="M117.67 13.77C115.38 17.53 112.8 21.86 110.11 26.13C109.981 26.3034 109.817 26.4473 109.629 26.5519C109.44 26.6565 109.231 26.7195 109.016 26.7366C108.801 26.7536 108.585 26.7244 108.382 26.6508C108.179 26.5772 107.994 26.461 107.84 26.31C107.408 26.0314 107.104 25.5926 106.995 25.0901C106.887 24.5876 106.982 24.0624 107.26 23.63C109.52 19.68 111.75 15.71 114.08 11.8C114.183 11.5652 114.333 11.3545 114.522 11.1813C114.712 11.0081 114.935 10.8764 115.178 10.7945C115.42 10.7125 115.678 10.6823 115.933 10.7056C116.188 10.729 116.436 10.8054 116.66 10.93C117.51 11.37 117.76 12.15 117.67 13.77Z" fill="white"/>
<path d="M109 27C108.52 26.9952 108.055 26.8297 107.68 26.53C107.202 26.2133 106.867 25.7225 106.745 25.1621C106.624 24.6018 106.726 24.0162 107.03 23.53L108.6 20.78C110.3 17.78 112.06 14.7 113.85 11.69C113.967 11.4234 114.138 11.184 114.352 10.987C114.567 10.7899 114.82 10.6396 115.095 10.5456C115.371 10.4516 115.663 10.4159 115.953 10.4407C116.243 10.4656 116.524 10.5505 116.78 10.69C117.85 11.24 118.02 12.28 117.93 13.77V13.9L116.19 16.77C114.33 19.85 112.4 23.04 110.37 26.26C110.261 26.4395 110.115 26.5943 109.943 26.7148C109.771 26.8353 109.576 26.9188 109.37 26.96C109.249 26.9895 109.125 27.003 109 27V27ZM115.75 11C115.443 11.0276 115.148 11.1341 114.893 11.3093C114.639 11.4846 114.435 11.7225 114.3 12C112.52 15 110.76 18.1 109.05 21.09L107.49 23.83C107.266 24.2011 107.193 24.6445 107.288 25.0676C107.384 25.4907 107.638 25.8606 108 26.1C108.162 26.2393 108.352 26.3425 108.557 26.4029C108.763 26.4632 108.978 26.4793 109.19 26.45C109.329 26.4258 109.462 26.3723 109.579 26.293C109.697 26.2137 109.796 26.1105 109.87 25.99C111.87 22.78 113.87 19.59 115.69 16.51C116.27 15.5434 116.84 14.6034 117.4 13.69C117.49 12 117.14 11.48 116.53 11.17C116.286 11.0544 116.02 10.9962 115.75 11V11Z" fill="white"/>
<path d="M37.0899 63.73C35.0899 63.73 33.0899 63.79 31.0899 63.73C29.8899 63.67 28.6299 63.37 28.5999 61.83C28.5699 60.29 29.7099 59.75 30.9399 59.73C35.3133 59.65 39.6799 59.65 44.0399 59.73C45.3099 59.73 46.4099 60.5 46.2999 61.92C46.1899 63.34 44.8999 63.71 43.6899 63.75C41.4999 63.82 39.3199 63.75 37.1299 63.75L37.0899 63.73Z" fill="white"/>
<path d="M40.9999 64H37.0899H36.8299H35.3099C33.9099 64 32.4599 64 31.0399 64C30.3699 64 28.3399 63.88 28.2999 61.84C28.2781 61.5468 28.3175 61.2523 28.4156 60.9751C28.5137 60.6979 28.6685 60.4442 28.8699 60.23C29.4119 59.7265 30.1305 59.457 30.8699 59.48C35.3199 59.4 39.7299 59.4 43.9799 59.48C44.3507 59.4732 44.719 59.5415 45.0627 59.6807C45.4064 59.8199 45.7184 60.0272 45.9799 60.29C46.1764 60.5159 46.324 60.78 46.4135 61.0657C46.503 61.3513 46.5324 61.6524 46.4999 61.95C46.3899 63.27 45.4299 63.95 43.6299 64.03C42.7599 64 41.8499 64 40.9999 64ZM37.4099 63.46H38.9999C40.5099 63.46 42.0799 63.46 43.6099 63.46C45.1399 63.46 45.8799 62.91 45.9599 61.87C45.9877 61.6428 45.9674 61.4123 45.9002 61.1935C45.833 60.9747 45.7205 60.7725 45.5699 60.6C45.3613 60.4007 45.1149 60.2449 44.8454 60.1419C44.5758 60.0388 44.2884 59.9906 43.9999 60C39.7599 59.92 35.3599 59.92 30.9099 60C30.3001 59.9799 29.7059 60.1947 29.2499 60.6C29.0995 60.7658 28.9839 60.9601 28.91 61.1714C28.8361 61.3827 28.8055 61.6067 28.8199 61.83C28.8199 62.91 29.5099 63.4 31.0599 63.47C32.6099 63.54 33.9099 63.52 35.2999 63.47H37.0899L37.4099 63.46Z" fill="white"/>
<path d="M108.58 97C109.22 97.34 109.84 97.46 110.06 97.82C112.57 102.01 115.06 106.22 117.47 110.47C117.663 110.858 117.7 111.305 117.571 111.719C117.442 112.132 117.159 112.48 116.78 112.69C116.584 112.858 116.355 112.982 116.107 113.053C115.858 113.124 115.598 113.14 115.343 113.1C115.088 113.06 114.845 112.965 114.63 112.822C114.416 112.678 114.235 112.49 114.1 112.27C111.64 108.27 109.23 104.17 106.97 100.03C106.08 98.37 107.43 97.66 108.58 97Z" fill="white"/>
<path d="M115.55 113.35C115.414 113.365 115.276 113.365 115.14 113.35C114.877 113.29 114.629 113.178 114.411 113.02C114.193 112.862 114.009 112.661 113.87 112.43C110.99 107.7 108.73 103.81 106.74 100.17C105.74 98.36 107.25 97.49 108.35 96.85L108.58 96.72L108.71 96.79C108.908 96.8938 109.112 96.9873 109.32 97.07C109.713 97.1643 110.065 97.3858 110.32 97.7C113.21 102.52 115.57 106.54 117.74 110.36C117.967 110.805 118.014 111.321 117.871 111.8C117.727 112.278 117.405 112.683 116.97 112.93C116.55 113.211 116.055 113.358 115.55 113.35V113.35ZM108.55 97.28C107.22 98.05 106.47 98.62 107.16 99.88C109.16 103.51 111.41 107.4 114.29 112.12C114.388 112.29 114.521 112.437 114.679 112.552C114.838 112.667 115.018 112.748 115.21 112.79C115.451 112.834 115.699 112.827 115.936 112.768C116.174 112.71 116.397 112.601 116.59 112.45C116.913 112.277 117.157 111.986 117.271 111.638C117.385 111.289 117.359 110.91 117.2 110.58C115.03 106.76 112.68 102.75 109.79 97.93C109.59 97.7307 109.342 97.5861 109.07 97.51C109 97.44 108.77 97.37 108.59 97.28H108.55Z" fill="white"/>
<path d="M89.3399 12.18C89.3399 14.38 89.3399 16.57 89.3399 18.76C89.3635 19.0129 89.332 19.2679 89.2477 19.5075C89.1635 19.747 89.0283 19.9655 88.8516 20.1479C88.6749 20.3303 88.4608 20.4723 88.224 20.5642C87.9873 20.656 87.7334 20.6956 87.4799 20.68C87.2243 20.7024 86.9669 20.671 86.7242 20.5879C86.4814 20.5049 86.2587 20.372 86.0704 20.1978C85.8821 20.0235 85.7322 19.8119 85.6305 19.5763C85.5289 19.3408 85.4775 19.0866 85.4799 18.83C85.3933 14.2767 85.3933 9.73004 85.4799 5.19004C85.4738 4.92938 85.522 4.67031 85.6215 4.42928C85.7209 4.18825 85.8694 3.97053 86.0574 3.78997C86.2455 3.6094 86.4691 3.46993 86.714 3.38043C86.9589 3.29092 87.2197 3.25333 87.4799 3.27004C89.0799 3.21004 89.4199 4.36004 89.4799 5.61004C89.5399 7.80004 89.4799 9.99004 89.4799 12.18H89.3399Z" fill="white"/>
<path d="M87.46 20.94C87.1706 20.9623 86.8799 20.924 86.6062 20.8277C86.3325 20.7314 86.0818 20.5792 85.8701 20.3807C85.6585 20.1822 85.4905 19.9418 85.3768 19.6749C85.2632 19.4079 85.2063 19.1202 85.21 18.83C85.12 14.49 85.12 10.03 85.21 5.18002C85.2059 4.89348 85.2593 4.60902 85.3668 4.34337C85.4743 4.07773 85.6338 3.83625 85.836 3.63315C86.0382 3.43004 86.2789 3.26941 86.544 3.16068C86.8092 3.05195 87.0934 2.99733 87.38 3.00002C87.6566 2.97007 87.9365 2.99818 88.2017 3.08255C88.4668 3.16693 88.7115 3.30571 88.92 3.49002C89.4185 4.07626 89.6727 4.83166 89.63 5.60002C89.63 7.15002 89.63 8.73002 89.63 10.26C89.63 10.9 89.63 11.54 89.63 12.18V12.45C89.63 13 89.63 13.55 89.63 14.1C89.63 15.63 89.63 17.21 89.63 18.77C89.656 19.0615 89.6177 19.3552 89.5179 19.6303C89.418 19.9054 89.259 20.1552 89.0521 20.3622C88.8452 20.5691 88.5953 20.7281 88.3202 20.828C88.0451 20.9278 87.7515 20.9661 87.46 20.94ZM87.51 3.53002H87.4C87.1775 3.52042 86.9555 3.55648 86.7476 3.63599C86.5396 3.71549 86.3502 3.83675 86.1909 3.99229C86.0316 4.14782 85.9059 4.33434 85.8214 4.54033C85.737 4.74633 85.6956 4.96744 85.7 5.19002C85.63 10.03 85.64 14.49 85.7 18.82C85.6977 19.042 85.7419 19.262 85.8298 19.4658C85.9177 19.6696 86.0473 19.8528 86.2103 20.0035C86.3733 20.1542 86.566 20.2692 86.776 20.3409C86.9861 20.4126 87.2088 20.4396 87.43 20.42C87.6491 20.4329 87.8684 20.3979 88.0726 20.3174C88.2768 20.2369 88.461 20.1128 88.6123 19.9539C88.7637 19.7949 88.8786 19.6048 88.949 19.3969C89.0194 19.189 89.0436 18.9683 89.02 18.75C89.02 17.2 89.02 15.63 89.02 14.11C89.02 13.47 89.02 12.82 89.02 12.18V11.92C89.02 11.37 89.02 10.81 89.02 10.25C89.02 8.73002 89.02 7.16002 89.02 5.62002C89.0619 5.31399 89.0429 5.00267 88.9639 4.70403C88.885 4.40539 88.7477 4.12534 88.56 3.88002C88.417 3.75484 88.2505 3.65942 88.0702 3.59932C87.8899 3.53923 87.6995 3.51567 87.51 3.53002V3.53002Z" fill="white"/>
<path d="M137.26 64.05C135.08 64.05 132.9 64.12 130.73 64.05C130.434 64.0759 130.136 64.0383 129.855 63.9398C129.575 63.8413 129.319 63.6841 129.104 63.4787C128.889 63.2733 128.721 63.0245 128.609 62.7488C128.498 62.4732 128.447 62.177 128.46 61.88C128.46 60.36 129.71 60.03 130.95 60.03C135.13 60.03 139.32 60.03 143.51 60.03C144.68 60.03 145.99 60.24 146.02 61.83C146.02 63.61 144.7 64.01 143.29 64.06C141.29 64.14 139.29 64.06 137.29 64.06L137.26 64.05Z" fill="white"/>
<path d="M140.85 64.36H137.26H137H135.33C133.82 64.36 132.26 64.36 130.72 64.36C130.389 64.3875 130.056 64.3439 129.743 64.2321C129.43 64.1204 129.145 63.943 128.906 63.7119C128.668 63.4808 128.481 63.2014 128.359 62.8923C128.238 62.5833 128.183 62.2518 128.2 61.92C128.2 60.53 129.2 59.82 130.95 59.81C134.95 59.81 139.2 59.81 143.51 59.81C144.33 59.81 146.25 59.81 146.28 61.87C146.28 64.25 144.05 64.34 143.28 64.37C142.51 64.4 141.67 64.36 140.85 64.36ZM137.52 63.81H139.06C140.45 63.81 141.88 63.81 143.28 63.81C145.01 63.75 145.78 63.14 145.76 61.81C145.74 60.48 144.84 60.28 143.5 60.26C139.2 60.2 134.93 60.26 130.95 60.26C129.44 60.26 128.76 60.76 128.73 61.86C128.728 62.1186 128.779 62.3748 128.881 62.6127C128.982 62.8507 129.131 63.0654 129.318 63.2435C129.506 63.4215 129.728 63.5593 129.971 63.6481C130.213 63.737 130.472 63.7751 130.73 63.76C132.25 63.83 133.8 63.81 135.3 63.76H137.24L137.52 63.81Z" fill="white"/>
<path d="M67.7399 99.82C65.3199 103.76 62.6399 108.23 59.8099 112.6C59.3599 113.29 58.2699 113.12 57.5499 112.46C57.2042 112.205 56.9616 111.835 56.8661 111.417C56.7707 110.998 56.8288 110.559 57.0299 110.18C59.3699 106.067 61.7466 101.98 64.1599 97.92C64.3628 97.5414 64.7007 97.2531 65.1065 97.1123C65.5122 96.9715 65.9561 96.9885 66.3499 97.16C67.1699 97.52 67.6899 98.17 67.7399 99.82Z" fill="white"/>
<path d="M58.9199 113.31C58.3422 113.285 57.7923 113.055 57.3699 112.66C56.9716 112.37 56.6941 111.944 56.5908 111.462C56.4874 110.98 56.5655 110.478 56.8099 110.05C59.2699 105.71 61.5999 101.7 63.9299 97.79C64.1697 97.3581 64.5609 97.0303 65.028 96.8697C65.4952 96.7091 66.0052 96.727 66.4599 96.92C67.4599 97.37 67.9499 98.23 68.0099 99.81V99.89L67.9999 100C67.4099 101 66.8099 101.94 66.1999 102.94C64.1999 106.15 62.1999 109.47 60.0599 112.78C59.9606 112.933 59.8282 113.062 59.6724 113.157C59.5167 113.252 59.3415 113.312 59.1599 113.33L58.9199 113.31ZM65.6499 97.31C65.3906 97.3207 65.1384 97.3982 64.9177 97.5348C64.697 97.6714 64.5152 97.8627 64.3899 98.09C62.0499 102 59.7199 106 57.2599 110.31C57.0761 110.642 57.0224 111.031 57.1093 111.401C57.1962 111.77 57.4174 112.094 57.7299 112.31C57.9047 112.481 58.1132 112.614 58.3422 112.7C58.5712 112.786 58.8157 112.824 59.0599 112.81C59.1664 112.804 59.2698 112.772 59.3619 112.718C59.454 112.664 59.5321 112.59 59.5899 112.5C61.7299 109.18 63.7599 105.87 65.7199 102.67C66.3199 101.67 66.8999 100.72 67.4799 99.79C67.3999 98.17 66.8499 97.7 66.2499 97.45C66.0639 97.3522 65.8596 97.2943 65.6499 97.28V97.31Z" fill="white"/>
<path d="M39.0799 31.42C42.9099 33.79 47.3299 36.42 51.6399 39.24C52.2799 39.65 52.1899 40.81 51.5499 41.52C51.2031 41.8916 50.7332 42.1248 50.2275 42.1763C49.7218 42.2278 49.2145 42.0941 48.7999 41.8C45.0099 39.68 41.2599 37.48 37.5099 35.29C37.0487 35.0756 36.6816 34.7003 36.4772 34.2346C36.2729 33.7689 36.2454 33.2446 36.3999 32.76C36.6499 31.84 37.3799 31.5 39.0799 31.42Z" fill="white"/>
<path d="M50.1099 42.44C49.5998 42.4213 49.1034 42.2696 48.6699 42C45.2399 40.08 41.7899 38.06 38.4499 36.11L37.3799 35.49C36.8689 35.2446 36.4629 34.8241 36.2354 34.3048C36.0079 33.7856 35.974 33.2021 36.1399 32.66C36.4699 31.49 37.4999 31.2 39.0699 31.13H39.1499H39.2199C40.1299 31.69 41.0799 32.28 42.0599 32.87C45.2199 34.81 48.4999 36.81 51.7799 38.95C51.9339 39.0555 52.0629 39.1935 52.1579 39.3541C52.2529 39.5148 52.3116 39.6943 52.3299 39.88C52.3595 40.1952 52.3223 40.5131 52.2206 40.813C52.119 41.1128 51.9552 41.3878 51.7399 41.62C51.5455 41.8684 51.2985 42.0707 51.0167 42.2124C50.7349 42.3542 50.4253 42.4319 50.1099 42.44V42.44ZM38.9999 31.69C37.2599 31.78 36.8299 32.17 36.6399 32.83C36.5002 33.2595 36.5251 33.7257 36.71 34.1378C36.8948 34.55 37.2262 34.8787 37.6399 35.06L38.6999 35.69C42.0399 37.63 45.4899 39.69 48.9199 41.57C49.2831 41.8304 49.7282 41.9505 50.173 41.9083C50.6178 41.866 51.0323 41.6641 51.3399 41.34C51.5079 41.1625 51.6359 40.951 51.7152 40.7199C51.7946 40.4887 51.8235 40.2433 51.7999 40C51.794 39.8904 51.764 39.7834 51.7122 39.6867C51.6603 39.5899 51.5879 39.5057 51.4999 39.44C48.2199 37.31 44.9499 35.31 41.7799 33.37L38.9999 31.69Z" fill="white"/>
<path d="M138.45 90.1901C137.87 92.5101 136.53 92.6601 134.96 91.7901C131.3 89.7901 127.69 87.6501 124.08 85.5401C122.99 84.9001 122.28 83.9601 122.83 82.6201C122.914 82.3787 123.052 82.1594 123.232 81.9785C123.413 81.7975 123.632 81.6597 123.873 81.5751C124.114 81.4905 124.371 81.4615 124.625 81.49C124.879 81.5186 125.124 81.604 125.34 81.7401C129.44 84.0001 133.49 86.3501 137.51 88.7401C138 89.0001 138.2 89.7901 138.45 90.1901Z" fill="white"/>
<path d="M136.53 92.54C135.929 92.5124 135.344 92.3335 134.83 92.02C131.07 89.92 127.39 87.78 123.95 85.76C122.53 84.93 122.05 83.76 122.59 82.52C122.689 82.2481 122.846 82.0009 123.049 81.7955C123.253 81.59 123.499 81.4312 123.77 81.33C124.05 81.2416 124.346 81.2119 124.639 81.2429C124.931 81.2739 125.214 81.3648 125.47 81.51C129.07 83.51 132.93 85.72 137.64 88.51C138.016 88.8025 138.303 89.1937 138.47 89.64C138.54 89.79 138.61 89.93 138.67 90.04L138.73 90.14V90.24C138.671 90.6837 138.511 91.1077 138.261 91.479C138.011 91.8502 137.679 92.1586 137.29 92.38C137.051 92.4865 136.792 92.5411 136.53 92.54V92.54ZM124.4 81.76C124.247 81.7573 124.095 81.781 123.95 81.83C123.748 81.9045 123.565 82.023 123.415 82.1769C123.264 82.3309 123.15 82.5164 123.08 82.72C122.64 83.72 123.02 84.61 124.22 85.31C127.66 87.31 131.33 89.47 135.09 91.56C135.374 91.7675 135.702 91.907 136.049 91.9677C136.396 92.0284 136.752 92.0086 137.09 91.91C137.387 91.7287 137.64 91.4841 137.832 91.1938C138.024 90.9034 138.15 90.5744 138.2 90.23C138.14 90.12 138.08 90.01 138.02 89.88C137.901 89.5283 137.686 89.2167 137.4 88.98C132.7 86.17 128.84 83.98 125.25 81.98C124.991 81.8327 124.698 81.7567 124.4 81.76Z" fill="white"/>
<path d="M89.23 112.11C89.23 114.11 89.23 116.11 89.23 118.18C89.23 119.5 88.59 120.5 87.09 120.42C86.8377 120.414 86.5893 120.357 86.3599 120.252C86.1305 120.146 85.9249 119.996 85.7556 119.809C85.5863 119.622 85.4568 119.402 85.375 119.163C85.2933 118.924 85.2609 118.672 85.28 118.42C85.24 114.04 85.24 109.66 85.28 105.28C85.28 103.96 85.87 102.92 87.38 103.04C88.89 103.16 89.24 104.29 89.25 105.56C89.25 107.73 89.23 109.92 89.23 112.11Z" fill="white"/>
<path d="M87.24 120.69H87.06C86.7708 120.686 86.4857 120.622 86.2224 120.502C85.9592 120.382 85.7235 120.21 85.5301 119.995C85.3367 119.78 85.1898 119.527 85.0986 119.253C85.0073 118.978 84.9738 118.688 85 118.4C85 113.99 85 109.56 85 105.26C84.978 104.894 85.0314 104.528 85.157 104.184C85.2826 103.84 85.4776 103.525 85.73 103.26C85.9571 103.067 86.2219 102.922 86.5076 102.836C86.7933 102.75 87.0937 102.724 87.39 102.76C88.78 102.87 89.49 103.76 89.51 105.55C89.51 107.12 89.51 108.7 89.51 110.28V112.12C89.51 112.73 89.51 113.35 89.51 113.96C89.51 115.35 89.51 116.78 89.51 118.2C89.5262 118.568 89.4672 118.935 89.3365 119.279C89.2058 119.622 89.0062 119.936 88.75 120.2C88.3312 120.557 87.7883 120.733 87.24 120.69V120.69ZM87.13 103.27C86.7436 103.25 86.3641 103.379 86.07 103.63C85.8727 103.851 85.7215 104.109 85.6253 104.388C85.5292 104.668 85.4899 104.965 85.51 105.26C85.51 109.56 85.51 113.98 85.51 118.4C85.4863 118.62 85.5088 118.843 85.5761 119.054C85.6435 119.265 85.7541 119.459 85.901 119.625C86.0478 119.79 86.2277 119.924 86.429 120.016C86.6303 120.108 86.8486 120.157 87.07 120.16C87.2979 120.185 87.5284 120.164 87.7481 120.098C87.9678 120.033 88.1724 119.925 88.35 119.78C88.7469 119.34 88.9551 118.762 88.93 118.17C88.93 116.77 88.93 115.34 88.93 113.95V110.27C88.93 108.69 88.93 107.12 88.93 105.54C88.93 103.96 88.41 103.37 87.3 103.28L87.13 103.27Z" fill="white"/>
<path d="M138.61 33.5C138.37 33.92 138.2 34.71 137.72 35C133.72 37.42 129.687 39.7533 125.62 42C125.406 42.1385 125.166 42.232 124.914 42.2748C124.663 42.3176 124.405 42.3088 124.158 42.2489C123.91 42.189 123.676 42.0794 123.472 41.9265C123.268 41.7737 123.097 41.581 122.97 41.36C122.833 41.145 122.743 40.9043 122.703 40.6527C122.663 40.4011 122.676 40.1441 122.739 39.8975C122.803 39.6509 122.917 39.4201 123.073 39.2193C123.23 39.0184 123.426 38.8519 123.65 38.73C127.65 36.38 131.71 34 135.83 31.81C137 31.22 138.09 31.91 138.61 33.5Z" fill="white"/>
<path d="M124.55 42.6C124.354 42.602 124.159 42.5784 123.97 42.53C123.708 42.4559 123.463 42.329 123.252 42.1571C123.04 41.9851 122.866 41.7717 122.74 41.53C122.584 41.2846 122.481 41.0097 122.436 40.7225C122.39 40.4353 122.405 40.1419 122.478 39.8605C122.551 39.5792 122.682 39.3159 122.861 39.087C123.04 38.8581 123.264 38.6685 123.52 38.53L124.38 38.03C128.07 35.87 131.87 33.65 135.7 31.6C135.945 31.4587 136.218 31.3729 136.499 31.3488C136.781 31.3246 137.065 31.3625 137.33 31.46C137.708 31.6562 138.04 31.9307 138.304 32.2652C138.568 32.5997 138.757 32.9865 138.86 33.4V33.51L138.8 33.61C138.723 33.7435 138.66 33.8842 138.61 34.03C138.476 34.4987 138.196 34.9123 137.81 35.21C133.81 37.65 129.7 40.02 125.71 42.26C125.357 42.4661 124.959 42.5829 124.55 42.6V42.6ZM136.68 31.89C136.423 31.8927 136.172 31.9616 135.95 32.09C132.13 34.09 128.33 36.35 124.65 38.5L123.78 39.01C123.586 39.1141 123.415 39.2575 123.28 39.4309C123.144 39.6043 123.046 39.8041 122.991 40.0175C122.937 40.231 122.927 40.4534 122.963 40.6707C122.999 40.888 123.08 41.0955 123.2 41.28C123.295 41.4578 123.424 41.6149 123.58 41.742C123.736 41.8691 123.917 41.9636 124.11 42.02C124.578 42.137 125.074 42.0651 125.49 41.82C129.49 39.58 133.55 37.21 137.58 34.82C137.856 34.5701 138.057 34.248 138.16 33.89L138.32 33.52C138.241 33.1982 138.094 32.8967 137.891 32.6349C137.688 32.373 137.432 32.1568 137.14 32C136.995 31.9334 136.839 31.8961 136.68 31.89V31.89Z" fill="white"/>
<path d="M51.83 82.7901C51.8856 83.3353 51.77 83.8844 51.4995 84.361C51.2289 84.8377 50.8167 85.2183 50.32 85.45C46.83 87.45 43.32 89.51 39.81 91.45C38.76 92.04 37.48 92.4501 36.61 91.2601C36.4346 91.0207 36.3147 90.7452 36.259 90.4538C36.2032 90.1623 36.2131 89.8621 36.2877 89.5749C36.3624 89.2877 36.5001 89.0207 36.6907 88.7933C36.8814 88.5659 37.1202 88.3837 37.39 88.2601C41.14 86.0201 44.91 83.79 48.75 81.7C50 81 51.39 81.2301 51.83 82.7901Z" fill="white"/>
<path d="M38 92.31C37.6776 92.3095 37.36 92.231 37.0745 92.0813C36.7889 91.9315 36.5438 91.715 36.36 91.45C36.1809 91.2036 36.0561 90.922 35.9941 90.6237C35.932 90.3255 35.934 90.0174 36 89.72C36.0894 89.3695 36.2513 89.0415 36.4752 88.7573C36.6991 88.4731 36.9801 88.239 37.3 88.07C41.3 85.69 44.9 83.55 48.67 81.5C49.006 81.2879 49.3855 81.1544 49.7803 81.1093C50.1751 81.0643 50.5749 81.109 50.95 81.24C51.2484 81.3778 51.5104 81.5833 51.7153 81.8403C51.9201 82.0972 52.0622 82.3985 52.13 82.72V82.72C52.1893 83.3136 52.0636 83.9109 51.77 84.4301C51.4763 84.9493 51.0292 85.365 50.49 85.62C46.78 87.79 43.42 89.74 39.98 91.62C39.3931 92.022 38.7096 92.2602 38 92.31ZM50.07 81.61C49.6332 81.6251 49.207 81.7489 48.83 81.97C45.07 83.97 41.47 86.14 37.48 88.52C37.2243 88.6518 36.9988 88.8355 36.818 89.0594C36.6372 89.2832 36.5051 89.5423 36.43 89.82C36.3896 90.0507 36.3999 90.2874 36.4604 90.5137C36.5208 90.7399 36.6299 90.9503 36.78 91.13C37.39 91.96 38.31 92 39.65 91.25C43.08 89.33 46.43 87.38 50.15 85.25C50.6 85.0474 50.9751 84.7088 51.2227 84.2819C51.4702 83.855 51.5777 83.3612 51.53 82.87C51.4784 82.6286 51.3722 82.4022 51.2197 82.2081C51.0672 82.014 50.8723 81.8573 50.65 81.75C50.4797 81.6717 50.2969 81.6243 50.11 81.61H50.07Z" fill="white"/>
<path d="M87.65 28.78C81.1008 28.7424 74.688 30.6508 69.2251 34.2632C63.7622 37.8756 59.4953 43.0292 56.9656 49.0702C54.436 55.1112 53.7576 61.7674 55.0166 68.1946C56.2756 74.6217 59.4151 80.5301 64.037 85.1702C68.6589 89.8104 74.5548 92.9733 80.9769 94.2576C87.399 95.5419 94.0579 94.8898 100.109 92.384C106.16 89.8783 111.33 85.6317 114.964 80.1831C118.598 74.7345 120.532 68.3293 120.52 61.78C120.494 53.0584 117.026 44.6995 110.872 38.5202C104.717 32.3409 96.3714 28.8406 87.65 28.78V28.78ZM87.38 90.78C81.6469 90.7682 76.046 89.0573 71.2848 85.8635C66.5237 82.6697 62.816 78.1364 60.6303 72.8363C58.4446 67.5362 57.8788 61.7072 59.0045 56.0857C60.1303 50.4642 62.897 45.3025 66.9551 41.2528C71.0132 37.2031 76.1806 34.4471 81.8044 33.3329C87.4282 32.2188 93.2561 32.7966 98.5516 34.9933C103.847 37.19 108.373 40.907 111.557 45.6747C114.741 50.4425 116.44 56.0469 116.44 61.78C116.444 65.5959 115.695 69.3751 114.235 72.9009C112.776 76.4268 110.635 79.6299 107.936 82.3268C105.236 85.0236 102.03 87.1612 98.5032 88.6169C94.9758 90.0727 91.1959 90.8179 87.38 90.81V90.78Z" fill="white" stroke="white" stroke-width="0.5" stroke-miterlimit="10"/>
</g>
<defs>
<filter id="filter0_d_1_126" x="0" y="0" width="174.57" height="170.27" filterUnits="userSpaceOnUse" color-interpolation-filters="sRGB">
<feFlood flood-opacity="0" result="BackgroundImageFix"/>
<feColorMatrix in="SourceAlpha" type="matrix" values="0 0 0 0 0 0 0 0 0 0 0 0 0 0 0 0 0 0 127 0" result="hardAlpha"/>
<feOffset dy="3"/>
<feGaussianBlur stdDeviation="3"/>
<feColorMatrix type="matrix" values="0 0 0 0 0 0 0 0 0 0 0 0 0 0 0 0 0 0 0.3 0"/>
<feBlend mode="normal" in2="BackgroundImageFix" result="effect1_dropShadow_1_126"/>
<feBlend mode="normal" in="SourceGraphic" in2="effect1_dropShadow_1_126" result="shape"/>
</filter>
<clipPath id="clip0_1_126">
<rect width="162.57" height="158.27" fill="white" transform="translate(6 3)"/>
</clipPath>
</defs>
</svg>
