<svg width="141" height="171" viewBox="0 0 141 171" fill="none" xmlns="http://www.w3.org/2000/svg">
<g clip-path="url(#clip0_1_174)" filter="url(#filter0_d_1_174)">
<path d="M129.06 79.41C123.28 62.1 124.39 45.13 130.67 28.25C132.45 23.45 131.98 22.82 126.67 22.79H101.82C97.68 8.13999 88.63 1.26999 76.65 3.36999C71.4019 4.29672 66.6895 7.15092 63.4371 11.3727C60.1848 15.5945 58.6272 20.8791 59.07 26.19C60 38.39 68.07 44.28 84.66 44.82C87.46 56.96 84.91 68.6 81.77 80.29C79.35 89.29 77.13 98.5 76.32 107.75C75.46 117.53 80.75 123.87 90.32 126.58C94.43 127.76 98.75 128.2 102.97 128.99V155.47C99.2 155.47 95.86 155.33 92.54 155.56C91.46 155.63 90.39 156.63 89.38 157.24C90.45 157.99 91.53 159.39 92.6 159.39C101.3 159.563 110 159.563 118.7 159.39C119.88 159.39 121.06 158.21 122.24 157.59C120.98 156.88 119.76 155.67 118.44 155.59C115.02 155.3 111.55 155.49 107.97 155.49V128.56C120.13 128.29 130.33 125.04 134.46 112.23V99.15C132.6 92.57 131.21 85.86 129.06 79.41ZM80.92 29.88C82 33.17 82.92 36.55 83.82 39.88C74 42.83 65.48 37.74 63.4 28.16C61.32 18.58 67.75 8.93999 77 7.50999C87.25 5.92999 95.84 12.38 97 23H86C78.7 23 78.64 23.13 80.92 29.88ZM85 27.33H126.62C125.17 32.62 123.77 37.68 122.23 43.33C114.56 38.83 108.11 41.08 101.58 45.97C95.25 50.7 90 48.23 88.31 40.56C87.39 36.38 86.24 32.21 85.01 27.3L85 27.33ZM117.62 123C109.385 124.06 101.047 124.03 92.82 122.91C83.91 121.68 79.68 115.53 80.31 106.38C80.7878 100.559 81.8328 94.7981 83.43 89.18C86.77 76.92 90.92 64.85 89.84 51.18C96.63 53 101.67 51.18 106.53 47.58C109.116 45.8398 112.197 44.987 115.31 45.15C119.13 45.36 122.03 47.3 121.41 52.36C119.94 63.97 123.88 74.81 126.61 85.81C128.431 92.7528 129.629 99.8442 130.19 107C130.69 115.92 126.19 122 117.62 123.06V123Z" fill="white"/>
<path d="M49.43 97.08C62.43 94.93 70.54 87.01 70.38 74.21C70.28 66.21 67.38 58.26 65.38 50.4C65.07 49.22 62.38 47.96 60.74 47.94C45.87 47.75 30.99 47.71 16.12 47.94C14.37 47.94 11.64 49.79 11.12 51.37C9.00001 57.55 7.00001 63.86 6.21001 70.25C4.66001 83.4 11.65 92.89 24.55 96.25C28.23 97.25 32.08 97.68 35.95 98.4V157.53C32.36 157.53 29.04 157.63 25.74 157.53C22.44 157.43 21.96 158.89 22.86 161.53H54C54.82 158.87 54.28 157.34 51.07 157.46C47.86 157.58 44.46 157.46 40.89 157.46V98.29C43.87 97.87 46.66 97.6 49.43 97.08ZM23.07 51.72H55.65C62.1 51.72 62.1 51.72 63.95 58.58C60.95 58 57.95 56.76 55.22 57.03C48.33 57.7 41.33 58.42 34.7 60.26C27.08 62.41 19.79 63.38 12 60.6C14.53 51.72 14.53 51.72 23.07 51.72ZM26.92 92.8C13.52 90.39 7.44001 79.32 11.17 65C20.1642 67.5104 29.7458 66.8754 38.33 63.2C42.1781 61.5366 46.3236 60.671 50.5158 60.6555C54.708 60.64 58.8597 61.475 62.72 63.11C63.529 63.5306 64.2396 64.1179 64.805 64.8333C65.3704 65.5486 65.7777 66.3757 66 67.26C68.63 82.26 62.46 91.26 47.26 93.34C40.4926 94.2079 33.6318 94.0258 26.92 92.8Z" fill="white"/>
<path d="M115 87.41C111.52 87.77 108.55 92.91 105.32 96.01C108.47 99.15 111.38 104.36 114.86 104.78C117.77 105.13 121.31 99.9 125.86 96.12C121.49 92.32 118 87.1 115 87.41ZM114.6 101.25L109.88 95.81L114.73 90.56L120.46 96.17L114.6 101.25Z" fill="white"/>
<path d="M99.52 101.35C92.1867 101.243 88.52 103.167 88.52 107.12C88.61 114.93 90.32 118.12 94.36 118.03C102.21 117.86 105.11 116.21 105.11 112.03C105 104.46 103.41 101.41 99.52 101.35ZM93.52 114.01C93.23 111.38 92.99 109.13 92.71 106.49L100 105.41C100.4 107.83 100.79 110.19 101.24 112.94L93.52 114.01Z" fill="white"/>
<path d="M100.88 72.11C96.66 72.21 90.03 76.64 90.13 79.29C90.33 83.79 94.63 90.18 97.36 90.04C101.66 89.81 107.89 85.74 107.86 83.15C107.82 78.94 103.45 72.05 100.88 72.11ZM97.1 86L94 79.09L100.89 76.09L104 83L97.1 86Z" fill="white"/>
<path d="M91.44 15.9C89.19 17.7 87.38 19.19 85.44 20.51C84.8105 20.0154 84.252 19.4366 83.78 18.79C85.3428 17.0226 87.0126 15.3528 88.78 13.79C89.7175 14.4268 90.6066 15.1321 91.44 15.9V15.9Z" fill="white"/>
<path d="M82 14.36C82.09 15.69 80.93 17.1 80.37 18.48L77.14 14.48C78.33 12.68 79.14 11.41 79.93 10.18C80.63 11.6 81.88 12.93 82 14.36Z" fill="white"/>
<path d="M77.31 18.69C76.5358 19.4356 75.6919 20.1053 74.79 20.69C72.9973 19.2021 71.3037 17.5987 69.72 15.89C70.1892 15.2055 70.7288 14.572 71.33 14C73.25 15.37 75.05 16.86 77.31 18.69Z" fill="white"/>
<path d="M77.33 30.32C75.11 32.03 73.33 33.48 71.33 34.78C70.7345 34.2574 70.21 33.6589 69.77 33C71.3336 31.2522 73.0035 29.6024 74.77 28.06C75.6748 28.753 76.5302 29.5082 77.33 30.32Z" fill="white"/>
<path d="M74.15 24.56C72.86 25.22 71.54 26.47 70.28 26.41C68.85 26.34 67.47 25.12 66.07 24.41L70.07 21.59L74.15 24.56Z" fill="white"/>
<path d="M56.83 70.89C55.37 65.22 53.74 64.44 48.47 67C42.31 70 36.21 73.06 30 75.84C26.7 77.31 26.47 79.28 27.85 82.22C29.3436 85.3234 31.8186 87.8478 34.8918 89.4025C37.965 90.9572 41.465 91.4554 44.85 90.82C52.31 89.18 57.32 83 57.37 74.69C57.2707 73.4132 57.0903 72.144 56.83 70.89V70.89ZM46.65 85.77C40.85 88.47 34.97 86.26 31.41 79.5L51.55 69.65C54.67 76.72 52.56 83 46.65 85.77Z" fill="white"/>
</g>
<defs>
<filter id="filter0_d_1_174" x="0" y="0" width="140.43" height="170.57" filterUnits="userSpaceOnUse" color-interpolation-filters="sRGB">
<feFlood flood-opacity="0" result="BackgroundImageFix"/>
<feColorMatrix in="SourceAlpha" type="matrix" values="0 0 0 0 0 0 0 0 0 0 0 0 0 0 0 0 0 0 127 0" result="hardAlpha"/>
<feOffset dy="3"/>
<feGaussianBlur stdDeviation="3"/>
<feColorMatrix type="matrix" values="0 0 0 0 0 0 0 0 0 0 0 0 0 0 0 0 0 0 0.3 0"/>
<feBlend mode="normal" in2="BackgroundImageFix" result="effect1_dropShadow_1_174"/>
<feBlend mode="normal" in="SourceGraphic" in2="effect1_dropShadow_1_174" result="shape"/>
</filter>
<clipPath id="clip0_1_174">
<rect width="128.43" height="158.57" fill="white" transform="translate(6 3)"/>
</clipPath>
</defs>
</svg>
