<svg width="157" height="151" viewBox="0 0 157 151" fill="none" xmlns="http://www.w3.org/2000/svg">
<g clip-path="url(#clip0_1_196)" filter="url(#filter0_d_1_196)">
<path d="M107 140H11.89C11.3783 140 10.8717 139.899 10.3991 139.703C9.92645 139.507 9.49718 139.219 9.13583 138.857C8.77447 138.495 8.48815 138.065 8.29325 137.592C8.09834 137.119 7.9987 136.612 8.00001 136.1V30.7H107V65.46" stroke="white" stroke-width="4" stroke-miterlimit="10"/>
<path d="M72.7 65.46H148.94V134.78C148.94 136.119 148.408 137.404 147.461 138.351C146.514 139.298 145.229 139.83 143.89 139.83H76.44C75.4481 139.83 74.4968 139.436 73.7954 138.735C73.094 138.033 72.7 137.082 72.7 136.09V65.46Z" stroke="white" stroke-width="4" stroke-miterlimit="10"/>
<path d="M95.85 82.28V93.42C95.8527 97.317 97.4026 101.053 100.159 103.808C102.916 106.563 106.653 108.11 110.55 108.11C114.446 108.11 118.182 106.562 120.937 103.807C123.692 101.053 125.24 97.3161 125.24 93.42V82.28" stroke="white" stroke-width="4" stroke-miterlimit="10"/>
<path d="M83.39 50.54V30.91C83.39 24.04 80.6616 17.4512 75.8047 12.5924C70.9478 7.73362 64.36 5.00265 57.49 5V5C54.0875 5 50.7182 5.67018 47.5747 6.97228C44.4311 8.27438 41.5748 10.1829 39.1689 12.5889C34.3098 17.4479 31.58 24.0382 31.58 30.91V50.54" stroke="white" stroke-width="4" stroke-miterlimit="10"/>
<path d="M25.27 48.89H37.89" stroke="white" stroke-width="4" stroke-miterlimit="10"/>
<path d="M77.08 48.89H89.7" stroke="white" stroke-width="4" stroke-miterlimit="10"/>
<path d="M87.6 82.11H100.22" stroke="white" stroke-width="4" stroke-miterlimit="10"/>
<path d="M120.72 82.28H133.34" stroke="white" stroke-width="4" stroke-miterlimit="10"/>
</g>
<defs>
<filter id="filter0_d_1_196" x="0" y="0" width="156.94" height="150.99" filterUnits="userSpaceOnUse" color-interpolation-filters="sRGB">
<feFlood flood-opacity="0" result="BackgroundImageFix"/>
<feColorMatrix in="SourceAlpha" type="matrix" values="0 0 0 0 0 0 0 0 0 0 0 0 0 0 0 0 0 0 127 0" result="hardAlpha"/>
<feOffset dy="3"/>
<feGaussianBlur stdDeviation="3"/>
<feColorMatrix type="matrix" values="0 0 0 0 0 0 0 0 0 0 0 0 0 0 0 0 0 0 0.3 0"/>
<feBlend mode="normal" in2="BackgroundImageFix" result="effect1_dropShadow_1_196"/>
<feBlend mode="normal" in="SourceGraphic" in2="effect1_dropShadow_1_196" result="shape"/>
</filter>
<clipPath id="clip0_1_196">
<rect width="144.94" height="138.99" fill="white" transform="translate(6 3)"/>
</clipPath>
</defs>
</svg>
