<svg xmlns="http://www.w3.org/2000/svg" width="28" height="20" fill="#fff"><rect id="backgroundrect" width="100%" height="100%" x="0" y="0" fill="none" stroke=""/><title/><g class="currentLayer" style=""><title>Layer 1</title><g id="mail" class=""><path d="M27,0.007099626109535298 H1 L0.9199999999999999,0.007099626109535298 a0.78,0.78 0 0 0 -0.21000000000000005,0 l-0.17,0.07 a0.6500000000000002,0.6500000000000002 0 0 0 -0.15000000000000005,0.1 a0.6700000000000004,0.6700000000000004 0 0 0 -0.15000000000000005,0.14 l-0.06000000000000002,0.06000000000000002 a0.3600000000000001,0.3600000000000001 0 0 0 0,0.09000000000000004 a1.08,1.08 0 0 0 -0.08000000000000003,0.19000000000000006 A1.29,1.29 0 0 0 0,0.9070996261095359 S0,1.0070996261095353 0,1.0070996261095353 V19.007099626109536 a1,1 0 0 0 1,1 H27 a1,1 0 0 0 1,-1 V1.0070996261095353 A1,1 0 0 0 27,0.007099626109535298 zM14,8.817099626109536 L4.2,2.007099626109535 H25.09 zM2,18.007099626109536 V2.917099626109536 l11.43,7.91 l0,0 a1.51,1.51 0 0 0 0.18000000000000005,0.09000000000000004 l0.08000000000000003,0 A1.09,1.09 0 0 0 14,11.007099626109536 h0 a1,1 0 0 0 0.4100000000000001,-0.1 l0.07,0 l0,0 L26,3.797099626109535 V18.007099626109536 z" id="svg_1"/></g></g></svg>