<svg width="23" height="23" viewBox="0 0 23 23" fill="none" xmlns="http://www.w3.org/2000/svg">
<path d="M14.28 22.5H12.03C11.6323 22.4996 11.251 22.3414 10.9698 22.0602C10.6886 21.779 10.5304 21.3977 10.53 21V17.25H12.03V21H14.28V17.25H15.78V14.25C15.7798 14.0512 15.7007 13.8605 15.5601 13.7199C15.4195 13.5793 15.2289 13.5002 15.03 13.5H8.49003L6.99003 9H2.28003C2.08118 9.0002 1.89053 9.07928 1.74992 9.21989C1.60931 9.3605 1.53023 9.55115 1.53003 9.75V14.25H3.03003V21H6.03003V15.75H7.53003V21C7.52963 21.3977 7.37147 21.779 7.09025 22.0602C6.80903 22.3414 6.42773 22.4996 6.03003 22.5H3.03003C2.63233 22.4996 2.25103 22.3414 1.96981 22.0602C1.68859 21.779 1.53043 21.3977 1.53003 21V15.75C1.13233 15.7496 0.751026 15.5914 0.469808 15.3102C0.188589 15.029 0.0304264 14.6477 0.0300293 14.25V9.75C0.030625 9.15345 0.267869 8.5815 0.689697 8.15967C1.11152 7.73784 1.68348 7.5006 2.28003 7.5H6.99003C7.30481 7.4998 7.61166 7.59874 7.86704 7.78277C8.12242 7.9668 8.31337 8.22658 8.41278 8.52525L9.57003 12H15.03C15.6266 12.0006 16.1985 12.2378 16.6204 12.6597C17.0422 13.0815 17.2794 13.6534 17.28 14.25V17.25C17.2796 17.6477 17.1215 18.029 16.8403 18.3102C16.559 18.5914 16.1777 18.7496 15.78 18.75V21C15.7796 21.3977 15.6215 21.779 15.3403 22.0602C15.059 22.3414 14.6777 22.4996 14.28 22.5ZM20.28 22.5H18.78V14.25H21.03V9.75C21.0298 9.55115 20.9507 9.3605 20.8101 9.21989C20.6695 9.07928 20.4789 9.0002 20.28 9H17.28V7.5H20.28C20.8766 7.5006 21.4485 7.73784 21.8704 8.15967C22.2922 8.5815 22.5294 9.15345 22.53 9.75V14.25C22.5296 14.6477 22.3715 15.029 22.0903 15.3102C21.809 15.5914 21.4277 15.7496 21.03 15.75H20.28V22.5ZM4.53003 6.75C3.93669 6.75 3.35667 6.57405 2.86332 6.24441C2.36997 5.91477 1.98545 5.44623 1.75839 4.89805C1.53133 4.34987 1.47192 3.74667 1.58767 3.16473C1.70343 2.58279 1.98915 2.04824 2.40871 1.62868C2.82827 1.20912 3.36282 0.923401 3.94476 0.807646C4.5267 0.69189 5.1299 0.7513 5.67808 0.978363C6.22626 1.20543 6.69479 1.58994 7.02444 2.08329C7.35408 2.57664 7.53003 3.15666 7.53003 3.75C7.52904 4.54535 7.21265 5.30783 6.65025 5.87023C6.08786 6.43262 5.32537 6.74901 4.53003 6.75ZM4.53003 2.25C4.23336 2.25 3.94335 2.33797 3.69667 2.5028C3.45 2.66762 3.25774 2.90189 3.14421 3.17598C3.03068 3.45007 3.00097 3.75167 3.05885 4.04264C3.11673 4.33361 3.25959 4.60088 3.46937 4.81066C3.67915 5.02044 3.94642 5.1633 4.23739 5.22118C4.52837 5.27906 4.82997 5.24935 5.10405 5.13582C5.37814 5.02229 5.61241 4.83003 5.77723 4.58336C5.94206 4.33668 6.03003 4.04667 6.03003 3.75C6.02963 3.3523 5.87147 2.971 5.59025 2.68978C5.30903 2.40856 4.92773 2.2504 4.53003 2.25ZM18.03 6.75C17.4367 6.75 16.8567 6.57405 16.3633 6.24441C15.87 5.91477 15.4855 5.44623 15.2584 4.89805C15.0313 4.34987 14.9719 3.74667 15.0877 3.16473C15.2034 2.58279 15.4892 2.04824 15.9087 1.62868C16.3283 1.20912 16.8628 0.923401 17.4448 0.807646C18.0267 0.69189 18.6299 0.7513 19.1781 0.978363C19.7263 1.20543 20.1948 1.58994 20.5244 2.08329C20.8541 2.57664 21.03 3.15666 21.03 3.75C21.029 4.54535 20.7126 5.30783 20.1503 5.87023C19.5879 6.43262 18.8254 6.74901 18.03 6.75ZM18.03 2.25C17.7334 2.25 17.4433 2.33797 17.1967 2.5028C16.95 2.66762 16.7577 2.90189 16.6442 3.17598C16.5307 3.45007 16.501 3.75167 16.5589 4.04264C16.6167 4.33361 16.7596 4.60088 16.9694 4.81066C17.1791 5.02044 17.4464 5.1633 17.7374 5.22118C18.0284 5.27906 18.33 5.24935 18.6041 5.13582C18.8781 5.02229 19.1124 4.83003 19.2772 4.58336C19.4421 4.33668 19.53 4.04667 19.53 3.75C19.5296 3.3523 19.3715 2.971 19.0903 2.68978C18.809 2.40856 18.4277 2.2504 18.03 2.25Z" fill="#102A66"/>
</svg>
