<svg xmlns="http://www.w3.org/2000/svg" viewBox="0 0 512 512" fill='#102A66'><g id="Laag_2" data-name="Laag 2"><g id="Layer_1" data-name="Layer 1"><path d="M233.2,356.74h0a24.89,24.89,0,0,1-17.64-7.32l-65-65.1a24.94,24.94,0,1,1,35.3-35.24l47.37,47.44L338.37,191.46a24.94,24.94,0,0,1,35.26,35.28l-122.8,122.7A24.92,24.92,0,0,1,233.2,356.74Z"/><path d="M256,15a240.7,240.7,0,0,1,93.8,18.9,238.24,238.24,0,0,1,76.6,51.7,241.5,241.5,0,0,1,51.7,76.6,240.61,240.61,0,0,1-51.7,264.2,241.36,241.36,0,0,1-264.2,51.7,238.24,238.24,0,0,1-76.6-51.7A241.36,241.36,0,0,1,33.9,162.2,238.24,238.24,0,0,1,85.6,85.6,239.73,239.73,0,0,1,256,15m0-15C114.6,0,0,114.6,0,256S114.6,512,256,512,512,397.4,512,256,397.4,0,256,0Z"/></g></g></svg>