<svg xmlns="http://www.w3.org/2000/svg" viewBox="0 0 23.91 8.74"><defs><style>.cls-1{fill:#bd944e;}</style></defs><g id="Laag_2" data-name="Laag 2"><g id="Laag_1-2" data-name="Laag 1"><g id="Laag_2-2" data-name="Laag 2"><g id="Laag_1-2-2" data-name="Laag 1-2"><path class="cls-1" d="M23.37,4.74l.54,0V3.87H14.82V3.44H14v.43H8.59V3.44H7.75v.43H6.58A2.38,2.38,0,0,0,6.22.52,2.41,2.41,0,0,0,4.79,0,2.4,2.4,0,0,0,2.42,2.38v.16a1.3,1.3,0,0,0-.55-.09A1.88,1.88,0,0,0,0,4.33,1.9,1.9,0,0,0,.55,5.66a2,2,0,0,0,1.33.55,1.71,1.71,0,0,0,.55-.09v.16A2.38,2.38,0,1,0,6.58,4.79L7.77,4.7v.4h.84l0-.35H14L14,5.08h.84l.05-.39h3.4l0,3.47H23.4ZM1.85,5.32a1,1,0,1,1,.72-1.76,1.1,1.1,0,0,1,.22.31H2.11v.85h.67a.9.9,0,0,1-.21.3A.94.94,0,0,1,1.85,5.32Zm1.38-3a1.5,1.5,0,0,1,.43-1.1A1.47,1.47,0,0,1,4.31.86v.45h.84V.86a1.34,1.34,0,0,1,.66.38A1.53,1.53,0,1,1,3.21,2.32Zm3.06,3.9a1.52,1.52,0,0,1-1.14,1.5V7.28H4.31v.46a1.52,1.52,0,1,1,2-1.47ZM20.4,7.33V6.4h.81v.93Zm1.65-1.77H19.56V7.34h-.5l0-2.63h3.49V7.31h-.5Z"/></g></g></g></g></svg>