<svg xmlns="http://www.w3.org/2000/svg" viewBox="0 0 773.19 776.66" fill="#BBC2C5"><defs><style>.cls-1{fill-rule:evenodd;}</style></defs><g id="Laag_2" data-name="Laag 2"><g id="Isolatiemodus"><g id="WhatsApp-Logo-Icon"><path class="cls-1" d="M563.72,465.42c-9.61-4.81-56.91-28.08-65.73-31.29s-15.22-4.81-21.64,4.82-24.84,31.28-30.46,37.7-11.22,7.22-20.84,2.41-40.61-15-77.35-47.73c-28.6-25.5-47.9-57-53.51-66.62s-.6-14.83,4.21-19.62c4.33-4.31,9.62-11.23,14.43-16.85s6.42-9.63,9.62-16,1.6-12-.8-16.85S300,243.2,292,224c-7.8-18.75-15.74-16.21-21.64-16.51-5.6-.28-12-.34-18.44-.34s-16.83,2.41-25.65,12S192.6,252,192.6,299.36s34.46,93.06,39.27,99.48S299.7,502.38,396.2,544A551.68,551.68,0,0,0,451,564.29c23.05,7.32,44,6.29,60.59,3.81,18.48-2.76,56.91-23.26,64.93-45.72s8-41.72,5.61-45.73-8.82-6.42-18.44-11.23M388.21,705h-.13A319.59,319.59,0,0,1,225.22,660.4l-11.68-6.93L92.43,685.23l32.33-118-7.61-12.1A319,319,0,0,1,68.23,384.85C68.3,208.49,211.84,65,388.34,65A320,320,0,0,1,708.19,385.11C708.11,561.49,564.57,705,388.21,705M660.53,112.87C587.85,40.12,491.19,0,388.21,0,176,0,3.31,172.63,3.23,384.83a384,384,0,0,0,51.39,192.4L0,776.66l204.08-53.52a384.84,384.84,0,0,0,184,46.85h.16c212.18,0,384.89-172.66,385-384.85A382.44,382.44,0,0,0,660.53,112.87"/></g></g></g></svg>