<svg xmlns="http://www.w3.org/2000/svg" viewBox="0 0 46.35 44.26"><g id="Laag_2" data-name="Laag 2"><g id="Capa_1" data-name="Capa 1"><path d="M21.57,1a1.8,1.8,0,0,1,3.22,0l5.77,11.69a1.82,1.82,0,0,0,1.35,1l12.91,1.87a1.79,1.79,0,0,1,1.44,1.22,1.77,1.77,0,0,1-.45,1.84l-9.34,9.11A1.78,1.78,0,0,0,36,29.3l2.2,12.86a1.8,1.8,0,0,1-2.61,1.89L24,38a1.82,1.82,0,0,0-1.67,0L10.8,44.05a1.8,1.8,0,0,1-2.61-1.89L10.4,29.3a1.79,1.79,0,0,0-.52-1.58L.54,18.61a1.8,1.8,0,0,1,1-3.06l12.9-1.87a1.84,1.84,0,0,0,1.36-1Z"/></g></g></svg>