<svg xmlns="http://www.w3.org/2000/svg" viewBox="0 0 393.02 512" fill="#102a66"><g id="Laag_2" data-name="Laag 2"><g id="Capa_1" data-name="Capa 1"><path d="M348,363l-64-27.41-.09,0-27.84-11.93c0-.43,0-.86,0-1.29V285.6a90.18,90.18,0,0,0,30.68-67.78v-6.16h8.75a20.05,20.05,0,0,0,20-20V166.85A20,20,0,0,0,302.23,148V100.36c0-27.92-21-53.31-42.73-68.09A76.67,76.67,0,0,1,234.89,5.56a7.49,7.49,0,0,0-5.07-3.72A92.36,92.36,0,0,0,211.49,0a91.39,91.39,0,0,0-85.88,60.44l-6,2.21a44.34,44.34,0,0,0-28.84,41.43V148a20.05,20.05,0,0,0-13.4,18.88v24.78a20.06,20.06,0,0,0,20,20h8.72v6.16a90.13,90.13,0,0,0,30.72,67.81v36.73c0,.54,0,1.09,0,1.63l-90.7,39.43A75.38,75.38,0,0,0,0,433V504.5a7.5,7.5,0,0,0,15,0V433a60.44,60.44,0,0,1,37.12-55.82l55.26-24a95.29,95.29,0,0,0,13.46,24,7.5,7.5,0,0,0,11.89-9.15,79.66,79.66,0,0,1-11.56-20.87l18.15-7.9A59.65,59.65,0,0,0,253.8,339L272,346.79a80.44,80.44,0,0,1-117.31,41,7.5,7.5,0,0,0-7.81,12.81A95.44,95.44,0,0,0,285.82,352.7L342,376.78a60.56,60.56,0,0,1,36,55.33V504.5a7.5,7.5,0,0,0,15,0V432.11A75.61,75.61,0,0,0,348,363Zm-47.39-171.4a5,5,0,0,1-5,5h-8.74V161.81h8.74a5,5,0,0,1,5,5Zm-203.19,5a5,5,0,0,1-5-5V166.85a5,5,0,0,1,5-5h8.72v34.85Zm23.72,21.16V204.48c0-.11,0-.21,0-.32V154.31s0-.08,0-.13a33,33,0,0,1,7.32-19.91,32.46,32.46,0,0,1,16.2-10.09c9.95-2.87,16.25,0,25,4s18.34,8.41,32.76,7.69c13-.64,21.68-5.19,28.64-8.85,7.26-3.81,11.64-6.12,18.95-3.93a7.5,7.5,0,0,0,4.29-14.38c-13.17-3.93-22.22.83-30.21,5-6.25,3.28-12.7,6.67-22.41,7.15-10.76.53-18.05-2.81-25.77-6.34-9.42-4.32-20.1-9.21-35.4-4.79a45.65,45.65,0,0,0-33.62,37h-1.1V104.08a29.31,29.31,0,0,1,15.38-25.69,92.15,92.15,0,0,0-.9,12.83,7.5,7.5,0,0,0,15,0A76.31,76.31,0,0,1,211.5,15a77.56,77.56,0,0,1,12.08.95,91.73,91.73,0,0,0,27.55,28.76c19.54,13.33,33.26,32.08,36.1,56.09v46h-.73a45.21,45.21,0,0,0-5.32-16.47,7.5,7.5,0,1,0-13.11,7.29A31.21,31.21,0,0,1,271.84,154v63.81a75.35,75.35,0,0,1-150.69,0ZM196.51,367a44.58,44.58,0,0,1-44.64-44.65v-26a90.22,90.22,0,0,0,89.29,0v26a43.2,43.2,0,0,1-.32,5.23A44.58,44.58,0,0,1,196.51,367Z"/><path d="M82.85,448.64a7.5,7.5,0,0,0-7.5,7.5V504.5a7.5,7.5,0,0,0,15,0V456.14A7.49,7.49,0,0,0,82.85,448.64Z"/><path d="M310.39,448.64a7.5,7.5,0,0,0-7.5,7.5V504.5a7.5,7.5,0,0,0,15,0V456.14A7.5,7.5,0,0,0,310.39,448.64Z"/></g></g></svg>