<svg xmlns="http://www.w3.org/2000/svg" viewBox="0 0 73 109.55"><defs><style>.cls-1{fill:#212f57;}</style></defs><g id="Laag_2" data-name="Laag 2"><g id="Laag_1-2" data-name="Laag 1"><path class="cls-1" d="M73,36A36.5,36.5,0,1,0,2,48.51c.41,1,.85,2,1.32,3s1,2.14,1.52,3.22l.42.9.27.57q6.29,13.27,12.54,26.56l9.66,20.56.3.64a9.92,9.92,0,0,0,2.86,3.73l.09.07a9.26,9.26,0,0,0,9.5.9h0a10.75,10.75,0,0,0,4.58-4.9c.14-.27.28-.55.41-.84Q50.38,92.43,55.28,82q6.19-13.22,12.43-26.42L68,55l2.42-5.15c.2-.41.38-.82.55-1.24A36.81,36.81,0,0,0,73,37V36ZM36.47,54.8A18.3,18.3,0,1,1,54.78,36.5,18.3,18.3,0,0,1,36.47,54.8Z"/></g></g></svg>