<svg width="21" height="21" viewBox="0 0 21 21" fill="none" xmlns="http://www.w3.org/2000/svg">
<path d="M10.5 0C4.70156 0 0 4.70156 0 10.5C0 16.2984 4.70156 21 10.5 21C16.2984 21 21 16.2984 21 10.5C21 4.70156 16.2984 0 10.5 0ZM11.9883 8.80781C12.0914 8.80781 12.1758 8.89219 12.1758 8.99531V9.63281C12.1758 9.73594 12.0914 9.82031 11.9883 9.82031H8.80078C8.79375 9.92344 8.79375 10.0336 8.79375 10.1437V10.9875H11.9859C12.0891 10.9875 12.1734 11.0719 12.1734 11.175V11.8125C12.1734 11.9156 12.0891 12 11.9859 12H8.92734C9.28594 13.4531 10.3641 14.3109 11.9695 14.3109C12.4359 14.3109 12.8391 14.2828 13.1836 14.2148C13.2984 14.1914 13.4062 14.2805 13.4062 14.3977V15.4008C13.4062 15.4898 13.343 15.5648 13.2562 15.5836C12.8836 15.6633 12.4523 15.7031 11.9602 15.7031C9.38672 15.7031 7.67109 14.325 7.26797 12H6.5625C6.45937 12 6.375 11.9156 6.375 11.8125V11.175C6.375 11.0719 6.45937 10.9875 6.5625 10.9875H7.17422V10.1227C7.17422 10.0195 7.17422 9.91641 7.18125 9.82266H6.5625C6.45937 9.82266 6.375 9.73828 6.375 9.63516V8.99766C6.375 8.89453 6.45937 8.81016 6.5625 8.81016H7.30547C7.76719 6.60234 9.46172 5.29688 11.9602 5.29688C12.45 5.29688 12.8836 5.34141 13.2562 5.42344C13.343 5.44219 13.4039 5.51719 13.4039 5.60625V6.60938H13.4062C13.4062 6.72891 13.2984 6.81562 13.1813 6.79219C12.8367 6.72422 12.4359 6.68906 11.9695 6.68906C10.4367 6.68906 9.38203 7.47422 8.97891 8.80781H11.9883Z" fill="#BD944E"/>
</svg>
