<svg xmlns="http://www.w3.org/2000/svg" viewBox="0 0 386.8 512"><g id="Laag_2" data-name="Laag 2" fill="#102a66"><g id="Capa_1" data-name="Capa 1"><path d="M342.45,331.76,312.9,319.09V118.38a118.39,118.39,0,0,0-236.78,0V288a7.5,7.5,0,0,0,15,0V192.55a19.73,19.73,0,0,0,4.83.62h8.55a88.8,88.8,0,0,0,30.11,62.63v37.62L45.54,332.14A74.26,74.26,0,0,0,0,400.71V504.5a7.5,7.5,0,0,0,15,0V400.71a59.3,59.3,0,0,1,36.44-54.78l53.83-23.4,79.14,69.12a15.35,15.35,0,0,0,20.13,0l33.26-29a7.5,7.5,0,1,0-9.87-11.3l-33.26,29a.3.3,0,0,1-.4,0L120.5,315.91l20.22-8.79,47.73,41.68a7.49,7.49,0,0,0,9.86,0l48-41.91,21.8,9.34-16.47,14.38a7.5,7.5,0,1,0,9.86,11.3l21.91-19.12,53,22.71a59.45,59.45,0,0,1,35.34,54.3V504.5a7.5,7.5,0,0,0,15,0V399.81a74.49,74.49,0,0,0-44.35-68.05Zm-90.26-38.68v-37.3a88.79,88.79,0,0,0,30.07-62.61h8.59a19.63,19.63,0,0,0,7-1.32V312.67Zm30.19-114.91v-34h8.47a4.83,4.83,0,0,1,4.83,4.82v24.37a4.84,4.84,0,0,1-4.83,4.83ZM91.12,173.35V149A4.83,4.83,0,0,1,96,144.15h8.45v34H96A4.84,4.84,0,0,1,91.12,173.35Zm28.29,15.72V142.48a38.56,38.56,0,0,0,25.07-26.26,7.5,7.5,0,0,0-14.44-4.08,24,24,0,0,1-5.75,10.08,24.45,24.45,0,0,1-13,6.93H96a19.73,19.73,0,0,0-4.83.62v-11.4a103.39,103.39,0,0,1,206.78,0v12.1a19.63,19.63,0,0,0-7-1.32c-5.17-.37-12.65-1.28-18.09.3a96.42,96.42,0,0,1-27,3.82A95.92,95.92,0,0,1,154.3,66.83,7.5,7.5,0,0,0,140,71.46a110.87,110.87,0,0,0,105.75,76.82,112,112,0,0,0,21.57-2.11v42.9a74,74,0,0,1-148,0Zm74,144.13L149.61,295V266.5a88.79,88.79,0,0,0,87.58,0V295Z"/><path d="M81.61,415.93a7.5,7.5,0,0,0-7.5,7.5V504.5a7.5,7.5,0,0,0,15,0V423.43A7.5,7.5,0,0,0,81.61,415.93Z"/><path d="M305.4,415.93a7.5,7.5,0,0,0-7.5,7.5V504.5a7.5,7.5,0,0,0,15,0V423.43A7.5,7.5,0,0,0,305.4,415.93Z"/></g></g></svg>