<svg width="22" height="22" viewBox="0 0 22 22" fill="none" xmlns="http://www.w3.org/2000/svg">
<path d="M10.9968 22C9.55225 22.0014 8.12162 21.7179 6.78678 21.1657C5.45194 20.6134 4.23909 19.8032 3.21766 18.7815C2.19623 17.7599 1.38626 16.5467 0.834138 15.2115C0.282011 13.8763 -0.00144118 12.4454 5.50991e-06 11.0005V10.7805C0.0440017 8.62394 0.720617 6.52787 1.94576 4.75278C3.1709 2.9777 4.89055 1.60187 6.89097 0.796299C8.8914 -0.0092741 11.0844 -0.209074 13.1974 0.221733C15.3104 0.65254 17.2503 1.69496 18.7759 3.21943C20.3151 4.75776 21.3635 6.71826 21.7883 8.85281C22.2132 10.9874 21.9954 13.2 21.1626 15.2107C20.3297 17.2214 18.9192 18.9397 17.1096 20.1483C15.3 21.3569 13.1727 22.0013 10.9968 22ZM10.9968 12.5514L13.8449 15.4003L15.3955 13.8494L12.5473 11.0005L15.3955 8.15161L13.8449 6.60068L10.9968 9.44955L8.14861 6.60068L6.59807 8.15161L9.44623 11.0005L6.59807 13.8494L8.14861 15.4003L10.9968 12.5525V12.5514Z" fill="#102A66" fill-opacity="0.3"/>
</svg>
