<svg width="24" height="24" viewBox="0 0 24 24" fill="none" xmlns="http://www.w3.org/2000/svg">
<path d="M3.45887 14.9477C4.84367 14.9477 5.96399 13.7962 5.96399 12.371C5.96399 10.9536 4.84367 9.80161 3.45887 9.80161C2.07983 9.80161 0.959991 10.9536 0.959991 12.371C0.959991 13.7957 2.07983 14.9477 3.45887 14.9477ZM17.4893 19.3714C17.5163 19.3517 17.547 19.3375 17.5795 19.3297C17.612 19.3218 17.6457 19.3205 17.6788 19.3257C17.7118 19.3309 17.7435 19.3426 17.772 19.3601C17.8005 19.3775 17.8253 19.4005 17.8449 19.4275L18.3081 20.0861C18.346 20.1434 18.3613 20.2127 18.351 20.2806C18.3407 20.3486 18.3056 20.4102 18.2525 20.4538L14.8541 22.9915C14.7991 23.0308 14.7309 23.0469 14.6641 23.0363C14.5974 23.0257 14.5375 22.9893 14.4974 22.9349L14.0357 22.2763C13.9977 22.2192 13.9824 22.15 13.9927 22.0822C14.003 22.0144 14.0382 21.9529 14.0914 21.9096L17.4893 19.3714ZM13.6478 16.0992L12.3 13.669L11.5925 14.2003L12.9403 16.6435L13.6478 16.0992ZM10.5034 10.4222L5.26175 0.960007L4.25903 0.966727L9.78959 10.9603L10.5034 10.4222ZM15.4382 15.4286C15.7344 15.2074 16.4122 14.88 16.8 14.88H21.6C22.5475 14.88 23.04 15.8333 23.04 16.8019C23.04 17.7763 22.5475 18.24 21.6 18.24H17.28L12.0787 22.321C10.2509 23.6741 9.14303 22.1875 9.14303 22.1875L5.07119 17.9976C4.38815 17.1562 4.53599 15.5549 5.35487 14.8459L10.9896 10.7194C11.5493 10.2394 12.3802 10.3147 12.8544 10.884C13.3229 11.46 13.249 12.3211 12.6883 12.8021L9.08111 15.5174L11.6726 18.1498L15.4382 15.4286Z" fill="#102A66"/>
</svg>
