<svg width="202" height="60" viewBox="0 0 202 60" fill="none" xmlns="http://www.w3.org/2000/svg">
<g clip-path="url(#clip0_1_230)">
<path d="M118.19 24.0335V47.0614C124.425 47.0614 129.452 42 129.452 35.7989C129.452 35.7318 129.452 35.6983 129.452 35.6313C129.452 29.1955 125.095 24.6704 118.19 24.0335ZM118.19 14.3799V21.3184C119.966 21.3184 121.408 19.8771 121.408 18.1005C121.408 18.0335 121.408 18 121.408 17.9329C121.575 16.1564 120.302 14.581 118.525 14.4134C118.391 14.3799 118.29 14.3799 118.19 14.3799ZM118.19 49.9776H115.307V11.7989H117.888C121.743 11.7989 124.324 14.2123 124.324 17.9329C124.324 19.5419 123.62 21.0838 122.38 22.1229C128.313 23.9329 132.335 29.4637 132.201 35.6648C132.302 43.5754 125.933 50.0782 118.022 50.1452L118.19 49.9776ZM138.938 24.0335V47.229H145.877V49.9776H136.056V24.067H134.614L133.642 21.3184H136.056V11.8324H145.877V14.7151H138.938V21.3184H145.542L146.514 24.067H138.938V24.0335ZM159.553 17.7653C159.553 15.6871 158.413 14.2123 156.503 14.2123C154.726 14.2123 153.285 15.6536 153.251 17.4301C153.251 17.5307 153.251 17.6648 153.251 17.7653V21.3184H159.687L159.553 17.7653ZM159.553 49.9776V24.067H153.117V49.9776H150.369V24.067H148.927L147.955 21.3184H150.369V18.905C150.369 15.6871 150.838 14.5475 151.978 13.2737C153.117 12 154.76 11.2961 156.503 11.3296C160.525 11.3296 162.469 13.743 162.469 18.7374V50.1452L159.553 49.9776ZM171.654 43.3743C168.603 39.9553 166.894 35.5642 166.827 30.972C166.827 20.3463 174.871 12.4693 186 11.7989V14.6815C176.514 15.3184 169.911 22.0894 169.911 31.1061C169.911 40.1229 176.514 46.8938 186 47.3631V50.1117C180.503 50.2123 175.24 47.8324 171.654 43.6759V43.3743ZM198.536 49.9776V24.2011H191.464V49.9776H188.715V24.2011H187.274L186.302 21.3184H188.715V11.8324H191.464V21.3184H198.536V11.8324H201.285V50.0112C201.285 49.9776 198.536 49.9776 198.536 49.9776ZM10.9273 50.4469V21.4525L2.88263 16.6257V50.4469H0.134033V11.7989L10.9273 18.2346V12.4357H13.81V50.4469H10.9273ZM19.1396 12.4357H21.8882V50.6145H19.1396V12.4357ZM39.7541 50.4469L30.1005 21.7877V50.4469H27.3519V12.4357H30.1005V21.2849L37.5083 12.4357H41.0614L33.0167 21.7877L42.8379 50.4469C42.8379 50.4469 39.7541 50.4469 39.7541 50.4469ZM57.9552 50.4469L48.3016 21.7877V50.4469H45.553V12.4357H48.3016V21.2849L55.7094 12.4357H59.2625L51.2178 21.7877L60.8714 50.4469H57.9552ZM63.7541 12.4357H66.5027V50.6145H63.7541V12.4357ZM96.7709 0.201098C97.1061 0.335176 97.4413 0.469252 97.743 0.67037C98.2122 0.67037 98.5474 0.837965 99.0167 1.13964L97.2402 5.32959L94.9943 10.9609L93.7206 13.7095C93.5865 13.9776 93.486 14.2458 93.3854 14.5139L93.7206 15.3184L94.1899 17.3966L94.8267 19.4748L96.4357 25.4413C97.0726 26.8827 97.2402 28.324 97.7094 29.6313C98.6815 32.5139 99.486 35.4301 100.592 38.0111C101.061 38.9832 101.229 40.0894 101.564 41.0614L101.899 42.0335L103.039 44.7821C103.039 45.2514 103.039 45.7542 103.374 46.0558C104.346 48.3016 104.816 50.7151 105.62 52.9944L106.592 55.743C106.793 56.1117 106.961 56.4804 107.061 56.8827C106.86 56.581 106.693 56.2458 106.592 55.9106L105.62 53.4972L102.402 45.4525L97.5754 33.0503L95.4971 25.6424L93.7206 19.5084C93.3854 18.5363 92.9161 17.5642 92.7485 16.4581C92.5809 16.7598 92.4804 17.0949 92.4133 17.4301L91.2737 19.8436L88.391 27.419C86.7821 30.972 85.5083 34.6592 84.0335 38.2123L82.7597 41.5977L78.4022 51.5866L75.8212 57.3855L75.1843 58.9944C75.0837 59.3296 74.9161 59.6648 74.715 59.9665V59.7989C74.9497 59.3296 75.1173 58.8603 75.1843 58.3575L76.324 54.3352L79.3742 44.1787L80.0111 41.7653L81.62 37.5754C82.5921 35.4972 83.229 33.2179 84.3686 31.1396L85.1731 28.8938L88.391 20.5139L90.972 14.7151C91.4078 13.81 91.7765 12.905 92.1117 11.9665C92.1452 11.6983 92.0781 11.3966 91.9441 11.162L91.4748 9.21786C90.8379 6.97205 90.6703 4.39104 90.2011 1.81003H91.1731C91.5083 2.14523 91.3407 2.9497 91.5083 3.41897L92.4804 7.94411C92.5809 8.51394 92.7485 9.05026 92.9497 9.55305V9.88825C93.1508 9.48601 93.3184 9.05026 93.4189 8.6145L94.391 6.36869L95.9999 1.84355C96.2681 1.27372 96.4692 0.670369 96.6368 0.0670166L96.7709 0.201098ZM86.9497 50.7821C86.7821 49.4413 87.1843 48.1005 88.0893 47.0949C88.6927 46.257 89.229 45.419 89.6983 44.5139L90.5027 42.905C90.5362 42.5028 90.6703 42.1341 90.8379 41.7653L91.3072 43.3743L92.4469 46.5922L92.9161 49.0056C93.1508 49.676 93.3184 50.3799 93.3854 51.0838C91.4413 51.0838 88.391 51.8882 86.9497 50.9162V50.7821ZM94.0223 49.3072L91.9441 43.1732C91.9441 42.7039 91.6089 42.2011 91.3072 41.5642L91.1396 41.095L91.6089 38.8491H90.8044L90.4692 39.6536L89.8323 41.4301C88.8603 43.676 87.4189 45.4525 86.2793 47.5642C85.6759 48.4692 85.4413 49.5754 85.6424 50.6145C85.743 50.9162 85.9105 51.1843 86.1117 51.419C88.0558 52.1899 90.1675 52.4246 92.2457 52.0558C92.8826 51.8882 93.8547 52.0558 94.4916 51.7206C94.5921 50.7821 94.4245 49.8436 94.0223 48.972V49.3072ZM101.263 2.48042H100.626V2.31283H102.067V2.48042H101.43V4.08936H101.263V2.48042ZM103.844 3.41897V2.44691L103.676 3.25137L103.207 4.22344H103.039L102.704 3.25137C102.637 2.98322 102.57 2.71506 102.536 2.44691V4.22344H102.201V2.27931H102.67L103.006 3.25137L103.173 3.88825L103.341 3.25137L103.81 2.27931H103.978L104.145 4.22344H103.978L103.844 3.41897Z" fill="#009FE3"/>
</g>
<defs>
<clipPath id="clip0_1_230">
<rect width="201.117" height="60" fill="white"/>
</clipPath>
</defs>
</svg>
