<svg width="82" height="104" viewBox="0 0 82 104" fill="none" xmlns="http://www.w3.org/2000/svg">
<g clip-path="url(#clip0_1_306)">
<path d="M10.1383 91.0614C10.1383 91.1164 10.025 91.1746 9.7985 91.1746H6.45847C6.28859 91.1746 6.1187 91.1197 6.1187 91.0614C6.1187 90.9481 6.23196 90.9481 6.5151 90.9481C6.96814 90.9481 7.25128 90.8931 7.30791 90.7782C7.37506 90.4812 7.39362 90.1752 7.36289 89.8722V82.9656C7.36289 82.9656 7.30791 83.1355 7.19301 83.4186C6.7966 84.5512 6.28694 86.1363 5.60739 88.3454L4.98667 90.4978C4.87341 90.8942 4.76015 91.1208 4.64689 91.1208C4.59191 91.1208 4.53363 91.0075 4.477 90.7244C4.25049 89.9316 3.45768 87.8929 2.26902 84.6656L1.7566 83.1905V88.2305C1.71508 89.0613 1.73345 89.894 1.81158 90.7222C1.86656 90.8354 2.15136 90.892 2.43451 90.892C2.71765 90.892 2.88754 90.947 2.88754 91.0053C2.88754 91.1186 2.77428 91.1752 2.54776 91.1752H1.7566L0.227617 91.2302C0.0577296 91.2302 0.00109899 91.1752 0.00109899 91.1169C0.00109899 91.0037 0.227616 91.0037 0.737279 90.947C0.963795 90.947 1.13368 90.892 1.13368 90.8338C1.19569 90.6129 1.21436 90.3822 1.18866 90.1542V82.567C1.13368 82.4538 1.0754 82.3405 0.962146 82.3405C0.848888 82.3405 0.565741 82.2855 0.226516 82.2272C0.113258 82.2272 0 82.1723 0 82.114C0 82.0007 0.113259 81.9441 0.396405 81.9441H2.66102C2.94833 82.6271 3.19417 83.3268 3.3972 84.0394C3.56709 84.549 4.13338 86.1346 5.09553 88.739C5.26541 88.1727 5.49193 87.5498 5.60519 87.0407L7.07755 82.6236C7.16896 82.4221 7.24469 82.2139 7.30406 82.0007H9.28334C9.62311 82.0007 9.73637 82.0007 9.793 82.0557C9.84798 82.0557 9.84798 82.1107 9.84798 82.169C9.84798 82.2822 9.793 82.2822 9.62146 82.2822H9.1118C8.88528 82.3372 8.7154 82.3955 8.65877 82.5087C8.58334 83.0337 8.56491 83.5654 8.60379 84.0943V90.3236C8.60379 90.72 8.65877 90.8898 8.71705 90.9465C9.00903 91.0419 9.31662 91.0803 9.62311 91.0597H9.73637C10.0811 90.9481 10.1383 90.9481 10.1383 91.0614Z" fill="#C9D3D6"/>
<path d="M21.1809 91.0613C21.1809 91.1163 21.1259 91.1746 21.011 91.1746H20.7845L19.0856 91.1196L17.3873 91.1746H17.2179C17.048 91.1746 16.8782 91.1196 16.8782 91.0613C16.8782 90.948 16.9914 90.8914 17.2746 90.8914C18.0107 90.8914 18.4638 90.7782 18.4638 90.6649V90.5516L18.3505 90.1552L18.2955 89.9854C18.2406 89.6456 17.9558 89.0793 17.7292 88.116H14.8978C14.5874 88.912 14.3227 89.725 14.105 90.5511C14.105 90.6643 14.16 90.721 14.2749 90.7776C14.4835 90.7827 14.6915 90.801 14.8978 90.8326C15.1243 90.8326 15.2942 90.8876 15.2942 90.9458C15.2942 91.0591 15.1809 91.0591 14.8978 91.0591C14.4064 91.066 13.915 91.0476 13.4254 91.0041H13.029C12.9158 91.0041 12.6893 91.0041 12.6326 91.0591H12.4627C12.3495 91.0591 12.2928 91.0041 12.2928 90.9458C12.2928 90.8876 12.4061 90.8326 12.6893 90.8326C12.8844 90.8408 13.0786 90.8019 13.2555 90.7193C13.4086 90.6028 13.5263 90.4459 13.5953 90.2663C14.7845 86.9252 15.6906 84.3769 16.3701 82.3382C16.3888 82.2014 16.4269 82.0679 16.4834 81.9418L16.5384 81.7153C16.5384 81.602 16.5934 81.5454 16.6516 81.5454C16.6662 81.5454 16.6802 81.5512 16.6905 81.5615C16.7008 81.5718 16.7066 81.5858 16.7066 81.6004C16.8199 81.9968 17.103 82.6763 17.4994 83.7523C17.8958 84.6584 18.632 86.7536 19.8779 90.2641C19.9328 90.434 20.0477 90.6605 20.2176 90.6605C20.4416 90.7125 20.6685 90.7503 20.8972 90.7738C21.1215 90.892 21.1809 90.9486 21.1809 91.0613ZM17.5572 87.7774C17.4439 87.381 17.1608 86.7014 16.8776 85.7981L16.2547 83.9288C15.8583 84.9481 15.4619 86.1939 14.9522 87.7774H17.5572Z" fill="#C9D3D6"/>
<path d="M30.7508 90.7226C30.7508 91.119 30.411 91.2889 29.7881 91.2889C29.462 91.2795 29.1429 91.1923 28.8573 91.0347C28.5716 90.8772 28.3277 90.6537 28.1458 90.3828C27.9725 90.183 27.8381 89.9525 27.7494 89.7033C27.6945 89.4768 27.6362 88.9105 27.5229 87.9478C27.5278 87.7247 27.4849 87.5031 27.397 87.298C27.3091 87.0928 27.1782 86.9089 27.0133 86.7586C26.5493 86.4896 26.0205 86.3525 25.4843 86.3622V90.5522C25.4843 90.7221 25.5975 90.892 25.8807 90.9486H26.5036C26.6169 90.9486 26.6735 91.0036 26.6735 91.0618C26.6735 91.1201 26.6185 91.1751 26.447 91.1751H23.2768C23.1069 91.1751 22.9371 91.1201 22.9371 91.0618C22.9371 91.0036 23.0503 90.9486 23.3335 90.9486C23.7301 90.9486 23.9566 90.892 24.013 90.7787C24.068 90.7237 24.068 90.5522 24.068 90.269V82.8506C24.068 82.4542 24.013 82.2843 23.9547 82.2277C23.7408 82.1353 23.5075 82.0965 23.2752 82.1144C23.0487 82.1144 22.8788 82.0595 22.8788 82.0012C22.8788 81.8879 22.9338 81.8879 23.1053 81.8879H23.2186L25.0329 81.9429H25.7691C26.1655 81.9429 26.3354 81.8879 26.5047 81.8879C27.2101 81.842 27.9096 82.0422 28.484 82.4542C28.7118 82.6391 28.8959 82.872 29.0232 83.1363C29.1505 83.4006 29.2177 83.6898 29.2202 83.9832C29.2308 84.2868 29.1697 84.5886 29.0418 84.8641C28.9139 85.1396 28.7228 85.3811 28.484 85.5688C27.8883 85.9953 27.1778 86.2321 26.4453 86.2484C26.3903 86.2484 26.3321 86.2484 26.3321 86.3033C26.3321 86.3583 26.387 86.3583 26.4453 86.3583C27.408 86.5282 28.0309 86.8114 28.3696 87.3776C28.766 87.8873 28.9359 88.7367 29.0492 90.0953C29.1041 90.8315 29.4456 91.2279 29.7853 91.2279C29.8986 91.2279 29.9552 91.2279 29.9552 91.1729C29.9163 91.1039 29.8973 91.0255 29.9003 90.9464C29.8984 90.9013 29.9059 90.8563 29.9223 90.8142C29.9387 90.7721 29.9637 90.7339 29.9956 90.702C30.0276 90.6701 30.0658 90.6451 30.1078 90.6287C30.1499 90.6123 30.1949 90.6047 30.24 90.6066C30.5809 90.3817 30.7508 90.495 30.7508 90.7226ZM28.0331 83.9837C28.0331 82.7379 27.4669 82.0595 26.3343 82.0595C26.1382 82.0345 25.9394 82.0743 25.768 82.1727C25.708 82.2186 25.6609 82.2792 25.6311 82.3487C25.6014 82.4181 25.59 82.494 25.5981 82.5691V85.9669C26.2534 86.0173 26.9079 85.8587 27.4674 85.5138C27.851 85.0986 28.0542 84.5481 28.0326 83.9832L28.0331 83.9837Z" fill="#C9D3D6"/>
<path d="M39.9808 88.6829C40.0032 89.1017 39.9025 89.5179 39.6912 89.8801C39.4799 90.2424 39.1672 90.5349 38.7916 90.7215C38.2485 90.9977 37.6451 91.134 37.0361 91.1179H33.5817C33.4118 91.1179 33.3552 91.063 33.3552 91.0047C33.3552 90.9464 33.4685 90.8914 33.7516 90.8914C34.148 90.8914 34.2613 90.8364 34.3179 90.7782C34.3742 90.595 34.3929 90.4024 34.3729 90.2119V82.9639C34.3729 82.5675 34.3729 82.341 34.3179 82.2843C34.2629 82.1711 33.9781 82.1145 33.6383 82.1145C33.4118 82.1145 33.2419 82.0595 33.2419 82.0012C33.2419 81.9429 33.3552 81.8879 33.6383 81.8879H33.8082C33.9215 81.8879 33.9781 81.9429 34.148 81.9429H36.809C37.5544 81.8927 38.2991 82.0495 38.9609 82.396C39.2206 82.5675 39.4305 82.8043 39.5697 83.0826C39.7088 83.3609 39.7723 83.671 39.7537 83.9816C39.7561 84.2702 39.6967 84.5559 39.5795 84.8196C39.4623 85.0834 39.29 85.319 39.0742 85.5106C38.5149 85.9323 37.8479 86.1875 37.1499 86.2467V86.3017C37.8222 86.3199 38.481 86.4944 39.0742 86.8114C39.3712 87.0212 39.6102 87.303 39.7687 87.6303C39.9273 87.9576 40.0003 88.3197 39.9808 88.6829ZM38.1665 84.0398C38.1665 83.1338 37.9966 82.5675 37.6002 82.341C37.2372 82.1431 36.8213 82.0639 36.411 82.1145C36.1832 82.1089 35.9554 82.1273 35.7314 82.1694V86.0768H36.5853C36.81 86.0948 37.0357 86.0578 37.2428 85.969C37.45 85.8802 37.6325 85.7423 37.7745 85.5672C38.0193 85.0943 38.154 84.5722 38.1687 84.0398H38.1665ZM38.4496 88.5702C38.4496 87.4376 37.9966 86.7558 37.1472 86.4749C36.6421 86.3902 36.1302 86.3523 35.6182 86.3616V90.3818C35.6182 90.6083 35.6182 90.7782 35.6731 90.8348C35.9089 90.919 36.1586 90.9574 36.4088 90.9481C36.6808 90.9686 36.954 90.9285 37.2087 90.8305C37.4633 90.7326 37.693 90.5793 37.8811 90.3818C38.296 89.8727 38.5011 89.2246 38.4546 88.5696L38.4496 88.5702Z" fill="#C9D3D6"/>
<path d="M50.2866 88.9683V91.2329C49.3805 91.1779 47.6256 91.1779 45.1339 91.1779H43.435C43.2651 91.1779 43.2085 91.123 43.2085 91.0647C43.2085 91.0064 43.2085 91.0097 43.2635 91.0097C43.4345 91.0038 43.6048 90.9855 43.7731 90.9547C43.9996 90.9547 44.1695 90.8997 44.1695 90.7848C44.2288 90.5828 44.2475 90.3711 44.2245 90.1619V82.6236C44.2372 82.4643 44.1974 82.3052 44.1113 82.1706C43.8715 82.106 43.6217 82.0873 43.3751 82.1156C43.2618 82.1156 43.1486 82.0606 43.1486 82.0023C43.1486 81.9441 43.2618 81.8891 43.4883 81.8891H49.1513C49.398 81.9037 49.6456 81.8852 49.8874 81.8341C49.8874 82.2305 49.9424 82.7968 50.0007 83.4197L50.0557 83.986V84.1559C50.0557 84.2692 50.0007 84.2692 49.9424 84.2692C49.8292 84.2692 49.7725 84.1559 49.7159 83.8728C49.6499 83.2826 49.3674 82.7378 48.9231 82.3438C48.1878 82.1328 47.4205 82.0561 46.6579 82.1173H45.5875V86.0813H45.9839C47.0032 86.0813 47.6261 86.0263 47.7982 85.8548C48.0247 85.6849 48.1946 85.2885 48.2512 84.5523C48.2512 84.3824 48.3062 84.2125 48.4211 84.2125C48.536 84.2125 48.591 84.2675 48.591 84.4391V85.7976C48.5701 86.4579 48.5885 87.1188 48.646 87.7769V88.0034C48.6493 88.0265 48.6472 88.05 48.6398 88.0721C48.6325 88.0943 48.62 88.1144 48.6036 88.1308C48.5871 88.1473 48.567 88.1597 48.5448 88.1671C48.5227 88.1745 48.4992 88.1766 48.4761 88.1733C48.4467 88.1713 48.419 88.1588 48.3982 88.138C48.3773 88.1171 48.3648 88.0894 48.3628 88.06C48.3628 88.005 48.3079 87.6636 48.2496 87.3238C48.2396 87.1153 48.1773 86.9127 48.0684 86.7346C47.9595 86.5564 47.8076 86.4086 47.6267 86.3045C47.2145 86.2424 46.7969 86.224 46.3808 86.2495H45.8145V90.7232C46.9672 90.7503 48.1205 90.7125 49.2689 90.61C49.7775 90.555 50.1733 89.9876 50.2871 88.9683C50.2322 88.7418 50.2871 88.5719 50.4004 88.5719C50.3531 88.6253 50.3183 88.6886 50.2986 88.7572C50.2789 88.8258 50.2748 88.8979 50.2866 88.9683V88.9683Z" fill="#C9D3D6"/>
<path d="M60.1403 90.0985C60.1431 90.4956 60.1248 90.8926 60.0853 91.2877H58.84L53.2904 91.2328C53.1205 91.2328 53.0638 91.1778 53.0638 91.1195C53.0638 91.0612 53.1771 91.0062 53.4602 91.0062C53.8566 91.0062 53.9699 90.9513 54.0265 90.893C54.1191 90.7401 54.1589 90.561 54.1398 90.3833V82.9055C54.1398 82.5091 54.0848 82.3959 54.0265 82.3392C53.8057 82.2772 53.5749 82.2586 53.347 82.2842C53.1771 82.2842 53.1205 82.2293 53.1205 82.1144C53.1205 82.0594 53.1754 82.0011 53.2904 82.0011H53.4036C53.7434 82.0011 54.3097 82.0561 55.1591 82.0561H56.3483C56.5182 82.0561 56.5748 82.1111 56.5748 82.1693C56.5748 82.2276 56.5748 82.2243 56.5199 82.2826C56.3673 82.2846 56.2154 82.303 56.0668 82.3376C55.9075 82.3249 55.7484 82.3647 55.6138 82.4508C55.5518 82.6717 55.5331 82.9024 55.5588 83.1304V91.0585H56.5781C57.3183 91.0887 58.0593 91.0316 58.7861 90.8886C59.1324 90.7821 59.4448 90.5869 59.6922 90.3223C59.8538 89.9413 59.9679 89.5419 60.032 89.1331C60.0344 89.0898 60.0534 89.049 60.0849 89.0192C60.1165 88.9894 60.1582 88.9728 60.2016 88.9728C60.245 88.9728 60.2867 88.9894 60.3182 89.0192C60.3498 89.049 60.3687 89.0898 60.3712 89.1331V89.8126L60.1447 90.0952L60.1403 90.0985Z" fill="#C9D3D6"/>
<path d="M69.9365 90.0985C69.9393 90.4956 69.921 90.8926 69.8815 91.2877H68.6362L63.0871 91.2328C62.9172 91.2328 62.8606 91.1778 62.8606 91.1195C62.8606 91.0612 62.9739 91.0062 63.257 91.0062C63.6534 91.0062 63.7667 90.9513 63.8233 90.893C63.9159 90.7401 63.9557 90.561 63.9365 90.3833V82.9055C63.9365 82.5091 63.8816 82.3959 63.8233 82.3392C63.6024 82.2772 63.3717 82.2586 63.1437 82.2842C62.9739 82.2842 62.9172 82.2293 62.9172 82.1144C62.9172 82.0594 62.9722 82.0011 63.0871 82.0011H63.2004C63.5401 82.0011 64.1064 82.0561 64.9559 82.0561H66.1451C66.315 82.0561 66.3716 82.1111 66.3716 82.1693C66.3716 82.2276 66.3716 82.2243 66.3166 82.2826C66.1641 82.2846 66.0122 82.303 65.8636 82.3376C65.7043 82.3249 65.5452 82.3647 65.4106 82.4508C65.3486 82.6717 65.3299 82.9024 65.3556 83.1304V91.0585H66.3749C67.115 91.0887 67.8561 91.0316 68.5829 90.8886C68.9292 90.7821 69.2415 90.5869 69.4889 90.3223C69.6505 89.9413 69.7646 89.5419 69.8287 89.1331C69.8312 89.0898 69.8501 89.049 69.8817 89.0192C69.9132 88.9894 69.9549 88.9728 69.9983 88.9728C70.0417 88.9728 70.0835 88.9894 70.115 89.0192C70.1465 89.049 70.1655 89.0898 70.1679 89.1331V89.8126L69.9414 90.0952L69.9365 90.0985Z" fill="#C9D3D6"/>
<path d="M81.5456 91.0613C81.5456 91.1163 81.4906 91.1746 81.3757 91.1746H81.1491L79.4503 91.1196L77.7514 91.1746H77.5799C77.41 91.1746 77.2401 91.1196 77.2401 91.0613C77.2401 90.948 77.3533 90.8914 77.6365 90.8914C78.3721 90.8914 78.8257 90.7782 78.8257 90.6649V90.5516L78.7124 90.1552L78.6575 89.9854C78.6025 89.6456 78.3177 89.0793 78.0912 88.116H75.2031C74.8927 88.912 74.628 89.725 74.4103 90.5511C74.4103 90.6643 74.4653 90.721 74.5802 90.7776C74.7888 90.7827 74.9968 90.801 75.2031 90.8326C75.4296 90.8326 75.5995 90.8876 75.5995 90.9458C75.5995 91.0591 75.4862 91.0591 75.2031 91.0591C74.7117 91.066 74.2202 91.0476 73.7307 91.0041H73.3343C73.2211 91.0041 72.9945 91.0041 72.9379 91.0591H72.768C72.6548 91.0591 72.5981 91.0041 72.5981 90.9458C72.5981 90.8876 72.7114 90.8326 72.9945 90.8326C73.1897 90.8408 73.3839 90.8019 73.5608 90.7193C73.7139 90.6028 73.8316 90.4459 73.9006 90.2663C75.0898 86.9252 75.9959 84.3769 76.6754 82.3382C76.6941 82.2014 76.7322 82.0679 76.7887 81.9418L76.8437 81.7153C76.8437 81.602 76.8987 81.5454 76.9569 81.5454C76.9715 81.5454 76.9855 81.5512 76.9958 81.5615C77.0061 81.5718 77.0119 81.5858 77.0119 81.6004C77.1252 81.9968 77.4083 82.6763 77.8047 83.7523C78.2011 84.6584 78.9373 86.7536 80.1832 90.2641C80.2381 90.434 80.353 90.6605 80.5229 90.6605C80.7469 90.7124 80.9738 90.7503 81.2025 90.7738C81.4323 90.892 81.5456 90.9486 81.5456 91.0613ZM77.9213 87.7774C77.808 87.381 77.5249 86.7014 77.2417 85.7981L76.6188 83.9288C76.2224 84.9481 75.826 86.1939 75.3163 87.7774H77.9213Z" fill="#C9D3D6"/>
<path d="M29.7024 100.184V100.581C29.6558 101.089 29.6374 101.599 29.6474 102.11V103.186C29.6474 103.299 29.5924 103.356 29.5341 103.356C29.4758 103.356 29.4209 103.301 29.3642 103.186C29.3117 102.952 29.1693 102.749 28.9678 102.619C28.3286 103.179 27.4942 103.464 26.646 103.412C26.0345 103.424 25.4272 103.309 24.862 103.075C24.2968 102.841 23.786 102.493 23.3616 102.053C22.9345 101.589 22.6044 101.045 22.3905 100.451C22.1765 99.8583 22.0831 99.2284 22.1157 98.5987C22.0645 97.3388 22.489 96.1057 23.3049 95.1443C23.6841 94.7115 24.1559 94.3696 24.6853 94.1442C25.2147 93.9187 25.7881 93.8153 26.3629 93.8418C26.743 93.8457 27.1221 93.8836 27.4955 93.9551C27.8559 94.0545 28.1995 94.2072 28.5148 94.4081C28.6518 94.4968 28.8063 94.5547 28.9678 94.578C29.0228 94.578 29.1377 94.523 29.1943 94.3515C29.3076 94.125 29.4209 93.9551 29.5341 93.9551C29.6474 93.9551 29.6474 94.0101 29.6474 94.0683V94.2382C29.501 95.0221 29.444 95.82 29.4775 96.6167C29.4775 96.7865 29.4775 96.9564 29.4225 96.9564C29.3918 96.9866 29.352 97.0059 29.3093 97.0114C29.196 97.0114 29.1394 96.9564 29.1394 96.7849C29.0379 96.2368 28.8666 95.7039 28.6297 95.1993C28.4123 94.8586 28.1101 94.5803 27.7527 94.3917C27.3953 94.2031 26.995 94.1106 26.5911 94.1233C26.2766 94.1146 25.9636 94.1704 25.6716 94.2873C25.3795 94.4042 25.1144 94.5796 24.8927 94.8029C24.0649 95.8895 23.6441 97.2318 23.7035 98.5965C23.6359 99.8402 23.9738 101.072 24.6662 102.107C24.912 102.447 25.2359 102.721 25.6105 102.909C25.9851 103.096 26.3994 103.19 26.8181 103.183C27.2669 103.2 27.7075 103.06 28.064 102.787C28.46 102.57 28.7772 102.233 28.97 101.824C29.2071 101.34 29.3785 100.825 29.4797 100.295C29.5347 100.069 29.5929 99.8989 29.6496 99.8989C29.7062 99.8989 29.7024 99.9578 29.7024 100.184Z" fill="#C9D3D6"/>
<path d="M39.6687 102.11C39.6715 102.507 39.6532 102.904 39.6137 103.299H38.4245L32.8748 103.244C32.7049 103.244 32.6483 103.189 32.6483 103.131C32.6483 103.072 32.7616 103.017 33.0447 103.017C33.4411 103.017 33.5544 102.962 33.611 102.904C33.7036 102.751 33.7434 102.572 33.7243 102.394V94.9166C33.7243 94.5202 33.6693 94.407 33.611 94.3503C33.3902 94.2883 33.1594 94.2697 32.9315 94.2954C32.7616 94.2954 32.7049 94.2404 32.7049 94.1255C32.7049 94.0705 32.7599 94.0122 32.8748 94.0122H32.9881C33.3279 94.0122 33.8942 94.0672 34.7436 94.0672H35.9328C36.1027 94.0672 36.1593 94.1222 36.1593 94.1804C36.1593 94.2387 36.1593 94.2354 36.1043 94.2937C35.9518 94.2957 35.7999 94.3142 35.6513 94.3487C35.492 94.336 35.3329 94.3758 35.1983 94.4619C35.1363 94.6828 35.1176 94.9135 35.1433 95.1415V103.07H36.1626C36.9027 103.1 37.6438 103.043 38.3706 102.9C38.7169 102.793 39.0293 102.598 39.2767 102.333C39.4717 101.965 39.5874 101.56 39.6164 101.144C39.6189 101.101 39.6379 101.06 39.6694 101.03C39.7009 101.001 39.7427 100.984 39.7861 100.984C39.8294 100.984 39.8712 101.001 39.9027 101.03C39.9343 101.06 39.9532 101.101 39.9557 101.144V102.223L39.6731 102.11H39.6687Z" fill="#C9D3D6"/>
<path d="M50.4847 93.9556C50.4847 94.0106 50.4297 94.0689 50.2587 94.0689H49.749C49.5225 94.0689 49.3526 94.1239 49.3526 94.2388V99.6185C49.3526 100.864 49.1261 101.884 48.617 102.45C48.3235 102.767 47.9621 103.012 47.56 103.169C47.1579 103.326 46.7255 103.39 46.2952 103.356C45.7765 103.396 45.2556 103.314 44.7739 103.118C44.2922 102.921 43.863 102.615 43.5204 102.223C43.124 101.77 43.0107 100.978 43.0107 99.7884V94.4653C43.0107 94.2954 42.8974 94.2388 42.6143 94.1255H42.1046C41.9347 94.1255 41.8787 94.0705 41.8787 94.0123C41.8787 93.954 41.9336 93.899 42.0485 93.899H45.1065C45.2764 93.899 45.333 93.954 45.333 94.0689C45.333 94.1239 45.3331 94.1821 45.2781 94.1821H44.5424C44.4292 94.2371 44.4292 94.2954 44.3726 94.352V99.8451C44.3726 101.034 44.5424 101.824 44.9388 102.223C45.1655 102.436 45.4328 102.601 45.7247 102.708C46.0166 102.815 46.3272 102.862 46.6377 102.846C47.9402 102.846 48.733 102.11 48.9595 100.525C48.9595 100.298 49.0145 99.3354 49.0145 97.6365V94.2921C49.0121 94.197 48.977 94.1057 48.9151 94.0335C48.8532 93.9613 48.7683 93.9126 48.6747 93.8957H48.1651C47.9952 93.8957 47.8253 93.8407 47.8253 93.7258C47.8253 93.6708 47.8803 93.6125 47.9952 93.6125H50.1465C50.3719 93.7845 50.4847 93.8988 50.4847 93.9556Z" fill="#C9D3D6"/>
<path d="M59.6015 100.694C59.6239 101.113 59.5233 101.529 59.3121 101.891C59.1009 102.253 58.7883 102.546 58.4128 102.733C57.8698 103.009 57.2664 103.145 56.6573 103.129H53.2029C53.0331 103.129 52.9764 103.074 52.9764 103.016C52.9764 102.958 53.0897 102.903 53.3728 102.903C53.7692 102.903 53.8825 102.848 53.9391 102.789C53.9955 102.606 54.0142 102.414 53.9941 102.223V94.975C53.9941 94.5786 53.9941 94.3521 53.9391 94.2955C53.8841 94.1822 53.5993 94.1256 53.2596 94.1256C53.0331 94.1256 52.8632 94.0706 52.8632 94.0123C52.8632 93.954 52.9764 93.899 53.2596 93.899H53.4295C53.5427 93.899 53.5993 93.954 53.7692 93.954H56.4308C57.1762 93.9038 57.9209 94.0606 58.5827 94.4071C58.8424 94.5786 59.0523 94.8154 59.1914 95.0937C59.3306 95.372 59.3941 95.6821 59.3755 95.9927C59.3779 96.2813 59.3185 96.567 59.2013 96.8308C59.0841 97.0945 58.9118 97.3301 58.696 97.5217C58.1367 97.9434 57.4696 98.1986 56.7717 98.2578V98.3128C57.444 98.331 58.1028 98.5055 58.696 98.8225C59.0107 99.0146 59.2634 99.2932 59.424 99.6251C59.5846 99.9569 59.6462 100.328 59.6015 100.694ZM57.8465 96.051C57.8465 95.1449 57.6767 94.5786 57.2803 94.3521C56.9172 94.1542 56.5014 94.075 56.091 94.1256C55.8632 94.12 55.6354 94.1385 55.4115 94.1805V98.088H56.2604C56.4851 98.1059 56.7108 98.0689 56.918 97.9801C57.1251 97.8913 57.3076 97.7534 57.4496 97.5783C57.7208 97.1158 57.8582 96.587 57.8465 96.051ZM58.2424 100.581C58.2424 99.4487 57.7894 98.767 56.9399 98.486C56.4348 98.4013 55.923 98.3634 55.4109 98.3728V102.393C55.4109 102.619 55.4109 102.789 55.4659 102.846C55.7017 102.93 55.9514 102.969 56.2015 102.959C56.4736 102.98 56.7468 102.94 57.0014 102.842C57.256 102.744 57.4857 102.59 57.6739 102.393C58.0471 101.863 58.2458 101.229 58.2424 100.581V100.581Z" fill="#C9D3D6"/>
<path d="M34.6351 37.9811C33.9661 37.9811 33.9661 37.4164 33.9661 37.1073V36.9532C33.9145 36.9532 33.812 37.0048 33.7603 37.0048C33.6135 36.9958 33.475 36.9335 33.371 36.8294C33.2669 36.7254 33.2045 36.5869 33.1956 36.44C33.1956 36.1318 33.298 36.1318 33.3497 36.1318C33.4013 36.1318 33.4521 36.1835 33.5038 36.2343C33.5458 36.2886 33.601 36.3312 33.6641 36.3582C33.7273 36.3852 33.7962 36.3955 33.8645 36.3884C33.9697 36.3927 34.0747 36.3751 34.1727 36.3367C34.2744 36.3083 34.3642 36.248 34.4291 36.1648C34.494 36.0816 34.5306 35.9799 34.5335 35.8744C34.3611 35.8494 34.2035 35.7628 34.0901 35.6307C33.9766 35.4985 33.9148 35.3297 33.9162 35.1555C33.9123 35.1276 33.915 35.0991 33.924 35.0724C33.9329 35.0457 33.948 35.0214 33.9679 35.0015C33.9879 34.9815 34.0121 34.9665 34.0389 34.9575C34.0656 34.9485 34.094 34.9459 34.1219 34.9497V34.9497C34.1753 34.9533 34.2256 34.9762 34.2634 35.014C34.3012 35.0518 34.3241 35.1021 34.3277 35.1555C34.3535 35.2587 34.413 35.3504 34.4969 35.4158C34.5807 35.4813 34.6841 35.5169 34.7905 35.5169C34.8969 35.5169 35.0002 35.4813 35.0841 35.4158C35.1679 35.3504 35.2275 35.2587 35.2532 35.1555C35.2569 35.1021 35.2797 35.0518 35.3175 35.014C35.3554 34.9762 35.4056 34.9533 35.459 34.9497V34.9497C35.5107 34.9497 35.5615 35.0014 35.6131 35.0014C35.6327 35.0215 35.6476 35.0459 35.6565 35.0725C35.6654 35.0992 35.6683 35.1276 35.6648 35.1555C35.6546 35.3345 35.5822 35.5044 35.46 35.6356C35.3379 35.7669 35.1737 35.8514 34.9958 35.8744C35.0509 36.0698 35.1804 36.2358 35.3566 36.3367C35.459 36.3367 35.5107 36.3884 35.6648 36.3884C35.7331 36.3955 35.802 36.3852 35.8652 36.3582C35.9283 36.3312 35.9835 36.2886 36.0255 36.2343C36.0772 36.1826 36.128 36.1318 36.1796 36.1318C36.2313 36.1318 36.3337 36.1318 36.3337 36.44C36.3337 36.5425 36.2821 36.7483 36.1796 36.8008C36.1242 36.8691 36.0535 36.9233 35.9731 36.9591C35.8928 36.9949 35.8051 37.0111 35.7173 37.0065C35.6448 37.0142 35.5718 36.9959 35.5115 36.9549V37.109C35.304 37.4164 35.304 37.9811 34.6351 37.9811" fill="#C9D3D6"/>
<path d="M20.0909 28.267V60.3884C20.0909 70.9782 25.3841 73.0833 33.9162 73.0833C35.165 73.0414 36.4095 73.252 37.5751 73.7023C38.7406 74.1526 39.8034 74.8334 40.6997 75.704L40.8022 75.8065L40.9046 75.704C42.3433 74.0596 45.0157 73.0833 47.7923 73.0833C56.3244 73.0833 61.6175 70.9756 61.6175 60.3884V28.267H20.0909ZM59.2542 64.038C59.1001 64.5546 58.2779 64.9636 58.2779 64.9636C58.5647 65.0582 58.8156 65.2385 58.9968 65.4802C58.636 65.9967 58.4802 66.0975 57.6089 66.5598C56.986 67.0482 56.5503 67.7362 56.3752 68.5081C56.2766 68.9047 56.0616 69.2628 55.7579 69.5361C55.3045 69.6543 54.8308 69.672 54.37 69.5878C54.3391 69.3105 54.2876 69.036 54.2159 68.7664C54.155 68.6906 54.0787 68.6286 53.9921 68.5844C53.9056 68.5401 53.8106 68.5148 53.7135 68.5099C53.6164 68.505 53.5193 68.5207 53.4287 68.5561C53.3382 68.5914 53.2561 68.6455 53.1879 68.7148C52.8272 68.9205 52.6713 69.023 52.6713 69.023C52.5985 68.8987 52.5513 68.761 52.5326 68.6181C52.5138 68.4753 52.5239 68.3301 52.5622 68.1912C52.6004 68.0523 52.6662 67.9224 52.7554 67.8093C52.8447 67.6962 52.9558 67.6022 53.082 67.5327C53.0518 67.4159 52.9941 67.3081 52.9136 67.2182C52.8332 67.1283 52.7324 67.059 52.6197 67.0161C52.5121 66.9879 52.3992 66.9872 52.2913 67.0141C52.1834 67.0411 52.084 67.0948 52.0024 67.1702C51.7966 66.9644 51.7966 66.6054 52.0024 66.1422C52.2466 65.8575 52.5907 65.6775 52.9639 65.6392C53.337 65.6009 53.7106 65.7073 54.0075 65.9365C54.7264 66.453 54.8814 66.0906 54.9839 65.9365C55.2491 65.6351 55.4111 65.2568 55.4462 64.8568C55.6003 64.4461 55.6003 64.4961 55.3437 64.292C55.031 63.9944 54.6583 63.7672 54.2505 63.6255C53.8428 63.4838 53.4094 63.431 52.9795 63.4707C51.9144 63.614 50.8339 63.3579 49.9464 62.7518C49.65 62.5383 49.2983 62.415 48.9335 62.3969C48.5688 62.3787 48.2065 62.4664 47.8904 62.6493C47.0691 63.06 46.7083 63.3682 46.8624 63.8831C47.0165 64.3979 48.2503 64.3997 48.2503 64.3997C48.1468 64.7301 47.9308 65.0139 47.6398 65.2017C47.3489 65.3895 47.0013 65.4694 46.6575 65.4276C46.6575 65.4276 47.3265 66.0449 46.7092 66.3532C46.0878 66.5996 45.4241 66.7222 44.7557 66.7139C45.218 67.0746 45.373 67.7419 44.8581 67.5353C44.263 67.4439 43.6555 67.4743 43.0725 67.6245C42.4894 67.7747 41.9429 68.0416 41.4659 68.4091C41.0339 68.8526 40.4793 69.1569 39.8732 69.283C39.3566 69.283 39.2042 69.1806 39.3566 68.9223C39.481 68.6391 39.5841 68.347 39.6648 68.0484C39.3357 68.0815 39.0045 68.0099 38.7185 67.8437C38.4325 67.6775 38.2062 67.4252 38.0721 67.1229L37.2507 67.0712C37.4048 65.6833 38.9476 65.735 38.9476 65.735C38.7137 65.4087 38.4375 65.1148 38.1263 64.8611C38.2712 64.706 38.4489 64.5852 38.6464 64.5075C38.8439 64.4297 39.0563 64.3971 39.268 64.4118C39.4798 64.4266 39.6856 64.4884 39.8704 64.5928C40.0552 64.6972 40.2144 64.8415 40.3364 65.0152C40.4721 65.19 40.6585 65.3185 40.8702 65.3831C41.0818 65.4477 41.3083 65.4452 41.5185 65.376C42.0892 65.3179 42.6455 65.1615 43.1629 64.9136C43.5236 64.6054 43.6795 64.3971 43.3687 63.9881C43.0216 63.6227 42.8046 63.1531 42.7514 62.6519C42.8721 62.043 43.08 61.4546 43.3687 60.905C38.9494 63.4233 37.6132 62.7561 37.6132 62.7561C37.5872 63.1111 37.6583 63.4664 37.8189 63.7841C37.0226 64.118 36.1406 64.1901 35.3006 63.9898C35.4341 64.2975 35.6259 64.5765 35.8654 64.8112C34.9086 65.068 33.9034 65.0858 32.9382 64.8628C32.9898 65.2735 33.5555 65.5817 33.5555 65.5817C32.8366 65.89 32.4758 65.9924 30.8865 65.7875C29.9779 65.7056 29.0735 65.9838 28.3682 66.5624C28.3682 68.3609 26.2606 68.3609 26.2606 68.3609C26.3872 67.8569 26.3138 67.3234 26.0557 66.8723C25.4482 67.0948 24.7956 67.1655 24.1547 67.0781C24.1112 66.8135 24.1256 66.5426 24.1969 66.2841C24.2683 66.0256 24.3948 65.7857 24.5679 65.5809C25.0845 65.0643 24.6196 64.5012 24.0031 64.4504C23.6424 64.4504 23.4866 64.3988 23.6949 64.0897C24.3639 63.2684 25.4935 62.856 26.2132 63.5249C26.9321 64.2438 27.7552 63.8857 28.834 63.4225C29.7108 63.0089 30.5242 62.4726 31.2498 61.8297L31.0441 61.778C30.8383 61.7264 29.3996 60.9567 29.3996 60.9567C29.2812 61.2511 29.2631 61.5764 29.348 61.8822C29.2374 61.8929 29.1259 61.879 29.0214 61.8415C28.9169 61.804 28.822 61.7438 28.7435 61.6653C28.665 61.5868 28.6048 61.4919 28.5673 61.3874C28.5298 61.2829 28.5159 61.1714 28.5266 61.0609C28.5266 60.4961 27.8576 60.1353 27.8576 60.1353C27.7327 60.4629 27.6801 60.8135 27.7035 61.1633C27.3428 61.0092 27.1387 60.7526 27.0862 60.0837C27.07 59.9018 27.0156 59.7253 26.9266 59.5658C26.8376 59.4064 26.716 59.2674 26.5697 59.1581C26.4444 59.4322 26.4068 59.7383 26.462 60.0346C26.2646 59.7921 26.1172 59.5128 26.0285 59.213C25.9399 58.9131 25.9116 58.5986 25.9455 58.2877C25.9546 57.8572 25.8089 57.4377 25.5348 57.1056C25.2309 56.7457 24.512 56.0243 24.512 56.0243C24.3062 56.4349 23.7931 56.6416 23.0733 56.1784C22.8723 56.002 22.7195 55.7775 22.6291 55.5258C22.5387 55.2741 22.5138 55.0036 22.5567 54.7397C23.5331 55.1504 23.4823 54.2231 23.174 53.8658C23.0542 53.7136 22.9849 53.5278 22.9756 53.3343C22.9664 53.1408 23.0177 52.9492 23.1224 52.7862C23.2765 52.478 22.9166 52.3239 22.7616 52.3239C22.5559 52.3239 22.6592 52.1181 22.9674 51.9132C23.1995 51.7936 23.4584 51.7356 23.7193 51.7446C23.9802 51.7537 24.2345 51.8295 24.4577 51.9648C24.8185 52.1706 24.8684 52.3256 24.9743 51.8624C24.9948 51.7317 24.9764 51.5979 24.9212 51.4777C24.8661 51.3575 24.7768 51.2562 24.6644 51.1865C24.716 51.0324 25.1267 50.7759 25.744 50.8783C25.9555 50.9381 26.141 51.0667 26.2711 51.2439C26.4012 51.4211 26.4684 51.6366 26.462 51.8564C26.4501 52.4061 26.3274 52.9478 26.1013 53.4491C25.8955 54.0664 26.2554 54.3747 26.6179 54.7853C27.7343 55.776 28.9193 56.6866 30.1642 57.5103C31.3979 58.3841 31.6028 58.3841 31.6028 58.3841C31.5878 57.8641 31.7124 57.3495 31.9636 56.8938C31.9885 56.8298 31.9986 56.7609 31.9932 56.6923C31.9878 56.6238 31.967 56.5574 31.9323 56.498C31.8976 56.4387 31.85 56.3879 31.7929 56.3495C31.7359 56.3112 31.6709 56.2862 31.6028 56.2765C31.397 56.2249 31.1921 56.5847 31.1921 56.5847C30.9961 56.4374 30.8315 56.2524 30.7081 56.0405C30.5846 55.8286 30.5048 55.5942 30.4732 55.351C30.4126 55.0154 30.4374 54.67 30.5453 54.3465C30.6531 54.0231 30.8406 53.7319 31.0905 53.4999C31.2447 53.3458 31.1422 53.1392 30.9364 53.0892C30.7307 53.0393 29.5486 52.2679 30.3191 51.2907C31.038 50.2627 32.5809 51.7014 32.5809 51.7014C33.087 51.4366 33.6548 51.312 34.2253 51.3406C34.8548 51.3842 35.4765 51.5054 36.0764 51.7014C36.6937 51.0324 38.1323 50.6217 38.543 51.4956C38.6405 51.803 38.621 52.1356 38.4884 52.4296C38.3557 52.7235 38.1191 52.9581 37.8241 53.0884C37.6183 53.2425 37.67 53.3966 37.9266 53.4991C38.2087 53.6948 38.4096 53.9869 38.4913 54.3204C38.3494 54.4704 38.1947 54.6078 38.029 54.7311C38.2879 54.8758 38.5016 55.0895 38.6463 55.3484C38.4519 55.5016 38.2454 55.6389 38.029 55.7591C38.3897 55.7591 38.4397 55.9648 39.2111 56.8387C39.7759 57.456 40.908 57.1469 41.5753 56.8904C42.2443 56.6846 45.1216 56.1715 45.8405 55.9648C49.4892 55.091 51.3919 55.9132 53.447 56.6837C55.503 57.4026 57.5073 57.4026 57.7122 55.6558C57.8663 53.8572 55.9137 52.9868 54.4225 52.9868C52.9322 53.0959 51.4719 53.4611 50.1057 54.0664C48.2285 54.7968 46.2542 55.247 44.246 55.4026C42.19 55.4026 39.9291 55.2485 39.9291 52.8843C39.9291 51.4965 41.2653 50.1603 44.246 50.366C45.274 50.4685 47.6898 50.0578 48.4647 49.2864C48.7489 49.0532 48.9299 48.7175 48.9684 48.3519C49.0069 47.9862 48.8999 47.6202 48.6704 47.3329C48.3097 47.0247 48.6188 46.9721 48.9787 46.9721C49.3442 46.9689 49.7001 47.0888 49.9891 47.3127C50.2781 47.5365 50.4832 47.8512 50.5714 48.2059C50.6175 48.4452 50.6042 48.6922 50.5326 48.9252C50.461 49.1581 50.3333 49.37 50.1608 49.5421C50.4573 49.435 50.7786 49.4165 51.0854 49.4887C51.0555 49.756 50.973 50.0147 50.8428 50.25C50.7126 50.4853 50.5372 50.6925 50.3266 50.8598C50.116 51.0271 49.8745 51.1512 49.6158 51.2248C49.3572 51.2984 49.0865 51.3203 48.8194 51.289C48.8194 51.289 49.1801 51.8056 49.6407 51.7513C49.0303 52.2878 48.2434 52.5803 47.4307 52.5727C46.566 52.6284 45.7009 52.4696 44.9124 52.1103C44.2977 51.8364 43.6318 51.6964 42.9589 51.6997C42.7966 51.677 42.6314 51.6872 42.4732 51.7295C42.3149 51.7718 42.1667 51.8454 42.0374 51.946C41.9081 52.0466 41.8003 52.1721 41.7203 52.315C41.6403 52.458 41.5898 52.6156 41.5718 52.7784C41.5202 53.8581 42.7539 54.1663 44.2408 54.1663C46.6 54.07 48.912 53.4746 51.0243 52.4194C53.491 51.3398 57.0889 51.5455 58.4768 53.3957C59.0524 54.0683 59.3423 54.9393 59.2847 55.8227C59.2272 56.7061 58.8266 57.532 58.1685 58.1241C57.243 58.998 55.6502 58.9455 54.5706 58.5865C53.491 58.2274 52.9287 58.0776 52.9287 58.0776C53.4102 58.4748 53.8275 58.9438 54.1659 59.4681C54.5741 60.1987 55.1572 60.8167 55.8629 61.2666C56.1565 61.517 56.5052 61.6943 56.8805 61.7841C57.2558 61.8739 57.647 61.8736 58.0222 61.7832C58.2565 61.7212 58.5003 61.7037 58.7411 61.7315L58.3803 62.4005C58.7386 62.4413 59.0867 62.5456 59.4083 62.7087C59.3567 63.0695 58.5344 63.5826 58.5344 63.5826C58.9976 63.5241 59.2542 64.038 59.2542 64.038ZM59.5624 44.8163C59.4083 45.3329 58.5861 45.7418 58.5861 45.7418C58.9468 45.7935 59.2551 46.2584 59.2551 46.2584C58.8943 46.775 58.7385 46.8757 57.8672 47.338C57.2433 47.8277 56.8075 48.5177 56.6334 49.2916C56.5349 49.6882 56.3199 50.0462 56.0161 50.3195C55.5628 50.4378 55.0891 50.4554 54.6283 50.3712C54.6276 50.0903 54.5753 49.8119 54.4742 49.5498C54.1134 49.1891 53.8052 49.3441 53.4462 49.4982C53.0854 49.704 52.9296 49.8064 52.9296 49.8064C52.8568 49.6821 52.8096 49.5444 52.7908 49.4015C52.7721 49.2587 52.7822 49.1135 52.8204 48.9746C52.8587 48.8357 52.9244 48.7058 53.0137 48.5927C53.103 48.4796 53.214 48.3856 53.3403 48.3161C53.3403 48.3161 53.0321 47.7513 52.723 47.7513C52.627 47.7449 52.5308 47.76 52.4414 47.7957C52.352 47.8313 52.2717 47.8864 52.2064 47.9571C52.1386 47.7925 52.1081 47.615 52.117 47.4373C52.1259 47.2596 52.1741 47.086 52.2581 46.9291C52.4908 46.6443 52.8267 46.4629 53.1925 46.4243C53.5583 46.3858 53.9246 46.4932 54.2116 46.7233C54.9305 47.2399 55.0854 46.8774 55.1879 46.7233C55.4532 46.4219 55.6152 46.0437 55.6502 45.6437C55.8043 45.233 55.8043 45.2829 55.5478 45.0789C55.2317 44.7863 54.8584 44.5624 54.4516 44.421C54.0447 44.2796 53.613 44.224 53.1836 44.2575C52.1184 44.4009 51.0379 44.1448 50.1504 43.5386C49.8541 43.3252 49.5024 43.2019 49.1376 43.1837C48.7728 43.1656 48.4106 43.2532 48.0945 43.4362C47.2731 43.8469 46.9124 44.1551 47.0665 44.6699C47.2206 45.1848 48.4543 45.1865 48.4543 45.1865C48.35 45.5151 48.1344 45.7969 47.8446 45.9836C47.5548 46.1703 47.209 46.2501 46.8667 46.2093C46.8667 46.2093 47.5357 46.8266 46.9184 47.1349C46.2969 47.381 45.6333 47.5033 44.9649 47.4947C45.4272 47.8555 45.5822 48.5227 45.0673 48.3161C44.4722 48.2248 43.8647 48.2551 43.2817 48.4053C42.6986 48.5555 42.1521 48.8225 41.6752 49.19C41.2432 49.6334 40.6885 49.9377 40.0824 50.0638C39.5658 50.0638 39.4134 49.9614 39.5658 49.7031C39.6902 49.4199 39.7933 49.1278 39.874 48.8292C39.5449 48.8624 39.2137 48.7907 38.9277 48.6245C38.6417 48.4583 38.4154 48.2061 38.2813 47.9037L37.4599 47.852C37.614 46.4642 39.1569 46.5158 39.1569 46.5158C38.9308 46.1982 38.6532 45.9206 38.3355 45.6945C38.4807 45.5399 38.6585 45.4196 38.8559 45.3423C39.0534 45.2649 39.2656 45.2324 39.4771 45.2472C39.6887 45.2619 39.8943 45.3236 40.0791 45.4276C40.2639 45.5316 40.4232 45.6754 40.5456 45.8486C40.9563 46.4659 41.4195 46.2593 41.7793 46.2093C42.3213 46.1718 42.8481 46.0139 43.3213 45.747C43.6821 45.4887 43.8379 45.2304 43.6295 44.8215C43.4437 44.6504 43.2934 44.4443 43.1875 44.215C43.0816 43.9857 43.022 43.7377 43.0122 43.4853C43.133 42.8763 43.3409 42.288 43.6295 41.7384C39.2102 44.2567 37.874 43.5894 37.874 43.5894C37.8567 43.9572 37.9655 44.3198 38.1823 44.6174C37.389 44.9568 36.5156 45.0636 35.664 44.9256C35.7974 45.2333 35.9892 45.5123 36.2287 45.747C35.272 46.0038 34.2667 46.0216 33.3015 45.7987C33.3531 46.2093 33.9188 46.5176 33.9188 46.5176C33.1999 46.8258 32.8391 46.9282 31.2498 46.7233C30.3003 46.6037 29.3418 46.8618 28.5809 47.4422C28.5809 49.2408 26.4732 49.2408 26.4732 49.2408C26.6001 48.7361 26.5263 48.2019 26.2675 47.7504C25.66 47.973 25.0074 48.0436 24.3665 47.9562C24.3231 47.6936 24.3368 47.4247 24.4066 47.1678C24.4764 46.911 24.6007 46.6721 24.7711 46.4676C25.2877 45.951 24.8228 45.4396 24.2545 45.4396C23.8938 45.4396 23.8938 45.4396 24.0488 45.0789C24.5111 44.1026 25.7957 43.6402 26.5154 44.36C27.2352 45.0798 28.0574 44.7207 29.1362 44.2575C30.0015 43.8238 30.8124 43.2892 31.552 42.6648L31.3462 42.6131C31.1405 42.5615 29.7018 41.7918 29.7018 41.7918C29.5834 42.0862 29.5652 42.4115 29.6502 42.7173C29.5369 42.7293 29.4225 42.7167 29.3146 42.6804C29.2066 42.6441 29.1078 42.585 29.0249 42.507C28.9419 42.429 28.8768 42.3341 28.8339 42.2286C28.791 42.1232 28.7713 42.0097 28.7763 41.8959C28.7545 41.6969 28.6814 41.507 28.5641 41.3447C28.4469 41.1825 28.2895 41.0535 28.1073 40.9704C27.9534 41.3087 27.8829 41.6789 27.9016 42.05C27.5408 41.8959 27.3368 41.6394 27.2842 41.0221C27.2684 40.8404 27.2146 40.6641 27.1262 40.5047C27.0378 40.3452 26.9168 40.2062 26.7711 40.0965C26.6481 40.3704 26.6124 40.6755 26.6687 40.9704C26.4712 40.7279 26.3238 40.4486 26.2352 40.1488C26.1465 39.8489 26.1182 39.5344 26.1521 39.2235C26.1613 38.793 26.0155 38.3735 25.7414 38.0414C25.4831 37.7332 24.7134 36.9618 24.7134 36.9618C24.5077 37.3725 23.9945 37.5791 23.2748 37.1159C23.0738 36.9395 22.9209 36.715 22.8306 36.4633C22.7402 36.2117 22.7153 35.9412 22.7582 35.6772C23.7345 36.0879 23.6837 35.1607 23.3755 34.8034C23.2797 34.6412 23.2249 34.4581 23.2159 34.2699C23.2069 34.0818 23.2439 33.8943 23.3238 33.7237C23.478 33.5179 23.1697 33.2614 22.9631 33.2614C22.809 33.2614 22.7573 33.0556 23.0656 32.8507C23.2936 32.718 23.5545 32.6524 23.8182 32.6616C24.0818 32.6707 24.3376 32.7542 24.5559 32.9024C24.9166 33.1081 24.9665 33.2631 25.0724 32.7999C25.1219 32.6494 25.1288 32.4882 25.0925 32.334C25.0562 32.1799 24.978 32.0387 24.8667 31.926C24.9813 31.8011 25.1316 31.7144 25.2971 31.6776C25.4626 31.6408 25.6354 31.6557 25.7922 31.7203C26.0209 31.814 26.2242 31.9606 26.3855 32.1479C26.5468 32.3352 26.6616 32.5581 26.7203 32.7982C26.7542 33.3526 26.629 33.9052 26.3596 34.391C26.1538 35.0083 26.5137 35.3165 26.8762 35.7272C27.9926 36.7176 29.1777 37.6279 30.4224 38.4512C31.6527 39.3217 31.8577 39.3217 31.8577 39.3217C31.8439 38.7989 31.9693 38.282 32.221 37.8236C32.2544 37.7603 32.2711 37.6896 32.2695 37.618C32.268 37.5465 32.2482 37.4765 32.2121 37.4147C32.176 37.3529 32.1248 37.3014 32.0632 37.2649C32.0016 37.2284 31.9318 37.2083 31.8602 37.2063C31.7786 37.1882 31.6932 37.1988 31.6184 37.2363C31.5436 37.2737 31.484 37.3358 31.4496 37.4121C31.2535 37.2647 31.0889 37.0797 30.9655 36.8678C30.842 36.6559 30.7622 36.4215 30.7307 36.1783C30.67 35.8428 30.6948 35.4973 30.8027 35.1739C30.9106 34.8504 31.0981 34.5593 31.348 34.3273C31.5021 34.1731 31.3996 33.9665 31.1939 33.9166C30.9881 33.8666 29.806 33.0952 30.5766 32.118C31.2455 31.09 32.7866 32.5287 32.7866 32.5287C33.2928 32.2639 33.8605 32.1393 34.4311 32.168C35.0606 32.2115 35.6823 32.3327 36.2821 32.5287C36.8994 31.8597 38.3381 31.4491 38.7488 32.3229C38.8463 32.6304 38.8268 32.9629 38.6941 33.2569C38.5614 33.5509 38.3249 33.7855 38.0299 33.9157C37.8241 34.0698 37.8758 34.2239 38.1323 34.3264C38.3969 34.539 38.5933 34.8246 38.6971 35.1477C38.5552 35.2978 38.4005 35.4352 38.2348 35.5584C38.4937 35.7032 38.7073 35.9168 38.8521 36.1757C38.6576 36.3289 38.4512 36.4663 38.2348 36.5864C38.5955 36.5864 38.6455 36.7922 39.4169 37.666C39.9817 38.2834 41.1138 37.9743 41.7811 37.7177C42.45 37.5119 45.3273 36.9988 46.0462 36.7922C49.695 35.9183 51.5977 36.7405 53.6528 37.5111C55.7088 38.23 57.7131 38.23 57.8715 36.4831C58.0256 34.6845 56.073 33.8141 54.6343 33.8141C53.1426 33.9291 51.681 34.2944 50.3106 34.8946C48.3553 35.6654 46.2941 36.1336 44.1978 36.2833C42.1418 36.335 39.6743 35.666 39.9326 33.2502C40.1384 30.8343 43.1698 30.886 44.5585 31.245C45.9532 31.5429 47.3986 31.5078 48.7772 31.1426C49.9232 30.7667 51.1178 30.5599 52.3235 30.5287C52.8401 30.5287 52.8401 30.6828 52.6842 30.7345C52.5284 30.7861 52.3235 30.8886 51.6562 31.5558C51.4738 31.7488 51.2485 31.8961 50.9986 31.9859C50.7487 32.0756 50.4811 32.1053 50.2176 32.0724C50.426 32.1562 50.6055 32.2989 50.7342 32.4831C50.2317 32.8133 49.6636 33.0305 49.069 33.1196C48.4744 33.2088 47.8675 33.1679 47.2903 32.9997L47.6416 33.6135C47.1214 33.7665 46.5758 33.8134 46.0372 33.7515C45.4985 33.6895 44.9778 33.5199 44.506 33.2528C44.0532 32.8767 43.4987 32.6439 42.9132 32.5838C42.5525 32.5322 41.5254 32.6355 41.4746 33.6118C41.4229 34.6914 42.8108 35.1021 44.2494 35.1021C46.7611 34.9539 49.221 34.3255 51.4961 33.2511C53.9628 32.1714 57.3041 32.3255 58.7428 34.1766C59.3012 34.8566 59.58 35.7236 59.5228 36.6017C59.4656 37.4797 59.0765 38.3032 58.4346 38.905C57.987 39.3216 57.4267 39.5973 56.8235 39.6977C56.2203 39.7981 55.6009 39.7189 55.0424 39.4698C54.4384 39.2267 53.8203 39.0205 53.1913 38.8524C53.6564 39.2642 54.0706 39.7302 54.4251 40.2403C54.8329 40.9712 55.416 41.5893 56.122 42.0389C56.4157 42.2892 56.7644 42.4666 57.1397 42.5563C57.515 42.6461 57.9062 42.6458 58.2813 42.5554C58.5156 42.4935 58.7595 42.4759 59.0002 42.5038L58.6395 43.1727C58.9978 43.2135 59.3459 43.3179 59.6675 43.481C59.6158 43.8417 58.7936 44.3548 58.7936 44.3548C59.1517 44.354 59.5624 44.8163 59.5624 44.8163Z" fill="#C9D3D6"/>
<path d="M34.481 57.3054C33.8121 57.3054 33.8121 56.7406 33.8121 56.4315V56.2774C33.7604 56.2774 33.658 56.329 33.6063 56.329C33.4594 56.3201 33.3209 56.2577 33.2169 56.1536C33.1129 56.0496 33.0505 55.9111 33.0415 55.7642C33.0415 55.456 33.144 55.456 33.1956 55.456C33.2473 55.456 33.2981 55.5077 33.3497 55.5585C33.3917 55.6128 33.4469 55.6554 33.5101 55.6824C33.5732 55.7094 33.6422 55.7198 33.7105 55.7126C33.8157 55.7169 33.9206 55.6993 34.0187 55.6609C34.1203 55.6325 34.2101 55.5722 34.2751 55.4891C34.34 55.4059 34.3765 55.3041 34.3794 55.1986C34.207 55.1736 34.0495 55.087 33.936 54.9549C33.8225 54.8227 33.7607 54.6539 33.7621 54.4797C33.7583 54.4518 33.7609 54.4233 33.7699 54.3966C33.7789 54.3699 33.7939 54.3456 33.8139 54.3257C33.8338 54.3057 33.8581 54.2907 33.8848 54.2817C33.9115 54.2727 33.94 54.2701 33.9679 54.2739V54.2739C34.0213 54.2776 34.0715 54.3004 34.1094 54.3382C34.1472 54.3761 34.17 54.4263 34.1737 54.4797C34.1994 54.5829 34.259 54.6746 34.3428 54.7401C34.4267 54.8056 34.53 54.8411 34.6364 54.8411C34.7428 54.8411 34.8462 54.8056 34.93 54.7401C35.0139 54.6746 35.0734 54.5829 35.0992 54.4797C35.1028 54.4263 35.1257 54.3761 35.1635 54.3382C35.2013 54.3004 35.2516 54.2776 35.305 54.2739V54.2739C35.3566 54.2739 35.4074 54.3256 35.4591 54.3256C35.4787 54.3458 35.4935 54.3701 35.5025 54.3968C35.5114 54.4234 35.5142 54.4518 35.5107 54.4797C35.5006 54.6587 35.4281 54.8286 35.306 54.9599C35.1838 55.0911 35.0196 55.1756 34.8418 55.1986C34.8591 55.2994 34.9011 55.3944 34.964 55.4751C35.027 55.5558 35.1089 55.6196 35.2025 55.6609C35.2981 55.7075 35.4052 55.7254 35.5107 55.7126C35.579 55.7198 35.648 55.7094 35.7111 55.6824C35.7743 55.6554 35.8295 55.6128 35.8715 55.5585C35.9231 55.5068 35.9739 55.456 36.0256 55.456C36.0772 55.456 36.1797 55.456 36.1797 55.7642C36.1797 55.8667 36.128 56.0725 36.0256 56.125C35.9769 56.1878 35.9147 56.2389 35.8436 56.2746C35.7726 56.3102 35.6944 56.3294 35.6149 56.3308C35.5424 56.3384 35.4695 56.3201 35.4091 56.2791V56.4332C35.2017 56.6915 35.2017 57.3054 34.481 57.3054" fill="#C9D3D6"/>
<path d="M40.9571 19.9432C35.4056 19.9432 32.0143 21.1253 32.0143 22.6122C32.0143 24.0991 35.6122 25.2812 40.9571 25.2812C46.3019 25.2812 49.8998 24.0991 49.8998 22.6122C49.8998 21.1253 46.456 19.9432 40.9571 19.9432ZM40.9571 24.1619C37.2549 24.1619 33.5528 23.5446 33.5528 22.6716C33.5528 21.7986 37.3049 21.1296 40.9571 21.1296C44.6592 21.1296 48.3613 21.7986 48.3613 22.6716C48.3071 23.4878 44.6575 24.1559 40.9571 24.1559V24.1619Z" fill="#C9D3D6"/>
<path d="M36.6918 5.29315C36.5054 5.28011 36.3301 5.20018 36.198 5.06808C36.0659 4.93598 35.9859 4.76061 35.9729 4.57425C35.9771 4.38489 36.0541 4.20445 36.1881 4.07052C36.322 3.93659 36.5024 3.85951 36.6918 3.85535C36.8782 3.86838 37.0535 3.94831 37.1856 4.08041C37.3177 4.21251 37.3977 4.38789 37.4107 4.57425C37.3977 4.76061 37.3177 4.93598 37.1856 5.06808C37.0535 5.20018 36.8782 5.28011 36.6918 5.29315" fill="#C9D3D6"/>
<path d="M34.4801 4.57427C34.2938 4.56124 34.1184 4.48131 33.9863 4.34921C33.8542 4.21711 33.7743 4.04174 33.7612 3.85537C33.7654 3.66602 33.8425 3.48558 33.9764 3.35165C34.1103 3.21772 34.2908 3.14064 34.4801 3.13647C34.6665 3.14951 34.8419 3.22944 34.974 3.36154C35.1061 3.49364 35.186 3.66901 35.199 3.85537C35.2016 3.95049 35.1848 4.04514 35.1496 4.13354C35.1144 4.22195 35.0616 4.30224 34.9943 4.36952C34.927 4.43681 34.8467 4.48967 34.7583 4.52487C34.6699 4.56007 34.5752 4.57688 34.4801 4.57427" fill="#C9D3D6"/>
<path d="M32.2709 4.31684C32.0814 4.31266 31.9008 4.23546 31.7669 4.10135C31.6329 3.96724 31.556 3.78658 31.552 3.59707C31.5562 3.40772 31.6332 3.22728 31.7672 3.09335C31.9011 2.95942 32.0815 2.88234 32.2709 2.87817C32.4574 2.89101 32.633 2.97085 32.7653 3.10297C32.8975 3.23509 32.9776 3.41058 32.9907 3.59707C32.9695 3.78044 32.887 3.95127 32.7565 4.08179C32.626 4.21231 32.4551 4.29484 32.2718 4.31597" fill="#C9D3D6"/>
<path d="M30.1124 4.72833C29.9234 4.7235 29.7435 4.64601 29.6101 4.51197C29.4767 4.37793 29.4 4.19764 29.3961 4.00857C29.4092 3.82221 29.4891 3.64683 29.6212 3.51474C29.7533 3.38264 29.9287 3.30271 30.115 3.28967C30.3014 3.30271 30.4768 3.38264 30.6089 3.51474C30.741 3.64683 30.8209 3.82221 30.8339 4.00857C30.8209 4.19493 30.741 4.37031 30.6089 4.50241C30.4768 4.63451 30.3014 4.71444 30.115 4.72747" fill="#C9D3D6"/>
<path d="M28.2089 5.91051C28.0228 5.8973 27.8478 5.81741 27.7159 5.68551C27.5839 5.5536 27.5041 5.37855 27.4908 5.19247C27.4908 5.0017 27.5666 4.81873 27.7015 4.68383C27.8364 4.54893 28.0194 4.47314 28.2102 4.47314C28.401 4.47314 28.5839 4.54893 28.7188 4.68383C28.8537 4.81873 28.9295 5.0017 28.9295 5.19247C28.9363 5.28862 28.9223 5.38511 28.8886 5.4754C28.8549 5.56569 28.8021 5.64769 28.734 5.71584C28.6658 5.784 28.5838 5.83673 28.4935 5.87046C28.4032 5.90419 28.3068 5.91815 28.2106 5.91137" fill="#C9D3D6"/>
<path d="M26.8235 7.55486C26.6813 7.55486 26.5423 7.5127 26.4241 7.43371C26.3059 7.35471 26.2137 7.24244 26.1593 7.11108C26.1049 6.97971 26.0907 6.83517 26.1184 6.69571C26.1462 6.55626 26.2146 6.42817 26.3152 6.32763C26.4157 6.22709 26.5438 6.15862 26.6833 6.13088C26.8227 6.10314 26.9673 6.11738 27.0986 6.17179C27.23 6.2262 27.3423 6.31834 27.4212 6.43657C27.5002 6.55479 27.5424 6.69378 27.5424 6.83597C27.549 6.93208 27.535 7.0285 27.5012 7.11873C27.4674 7.20895 27.4147 7.29089 27.3466 7.35901C27.2784 7.42714 27.1965 7.47987 27.1063 7.51365C27.016 7.54744 26.9196 7.56149 26.8235 7.55486" fill="#C9D3D6"/>
<path d="M26.1038 9.71417C25.9174 9.70113 25.7421 9.6212 25.61 9.4891C25.4779 9.35701 25.3979 9.18163 25.3849 8.99527C25.3891 8.80591 25.4661 8.62547 25.6001 8.49154C25.734 8.35761 25.9144 8.28054 26.1038 8.27637C26.2902 8.2894 26.4655 8.36933 26.5976 8.50143C26.7297 8.63353 26.8097 8.80891 26.8227 8.99527C26.8097 9.18163 26.7297 9.35701 26.5976 9.4891C26.4655 9.6212 26.2902 9.70113 26.1038 9.71417" fill="#C9D3D6"/>
<path d="M26.0522 11.9242C25.8658 11.9112 25.6904 11.8313 25.5583 11.6992C25.4262 11.5671 25.3463 11.3917 25.3333 11.2053C25.3463 11.019 25.4262 10.8436 25.5583 10.7115C25.6904 10.5794 25.8658 10.4995 26.0522 10.4865C26.2385 10.4995 26.4139 10.5794 26.546 10.7115C26.6781 10.8436 26.758 11.019 26.771 11.2053C26.758 11.3917 26.6781 11.5671 26.546 11.6992C26.4139 11.8313 26.2385 11.9112 26.0522 11.9242" fill="#C9D3D6"/>
<path d="M26.7194 14.0311C26.5772 14.0311 26.4382 13.9889 26.32 13.9099C26.2018 13.8309 26.1096 13.7186 26.0552 13.5873C26.0008 13.4559 25.9866 13.3114 26.0143 13.1719C26.042 13.0325 26.1105 12.9044 26.211 12.8038C26.3116 12.7033 26.4397 12.6348 26.5791 12.6071C26.7186 12.5793 26.8631 12.5936 26.9945 12.648C27.1259 12.7024 27.2381 12.7945 27.3171 12.9128C27.3961 13.031 27.4383 13.17 27.4383 13.3122C27.4451 13.4083 27.4311 13.5048 27.3974 13.5951C27.3636 13.6854 27.3109 13.7674 27.2428 13.8355C27.1746 13.9037 27.0926 13.9564 27.0023 13.9901C26.912 14.0239 26.8155 14.0378 26.7194 14.0311" fill="#C9D3D6"/>
<path d="M27.6966 16.0353C27.5058 16.0353 27.3229 15.9596 27.188 15.8247C27.0531 15.6898 26.9773 15.5068 26.9773 15.316C26.9773 15.1252 27.0531 14.9423 27.188 14.8074C27.3229 14.6725 27.5058 14.5967 27.6966 14.5967C27.883 14.6097 28.0584 14.6896 28.1905 14.8217C28.3226 14.9538 28.4025 15.1292 28.4155 15.3156C28.4114 15.5049 28.3343 15.6854 28.2004 15.8193C28.0664 15.9532 27.886 16.0303 27.6966 16.0345" fill="#C9D3D6"/>
<path d="M45.1714 5.29315C45.3622 5.29315 45.5452 5.21737 45.6801 5.08247C45.815 4.94757 45.8907 4.7646 45.8907 4.57382C45.8907 4.38304 45.815 4.20008 45.6801 4.06518C45.5452 3.93028 45.3622 3.85449 45.1714 3.85449C44.9851 3.86753 44.8097 3.94746 44.6776 4.07956C44.5455 4.21165 44.4656 4.38703 44.4525 4.57339C44.456 4.76295 44.5329 4.94376 44.667 5.07782C44.801 5.21189 44.9819 5.28876 45.1714 5.29229" fill="#C9D3D6"/>
<path d="M47.3299 4.57422C47.5192 4.57005 47.6997 4.49297 47.8336 4.35904C47.9675 4.22512 48.0446 4.04467 48.0488 3.85532C48.0488 3.66454 47.973 3.48157 47.8381 3.34667C47.7032 3.21177 47.5202 3.13599 47.3294 3.13599C47.1387 3.13599 46.9557 3.21177 46.8208 3.34667C46.6859 3.48157 46.6101 3.66454 46.6101 3.85532C46.6231 4.04168 46.7031 4.21706 46.8352 4.34915C46.9673 4.48125 47.1427 4.56118 47.329 4.57422" fill="#C9D3D6"/>
<path d="M49.6442 4.3169C49.8337 4.31272 50.0142 4.23552 50.1482 4.10141C50.2821 3.9673 50.3591 3.78664 50.3631 3.59714C50.3631 3.40636 50.2873 3.2234 50.1524 3.08849C50.0175 2.95359 49.8345 2.87781 49.6437 2.87781C49.453 2.87781 49.27 2.95359 49.1351 3.08849C49.0002 3.2234 48.9244 3.40636 48.9244 3.59714C48.9173 3.69335 48.9311 3.78996 48.9647 3.88039C48.9984 3.97081 49.0511 4.05293 49.1193 4.12115C49.1875 4.18937 49.2696 4.24209 49.3601 4.27572C49.4505 4.30935 49.5471 4.3231 49.6433 4.31604" fill="#C9D3D6"/>
<path d="M51.8008 4.72839C51.9872 4.71535 52.1625 4.63543 52.2946 4.50333C52.4267 4.37123 52.5067 4.19585 52.5197 4.00949C52.5197 3.81871 52.4439 3.63575 52.309 3.50085C52.1741 3.36595 51.9911 3.29016 51.8004 3.29016C51.6096 3.29016 51.4266 3.36595 51.2917 3.50085C51.1568 3.63575 51.081 3.81871 51.081 4.00949C51.0787 4.10454 51.0956 4.19908 51.1309 4.28737C51.1662 4.37566 51.2191 4.45586 51.2863 4.52309C51.3536 4.59032 51.4338 4.64319 51.522 4.67848C51.6103 4.71377 51.7049 4.73075 51.7999 4.72839" fill="#C9D3D6"/>
<path d="M53.6028 5.91046C53.7936 5.91046 53.9765 5.83468 54.1114 5.69978C54.2463 5.56487 54.3221 5.38191 54.3221 5.19113C54.3221 5.00035 54.2463 4.81739 54.1114 4.68249C53.9765 4.54759 53.7936 4.4718 53.6028 4.4718C53.4164 4.48484 53.2411 4.56477 53.109 4.69686C52.9769 4.82896 52.8969 5.00434 52.8839 5.1907C52.8879 5.38012 52.9649 5.56069 53.0988 5.69466C53.2328 5.82863 53.4134 5.90564 53.6028 5.9096" fill="#C9D3D6"/>
<path d="M54.9881 7.55486C55.1744 7.54183 55.3498 7.4619 55.4819 7.3298C55.614 7.1977 55.6939 7.02233 55.707 6.83597C55.7028 6.64661 55.6257 6.46617 55.4918 6.33224C55.3579 6.19831 55.1774 6.12123 54.9881 6.11707C54.8017 6.1301 54.6263 6.21003 54.4942 6.34213C54.3621 6.47423 54.2822 6.6496 54.2692 6.83597C54.2723 7.02566 54.349 7.20672 54.4832 7.34087C54.6173 7.47502 54.7984 7.55176 54.9881 7.55486Z" fill="#C9D3D6"/>
<path d="M55.8103 9.71417C55.9973 9.70171 56.1734 9.62193 56.3061 9.48959C56.4387 9.35726 56.5189 9.18134 56.5318 8.99441C56.5277 8.80506 56.4506 8.62461 56.3166 8.49069C56.1827 8.35676 56.0023 8.27968 55.8129 8.27551C55.6265 8.28855 55.4512 8.36848 55.3191 8.50058C55.187 8.63268 55.107 8.80805 55.094 8.99441C55.0874 9.09053 55.1014 9.18695 55.1352 9.27717C55.169 9.3674 55.2217 9.44934 55.2899 9.51746C55.358 9.58559 55.4399 9.63832 55.5301 9.6721C55.6204 9.70589 55.7168 9.71994 55.8129 9.71331" fill="#C9D3D6"/>
<path d="M55.8095 11.9243C55.9988 11.9201 56.1793 11.8431 56.3132 11.7091C56.4471 11.5752 56.5242 11.3948 56.5284 11.2054C56.5284 11.0146 56.4526 10.8317 56.3177 10.6968C56.1828 10.5619 55.9998 10.4861 55.8091 10.4861C55.6183 10.4861 55.4353 10.5619 55.3004 10.6968C55.1655 10.8317 55.0897 11.0146 55.0897 11.2054C55.1028 11.3918 55.1827 11.5672 55.3148 11.6993C55.4469 11.8314 55.6223 11.9113 55.8086 11.9243" fill="#C9D3D6"/>
<path d="M55.0906 14.0311C55.277 14.018 55.4523 13.9381 55.5844 13.806C55.7165 13.6739 55.7965 13.4985 55.8095 13.3122C55.8053 13.1228 55.7283 12.9424 55.5943 12.8084C55.4604 12.6745 55.28 12.5974 55.0906 12.5933C54.9042 12.6063 54.7289 12.6862 54.5968 12.8183C54.4647 12.9504 54.3847 13.1258 54.3717 13.3122C54.3847 13.4985 54.4647 13.6739 54.5968 13.806C54.7289 13.9381 54.9042 14.018 55.0906 14.0311" fill="#C9D3D6"/>
<path d="M54.1659 16.0354C54.3523 16.0224 54.5277 15.9424 54.6598 15.8103C54.7918 15.6782 54.8718 15.5029 54.8848 15.3165C54.8848 15.222 54.8662 15.1285 54.8301 15.0412C54.7939 14.954 54.7409 14.8747 54.6741 14.8079C54.6073 14.7411 54.528 14.6881 54.4408 14.6519C54.3535 14.6158 54.2599 14.5972 54.1655 14.5972C54.071 14.5972 53.9775 14.6158 53.8902 14.6519C53.8029 14.6881 53.7236 14.7411 53.6568 14.8079C53.5901 14.8747 53.5371 14.954 53.5009 15.0412C53.4648 15.1285 53.4462 15.222 53.4462 15.3165C53.4437 15.4116 53.4606 15.5062 53.4958 15.5945C53.5311 15.6829 53.5839 15.7631 53.6512 15.8304C53.7184 15.8976 53.7987 15.9505 53.887 15.9857C53.9754 16.021 54.07 16.0379 54.1651 16.0354" fill="#C9D3D6"/>
<path d="M40.957 15.4697L42.1908 17.3707L40.957 19.0677L39.6716 17.3707L40.957 15.4697Z" fill="#C9D3D6"/>
<path d="M35.9213 15.9845L37.5657 17.5773L36.5885 19.5816L34.9957 18.0921L35.9213 15.9845Z" fill="#C9D3D6"/>
<path d="M30.3699 17.5256L32.4258 18.7594L32.0152 21.2777L30.3699 17.5256Z" fill="#C9D3D6"/>
<path d="M45.8921 15.9845L44.2976 17.5773L45.2231 19.5816L46.8676 18.0921L45.8921 15.9845Z" fill="#C9D3D6"/>
<path d="M51.4935 17.5256L49.4375 18.7594L49.8482 21.2777L51.4935 17.5256Z" fill="#C9D3D6"/>
<path d="M52.5205 6.27036C50.8236 4.88249 48.4603 4.8317 45.6329 6.11625C44.759 6.47699 43.886 6.83515 43.0629 7.14423C43.1219 6.96132 43.1563 6.77141 43.1654 6.57944C43.1726 6.11429 43.0251 5.65991 42.746 5.28775C42.4669 4.91558 42.072 4.64673 41.6234 4.52347V3.18554C41.9737 3.12164 42.3352 3.17585 42.6514 3.33966C43.1137 3.7004 43.168 3.95696 43.168 4.00862V4.11107H43.5218V0.976326H43.1111V1.07878C43.0739 1.21908 43.0091 1.35054 42.9204 1.46542C42.8317 1.5803 42.7209 1.67629 42.5946 1.74774C42.2722 1.88919 41.918 1.94238 41.5683 1.90186C41.5306 1.55165 41.5836 1.19762 41.7224 0.873872C42.0831 0.411538 42.3397 0.357298 42.3914 0.357298H42.4938V0H39.4667V0.360741H39.5692C39.7095 0.397926 39.8409 0.462779 39.9558 0.55149C40.0707 0.640201 40.1667 0.75098 40.2381 0.877316C40.3796 1.20028 40.4328 1.55504 40.3922 1.9053C40.0251 1.94372 39.6543 1.89078 39.3126 1.75119C38.8503 1.39045 38.8503 1.13388 38.8503 1.08222V0.978909H38.4895V4.05942H38.8503V3.96041C38.8874 3.82011 38.9523 3.68865 39.041 3.57377C39.1297 3.45889 39.2405 3.3629 39.3668 3.29144C39.6898 3.14993 40.0445 3.09675 40.3948 3.13733V4.47009C39.9495 4.59953 39.5582 4.86988 39.2795 5.24057C39.0009 5.61127 38.85 6.06232 38.8494 6.52606C38.8543 6.71848 38.8888 6.90898 38.9518 7.09085C38.0749 6.80135 37.2166 6.45804 36.3819 6.06287C33.5037 4.72666 31.1395 4.82911 29.4942 6.21698C28.5971 7.00632 27.9926 8.07523 27.7784 9.25079C27.5642 10.4263 27.7528 11.6398 28.3138 12.6948C29.0492 14.0158 29.6846 15.39 30.2148 16.8059V16.8576C30.4334 16.7753 30.6568 16.7066 30.8838 16.6518C31.5744 16.5164 32.2897 16.588 32.9398 16.8576C33.3341 17.0495 33.7121 17.2733 34.0702 17.5265C34.0702 17.5265 33.9678 15.3672 35.663 15.0082C37.514 14.5975 38.5902 16.6526 38.5902 16.6526C38.71 16.1564 38.9192 15.6861 39.2075 15.2648C39.4033 14.9502 39.6759 14.6906 39.9998 14.5107C40.3237 14.3307 40.6881 14.2362 41.0586 14.2362C41.4291 14.2362 41.7935 14.3307 42.1174 14.5107C42.4413 14.6906 42.714 14.9502 42.9097 15.2648C43.1981 15.6861 43.4072 16.1564 43.527 16.6526C43.5786 16.601 44.6066 14.5967 46.4542 15.0082C48.1512 15.369 48.047 17.5265 48.047 17.5265C48.375 17.2298 48.7595 17.0023 49.1774 16.8576C49.8338 16.6137 50.5418 16.5428 51.2334 16.6518C51.4627 16.698 51.6868 16.767 51.9024 16.8576V16.8059C52.4013 15.3771 53.0379 14.0003 53.8034 12.6948C54.3316 11.6332 54.4923 10.4262 54.2601 9.26332C54.0279 8.10048 53.416 7.0477 52.5205 6.27036ZM39.6208 12.6948V13.4137C39.1067 13.7021 38.6389 14.066 38.2329 14.4934C37.827 14.1692 37.3508 13.9446 36.8426 13.8374C36.3343 13.7302 35.8079 13.7435 35.3057 13.8761C34.8303 14.0035 34.3895 14.236 34.0158 14.5563C33.6421 14.8767 33.345 15.2768 33.1464 15.7271C32.3752 15.4385 31.5395 15.3673 30.7306 15.5214C30.6528 15.2218 30.5497 14.9295 30.4223 14.6475C30.1109 13.7717 29.715 12.9283 29.2402 12.1292C28.814 11.3151 28.6733 10.3816 28.8407 9.47809C29.008 8.57458 29.4737 7.75337 30.1632 7.14595C31.8076 5.75809 34.1236 6.42705 35.8162 7.14595C37.0436 7.74275 38.3379 8.19075 39.6716 8.48044L39.6208 12.6991V12.6948ZM40.957 12.5407C40.8741 12.5438 40.7913 12.5302 40.7138 12.5005C40.6363 12.4709 40.5655 12.426 40.5057 12.3684C40.4459 12.3108 40.3984 12.2418 40.3659 12.1654C40.3334 12.089 40.3167 12.0068 40.3167 11.9238C40.3167 11.8408 40.3334 11.7587 40.3659 11.6823C40.3984 11.6059 40.4459 11.5369 40.5057 11.4793C40.5655 11.4217 40.6363 11.3767 40.7138 11.3471C40.7913 11.3175 40.8741 11.3039 40.957 11.307C41.1201 11.309 41.276 11.3747 41.3913 11.49C41.5066 11.6053 41.5723 11.7612 41.5743 11.9243C41.5218 12.1808 41.2136 12.5407 40.957 12.5407V12.5407ZM40.957 10.4847C40.8741 10.4878 40.7913 10.4742 40.7138 10.4446C40.6363 10.415 40.5655 10.37 40.5057 10.3124C40.4459 10.2549 40.3984 10.1858 40.3659 10.1094C40.3334 10.033 40.3167 9.95088 40.3167 9.86787C40.3167 9.78486 40.3334 9.70271 40.3659 9.62632C40.3984 9.54994 40.4459 9.48088 40.5057 9.42329C40.5655 9.36571 40.6363 9.32077 40.7138 9.29116C40.7913 9.26156 40.8741 9.24789 40.957 9.25099C41.1201 9.253 41.276 9.31869 41.3913 9.43402C41.5066 9.54936 41.5723 9.70521 41.5743 9.8683C41.5467 10.0219 41.4728 10.1634 41.3624 10.2737C41.2521 10.3841 41.1106 10.458 40.957 10.4856V10.4847ZM40.957 8.42792C40.8349 8.42792 40.7156 8.39171 40.6141 8.32388C40.5125 8.25605 40.4334 8.15964 40.3867 8.04684C40.34 7.93405 40.3278 7.80993 40.3516 7.69018C40.3754 7.57043 40.4342 7.46044 40.5205 7.37411C40.6068 7.28778 40.7168 7.22899 40.8366 7.20517C40.9563 7.18135 41.0805 7.19357 41.1932 7.24029C41.306 7.28702 41.4025 7.36614 41.4703 7.46765C41.5381 7.56917 41.5743 7.68852 41.5743 7.81061C41.5723 7.97371 41.5066 8.12956 41.3913 8.24489C41.276 8.36023 41.1201 8.42591 40.957 8.42792V8.42792ZM52.6239 12.13C52.1482 12.9285 51.7525 13.7721 51.4426 14.6483C51.391 14.8025 51.2369 15.1649 51.1344 15.5222C50.3257 15.3645 49.489 15.4358 48.7186 15.728C48.5358 15.2674 48.2437 14.8582 47.8676 14.5357C47.4914 14.2132 47.0424 13.9871 46.5593 13.8769C46.057 13.7442 45.5307 13.731 45.0224 13.8382C44.5141 13.9454 44.0379 14.17 43.632 14.4942C43.33 13.9862 42.8559 13.6032 42.2958 13.4146V8.48044C43.5906 8.17366 44.8479 7.72617 46.0453 7.14595C47.7405 6.42447 50.0539 5.7555 51.7009 7.14595C52.3903 7.7536 52.856 8.57496 53.0233 9.47857C53.1906 10.3822 53.05 11.3158 52.6239 12.13V12.13Z" fill="#C9D3D6"/>
</g>
<defs>
<clipPath id="clip0_1_306">
<rect width="81.5455" height="104" fill="white"/>
</clipPath>
</defs>
</svg>
