<svg width="81" height="100" viewBox="0 0 81 100" fill="none" xmlns="http://www.w3.org/2000/svg">
<g clip-path="url(#clip0_1_359)">
<path d="M15.5328 0C18.2267 0.664962 20.9036 1.34697 23.5976 1.97783C24.6547 2.23359 25.6436 2.11424 26.5473 1.34697C27.0758 0.903666 27.7749 0.647911 28.4228 0.392157C29.2242 0.0852515 30.0596 0.375107 30.52 1.22762C30.9974 2.11424 31.3895 3.06905 31.6453 4.04092C32.7536 8.13299 33.7936 12.2592 34.8678 16.3512C35.3452 18.1756 35.8397 20 36.4876 21.8414C36.7604 20.8696 37.0502 19.9147 37.323 18.9429C38.6189 14.3052 39.9147 9.68457 41.1935 5.04689C41.3469 4.50128 41.3299 3.92157 41.4492 3.37596C42.0289 0.835465 43.8704 -0.341006 46.479 0.289855C47.6555 0.57971 48.832 0.988917 49.8891 1.53453C52.0545 2.6428 54.1687 2.8474 56.4194 1.85848C57.3401 1.44928 58.3461 1.17647 59.352 1.05712C60.6819 0.886615 61.2617 1.56863 60.9889 2.89855C60.8524 3.52941 60.6308 4.14322 60.375 4.73998C58.9087 8.26939 57.3742 11.7477 55.942 15.2941C53.4697 21.4493 51.0656 27.6215 48.6444 33.7766C48.5251 34.0665 48.4228 34.3393 48.3034 34.6803C49.3776 35.1066 50.4177 35.4646 51.4066 35.925C59.4032 39.659 64.433 45.8312 66.0187 54.5268C68.2693 66.8031 61.6027 78.4484 49.9744 82.9156C39.8124 86.8201 27.7578 83.4101 21.1253 74.8167C18.1244 70.9292 16.3 66.5814 15.8397 61.688C15.0554 53.1458 17.8857 45.9847 24.1432 40.1876C24.757 39.6078 24.8593 39.1986 24.5865 38.3973C20.5626 27.0418 16.5558 15.6863 12.549 4.31373C12.3785 3.81927 12.2591 3.27366 12.208 2.7451C12.0545 1.24467 12.566 0.613811 14.3392 0C14.7485 0 15.1406 0 15.5328 0ZM30.2983 54.5098C30.179 54.6462 30.1278 54.6803 30.1108 54.7315C30.0767 54.8338 30.0426 54.9531 30.0426 55.0554C29.6675 59.8977 29.838 64.6888 31.1849 69.3777C32.0715 72.4467 33.2821 75.3623 35.4816 77.7664C36.7263 79.1304 38.1926 80.1534 40.1022 80.3922C42.6257 80.6991 44.5524 79.5737 46.1892 77.8176C48.9684 74.8338 50.2642 71.1338 51.1167 67.2464C51.9863 63.3589 52.1909 59.4032 51.8158 55.4305C51.4236 51.185 50.4859 47.11 48.4057 43.3589C47.809 42.2677 47.0076 41.2958 46.1721 40.0682C42.4381 49.5141 38.8235 58.6871 35.0895 68.0818C33.4356 63.4101 31.884 58.994 30.2983 54.5098Z" fill="black"/>
<path d="M1.17645 67.1441C0.903642 65.6266 0.630837 64.1262 0.358032 62.6087C0.426233 62.5916 0.494435 62.5746 0.545585 62.5575C0.613787 62.6939 0.699038 62.8133 0.733139 62.9497C0.937742 63.6488 1.3981 63.8875 2.08011 63.7681C4.19435 63.393 6.32564 63.0179 8.43987 62.6428C8.62743 62.6087 8.83203 62.5575 9.01958 62.5234C10.6394 62.2677 10.6394 62.2677 11.0486 60.6309C11.2191 61.5345 11.4919 62.4382 11.5601 63.3589C11.7306 65.3197 12.1057 67.1952 13.2481 68.8662C13.1799 68.9003 13.1287 68.9344 13.0605 68.9685C12.9923 68.9173 12.8729 68.8832 12.8559 68.815C12.4978 67.9966 11.9522 68.0989 11.3384 68.7809C10.0938 70.179 8.86613 71.5942 7.63851 72.9923C7.2975 73.3845 6.9565 73.7937 6.47909 74.3563C8.21822 74.2199 9.73569 74.1176 11.2361 73.9983C11.9352 73.9471 12.6513 73.896 13.3504 73.8107C14.595 73.6743 14.7485 73.4697 14.7144 72.208C15.1577 73.1628 15.618 74.1006 16.0614 75.0554C16.0273 75.1236 15.9761 75.1748 15.942 75.243C15.2429 74.3393 14.3052 74.4928 13.3845 74.5439C10.3325 74.7485 7.28045 74.9531 4.22845 75.1407C4.1091 75.1407 3.97269 75.1066 3.64874 75.0554C4.58651 73.9983 5.40492 73.0605 6.24038 72.1057C7.75786 70.3836 9.30944 68.6786 10.7417 66.8883C11.1679 66.3598 11.4066 65.5754 11.4578 64.8764C11.5089 64.2796 11.0315 63.8363 10.3154 63.9557C9.17303 64.1432 8.03067 64.3308 6.8883 64.5354C5.66067 64.74 4.43305 64.9616 3.20543 65.1833C1.6027 65.5072 1.5686 65.5584 1.17645 67.1441Z" fill="black"/>
<path d="M68.7979 79.7783C69.838 80.4092 70.5882 80.8866 71.3384 81.3128C72.208 81.8073 73.1117 82.5575 73.896 80.8525C73.9471 80.9889 73.9983 81.1423 74.0494 81.2787C73.3163 82.5234 72.5661 83.7681 71.8329 85.0298C71.7135 84.9445 71.6283 84.9104 71.6283 84.8934C71.9182 83.5805 71.9182 83.5464 70.7246 82.8303C68.832 81.705 66.9224 80.5797 65.0128 79.4543C63.717 78.6871 63.717 78.6871 62.5916 79.5396C62.5746 79.4885 62.5234 79.4203 62.5234 79.3861C63.6317 77.6129 64.6547 75.7885 65.8994 74.1176C66.7349 72.9923 67.9795 72.907 69.1049 73.5038C70.1961 74.1006 70.6735 75.0554 70.4518 76.2659C70.3836 76.624 70.2984 76.9821 70.162 77.5277C72.4808 76.9991 74.8338 77.2208 76.8968 76.1636C76.624 77.5618 75.8227 78.3631 74.4416 78.5507C72.9241 78.7553 71.4066 78.9428 69.8892 79.1815C69.5823 79.2497 69.2924 79.5055 68.7979 79.7783ZM68.491 79.6078C68.7809 78.9428 69.0537 78.4484 69.2242 77.9198C69.48 77.0673 69.5823 76.1807 68.8321 75.4816C68.2012 74.9019 67.468 74.5268 66.5985 74.8337C65.5925 75.1918 65.081 76.0613 64.7059 76.9821C64.6547 77.1014 64.8252 77.4254 64.9787 77.5106C66.104 78.2097 67.2464 78.8746 68.491 79.6078Z" fill="black"/>
<path d="M7.33168 39.4714C10.1279 39.5567 12.3615 41.04 13.0776 43.4271C13.6573 45.3708 13.197 47.1611 11.833 48.6274C10.503 50.0426 8.78096 50.503 6.87132 50.1108C5.3368 49.8039 3.95572 49.2071 2.98386 47.8943C1.63688 46.0699 1.55163 44.0921 2.5917 42.1313C3.56357 40.2728 5.21745 39.4203 7.33168 39.4714ZM9.51412 48.5763C10.7588 48.6104 12.0035 47.792 12.4979 46.2574C12.9242 44.9105 12.3274 43.3418 10.8099 42.5405C9.54822 41.8926 8.1501 41.4663 6.76902 41.1082C5.13219 40.699 3.35896 41.6368 2.81335 43.0179C2.19954 44.5524 2.81335 46.2233 4.38198 47.1782C5.76306 48.0307 7.29758 48.5422 9.51412 48.5763Z" fill="black"/>
<path d="M70.162 62.6769C70.9292 62.9156 71.6453 63.1543 72.4297 63.393C72.2591 63.5805 72.225 63.6658 72.1909 63.6658C70.6223 63.4441 70.1449 64.5183 69.7869 65.7289C69.6334 66.2404 69.497 66.769 69.2753 67.2634C68.9684 67.9284 69.173 68.2523 69.821 68.4569C70.8781 68.7809 71.9011 69.139 73.0435 69.497C73.3845 68.4228 73.7425 67.4169 73.9812 66.3768C74.0494 66.0869 73.7425 65.6777 73.5379 65.3708C73.4015 65.1662 73.1287 65.0298 72.9241 64.8593C72.9582 64.7741 73.0094 64.6888 73.0435 64.6036C74.2029 64.9957 75.3794 65.3879 76.5388 65.78C74.7144 65.8994 74.3734 67.2123 74.0324 68.5251C73.9301 68.9003 73.7937 69.2583 73.6573 69.7016C74.9872 70.1449 76.2148 70.6053 77.4936 70.9804C77.7323 71.0486 78.2268 70.7928 78.3291 70.5712C78.6871 69.7357 78.9429 68.8662 79.1816 67.9966C79.4544 66.9736 79.1986 66.0358 78.4655 65.2515C78.312 65.098 78.2097 64.8764 78.0904 64.7059C78.1586 64.6377 78.2097 64.5865 78.2779 64.5183C79.0281 65.0128 79.7954 65.5243 80.5797 66.0358C79.659 68.798 78.7383 71.526 77.8346 74.2541C77.7152 74.2029 77.63 74.1859 77.63 74.1518C77.6129 72.7877 77.6129 72.7877 76.2148 72.3103C74.1347 71.6113 72.0375 70.8951 69.9574 70.179C68.5422 69.7016 68.5422 69.7016 67.468 70.7587C68.3546 68.0989 69.2412 65.439 70.162 62.6769Z" fill="black"/>
<path d="M63.6147 81.5005C63.5124 81.5005 63.376 81.5175 63.3078 81.4664C62.3189 80.6479 61.4834 81.023 60.6821 81.7562C60.1194 82.2677 59.5397 82.7792 58.96 83.2737C58.6019 83.5806 58.4996 83.8705 58.8577 84.2626C59.659 85.1322 60.4433 86.0188 61.2788 86.9566C62.012 86.2916 62.694 85.6607 63.376 85.0299C63.9046 84.5525 64.058 84.0239 63.6829 83.376C63.5977 83.2225 63.5636 83.0179 63.5124 82.8474C63.5806 82.7963 63.6488 82.7451 63.717 82.694C64.5354 83.6147 65.3538 84.5184 66.2234 85.5073C66.0017 85.5584 65.8994 85.6266 65.8653 85.5925C64.8594 84.74 64.058 85.2174 63.2737 85.9676C62.7963 86.445 62.2848 86.8884 61.688 87.434C62.6428 88.4911 63.5465 89.5312 64.5013 90.5201C64.6377 90.6565 65.1322 90.6394 65.3027 90.503C66.1723 89.7358 67.093 88.9855 67.7579 88.0648C68.116 87.5533 68.0137 86.6838 68.0819 85.9676C68.0989 85.746 67.9966 85.5073 67.9455 85.2856C68.0648 85.2345 68.1671 85.2004 68.2865 85.1492C68.6786 85.9676 69.0708 86.7861 69.4289 87.6215C69.463 87.6897 69.2925 87.8602 69.1902 87.9455C67.2123 89.7187 65.2174 91.509 63.2396 93.2822C63.1714 93.3504 63.0691 93.3675 62.8474 93.4698C62.9327 93.2481 62.9327 93.1288 63.0009 93.0606C63.6318 92.4297 63.4272 91.85 62.9156 91.2703C61.4493 89.6505 60 88.0307 58.5508 86.3939C58.4826 86.3086 58.3973 86.2234 58.3121 86.1381C57.2208 84.9105 57.2208 84.9105 55.7545 85.3027C57.8517 83.4101 59.9489 81.5346 62.1143 79.5908C62.6769 80.2046 63.1885 80.7502 63.717 81.3129C63.7 81.3982 63.6488 81.4493 63.6147 81.5005Z" fill="black"/>
<path d="M42.7281 88.5592C43.6317 90.3495 44.5525 92.1227 45.4561 93.913C46.104 95.1747 46.7008 96.4535 47.3999 97.6811C47.7238 98.2438 48.2353 98.7212 48.7127 99.3009C47.5533 99.3861 46.2575 99.4714 44.8082 99.5737C45.2515 99.1645 45.7289 98.9428 45.7971 98.6359C45.8824 98.2779 45.6266 97.8346 45.4561 97.4424C44.8082 95.9079 44.6718 95.8397 43.0009 96.0784C42.694 96.1295 42.3871 96.1466 42.0802 96.1807C41.5346 96.2489 40.682 96.1295 40.5115 96.4023C40.0853 97.1014 39.8977 97.988 39.8125 98.8064C39.7954 99.0792 40.4092 99.4032 40.8184 99.7953C39.8466 99.8636 38.8406 99.9318 37.8517 100C39.3692 98.7382 39.4544 96.8798 40.0682 95.2941C40.8525 93.2992 41.5005 91.2531 42.2166 89.2242C42.3018 89.0025 42.4041 88.7809 42.4894 88.5592C42.5576 88.5592 42.6428 88.5592 42.7281 88.5592ZM42.3018 90.8439C41.7221 92.549 41.2276 94.0153 40.682 95.601C42.012 95.4987 43.1543 95.4134 44.4331 95.3111C43.717 93.8107 43.0691 92.4467 42.3018 90.8439Z" fill="black"/>
<path d="M23.5124 82.2166C22.8474 84.1262 22.2848 85.7801 21.7221 87.4339C21.2106 88.9003 20.665 90.3495 20.2046 91.8329C19.9489 92.6172 19.5056 93.4015 20.1705 94.2541C20.1023 94.2882 20.0341 94.3223 19.9659 94.3564C18.9941 93.4698 18.0222 92.5831 16.9992 91.6795C17.1526 91.5942 17.2208 91.5431 17.2549 91.5601C18.2779 92.0375 18.3973 92.0034 18.8406 90.9463C19.5738 89.1731 19.5738 89.1731 18.1586 87.8773C17.9369 87.6727 17.6982 87.451 17.4766 87.2293C16.3683 86.1893 16.3683 86.1893 14.9702 86.9054C13.6573 87.5874 13.6573 87.5874 14.0154 88.9344C13.2822 88.2524 12.532 87.5703 11.7988 86.9054C13.5039 87.2805 14.6974 86.1552 16.0273 85.6096C18.2438 84.6718 20.3922 83.5976 22.5746 82.5746C22.7792 82.4553 23.0009 82.3871 23.5124 82.2166ZM21.347 84.0409C21.2788 83.9898 21.2276 83.9386 21.1594 83.8875C19.7954 84.5354 18.4314 85.1833 16.948 85.8824C17.9028 86.7519 18.7724 87.5533 19.7272 88.4399C20.3069 86.8713 20.8355 85.4561 21.347 84.0409Z" fill="black"/>
<path d="M33.4185 96.573C34.578 94.4417 35.7544 92.3274 36.8798 90.1791C37.3401 89.3095 36.5899 89.0879 35.959 88.8321C35.9931 88.7639 36.0272 88.7128 36.0613 88.6446C37.0844 88.798 38.1074 88.9515 39.1133 89.0879C37.7834 89.6164 37.4083 90.8781 36.7945 91.9182C35.4475 94.1859 34.1688 96.4877 32.8559 98.7724C32.7536 98.96 32.6001 99.1305 32.3614 99.4885C32.0375 98.3291 31.7817 97.3232 31.5089 96.3342C30.8439 93.9131 30.196 91.492 29.4799 89.0708C29.3094 88.5252 28.8661 88.0819 28.5081 87.5022C29.7527 87.6898 31.0997 87.8773 32.4467 88.0649C32.4467 88.1331 32.4467 88.2013 32.4637 88.2695C32.3785 88.2865 32.3103 88.3206 32.225 88.3377C32.1057 88.3377 31.9522 88.2695 31.9011 88.3377C31.6624 88.5593 31.2361 88.8833 31.2873 89.0708C31.9011 91.5772 32.5831 94.0666 33.231 96.5559C33.2821 96.5729 33.3503 96.573 33.4185 96.573Z" fill="black"/>
<path d="M59.4203 92.566C59.5226 93.3674 59.659 94.1688 59.7272 94.9701C59.7443 95.1577 59.5397 95.4475 59.3691 95.5328C56.8969 96.5558 54.4075 97.5618 51.9182 98.5678C51.867 98.5848 51.7647 98.5337 51.4578 98.4655C53.1628 97.7834 52.4808 96.7604 52.0716 95.7715C51.2873 93.8619 50.52 91.9522 49.7357 90.0426C49.1731 88.6615 49.156 88.6615 47.6897 88.491C49.0537 87.9283 50.4177 87.3827 51.8159 86.8201C51.85 86.9735 51.867 87.0588 51.85 87.0758C50.7076 87.9113 50.6905 87.9965 51.2191 89.2924C52.1057 91.4578 52.9753 93.6402 53.8448 95.8056C54.2541 96.8286 54.3734 96.8798 55.4135 96.4876C55.8909 96.3001 56.3512 96.0784 56.8116 95.8909C58.0904 95.3452 59.0281 94.5268 59.0281 92.9923C59.0281 92.8559 59.1475 92.7024 59.2157 92.566C59.2839 92.549 59.3521 92.566 59.4203 92.566Z" fill="black"/>
<path d="M0.494459 50.9803C1.02302 52.3614 1.02302 52.3785 2.62575 52.4637C4.80818 52.566 6.99062 52.6342 9.15601 52.7365C10.5371 52.7877 10.6053 52.7536 11.0997 51.3555C11.0997 52.9752 11.0997 54.4586 11.0997 55.942C11.0315 55.942 10.9633 55.9591 10.8781 55.9591C10.844 55.8226 10.7758 55.6692 10.7587 55.5328C10.6905 54.8167 10.3154 54.4757 9.59932 54.4416C6.90537 54.3393 4.22847 54.2029 1.53453 54.1347C1.29582 54.1347 0.852515 54.5268 0.852515 54.7485C0.818414 55.9761 0.784314 57.2378 0.971867 58.4484C1.04007 58.9429 1.65388 59.3521 2.06309 59.7783C2.26769 59.9829 2.54049 60.1193 2.7792 60.2728C2.7451 60.358 2.69395 60.4603 2.65985 60.5456C1.80733 60.2728 0.937766 60.017 0.102302 59.7272C0.0511509 59.676 0 59.4544 0 59.335C0.119352 56.5899 0.255754 53.8448 0.392157 51.1167C0.409207 51.0826 0.426257 51.0656 0.494459 50.9803Z" fill="black"/>
<path d="M19.0793 78.7041C18.9088 78.5677 18.7383 78.4484 18.5849 78.312C18.1586 77.9368 17.7153 77.9027 17.272 78.2438C15.1237 79.8976 12.9583 81.5515 10.8099 83.2224C10.3155 83.5976 10.1961 84.075 10.5712 84.6376C10.6735 84.7911 10.7076 84.9786 10.6053 85.2685C9.66758 84.0579 8.71276 82.8303 7.60449 81.4151C7.9455 81.5345 8.0819 81.5345 8.16715 81.6027C9.08787 82.3529 9.22427 82.3529 10.1109 81.6709C11.9353 80.2727 13.7426 78.8576 15.5499 77.4594C16.8117 76.4705 16.8117 76.4705 16.3854 74.9189C17.3232 76.1295 18.2609 77.3571 19.2157 78.5677C19.1816 78.6018 19.1305 78.653 19.0793 78.7041Z" fill="black"/>
</g>
<defs>
<clipPath id="clip0_1_359">
<rect width="80.5797" height="100" fill="white"/>
</clipPath>
</defs>
</svg>
