<svg width="24" height="23" viewBox="0 0 24 23" fill="none" xmlns="http://www.w3.org/2000/svg">
<path d="M16.8 16.224C15.738 16.9901 14.4428 17.3634 13.136 17.28H10.096V22.4H7.056V8H13.328C14.5761 7.93383 15.8054 8.3265 16.784 9.104C17.2406 9.54613 17.5937 10.0839 17.8177 10.6787C18.0418 11.2735 18.1314 11.9105 18.08 12.544C18.1623 13.2144 18.0897 13.8948 17.8678 14.5328C17.6459 15.1708 17.2806 15.7494 16.8 16.224ZM14.4 11.04C13.9376 10.701 13.3726 10.5315 12.8 10.56H10.096V14.8H12.8C13.378 14.8306 13.9472 14.6485 14.4 14.288C14.6025 14.0764 14.7583 13.8246 14.8576 13.549C14.9568 13.2735 14.9971 12.9801 14.976 12.688C15.0132 12.3875 14.9806 12.0825 14.8807 11.7966C14.7808 11.5108 14.6163 11.2519 14.4 11.04ZM23.056 6.736C23.1436 6.54484 23.1525 6.32686 23.0806 6.12923C23.0087 5.93161 22.862 5.77022 22.672 5.68L12 0.719999L1.264 5.68C1.1684 5.72412 1.08242 5.78665 1.01098 5.864C0.939544 5.94135 0.88404 6.03201 0.847639 6.13081C0.811238 6.22961 0.794655 6.33462 0.798835 6.43983C0.803015 6.54504 0.827876 6.6484 0.872001 6.744C0.916125 6.8396 0.978647 6.92558 1.056 6.99702C1.13335 7.06846 1.22401 7.12396 1.32281 7.16036C1.42162 7.19676 1.52662 7.21335 1.63183 7.20917C1.73704 7.20499 1.8404 7.18012 1.936 7.136L12 2.48L22.064 7.12C22.2552 7.20763 22.4731 7.21647 22.6708 7.1446C22.8684 7.07274 23.0298 6.92595 23.12 6.736H23.056Z" fill="#102A66"/>
</svg>
