<svg xmlns="http://www.w3.org/2000/svg" viewBox="0 0 37.21 43.32"><defs><style>.cls-1{fill:#c9d3d6;}.cls-2{isolation:isolate;}.cls-3{fill:#fff;}</style></defs><g id="Laag_2" data-name="Laag 2"><g id="Laag_1-2" data-name="Laag 1"><path class="cls-1" d="M37.21.32V24.64A18.61,18.61,0,1,1,0,24.64V.31L6.12,2.86l3-2.58,5.12,2.81L18.55,0l4.2,3L27.36.38l3.53,2.55Z"/><g class="cls-2"><g class="cls-2"><path class="cls-3" d="M13.53,26.27a2.57,2.57,0,0,1,.27-1.16,3.35,3.35,0,0,1,.77-1,9.62,9.62,0,0,1,.94-.79c.28-.21.65-.46,1.1-.75A10.16,10.16,0,0,0,18.68,21a2.44,2.44,0,0,0,.58-1.7,2,2,0,0,0-.47-1.41,1.69,1.69,0,0,0-1.3-.5,1.85,1.85,0,0,0-1.76.88,1.31,1.31,0,0,1,1,1.33,1.35,1.35,0,0,1-.4,1,1.43,1.43,0,0,1-1.08.41,1.46,1.46,0,0,1-1.12-.49,1.76,1.76,0,0,1-.44-1.22A2.79,2.79,0,0,1,14.89,17a4.93,4.93,0,0,1,3.11-1,4.88,4.88,0,0,1,3.21,1,2.93,2.93,0,0,1,1.16,2.4,2.83,2.83,0,0,1-.29,1.33,2.9,2.9,0,0,1-.88,1,7.69,7.69,0,0,1-1.13.71c-.36.18-.84.39-1.42.63-.8.32-1.36.56-1.69.72a5.35,5.35,0,0,0-1.05.67,2.41,2.41,0,0,0-.77,1l.07.08a3.39,3.39,0,0,1,2.1-.69,5.38,5.38,0,0,1,1.68.33,4.89,4.89,0,0,0,1.35.34.87.87,0,0,0,.75-.35,3.83,3.83,0,0,0,.47-1.31l1.06.09a6.52,6.52,0,0,1-.75,3.14,2,2,0,0,1-1.77.95,2.83,2.83,0,0,1-1.28-.3,3.73,3.73,0,0,1-1-.66,5,5,0,0,0-.79-.65,1.46,1.46,0,0,0-.83-.3,1.08,1.08,0,0,0-.32,0,.91.91,0,0,1,.29.73,1.11,1.11,0,0,1-.33.82,1.14,1.14,0,0,1-.86.34,1.32,1.32,0,0,1-1.07-.5A2,2,0,0,1,13.53,26.27Z"/></g></g></g></g></svg>