<svg xmlns="http://www.w3.org/2000/svg" viewBox="0 0 37.21 43.32"><defs><style>.cls-1{isolation:isolate;}.cls-2{fill:#bd944e;}</style></defs><g id="Laag_2" data-name="Laag 2"><g id="Laag_1-2" data-name="Laag 1"><g class="cls-1"><g class="cls-1"><path class="cls-2" d="M17.87,27.68a5.84,5.84,0,0,1-3.19-.76A2.24,2.24,0,0,1,13.48,25a1.51,1.51,0,0,1,.43-1.14,1.57,1.57,0,0,1,1.14-.42,1.44,1.44,0,0,1,1.06.37,1.23,1.23,0,0,1,.38.92,1.27,1.27,0,0,1-.78,1.19,2.58,2.58,0,0,0,1.82.43A2,2,0,0,0,19,25.86a1.9,1.9,0,0,0,.53-1.45,1.92,1.92,0,0,0-.61-1.59,3.67,3.67,0,0,0-2.18-.48H16.2V20.9h.48a3.15,3.15,0,0,0,2.05-.51,2,2,0,0,0,.58-1.6c0-1.17-.62-1.76-1.87-1.76a2.62,2.62,0,0,0-1.53.39,1.33,1.33,0,0,1,.58.47,1.26,1.26,0,0,1,.23.72,1.28,1.28,0,0,1-.37.94,1.42,1.42,0,0,1-1.05.38,1.53,1.53,0,0,1-1.13-.42,1.49,1.49,0,0,1-.42-1.11,2.27,2.27,0,0,1,1.19-1.92A5.52,5.52,0,0,1,18,15.7a5.36,5.36,0,0,1,3.2.84,2.52,2.52,0,0,1,1.15,2.09q0,2.34-3.42,2.83v.09q3.61.38,3.62,2.77a2.91,2.91,0,0,1-1.28,2.41A5.55,5.55,0,0,1,17.87,27.68Z"/></g></g><path class="cls-2" d="M18.6,43.32A18.66,18.66,0,0,1,0,24.64V.31L6.12,2.86l3-2.58,5.12,2.8L18.55,0l4.2,3L27.36.38l3.53,2.55L37.21.31V24.64A18.67,18.67,0,0,1,18.6,43.32ZM1.66,2.8V24.64a16.95,16.95,0,1,0,33.89,0V2.8l-4.88,2L27.26,2.36,22.65,5l-4.1-3-4.14,3-5-2.76L6.42,4.79Z"/></g></g></svg>