<svg xmlns="http://www.w3.org/2000/svg" viewBox="0 0 37.21 43.32"><defs><style>.cls-1{isolation:isolate;}.cls-2{fill:#bd944e;}</style></defs><g id="Laag_2" data-name="Laag 2"><g id="Laag_1-2" data-name="Laag 1"><g class="cls-1"><g class="cls-1"><path class="cls-2" d="M14.56,27.15v-1.5H17V18.34a3.11,3.11,0,0,1-1.08.15,4.63,4.63,0,0,1-1.44-.22V17a5.29,5.29,0,0,0,2.18-.32,2.83,2.83,0,0,0,1.42-1.1h1.71V25.65h2.38v1.5Z"/></g></g><path class="cls-2" d="M18.6,43.32A18.66,18.66,0,0,1,0,24.64V.31L6.12,2.86l3-2.58,5.12,2.8L18.55,0l4.2,3L27.36.38l3.53,2.55L37.21.31V24.64A18.67,18.67,0,0,1,18.6,43.32ZM1.66,2.8V24.64a16.95,16.95,0,1,0,33.89,0V2.8l-4.88,2L27.26,2.36,22.65,5l-4.1-3-4.14,3-5-2.76L6.42,4.79Z"/></g></g></svg>