<svg width="12" height="18" viewBox="0 0 12 18" fill="none" xmlns="http://www.w3.org/2000/svg">
<path d="M5.4 0.600013C5.54043 0.599967 5.67643 0.649179 5.78431 0.739081C5.89219 0.828982 5.96512 0.953877 5.9904 1.09201L6 1.20001V4.80001C6.00014 5.49161 5.76133 6.16201 5.32399 6.69776C4.88664 7.2335 4.27762 7.6017 3.6 7.74001V16.8C3.60028 16.9499 3.54441 17.0946 3.44339 17.2054C3.34238 17.3162 3.20354 17.3851 3.05422 17.3987C2.90489 17.4122 2.75591 17.3694 2.6366 17.2786C2.5173 17.1877 2.43631 17.0555 2.4096 16.908L2.4 16.8V7.74001C1.757 7.60851 1.17483 7.26985 0.74266 6.77591C0.310491 6.28197 0.0521484 5.65999 0.00720107 5.00521L1.01783e-06 4.80001V1.20001C-0.000274998 1.05008 0.0555959 0.905473 0.156611 0.794674C0.257626 0.683874 0.396465 0.61491 0.545787 0.601363C0.695109 0.587816 0.844092 0.630666 0.963399 0.721477C1.08271 0.812288 1.16369 0.944477 1.1904 1.09201L1.2 1.20001V4.80001C1.19981 5.1724 1.31511 5.53569 1.53003 5.8398C1.74496 6.14392 2.04891 6.37388 2.4 6.49801V1.20001C2.39973 1.05008 2.4556 0.905473 2.55661 0.794674C2.65763 0.683874 2.79647 0.61491 2.94579 0.601363C3.09511 0.587816 3.24409 0.630666 3.3634 0.721477C3.48271 0.812288 3.56369 0.944477 3.5904 1.09201L3.6 1.20001V6.49681C4.2456 6.26881 4.722 5.68321 4.7916 4.97881L4.8 4.80001V1.20001C4.8 1.04088 4.86321 0.888271 4.97574 0.775749C5.08826 0.663228 5.24087 0.600013 5.4 0.600013ZM11.4 0.600013C11.5404 0.599967 11.6764 0.649179 11.7843 0.739081C11.8922 0.828982 11.9651 0.953877 11.9904 1.09201L12 1.20001V16.8C12.0003 16.9499 11.9444 17.0946 11.8434 17.2054C11.7424 17.3162 11.6035 17.3851 11.4542 17.3987C11.3049 17.4122 11.1559 17.3694 11.0366 17.2786C10.9173 17.1877 10.8363 17.0555 10.8096 16.908L10.8 16.8V10.2H9C8.85957 10.2001 8.72357 10.1508 8.61569 10.0609C8.50781 9.97104 8.43488 9.84615 8.4096 9.70801L8.4 9.60001V3.60001C8.4 2.80436 8.71607 2.0413 9.27868 1.47869C9.84129 0.916084 10.6044 0.600013 11.4 0.600013Z" fill="#102A66"/>
</svg>
