<svg xmlns="http://www.w3.org/2000/svg" viewBox="0 0 169.47 154.61"><defs><style>.cls-1{fill:none;stroke:#aebec3;stroke-miterlimit:10;stroke-width:4px;}</style></defs><g id="Laag_2" data-name="Laag 2"><g id="Laag_1-2" data-name="Laag 1"><path class="cls-1" d="M113.37,67,90.15,91.82l47.3,50.27-3.08,3.29-3.08,3.27L84,98.39l-49.91,53.3-6.18-6.54L77.83,91.84,58.51,71.3,46.84,83.64l-3.07-3.22C37.4,73.76,5.53,40,3,29.59A32.71,32.71,0,0,1,4.37,9.27l2.7-5.76L84,85.27l23.22-24.8,2.23-2.34a22.85,22.85,0,0,1-4.78-13.84,20,20,0,0,1,5.26-13.18L135.26,4.16l6.18,6.55L115.94,37.8a10.8,10.8,0,0,0-2.56,6.73,12.94,12.94,0,0,0,2.33,7L143,22.86l6.13,6.6L121.86,58.1c7.23,5.35,12,1.25,13,.24l25.67-27.29,6.17,6.55L141,65a17.8,17.8,0,0,1-8.65,4.7,16.61,16.61,0,0,1-3.53.38c-3.69,0-8.27-1.22-13.24-5.34Z"/><line class="cls-1" x1="9.85" y1="18.4" x2="49.91" y2="63.38"/></g></g></svg>