<svg width="28" height="29" viewBox="0 0 28 29" fill="none" xmlns="http://www.w3.org/2000/svg">
<path d="M25.4274 26.2804C25.1561 26.2803 24.8879 26.2198 24.6399 26.1028C24.3919 25.9858 24.1696 25.8148 23.9874 25.6009C23.38 24.9599 22.802 24.9818 22.1585 25.6009C21.1486 26.5624 20.4741 26.5459 19.4057 25.5642C18.7881 24.9965 18.2495 25.0038 17.6371 25.5789C16.6048 26.5587 15.9286 26.5606 14.8843 25.5789C14.2356 24.9708 13.6799 25.0038 13.0502 25.6119C12.0764 26.5423 11.3555 26.5276 10.3663 25.6009C9.72969 25.0002 9.17913 24.9745 8.53395 25.5899C7.52058 26.5551 6.84271 26.5404 5.78116 25.5606C5.16523 24.991 4.62672 24.9928 4.01422 25.5606C2.97333 26.5404 2.30578 26.5313 1.26144 25.5734C1.00764 25.329 0.695891 25.163 0.359902 25.0936C0.315551 25.0908 0.272175 25.0786 0.232368 25.0576C0.192562 25.0366 0.157144 25.0073 0.128232 24.9714C0.09932 24.9354 0.077509 24.8937 0.0641037 24.8486C0.0506984 24.8035 0.0459741 24.756 0.0502137 24.7089C0.0863439 24.4379 0.297964 24.3976 0.513025 24.3994C1.01541 24.3994 1.39392 24.6815 1.72769 25.0423C2.33158 25.6961 2.90623 25.6815 3.54969 25.0588C4.52693 24.1101 5.27878 24.121 6.30247 25.0844C6.91841 25.665 7.45004 25.6668 8.06253 25.0844C9.0759 24.1229 9.82603 24.1137 10.8153 25.0624C11.4588 25.6796 12.0076 25.6668 12.6425 25.0478C13.5836 24.132 14.3733 24.1503 15.335 25.0258C16.1144 25.7364 16.4155 25.7327 17.2121 25.0038C18.1222 24.1687 18.9326 24.1668 19.8496 25.0038C20.672 25.7547 20.937 25.7492 21.7886 24.9727C22.6402 24.1961 23.4884 24.1833 24.3693 24.9727C25.2502 25.762 25.4636 25.7657 26.3703 24.9342C26.7384 24.5991 27.1307 24.3591 27.6297 24.4104C27.7793 24.4269 27.929 24.4947 27.9359 24.6778C27.9359 24.784 27.8757 24.9837 27.8258 24.991C26.9655 25.1009 26.544 26.0551 25.7285 26.2456C25.6064 26.2602 25.4911 26.2712 25.4274 26.2804Z" fill="#102A66"/>
<path d="M16.2641 26.359C15.8271 26.359 15.3918 26.1118 14.8619 25.6155C14.2442 25.0386 13.7143 25.0477 13.0881 25.6466C12.0971 26.5953 11.3538 26.5916 10.3353 25.6374C9.70731 25.044 9.17568 25.0404 8.56147 25.6265C7.53777 26.6008 6.82893 26.5935 5.75191 25.5972C5.15317 25.0477 4.64391 25.0477 4.04518 25.6063C2.9888 26.599 2.30577 26.6026 1.23562 25.6191C0.988221 25.3707 0.679855 25.2018 0.346128 25.132C0.296175 25.1278 0.247503 25.1131 0.202986 25.0886C0.158468 25.0642 0.119007 25.0305 0.0869325 24.9895C0.054858 24.9485 0.03082 24.9011 0.0162377 24.8501C0.00165538 24.7991 -0.0031756 24.7454 0.00202992 24.6924C0.0433217 24.3774 0.296234 24.3389 0.518177 24.3408C1.08766 24.3408 1.48509 24.6961 1.76553 25.0001C2.34534 25.6265 2.88729 25.6301 3.52387 25.0147C4.51143 24.0569 5.30114 24.0642 6.33687 25.0404C6.93388 25.6026 7.44143 25.6026 8.03672 25.0404C9.06041 24.0679 9.85011 24.0605 10.848 25.0184C11.4657 25.6118 11.9938 25.6081 12.6132 25.0038C13.5543 24.088 14.3767 24.088 15.366 24.9818C16.1299 25.6796 16.3983 25.6759 17.1828 24.9598C18.1136 24.1045 18.9463 24.1045 19.8788 24.9598C20.6806 25.6924 20.9283 25.6924 21.7593 24.9287C22.6419 24.1246 23.5022 24.1265 24.3934 24.9287C25.2537 25.7052 25.4498 25.7015 26.3358 24.8902C26.6421 24.6118 27.0636 24.2986 27.6296 24.3554C27.843 24.3774 27.9737 24.4909 27.9737 24.6686C27.9737 24.7712 27.9187 25.0184 27.8241 25.0349C27.3819 25.0917 27.0653 25.37 26.7298 25.6649C26.4339 25.9268 26.1277 26.196 25.7319 26.2895C25.6541 26.3068 25.5754 26.3196 25.4962 26.3279L25.436 26.3371H25.4137C24.8614 26.3371 24.4123 26.1228 23.9581 25.6448C23.3749 25.0312 22.8295 25.0294 22.1912 25.6448C21.1709 26.6136 20.4621 26.6045 19.3799 25.6081C18.7829 25.0587 18.2719 25.0587 17.6732 25.6228C17.1381 26.11 16.7011 26.359 16.2641 26.359ZM9.4458 25.0935C9.75721 25.0935 10.0703 25.251 10.4041 25.5642C11.3813 26.4891 12.0678 26.4927 13.0279 25.5752C13.6868 24.9433 14.2718 24.9342 14.9204 25.5422C15.9372 26.4946 16.591 26.4927 17.6095 25.5422C18.2409 24.9488 18.8139 24.9433 19.4367 25.5257C20.4862 26.4927 21.14 26.5019 22.1258 25.5642C22.802 24.9213 23.4024 24.9232 24.0183 25.5642C24.1936 25.7728 24.4081 25.9399 24.6478 26.0548C24.8876 26.1696 25.1473 26.2296 25.4102 26.2308H25.4223H25.4825C25.5581 26.2227 25.6334 26.2104 25.7079 26.1942C26.0829 26.1045 26.3685 25.8554 26.6696 25.5898C26.9999 25.2986 27.3406 24.9964 27.8103 24.9378C27.8544 24.8577 27.8786 24.7669 27.8808 24.6741C27.8808 24.5129 27.7329 24.4653 27.6159 24.4543C27.1961 24.4104 26.8296 24.5642 26.3909 24.9653C25.4704 25.8059 25.221 25.8114 24.3263 25.0038C23.4661 24.2235 22.6626 24.2235 21.811 25.0038C20.9593 25.784 20.6462 25.7968 19.8117 25.0349C18.9188 24.2217 18.1239 24.2235 17.231 25.0349C16.4172 25.7803 16.0903 25.784 15.2937 25.0569C14.3354 24.1833 13.5732 24.1887 12.6614 25.077C12.0093 25.7144 11.4261 25.718 10.7689 25.0917C9.80022 24.1649 9.07245 24.1759 8.07801 25.1136C7.45003 25.7107 6.88915 25.7107 6.25773 25.1136C5.25296 24.1668 4.52348 24.1594 3.56516 25.088C2.89417 25.7382 2.29544 25.7327 1.68295 25.0697C1.29584 24.6356 0.931094 24.4415 0.518177 24.4378H0.502692C0.237737 24.4378 0.120744 24.5166 0.0949363 24.7071C0.069129 24.8975 0.225694 25.0092 0.366774 25.0367C0.717658 25.109 1.04216 25.2855 1.30272 25.5459C2.33501 26.4873 2.98192 26.4854 3.99529 25.5331C4.62498 24.9415 5.18931 24.9378 5.82072 25.5239C6.86506 26.4909 7.51885 26.4982 8.50985 25.5532C8.75699 25.281 9.09085 25.117 9.4458 25.0935Z" fill="#102A66"/>
<path d="M25.4274 28.9104C25.1561 28.9103 24.8879 28.8498 24.6399 28.7328C24.3918 28.6158 24.1696 28.4448 23.9874 28.2309C23.38 27.5899 22.802 27.6118 22.1585 28.2309C21.1486 29.1924 20.4741 29.1759 19.4057 28.1943C18.7881 27.6247 18.2495 27.6338 17.637 28.2089C16.6047 29.1887 15.9286 29.1906 14.8843 28.2089C14.2356 27.6009 13.6799 27.6338 13.0502 28.2419C12.0764 29.1723 11.3555 29.1668 10.3663 28.2309C9.72967 27.6302 9.17912 27.6045 8.53393 28.2199C7.52056 29.1833 6.84269 29.1704 5.78115 28.1906C5.16521 27.621 4.6267 27.6228 4.01421 28.1998C2.97331 29.1796 2.30576 29.1704 1.26142 28.2126C1.00629 27.9594 0.689934 27.7869 0.347843 27.7144C0.303574 27.7114 0.260317 27.699 0.220626 27.6779C0.180934 27.6569 0.145611 27.6275 0.116744 27.5917C0.087877 27.5558 0.06605 27.5142 0.052552 27.4692C0.0390539 27.4242 0.0341584 27.3768 0.0381544 27.3298C0.0742847 27.0587 0.285905 27.0184 0.500966 27.0203C1.00335 27.0203 1.38186 27.3023 1.71563 27.6631C2.31952 28.317 2.89417 28.3023 3.53763 27.6796C4.51487 26.7309 5.26672 26.7419 6.29041 27.7053C6.90635 28.2858 7.43798 28.2877 8.05048 27.7053C9.06384 26.7456 9.81398 26.7364 10.8033 27.6851C11.4467 28.3023 11.9956 28.2895 12.6304 27.6705C13.5715 26.7547 14.3612 26.7712 15.323 27.6485C16.1024 28.3591 16.4035 28.3554 17.2 27.6265C18.1102 26.7913 18.9205 26.7895 19.8376 27.6265C20.6599 28.3774 20.9249 28.3719 21.7765 27.5954C22.6282 26.8188 23.4764 26.806 24.3573 27.5954C25.2382 28.3847 25.4515 28.3884 26.3582 27.5569C26.7264 27.2217 27.1187 26.9818 27.6176 27.0331C27.7673 27.0496 27.917 27.1173 27.9239 27.3005C27.9239 27.4067 27.8636 27.6064 27.8137 27.6137C26.9535 27.7236 26.532 28.6778 25.7165 28.8682C25.6064 28.8902 25.4911 28.9012 25.4274 28.9104Z" fill="#102A66"/>
<path d="M16.2641 28.9891C15.8271 28.9891 15.3918 28.7419 14.8619 28.2437C14.2442 27.6686 13.7143 27.6778 13.0881 28.2767C12.0971 29.2254 11.3538 29.2217 10.3353 28.2767C9.70731 27.6833 9.17568 27.6796 8.56147 28.2657C7.53777 29.24 6.82893 29.2327 5.75191 28.2364C5.15317 27.6869 4.64391 27.6869 4.04518 28.2364C2.9888 29.2291 2.30577 29.2327 1.23562 28.2492C0.988221 28.0008 0.679855 27.8319 0.346128 27.762C0.296175 27.7579 0.247503 27.7432 0.202986 27.7187C0.158468 27.6942 0.119007 27.6605 0.0869325 27.6196C0.054858 27.5786 0.03082 27.5312 0.0162377 27.4802C0.00165538 27.4291 -0.0031756 27.3755 0.00202992 27.3225C0.0433217 27.0075 0.296234 26.9727 0.518177 26.9708C1.08766 26.9708 1.48509 27.3261 1.76553 27.6302C2.34534 28.2565 2.88729 28.2602 3.52387 27.643C4.51143 26.6869 5.30114 26.6924 6.33687 27.6705C6.93388 28.2327 7.44143 28.2327 8.03672 27.6705C9.06041 26.6961 9.85011 26.6906 10.848 27.6485C11.4657 28.2419 11.9938 28.2382 12.6132 27.6338C13.5543 26.7181 14.3767 26.7181 15.366 27.6118C16.1299 28.3096 16.3983 28.306 17.1828 27.5899C18.1136 26.7346 18.9463 26.7327 19.8788 27.5899C20.6806 28.3225 20.9283 28.3225 21.7593 27.5587C22.6419 26.7547 23.5022 26.7547 24.3934 27.5587C25.2537 28.3353 25.4498 28.3316 26.3358 27.5203C26.6421 27.2419 27.0636 26.9287 27.6296 26.9855C27.843 27.0075 27.9737 27.121 27.9737 27.2987C27.9737 27.4012 27.9187 27.6485 27.8241 27.665C27.3819 27.7217 27.0653 28.0001 26.7298 28.295C26.4339 28.5569 26.1277 28.8261 25.7319 28.9195C25.6541 28.9368 25.5754 28.9497 25.4962 28.958H25.436H25.4137C24.8614 28.958 24.4123 28.7437 23.9581 28.2657C23.3749 27.6521 22.8295 27.6503 22.1912 28.2657C21.1709 29.2345 20.4621 29.2254 19.3799 28.2291C18.7829 27.6796 18.2719 27.6796 17.6732 28.2437C17.1381 28.74 16.7011 28.9891 16.2641 28.9891ZM9.4458 27.7236C9.75721 27.7236 10.0703 27.8811 10.4041 28.1943C11.3813 29.11 12.0678 29.1228 13.0279 28.2053C13.6868 27.5734 14.2718 27.5642 14.9204 28.1723C15.9372 29.1247 16.591 29.1228 17.6095 28.1723C18.2409 27.5789 18.8139 27.5734 19.4367 28.1558C20.4862 29.1228 21.14 29.132 22.1258 28.1943C22.802 27.5514 23.4024 27.5532 24.0183 28.1943C24.1936 28.4027 24.4081 28.5696 24.6479 28.6841C24.8877 28.7987 25.1474 28.8583 25.4102 28.8591H25.4223H25.4825C25.5581 28.8509 25.6334 28.8387 25.7079 28.8225C26.0829 28.7327 26.3685 28.4836 26.6696 28.2181C26.9999 27.9269 27.3406 27.6247 27.8103 27.5642C27.8546 27.4848 27.8789 27.3946 27.8808 27.3023C27.8808 27.1412 27.7329 27.0935 27.6159 27.0825C27.1961 27.0386 26.8296 27.1924 26.3909 27.5935C25.4704 28.4342 25.221 28.4397 24.3263 27.632C23.4661 26.8518 22.6626 26.8518 21.811 27.632C20.9593 28.4122 20.6479 28.425 19.8117 27.6631C18.9188 26.8499 18.1239 26.8518 17.231 27.6631C16.4172 28.4085 16.0903 28.4122 15.2937 27.6851C14.3354 26.8115 13.5732 26.817 12.6614 27.7053C12.0093 28.3426 11.4261 28.3463 10.7689 27.7199C9.80022 26.7932 9.07245 26.8042 8.07801 27.7419C7.45003 28.3389 6.88743 28.3389 6.25773 27.7419C5.25296 26.795 4.52348 26.7877 3.56516 27.7162C2.89417 28.3664 2.29544 28.3609 1.68295 27.6979C1.29584 27.2657 0.931094 27.0716 0.518177 27.0679H0.502692C0.237737 27.0679 0.120744 27.1466 0.0949363 27.3353C0.0916537 27.3762 0.0961445 27.4174 0.108141 27.4564C0.120137 27.4955 0.139394 27.5315 0.164762 27.5625C0.19013 27.5934 0.221091 27.6186 0.255798 27.6365C0.290504 27.6544 0.328247 27.6647 0.366774 27.6668C0.717658 27.739 1.04216 27.9156 1.30272 28.1759C2.33501 29.1173 2.98192 29.1155 3.99529 28.1631C4.62498 27.5716 5.18758 27.5679 5.82072 28.1631C6.86506 29.1302 7.51885 29.1375 8.50985 28.1924C8.75563 27.9168 9.08965 27.7495 9.4458 27.7236Z" fill="#102A66"/>
<path d="M9.18943 1.37939C9.29272 1.46398 9.38525 1.56248 9.46471 1.67243C9.83461 2.3281 10.1873 2.99293 10.5486 3.65227C10.6828 3.89769 10.7069 4.12479 10.4419 4.27497C10.2045 4.40867 10.0583 4.22918 9.95505 4.04237C9.57654 3.3574 9.20147 2.66876 8.84189 1.9728C8.67845 1.65045 8.82641 1.46731 9.18943 1.37939Z" fill="#102A66"/>
<path d="M10.2871 4.37009C10.0875 4.37009 9.97054 4.15764 9.91892 4.06607C9.55762 3.41406 9.17395 2.71077 8.80577 1.99466C8.76885 1.93716 8.74524 1.87117 8.73687 1.8021C8.7285 1.73303 8.7356 1.66282 8.75759 1.59723C8.80383 1.52148 8.86598 1.45822 8.93914 1.41245C9.01229 1.36668 9.09445 1.33965 9.17911 1.3335H9.2032L9.2204 1.34998L9.30471 1.42873C9.38353 1.49002 9.45215 1.56492 9.50773 1.65034C9.74859 2.07891 9.98602 2.51847 10.2166 2.94154C10.3422 3.1723 10.466 3.40307 10.5916 3.63201C10.6344 3.69359 10.6646 3.76403 10.6803 3.83878C10.696 3.91353 10.6969 3.99095 10.6828 4.06607C10.6653 4.12223 10.637 4.17388 10.5997 4.21772C10.5623 4.26156 10.5168 4.29662 10.466 4.32064C10.4113 4.35306 10.3497 4.37008 10.2871 4.37009ZM9.17567 1.43972C9.10755 1.44431 9.04127 1.46513 8.98171 1.50063C8.92215 1.53613 8.87085 1.58542 8.83157 1.64485C8.81589 1.69699 8.81192 1.75233 8.81998 1.80641C8.82805 1.86049 8.84793 1.91179 8.87803 1.9562C9.24449 2.67048 9.62816 3.37194 9.98946 4.02394C10.1237 4.26753 10.251 4.33163 10.4144 4.24006C10.4542 4.22177 10.4901 4.19492 10.5197 4.1612C10.5493 4.12747 10.572 4.08761 10.5865 4.04409C10.597 3.98039 10.5952 3.91508 10.5813 3.85212C10.5674 3.78916 10.5417 3.72985 10.5056 3.67779C10.3783 3.44703 10.2544 3.21809 10.1288 2.98732C9.9 2.56242 9.66085 2.12287 9.4217 1.70529C9.37074 1.62871 9.30859 1.56131 9.23761 1.50566L9.17567 1.43972Z" fill="#102A66"/>
<path d="M19.2147 1.97475C18.8207 2.66339 18.3768 3.45642 17.914 4.23846C17.8919 4.27022 17.8637 4.29657 17.8312 4.31573C17.7988 4.33489 17.7628 4.34642 17.7258 4.34955C17.6888 4.35267 17.6516 4.34732 17.6167 4.33384C17.5818 4.32037 17.55 4.29908 17.5235 4.27143C17.4491 4.22039 17.3969 4.14003 17.3782 4.04799C17.3594 3.95596 17.3758 3.85978 17.4237 3.78059C17.8125 3.05716 18.1962 2.33006 18.5971 1.61395C18.6147 1.57094 18.6407 1.53234 18.6732 1.50062C18.7057 1.46891 18.7441 1.44478 18.7859 1.42978C18.8277 1.41477 18.872 1.40923 18.9159 1.41351C18.9598 1.41779 19.0024 1.43178 19.0409 1.45461C19.1872 1.53519 19.2302 1.67805 19.2147 1.97475Z" fill="#102A66"/>
<path d="M17.7231 4.39774C17.6405 4.39685 17.5605 4.36655 17.496 4.31166C17.4138 4.25365 17.3561 4.16376 17.3352 4.06113C17.3143 3.95851 17.3319 3.85126 17.3842 3.76222L17.6543 3.25856C17.9468 2.70911 18.2496 2.14502 18.5575 1.59374C18.5776 1.54491 18.6071 1.50106 18.6439 1.46497C18.6808 1.42889 18.7243 1.40136 18.7717 1.38414C18.8192 1.36692 18.8694 1.36038 18.9193 1.36493C18.9692 1.36948 19.0177 1.38503 19.0616 1.41059C19.2457 1.51132 19.275 1.7018 19.2595 1.97469V1.9985L18.9601 2.52413C18.6401 3.08823 18.3081 3.67247 17.9588 4.26221C17.94 4.29508 17.915 4.32344 17.8854 4.34551C17.8558 4.36757 17.8222 4.38286 17.7868 4.39042C17.7659 4.39582 17.7445 4.39828 17.7231 4.39774ZM18.8844 1.46737C18.8315 1.47241 18.7808 1.49193 18.7371 1.52402C18.6934 1.55611 18.6582 1.59969 18.635 1.65052C18.3287 2.19996 18.0259 2.76772 17.7317 3.31534L17.4633 3.81716C17.4247 3.88512 17.4123 3.96634 17.4286 4.04382C17.445 4.12131 17.4888 4.18906 17.551 4.23291C17.579 4.25842 17.6117 4.27732 17.6469 4.28837C17.6822 4.29942 17.7193 4.30237 17.7558 4.29701C17.7798 4.29258 17.8026 4.28278 17.8228 4.26826C17.8429 4.25373 17.86 4.23482 17.8728 4.21276C18.2169 3.62486 18.561 3.04061 18.8741 2.47652C18.9739 2.29947 19.072 2.12731 19.1683 1.96004C19.1838 1.65052 19.1236 1.55528 19.0186 1.4985C18.9767 1.47732 18.9308 1.46667 18.8844 1.46737Z" fill="#102A66"/>
<path d="M5.35105 11.1247C5.00696 11.1247 4.66286 11.1357 4.31876 11.1247C4.1123 11.1137 3.89552 11.0588 3.89036 10.7767C3.8852 10.4947 4.08133 10.3958 4.29295 10.3921C5.04538 10.3774 5.79666 10.3774 6.54679 10.3921C6.76529 10.3921 6.95455 10.5331 6.93562 10.7932C6.9167 11.0533 6.69475 11.121 6.48658 11.1284C6.10979 11.1412 5.73472 11.1284 5.35793 11.1284L5.35105 11.1247Z" fill="#102A66"/>
<path d="M6.02374 11.1743H5.35103H5.30629H5.04478C4.80391 11.1743 4.55444 11.1743 4.31013 11.1743C4.19486 11.1743 3.8456 11.1523 3.83871 10.7787C3.83496 10.725 3.84174 10.671 3.85862 10.6203C3.8755 10.5695 3.90212 10.523 3.93678 10.4838C4.03003 10.3916 4.15367 10.3422 4.28088 10.3464C5.0465 10.3318 5.80523 10.3318 6.53644 10.3464C6.60023 10.3452 6.6636 10.3577 6.72273 10.3832C6.78186 10.4087 6.83554 10.4466 6.88054 10.4948C6.91435 10.5362 6.93975 10.5845 6.95514 10.6368C6.97054 10.6892 6.9756 10.7443 6.97001 10.7988C6.95108 11.0406 6.78591 11.1651 6.47623 11.1798C6.32654 11.1743 6.16998 11.1743 6.02374 11.1743ZM5.40608 11.0754H5.67964C5.93943 11.0754 6.20955 11.0754 6.47278 11.0754C6.73602 11.0754 6.86334 10.9746 6.8771 10.7842C6.88188 10.7426 6.87838 10.7003 6.86682 10.6603C6.85526 10.6202 6.8359 10.5831 6.81 10.5516C6.7741 10.515 6.73172 10.4865 6.68534 10.4677C6.63896 10.4488 6.58951 10.44 6.53988 10.4417C5.8104 10.427 5.05338 10.427 4.28776 10.4417C4.18285 10.438 4.08061 10.4773 4.00216 10.5516C3.97628 10.5819 3.95639 10.6175 3.94368 10.6562C3.93097 10.6949 3.9257 10.7359 3.92818 10.7768C3.92818 10.9746 4.04689 11.0644 4.31357 11.0772C4.58025 11.09 4.80391 11.0864 5.04306 11.0772H5.35103L5.40608 11.0754Z" fill="#102A66"/>
<path d="M17.6508 17.218C17.7609 17.2803 17.8676 17.3023 17.9055 17.3682C18.3373 18.1356 18.7657 18.9067 19.1803 19.685C19.2136 19.756 19.2198 19.838 19.1977 19.9137C19.1756 19.9895 19.1268 20.0532 19.0616 20.0916C19.028 20.1225 18.9884 20.1451 18.9458 20.1581C18.9031 20.1711 18.8582 20.174 18.8144 20.1667C18.7705 20.1594 18.7287 20.142 18.6917 20.1157C18.6548 20.0895 18.6237 20.055 18.6005 20.0147C18.1773 19.2821 17.7627 18.5312 17.3738 17.773C17.2207 17.4689 17.453 17.3389 17.6508 17.218Z" fill="#102A66"/>
<path d="M18.85 20.2125C18.8266 20.2153 18.8029 20.2153 18.7795 20.2125C18.7342 20.2015 18.6916 20.181 18.654 20.152C18.6165 20.1231 18.5848 20.0863 18.561 20.044C18.0655 19.1777 17.6766 18.4653 17.3342 17.7986C17.1622 17.4671 17.422 17.3078 17.6112 17.1906L17.6508 17.1667L17.6732 17.1796C17.7073 17.1986 17.7423 17.2157 17.7781 17.2308C17.8458 17.2481 17.9063 17.2887 17.9502 17.3462C18.4474 18.229 18.8534 18.9653 19.2268 19.6649C19.2659 19.7464 19.274 19.8409 19.2493 19.9285C19.2246 20.0162 19.1691 20.0904 19.0943 20.1356C19.0221 20.1871 18.9369 20.214 18.85 20.2125ZM17.6457 17.2693C17.4168 17.4103 17.2878 17.5147 17.4065 17.7455C17.7506 18.4103 18.1377 19.1228 18.6332 19.9872C18.6501 20.0183 18.673 20.0452 18.7002 20.0663C18.7275 20.0875 18.7586 20.1023 18.7915 20.1099C18.833 20.1181 18.8756 20.1167 18.9165 20.106C18.9574 20.0952 18.9957 20.0754 19.0289 20.0477C19.0846 20.016 19.1266 19.9627 19.1461 19.8989C19.1657 19.8351 19.1613 19.7657 19.1339 19.7052C18.7605 19.0056 18.3562 18.2711 17.859 17.3884C17.8246 17.3519 17.7819 17.3254 17.7351 17.3114C17.7231 17.2986 17.6835 17.2858 17.6525 17.2693H17.6457Z" fill="#102A66"/>
<path d="M14.3406 1.68334C14.3406 2.08627 14.3406 2.48736 14.3406 2.88846C14.3446 2.93477 14.3392 2.98147 14.3247 3.02535C14.3102 3.06922 14.287 3.10924 14.2566 3.14265C14.2262 3.17606 14.1893 3.20206 14.1486 3.21889C14.1079 3.23571 14.0642 3.24295 14.0206 3.2401C13.9766 3.24419 13.9323 3.23844 13.8905 3.22323C13.8488 3.20802 13.8105 3.18368 13.7781 3.15177C13.7457 3.11987 13.7199 3.0811 13.7024 3.03796C13.6849 2.99482 13.6761 2.94826 13.6765 2.90128C13.6616 2.06734 13.6616 1.23463 13.6765 0.403134C13.6754 0.355395 13.6837 0.307946 13.7008 0.263801C13.7179 0.219657 13.7435 0.179783 13.7758 0.146713C13.8082 0.113643 13.8467 0.0880996 13.8888 0.0717064C13.9309 0.0553132 13.9758 0.0484284 14.0206 0.0514894C14.2958 0.0405005 14.3543 0.251121 14.3647 0.480057C14.375 0.881152 14.3647 1.28225 14.3647 1.68334H14.3406Z" fill="#102A66"/>
<path d="M14.0171 3.28781C13.9674 3.29188 13.9173 3.28488 13.8702 3.26724C13.8231 3.2496 13.78 3.22172 13.7436 3.18537C13.7072 3.14902 13.6783 3.10499 13.6587 3.0561C13.6392 3.0072 13.6294 2.9545 13.63 2.90137C13.6145 2.1065 13.6145 1.28966 13.63 0.401392C13.6293 0.348911 13.6385 0.296813 13.657 0.24816C13.6755 0.199508 13.7029 0.155282 13.7377 0.118084C13.7725 0.0808858 13.8139 0.0514653 13.8595 0.0315521C13.9052 0.011639 13.9541 0.00163502 14.0034 0.00212841C14.051 -0.00335773 14.0991 0.00179025 14.1447 0.0172432C14.1904 0.0326961 14.2324 0.0581138 14.2683 0.0918711C14.3541 0.199239 14.3978 0.337589 14.3905 0.478314C14.3905 0.762194 14.3905 1.05157 14.3905 1.33179C14.3905 1.449 14.3905 1.56622 14.3905 1.68343V1.73288C14.3905 1.83361 14.3905 1.93434 14.3905 2.03508C14.3905 2.31529 14.3905 2.60467 14.3905 2.89038C14.395 2.94377 14.3884 2.99755 14.3712 3.04793C14.354 3.09832 14.3267 3.14408 14.2911 3.18198C14.2554 3.21988 14.2125 3.249 14.1651 3.26729C14.1178 3.28557 14.0673 3.29258 14.0171 3.28781ZM14.0257 0.099197H14.0068C13.9685 0.0974384 13.9303 0.104043 13.8946 0.118604C13.8588 0.133165 13.8262 0.155373 13.7988 0.183859C13.7714 0.212345 13.7497 0.246506 13.7352 0.284234C13.7207 0.321961 13.7136 0.362457 13.7143 0.403223C13.7023 1.28966 13.704 2.1065 13.7143 2.89954C13.7139 2.94019 13.7215 2.98048 13.7367 3.01781C13.7518 3.05514 13.7741 3.08869 13.8021 3.11629C13.8302 3.14389 13.8633 3.16494 13.8995 3.17808C13.9356 3.19122 13.9739 3.19615 14.012 3.19257C14.0497 3.19494 14.0874 3.18852 14.1225 3.17378C14.1577 3.15903 14.1894 3.13631 14.2154 3.10719C14.2414 3.07808 14.2612 3.04327 14.2733 3.00519C14.2854 2.96711 14.2896 2.92668 14.2855 2.88671C14.2855 2.60283 14.2855 2.31529 14.2855 2.03691C14.2855 1.91969 14.2855 1.80065 14.2855 1.68343V1.63581C14.2855 1.53508 14.2855 1.43252 14.2855 1.32995C14.2855 1.05157 14.2855 0.764025 14.2855 0.481977C14.2927 0.425927 14.2895 0.36891 14.2759 0.314214C14.2623 0.259519 14.2387 0.208227 14.2064 0.163299C14.1818 0.140372 14.1531 0.122895 14.1221 0.111889C14.0911 0.100882 14.0583 0.0965677 14.0257 0.099197Z" fill="#102A66"/>
<path d="M22.5852 11.1833C22.2101 11.1833 21.835 11.1961 21.4617 11.1833C21.4107 11.188 21.3594 11.1811 21.3112 11.1631C21.2629 11.145 21.2189 11.1163 21.1819 11.0786C21.1449 11.041 21.1159 10.9955 21.0968 10.945C21.0777 10.8945 21.069 10.8402 21.0711 10.7858C21.0711 10.5075 21.2862 10.447 21.4995 10.447C22.2187 10.447 22.9396 10.447 23.6605 10.447C23.8618 10.447 24.0871 10.4855 24.0923 10.7767C24.0923 11.1027 23.8652 11.176 23.6226 11.1851C23.2785 11.1998 22.9344 11.1851 22.5903 11.1851L22.5852 11.1833Z" fill="#102A66"/>
<path d="M23.2028 11.2401H22.5852H22.5404H22.2531C21.9933 11.2401 21.7249 11.2401 21.46 11.2401C21.403 11.2451 21.3457 11.2371 21.2919 11.2166C21.238 11.1962 21.189 11.1637 21.1479 11.1214C21.1068 11.079 21.0748 11.0279 21.0538 10.9713C21.0328 10.9147 21.0235 10.8539 21.0264 10.7932C21.0264 10.5386 21.1984 10.4086 21.4995 10.4067C22.1877 10.4067 22.9189 10.4067 23.6605 10.4067C23.8015 10.4067 24.1319 10.4067 24.137 10.784C24.137 11.2199 23.7534 11.2364 23.6209 11.2419C23.4884 11.2474 23.3439 11.2401 23.2028 11.2401ZM22.6299 11.1393H22.8948C23.134 11.1393 23.38 11.1393 23.6209 11.1393C23.9185 11.1283 24.051 11.0166 24.0476 10.773C24.0441 10.5294 23.8893 10.4928 23.6587 10.4892C22.9189 10.4782 22.1843 10.4892 21.4995 10.4892C21.2397 10.4892 21.1227 10.5807 21.1176 10.7822C21.1173 10.8295 21.1261 10.8765 21.1435 10.9201C21.1609 10.9636 21.1865 11.0029 21.2188 11.0356C21.251 11.0682 21.2892 11.0934 21.331 11.1097C21.3728 11.126 21.4173 11.1329 21.4617 11.1302C21.7232 11.143 21.9899 11.1393 22.2479 11.1302H22.5817L22.6299 11.1393Z" fill="#102A66"/>
<path d="M10.6243 17.7347C10.208 18.4563 9.74688 19.2749 9.25998 20.0753C9.18255 20.2017 8.99502 20.1705 8.87115 20.0497C8.81167 20.003 8.76992 19.9352 8.7535 19.8586C8.73708 19.7819 8.74708 19.7015 8.78168 19.6321C9.18427 18.8787 9.59318 18.1303 10.0084 17.3867C10.0433 17.3173 10.1014 17.2645 10.1712 17.2387C10.2411 17.213 10.3174 17.2161 10.3852 17.2475C10.5263 17.3134 10.6157 17.4325 10.6243 17.7347Z" fill="#102A66"/>
<path d="M9.10687 20.2052C9.00747 20.2007 8.91287 20.1585 8.8402 20.0862C8.77166 20.0331 8.72392 19.955 8.70614 19.8668C8.68836 19.7786 8.70179 19.6865 8.74385 19.6082C9.16709 18.8133 9.56797 18.0789 9.96884 17.3628C10.0101 17.2837 10.0774 17.2236 10.1578 17.1942C10.2381 17.1648 10.3259 17.1681 10.4041 17.2034C10.5762 17.2859 10.6605 17.4434 10.6708 17.7327V17.7474L10.6691 17.7675C10.5676 17.9507 10.4643 18.1228 10.3594 18.306C10.0153 18.8939 9.67119 19.5019 9.30301 20.1082C9.28592 20.1362 9.26314 20.1598 9.23634 20.1773C9.20954 20.1947 9.17941 20.2055 9.14816 20.2089L9.10687 20.2052ZM10.2648 17.2749C10.2201 17.2768 10.1768 17.291 10.1388 17.316C10.1008 17.3411 10.0695 17.3761 10.048 17.4177C9.64539 18.1338 9.24451 18.8664 8.82127 19.6558C8.78965 19.7166 8.78041 19.7878 8.79536 19.8555C8.8103 19.9232 8.84836 19.9826 8.90213 20.0221C8.9322 20.0534 8.96808 20.0778 9.00748 20.0936C9.04688 20.1093 9.08893 20.1162 9.13096 20.1137C9.14928 20.1125 9.16707 20.1067 9.18292 20.0969C9.19876 20.087 9.21219 20.0733 9.22215 20.0569C9.59033 19.4488 9.93959 18.8426 10.2768 18.2565C10.38 18.0734 10.4798 17.8994 10.5796 17.7291C10.5659 17.4324 10.4712 17.3463 10.368 17.3005C10.336 17.2826 10.3008 17.272 10.2648 17.2694V17.2749Z" fill="#102A66"/>
<path d="M5.69341 5.20728C6.35236 5.64134 7.11282 6.12302 7.85435 6.63949C7.96446 6.71459 7.94897 6.92704 7.83886 7.05707C7.77919 7.12513 7.69835 7.16784 7.61134 7.17727C7.52433 7.1867 7.43707 7.16221 7.36573 7.10835C6.71366 6.72008 6.06848 6.31715 5.4233 5.91606C5.34395 5.87678 5.28079 5.80806 5.24563 5.72276C5.21047 5.63746 5.20574 5.54144 5.23232 5.45269C5.27534 5.2842 5.40093 5.22193 5.69341 5.20728Z" fill="#102A66"/>
<path d="M7.59112 7.22546C7.50335 7.22203 7.41795 7.19425 7.34337 7.14488C6.75324 6.79323 6.15967 6.42327 5.58503 6.06613L5.40094 5.95258C5.31302 5.90762 5.24316 5.83061 5.20402 5.73552C5.16488 5.64043 5.15905 5.53355 5.1876 5.43427C5.24437 5.21999 5.42158 5.16687 5.6917 5.15405H5.70546H5.71751C5.87407 5.25662 6.03752 5.36467 6.20613 5.47273C6.7498 5.82804 7.31412 6.19434 7.87844 6.58627C7.90493 6.6056 7.92712 6.63086 7.94347 6.66029C7.95981 6.68971 7.96992 6.72258 7.97307 6.7566C7.97817 6.81433 7.97176 6.87256 7.95427 6.92747C7.93677 6.98239 7.90859 7.03275 7.87156 7.07528C7.8381 7.12077 7.79561 7.15782 7.74713 7.18378C7.69865 7.20974 7.64538 7.22398 7.59112 7.22546ZM5.67966 5.25662C5.38029 5.2731 5.30631 5.34453 5.27362 5.4654C5.24958 5.54407 5.25387 5.62945 5.28567 5.70493C5.31747 5.78041 5.3745 5.84061 5.44567 5.87383L5.62804 5.98921C6.20269 6.34452 6.79626 6.7218 7.38638 7.06612C7.44886 7.11381 7.52544 7.13582 7.60198 7.12807C7.67851 7.12033 7.74982 7.08336 7.80274 7.024C7.83164 6.99149 7.85366 6.95276 7.86731 6.91042C7.88096 6.86809 7.88593 6.82313 7.88189 6.77858C7.88086 6.7585 7.8757 6.73891 7.86678 6.72119C7.85786 6.70347 7.8454 6.68805 7.83027 6.67602C7.26595 6.28591 6.70335 5.91961 6.15795 5.56431L5.67966 5.25662Z" fill="#102A66"/>
<path d="M22.7899 15.9708C22.6901 16.3957 22.4596 16.4232 22.1895 16.2639C21.5598 15.8976 20.9387 15.5056 20.3176 15.1192C20.1301 15.002 20.0079 14.8298 20.1025 14.5844C20.117 14.5402 20.1406 14.5 20.1717 14.4669C20.2028 14.4338 20.2405 14.4085 20.282 14.393C20.3235 14.3775 20.3677 14.3722 20.4114 14.3774C20.4551 14.3827 20.4971 14.3983 20.5344 14.4232C21.2398 14.8371 21.9366 15.2675 22.6282 15.7053C22.7125 15.7529 22.7469 15.8976 22.7899 15.9708Z" fill="#102A66"/>
<path d="M22.4596 16.4013C22.3561 16.3962 22.2555 16.3635 22.1671 16.3061C21.5202 15.9215 20.887 15.5295 20.2952 15.1596C20.0509 15.0075 19.9683 14.7933 20.0612 14.5662C20.0782 14.5164 20.1052 14.4711 20.1402 14.4335C20.1753 14.3958 20.2176 14.3667 20.2642 14.3482C20.3125 14.332 20.3634 14.3266 20.4137 14.3323C20.464 14.3379 20.5127 14.3546 20.5567 14.3812C21.1761 14.7475 21.8402 15.1522 22.6505 15.6632C22.7152 15.7168 22.7647 15.7884 22.7933 15.8702C22.8054 15.8977 22.8174 15.9233 22.8277 15.9434L22.8381 15.9618V15.9801C22.828 16.0613 22.8004 16.139 22.7574 16.207C22.7144 16.275 22.6572 16.3315 22.5903 16.372C22.5492 16.3915 22.5046 16.4015 22.4596 16.4013ZM20.3726 14.427C20.3463 14.4265 20.3201 14.4308 20.2952 14.4398C20.2604 14.4534 20.229 14.4751 20.2031 14.5033C20.1772 14.5315 20.1575 14.5655 20.1455 14.6028C20.0698 14.7859 20.1352 14.9489 20.3416 15.0771C20.9335 15.4434 21.5649 15.839 22.2118 16.2218C22.2607 16.2598 22.3172 16.2854 22.3768 16.2965C22.4365 16.3076 22.4978 16.304 22.5559 16.2859C22.607 16.2527 22.6506 16.2079 22.6836 16.1547C22.7166 16.1016 22.7382 16.0413 22.7469 15.9782C22.7366 15.9581 22.7262 15.9379 22.7159 15.9141C22.6954 15.8497 22.6585 15.7926 22.6092 15.7493C21.8006 15.2347 21.1365 14.8336 20.5188 14.4673C20.4743 14.4403 20.4238 14.4264 20.3726 14.427Z" fill="#102A66"/>
<path d="M14.3217 19.9854C14.3217 20.3517 14.3217 20.718 14.3217 21.0971C14.3217 21.3389 14.2116 21.522 13.9535 21.5074C13.9101 21.5062 13.8673 21.4957 13.8279 21.4765C13.7884 21.4572 13.753 21.4296 13.7239 21.3954C13.6948 21.3611 13.6725 21.3209 13.6584 21.2772C13.6443 21.2335 13.6388 21.1871 13.6421 21.1411C13.6352 20.3389 13.6352 19.5367 13.6421 18.7345C13.6421 18.4927 13.7436 18.3023 14.0034 18.3242C14.2632 18.3462 14.3234 18.5532 14.3251 18.7858C14.3251 19.1832 14.3217 19.5843 14.3217 19.9854Z" fill="#102A66"/>
<path d="M13.9793 21.557H13.9483C13.8986 21.5562 13.8495 21.5445 13.8042 21.5225C13.7589 21.5006 13.7184 21.469 13.6851 21.4296C13.6518 21.3902 13.6265 21.344 13.6109 21.2937C13.5952 21.2435 13.5894 21.1903 13.5939 21.1376C13.5939 20.3299 13.5939 19.5185 13.5939 18.731C13.5901 18.664 13.5993 18.597 13.6209 18.5339C13.6425 18.4709 13.6761 18.4133 13.7195 18.3647C13.7586 18.3293 13.8041 18.3028 13.8533 18.2871C13.9024 18.2713 13.9541 18.2666 14.0051 18.2731C14.2442 18.2933 14.3664 18.4563 14.3698 18.7841C14.3698 19.0717 14.3698 19.361 14.3698 19.6504V19.9874C14.3698 20.0991 14.3698 20.2127 14.3698 20.3244C14.3698 20.579 14.3698 20.8409 14.3698 21.1009C14.3726 21.1682 14.3625 21.2355 14.34 21.2984C14.3175 21.3614 14.2832 21.4189 14.2391 21.4672C14.167 21.5325 14.0736 21.5648 13.9793 21.557ZM13.9604 18.3665C13.8939 18.3628 13.8286 18.3864 13.778 18.4325C13.744 18.4729 13.718 18.5201 13.7015 18.5714C13.6849 18.6226 13.6782 18.6769 13.6816 18.731C13.6816 19.5185 13.6816 20.328 13.6816 21.1376C13.6776 21.1779 13.6814 21.2186 13.693 21.2573C13.7046 21.2959 13.7236 21.3315 13.7489 21.3619C13.7742 21.3922 13.8051 21.4166 13.8397 21.4335C13.8744 21.4504 13.9119 21.4594 13.95 21.4599C13.9892 21.4644 14.0289 21.4606 14.0667 21.4486C14.1045 21.4367 14.1397 21.4169 14.1703 21.3903C14.2385 21.3097 14.2744 21.2038 14.27 21.0954C14.27 20.839 14.27 20.5771 14.27 20.3225V19.6486C14.27 19.3592 14.27 19.0717 14.27 18.7823C14.27 18.4929 14.1806 18.3848 13.9896 18.3684L13.9604 18.3665Z" fill="#102A66"/>
<path d="M22.8174 5.58825C22.7761 5.66518 22.7469 5.80986 22.6643 5.86298C21.9761 6.3062 21.2822 6.73354 20.5825 7.14501C20.5457 7.17038 20.5044 7.1875 20.4611 7.19534C20.4178 7.20318 20.3735 7.20156 20.3309 7.1906C20.2882 7.17963 20.2481 7.15955 20.213 7.13156C20.1779 7.10357 20.1485 7.06827 20.1266 7.0278C20.1031 6.98842 20.0874 6.94433 20.0806 6.89825C20.0738 6.85218 20.0759 6.8051 20.0869 6.75994C20.0979 6.71479 20.1174 6.67251 20.1444 6.63572C20.1713 6.59894 20.2051 6.56845 20.2436 6.54612C20.9318 6.11572 21.6303 5.67983 22.3391 5.27873C22.5404 5.17068 22.728 5.29705 22.8174 5.58825Z" fill="#102A66"/>
<path d="M20.3984 7.25482C20.3648 7.25518 20.3312 7.25087 20.2986 7.242C20.2535 7.22843 20.2114 7.20519 20.175 7.17369C20.1386 7.1422 20.1087 7.10312 20.087 7.05885C20.0602 7.01389 20.0424 6.96355 20.0346 6.91095C20.0269 6.85835 20.0294 6.80462 20.0419 6.75309C20.0545 6.70155 20.0769 6.65333 20.1078 6.61141C20.1386 6.56949 20.1772 6.53477 20.2212 6.5094L20.3692 6.41783C21.004 6.02223 21.6578 5.61564 22.3168 5.24018C22.3589 5.21431 22.4058 5.1986 22.4543 5.19417C22.5028 5.18974 22.5515 5.19669 22.5972 5.21454C22.6623 5.25048 22.7194 5.30075 22.7648 5.36201C22.8102 5.42327 22.8428 5.49413 22.8604 5.56985V5.59L22.8501 5.60831C22.8369 5.63277 22.826 5.65853 22.8174 5.68524C22.7944 5.77108 22.7462 5.84683 22.6798 5.90135C21.9916 6.34823 21.2845 6.78229 20.598 7.19255C20.5372 7.2303 20.4687 7.25168 20.3984 7.25482ZM22.4854 5.2933C22.4412 5.2938 22.398 5.30641 22.3598 5.32993C21.7025 5.69622 21.0488 6.11014 20.4156 6.50391L20.2659 6.59731C20.2325 6.61638 20.2032 6.64264 20.1799 6.6744C20.1565 6.70617 20.1396 6.74275 20.1302 6.78184C20.1208 6.82093 20.1192 6.86167 20.1254 6.90147C20.1315 6.94127 20.1454 6.97927 20.1661 7.01306C20.1824 7.04563 20.2047 7.07439 20.2316 7.09767C20.2584 7.12094 20.2894 7.13826 20.3227 7.14859C20.4033 7.17001 20.4886 7.15686 20.5601 7.11196C21.2483 6.70171 21.9468 6.26765 22.6402 5.82992C22.6877 5.78415 22.7223 5.72515 22.74 5.65959L22.7675 5.59183C22.7539 5.53289 22.7287 5.47767 22.6937 5.42972C22.6588 5.38176 22.6148 5.34215 22.5645 5.31344C22.5396 5.30125 22.5127 5.29441 22.4854 5.2933Z" fill="#102A66"/>
<path d="M7.887 14.6154C7.89657 14.7153 7.87669 14.8159 7.83014 14.9032C7.78358 14.9905 7.71266 15.0602 7.62721 15.1026C7.02676 15.4689 6.42287 15.8462 5.81897 16.2015C5.63832 16.3096 5.4181 16.3847 5.26842 16.1667C5.23825 16.1229 5.21762 16.0724 5.20803 16.019C5.19844 15.9657 5.20013 15.9107 5.21298 15.8581C5.22582 15.8055 5.24951 15.7566 5.28231 15.7149C5.31511 15.6733 5.3562 15.6399 5.40262 15.6173C6.0478 15.207 6.69642 14.7986 7.35709 14.4158C7.57215 14.2876 7.8113 14.3297 7.887 14.6154Z" fill="#102A66"/>
<path d="M5.5076 16.3592C5.45213 16.3591 5.3975 16.3447 5.34837 16.3173C5.29924 16.2899 5.25706 16.2502 5.22544 16.2017C5.19462 16.1566 5.17316 16.105 5.16248 16.0503C5.1518 15.9957 5.15215 15.9393 5.16351 15.8848C5.17889 15.8206 5.20674 15.7606 5.24527 15.7085C5.28379 15.6565 5.33213 15.6136 5.38717 15.5826C6.07536 15.1467 6.69474 14.7548 7.34337 14.3794C7.40117 14.3405 7.46647 14.316 7.53439 14.3078C7.60231 14.2996 7.6711 14.3077 7.73564 14.3317C7.78697 14.357 7.83205 14.3946 7.8673 14.4417C7.90255 14.4887 7.92698 14.5439 7.93865 14.6028C7.94886 14.7115 7.92722 14.8209 7.87671 14.916C7.82619 15.0111 7.74927 15.0872 7.65649 15.1339C7.01819 15.5314 6.44011 15.8885 5.84826 16.2328C5.74728 16.3064 5.62969 16.3501 5.5076 16.3592ZM7.58423 14.3995C7.50908 14.4023 7.43576 14.4249 7.37089 14.4654C6.72399 14.8317 6.10461 15.2292 5.41814 15.6651C5.37413 15.6892 5.33534 15.7228 5.30424 15.7638C5.27313 15.8048 5.2504 15.8523 5.23749 15.9032C5.23053 15.9454 5.23231 15.9888 5.24271 16.0302C5.25311 16.0716 5.27188 16.1102 5.2977 16.1431C5.40265 16.2951 5.56094 16.3024 5.79148 16.1651C6.38161 15.8134 6.95798 15.4563 7.598 15.0662C7.67542 15.0291 7.73996 14.967 7.78255 14.8889C7.82514 14.8107 7.84363 14.7202 7.83543 14.6303C7.82654 14.5861 7.80828 14.5446 7.78204 14.509C7.7558 14.4735 7.72227 14.4448 7.68402 14.4251C7.65473 14.4108 7.62327 14.4021 7.59112 14.3995H7.58423Z" fill="#102A66"/>
<path d="M14.0498 4.72373C12.9231 4.71684 11.8198 5.06637 10.8799 5.72797C9.93997 6.38957 9.20586 7.33344 8.77063 8.43984C8.33541 9.54624 8.2187 10.7653 8.43531 11.9424C8.65191 13.1196 9.19206 14.2017 9.98726 15.0515C10.7824 15.9013 11.7968 16.4806 12.9018 16.7158C14.0067 16.9511 15.1523 16.8316 16.1934 16.3727C17.2344 15.9138 18.124 15.136 18.7492 14.1381C19.3744 13.1402 19.7071 11.9671 19.7051 10.7676C19.7006 9.17028 19.104 7.63936 18.0451 6.50763C16.9861 5.3759 15.5504 4.73483 14.0498 4.72373ZM14.0034 16.0789C13.017 16.0768 12.0534 15.7634 11.2342 15.1785C10.4151 14.5935 9.77719 13.7633 9.40114 12.7926C9.02508 11.8219 8.92775 10.7543 9.12143 9.72472C9.31511 8.69516 9.79112 7.7498 10.4893 7.0081C11.1875 6.2664 12.0765 5.76164 13.0441 5.55759C14.0117 5.35354 15.0144 5.45936 15.9255 5.86168C16.8366 6.26401 17.6152 6.94477 18.163 7.81797C18.7108 8.69117 19.0031 9.71762 19.0031 10.7676C19.0038 11.4665 18.8749 12.1587 18.6238 12.8044C18.3728 13.4502 18.0044 14.0368 17.5399 14.5307C17.0755 15.0247 16.524 15.4161 15.9171 15.6828C15.3102 15.9494 14.6599 16.0859 14.0034 16.0844V16.0789Z" fill="#102A66" stroke="#102A66" stroke-width="0.5" stroke-miterlimit="10"/>
</svg>
