<svg width="215" height="500" viewBox="0 0 215 500" fill="none" xmlns="http://www.w3.org/2000/svg">
<path d="M356.5 33.8L315.9 4.4L262.6 35L214.1 0L164.9 35.6L105.8 3.2L70.6 33.1L0 3.5V284.2C0 365.4 45.5 439.8 117.9 476.7C147.9 492 181.1 500 214.8 499.9C221.1 499.9 227.3 499.6 233.5 499.1C259.6 496.8 285.1 489.8 308.6 478.2C335.5 465 359.4 446.3 378.7 423.3C390.2 409.7 399.9 394.7 407.7 378.8C422.1 349.3 429.5 317 429.5 284.2V3.7L356.5 33.8ZM311.1 32.1L343.7 55.5L291.8 76.9L265.8 58.2L311.1 32.1ZM214.1 28.4L285 79.7L325.9 109.3L331.9 113.5L367.4 139.1V180.6L295.2 128.5L289.3 124.2L248.7 94.8L214.8 70.3L180.5 95.2L143.4 79.6L214.1 28.4ZM338.5 110.8L367.4 98.9V131.6L338.5 110.8ZM96.7 113.1L134 128.5L62 180.5V138.3L96.7 113.1ZM62.1 130.8V98.9L90.1 110.4L62.1 130.8ZM140.8 131.2L214.1 161.3L288.4 131.1H288.5L367.4 188V284C367 340 336.3 391.3 287.2 418.1C233.4 447.4 167.3 441.4 119.6 403C83.5 374.1 62.3 330.3 62.2 284V188.2L140.8 131.2ZM242 97.4L214.1 109.2L187 97.8L214.8 77.8L242 97.4ZM111.5 31.2L161.7 58.7L136.6 76.7L83.7 54.8L111.5 31.2ZM408.8 286.5C408.8 331.7 393.2 375.5 364.5 410.4C360.9 414.8 357.1 419.1 353 423.1C303.8 472.5 232 492 164.7 474.1C148.7 469.8 133.3 463.5 118.9 455.4C107 448.7 95.9 440.7 85.7 431.7C83.4 429.7 81.2 427.7 79 425.5C76.8 423.3 74.3 420.9 72.2 418.4C69.8 415.8 67.4 413.1 65.2 410.4C63.2 407.9 61.2 405.5 59.4 403.1C34.3 369.5 20.8 328.6 20.8 286.6V35L131 81L181.3 102L214.2 115.8L248 101.8L282.6 126.8L214.2 154.7L56 89.9V284C56.4 345.5 92 401.3 147.6 427.6C198.8 451.8 259.1 446.6 305.4 414C328.2 398 346.5 376.3 358.4 351.1C368.3 330.1 373.5 307.1 373.5 283.9V89.9L332.7 106.6H332.6L297.6 81.3L408.8 35V286.5Z" fill="#BD944E" fill-opacity="0.2"/>
</svg>
