<svg width="26" height="23" viewBox="0 0 26 23" fill="none" xmlns="http://www.w3.org/2000/svg">
<path d="M12.906 23C12.8009 23 12.7033 22.9678 12.6057 22.9113C12.4555 22.8146 -2.1021 13.3844 0.780895 4.63933C1.68183 1.90699 3.64887 0.222454 6.17149 0.0209541C8.74667 -0.180546 11.3819 1.18965 12.8985 3.43839C14.4151 1.18965 17.0503 -0.188606 19.6255 0.0209541C22.1481 0.222454 24.1151 1.90699 25.0236 4.63933C27.9141 13.3925 13.349 22.8227 13.1988 22.9113C13.1087 22.9758 13.0111 23 12.906 23ZM6.69704 1.25413C6.55439 1.25413 6.41174 1.26219 6.2691 1.27025C4.19694 1.43145 2.64283 2.77747 1.88454 5.05845C1.33647 6.71075 1.51666 8.57261 2.41759 10.5795C3.17588 12.2641 4.43719 14.0615 6.17149 15.9072C8.88932 18.8169 11.9525 20.9931 12.906 21.6379C13.8595 20.9931 16.9227 18.8169 19.6405 15.9072C21.3748 14.0534 22.6361 12.2641 23.3944 10.5795C24.2953 8.57261 24.4755 6.71881 23.9274 5.05845C23.1767 2.78553 21.6225 1.43951 19.5429 1.27025C17.0953 1.07681 14.5802 2.57597 13.4165 4.91337C13.3189 5.11487 13.1162 5.24383 12.8985 5.24383C12.6808 5.24383 12.4856 5.11487 12.3804 4.91337C11.2993 2.71299 9.00193 1.25413 6.69704 1.25413Z" fill="#102A66"/>
</svg>
