<svg xmlns="http://www.w3.org/2000/svg" fill ="#1f3770" viewBox="0 0 477.17 890.09"><g id="Laag_2" data-name="Laag 2"><g id="Laag_1-2" data-name="Laag 1"><path d="M.08,879.82c-.44-1.24,1-4.05,2.4-4.85C9.61,870.8,13.42,864,17.37,857.25,51.32,799,79.38,738,103.08,675c1.16-3.1,1.7-8,6.51-6.38s2.54,5.74,1.42,8.93c-15.13,42.94-34.55,84-54.52,124.83-8.33,17-17.34,33.69-26,50.51.15.25.3.51.46.76,7.52-6.47,15.23-12.72,22.53-19.43,54.72-50.31,102.72-106.4,146.29-166.62,55.67-76.91,100.84-159.77,142.35-244.82,43-88.17,77.92-179.44,102.69-274.46A896.79,896.79,0,0,0,467.83,26.8c.83-7,.14-14.25.61-21.36.12-1.87,1.95-3.63,3-5.44,1.65,1.29,4.38,2.34,4.74,3.92a42.32,42.32,0,0,1,.88,12.35C474,55,466.75,93.08,457.67,130.78c-25,104-62.94,203.34-109.81,299.34-32.59,66.75-67.3,132.36-108.25,194.42-50.38,76.35-106.79,147.83-174.28,210C51.17,847.59,35.75,859.26,21,871.65c-2.84,2.39-5.38,5.17-8,7.78.21.37.44.75.65,1.13a14,14,0,0,0,3-.1c60.66-15.18,119-36.51,173.57-67.18,19.56-11,38.46-23.15,57.71-34.69a17.5,17.5,0,0,1,6.83-2.76c1.52-.16,4.1,1.2,4.6,2.51s-.83,3.9-2.13,4.72c-61.14,38.48-124.28,72.81-194.12,93.16-15.81,4.6-31.75,8.77-47.61,13.22C6.23,892,2.37,886.47.08,879.82Z"/></g></g></svg>