<svg xmlns="http://www.w3.org/2000/svg" viewBox="0 0 27 35.1" fill="#009FE3"><g id="Laag_2" data-name="Laag 2"><g id="Laag_1-2" data-name="Laag 1"><path id="Icon_awesome-pinterest-p" data-name="Icon awesome-pinterest-p" d="M14.34,0C7.13,0,0,4.81,0,12.59c0,4.95,2.78,7.77,4.47,7.77.7,0,1.1-1.95,1.1-2.49S3.91,15.82,3.91,13.1a9.49,9.49,0,0,1,9.33-9.66h.53c4.79,0,8.34,2.72,8.34,7.72,0,3.74-1.5,10.74-6.35,10.74a3.12,3.12,0,0,1-3.25-3v-.09c0-2.66,1.85-5.23,1.85-8,0-4.66-6.6-3.81-6.6,1.81a8.29,8.29,0,0,0,.68,3.57c-1,4.17-2.95,10.4-2.95,14.7,0,1.32.19,2.63.31,4,.24.27.12.24.49.11,3.54-4.86,3.41-5.81,5-12.16.86,1.65,3.1,2.53,4.87,2.53C23.65,25.38,27,18.1,27,11.54,27,4.56,21,0,14.34,0Z"/></g></g></svg>