<svg width="24" height="20" viewBox="0 0 24 20" fill="none" xmlns="http://www.w3.org/2000/svg">
<path d="M22.6709 17.68H14.88V19.6H22.7506C22.9241 19.6085 23.0952 19.5572 23.2353 19.4545C23.3754 19.3518 23.4759 19.204 23.52 19.036V18.5704C23.52 18.5704 23.5142 17.68 22.6709 17.68ZM21.5933 17.3008C22.1047 17.3 22.5949 17.0963 22.9562 16.7343C23.3175 16.3723 23.5203 15.8817 23.52 15.3702C23.52 14.3013 22.656 13.4392 21.5933 13.4392C21.3402 13.4396 21.0897 13.4899 20.8561 13.5872C20.6224 13.6845 20.4103 13.8269 20.2317 14.0063C20.0531 14.1856 19.9116 14.3984 19.8153 14.6324C19.719 14.8664 19.6698 15.1172 19.6704 15.3702C19.6704 16.4354 20.532 17.3008 21.5933 17.3008ZM17.5354 17.2C18.5462 17.2 19.3594 16.4877 19.3594 15.4782C19.3589 14.4707 18.5429 13.9422 17.5397 13.9346L14.88 14.2715V17.2H17.5354ZM8.89104 4.68784C10.0714 4.68784 11.0261 3.72784 11.0261 2.54368C11.0261 1.35952 10.0714 0.400002 8.89104 0.400002C7.71168 0.400002 6.75552 1.35952 6.75552 2.54368C6.75552 3.72784 7.71168 4.68784 8.89104 4.68784ZM6.71088 11.6267L6.69168 11.5989L5.724 9.34576L5.72256 13.84H8.61456L9.24624 13.168L7.53312 12.5085C7.12704 12.3558 6.83856 12.0102 6.71088 11.6267ZM7.32384 11.4246C7.41744 11.6349 7.59072 11.8053 7.80864 11.8835L11.1096 13.107C11.2102 13.1513 11.3185 13.1753 11.4283 13.1775C11.5382 13.1798 11.6474 13.1604 11.7497 13.1203C11.852 13.0803 11.9454 13.0204 12.0245 12.9441C12.1037 12.8679 12.1669 12.7768 12.2107 12.676C12.3001 12.4718 12.305 12.2405 12.2244 12.0327C12.1439 11.8248 11.9843 11.6573 11.7806 11.5667L8.73504 10.4166L7.79424 8.16016L8.40768 7.93168L9.20496 9.86512L11.52 10.7234V8.3608L12.7488 9.09184L13.3613 12.1773C13.3966 12.2817 13.4522 12.378 13.5249 12.4608C13.5976 12.5436 13.6861 12.6111 13.7851 12.6595C13.8841 12.7079 13.9917 12.7362 14.1017 12.7427C14.2117 12.7492 14.3219 12.7339 14.4259 12.6976C14.6354 12.6231 14.8071 12.4689 14.9037 12.2686C15.0003 12.0683 15.014 11.838 14.9419 11.6277L14.2555 8.656C14.2106 8.49149 14.1164 8.34463 13.9858 8.23504C13.6339 7.84528 11.8546 5.85568 11.7278 5.72272C11.5421 5.53648 11.1173 5.2 10.3147 5.2H7.43472C5.79792 5.2 5.48304 6.8704 5.8176 7.72L7.32384 11.4246ZM14.4 14.32H1.42416C0.95184 14.32 0.48 14.5864 0.48 15.1725V19.6H14.4V14.32Z" fill="#102A66"/>
</svg>
