<svg width="24" height="24" viewBox="0 0 24 24" fill="none" xmlns="http://www.w3.org/2000/svg">
<path d="M10.85 6.594C10.957 6.368 11.074 6.144 11.203 5.922L11.23 5.876L11.245 5.85C11.472 5.466 11.723 5.108 11.993 4.775C13.043 3.485 14.388 2.595 15.763 2.213C15.7677 2.21133 15.7723 2.20966 15.777 2.208C17.081 1.848 18.411 1.943 19.547 2.579L19.577 2.597C22.223 4.107 22.789 8.014 20.842 11.33C19.121 14.26 16.012 15.749 13.481 15.024L17 21.01L15.256 22L12 16.462L8.748 22L7 21.008L11.326 13.644C10.432 12.604 10.002 11.158 10.08 9.604C10.1388 8.56019 10.4003 7.53781 10.85 6.594ZM17.788 4.049V11.965C18.3085 11.4967 18.752 10.9494 19.102 10.343C20.725 7.58 19.892 5.075 18.554 4.316C18.3158 4.18397 18.0567 4.09366 17.788 4.049ZM16.779 12.674V4.036C16.132 4.123 15.432 4.386 14.761 4.861V13.201C15.384 13.211 16.085 13.048 16.779 12.674ZM12.761 12.197C12.911 12.402 13.079 12.577 13.261 12.717C13.4077 12.8315 13.5687 12.9263 13.74 12.999L13.752 13.004V5.774C13.4569 6.11122 13.1947 6.47587 12.969 6.863L12.954 6.889L12.931 6.928C12.871 7.032 12.814 7.137 12.761 7.241C11.717 9.279 11.986 11.136 12.761 12.197Z" fill="#102A66"/>
<path d="M9.42201 5.00601C8.69401 4.43901 7.92001 4.13001 7.21101 4.03601V12.643C7.71101 12.912 8.21401 13.072 8.68801 13.136C8.77157 13.3331 8.864 13.5263 8.96501 13.715L8.16601 15.075C6.26601 14.713 4.36701 13.366 3.15601 11.306C1.21001 7.99501 1.78001 4.09201 4.42801 2.59001C6.27001 1.54501 8.63301 1.93601 10.556 3.38501C10.1279 3.88817 9.74826 4.43057 9.42201 5.00501V5.00601ZM4.89601 10.32C5.24457 10.9233 5.68598 11.468 6.20401 11.934V4.04801C5.92101 4.09801 5.66401 4.18801 5.44201 4.31401C4.10801 5.07001 3.27701 7.56501 4.89601 10.32Z" fill="#102A66"/>
</svg>
