<svg width="24" height="17" viewBox="0 0 24 17" fill="none" xmlns="http://www.w3.org/2000/svg">
<path d="M23.8091 4.808C17.1652 -1.33713 6.83212 -1.33488 0.190874 4.808C-0.0588764 5.039 -0.0637514 5.43012 0.177749 5.66975L1.46175 6.94362C1.692 7.17237 2.0625 7.17725 2.30175 6.95787C7.77375 1.94487 16.2255 1.94375 21.6986 6.95787C21.9379 7.17725 22.3084 7.172 22.5386 6.94362L23.8226 5.66975C24.0637 5.43012 24.0589 5.039 23.8091 4.808ZM12 12.2C10.6744 12.2 9.6 13.2744 9.6 14.6C9.6 15.9256 10.6744 17 12 17C13.3256 17 14.4 15.9256 14.4 14.6C14.4 13.2744 13.3256 12.2 12 12.2ZM19.6001 9.06537C15.2779 5.243 8.71725 5.24712 4.39987 9.06537C4.14112 9.29412 4.13287 9.69125 4.3785 9.9335L5.67 11.2081C5.895 11.4301 6.25725 11.4451 6.49687 11.2381C9.645 8.51675 14.3621 8.52275 17.5027 11.2381C17.7424 11.4451 18.1046 11.4305 18.3296 11.2081L19.6211 9.9335C19.8671 9.69125 19.8585 9.29375 19.6001 9.06537Z" fill="#102A66"/>
</svg>
